<?xml version="1.0" encoding="UTF-8"?>
<svg id="Layer_1" xmlns="http://www.w3.org/2000/svg" version="1.1" viewBox="0 0 441.08 197.15">
  <!-- Generator: Adobe Illustrator 29.8.6, SVG Export Plug-In . SVG Version: 2.1.1 Build 1)  -->
  <defs>
    <style>
      .st0 {
        fill: none;
        stroke: #231f20;
        stroke-linecap: round;
        stroke-linejoin: round;
      }
    </style>
  </defs>
  <polygon class="st0" points="11.34 23.94 59.9 23.94 77.2 173.52 11.34 173.52 11.34 23.94"/>
  <path class="st0" d="M77.2,53.24"/>
  <polygon class="st0" points="414.11 53.24 77.2 53.24 92.83 144.5 429.74 144.5 414.11 53.24"/>
  <polygon class="st0" points="59.9 23.94 77.2 53.24 92.83 144.5 77.2 173.52 59.9 23.94"/>
  <polygon class="st0" points="93.94 22.82 110.41 175.19 113.48 175.19 97.01 22.82 93.94 22.82"/>
  <polygon class="st0" points="131.22 22.82 147.69 175.19 150.76 175.19 134.29 22.82 131.22 22.82"/>
  <polygon class="st0" points="167.5 22.54 183.97 174.91 187.04 174.91 170.57 22.54 167.5 22.54"/>
  <polygon class="st0" points="205 22.54 221.47 174.91 224.54 174.91 208.07 22.54 205 22.54"/>
  <polygon class="st0" points="242.5 22.54 258.97 174.91 262.04 174.91 245.57 22.54 242.5 22.54"/>
  <polygon class="st0" points="93.94 22.82 80.27 53.24 95.62 144.5 110.41 175.19 93.94 22.82"/>
  <polygon class="st0" points="131.22 22.82 117.54 53.24 132.89 144.5 147.68 175.19 131.22 22.82"/>
  <polygon class="st0" points="167.57 22.82 153.89 53.24 169.24 144.5 184.03 175.19 167.57 22.82"/>
  <polygon class="st0" points="205.23 22.54 191.55 52.96 206.9 144.22 221.69 174.91 205.23 22.54"/>
  <polygon class="st0" points="242.89 22.82 229.21 53.24 244.56 144.5 259.35 175.19 242.89 22.82"/>
  <polyline class="st0" points="97.01 22.82 113.48 53.24 129.39 144.5 113.48 175.19"/>
  <polyline class="st0" points="134.57 22.82 151.04 53.24 166.94 144.5 151.04 175.19"/>
  <polyline class="st0" points="170.85 22.82 187.32 53.24 203.22 144.5 187.32 175.19"/>
  <polyline class="st0" points="208.35 22.82 224.82 53.24 240.72 144.5 224.82 175.19"/>
  <polyline class="st0" points="245.85 22.54 262.32 52.96 278.22 144.22 262.32 174.91"/>
  <polygon class="st0" points="279.53 22.54 296 174.91 299.07 174.91 282.6 22.54 279.53 22.54"/>
  <polygon class="st0" points="279.52 22.54 265.84 52.96 281.19 144.22 295.98 174.91 279.52 22.54"/>
  <polyline class="st0" points="282.88 22.54 299.34 52.96 315.25 144.22 299.34 174.91"/>
  <polygon class="st0" points="316.29 22.4 332.76 174.77 335.83 174.77 319.36 22.4 316.29 22.4"/>
  <polygon class="st0" points="353.79 22.4 370.26 174.77 373.33 174.77 356.86 22.4 353.79 22.4"/>
  <polygon class="st0" points="316.52 22.4 302.84 52.82 318.19 144.08 332.98 174.77 316.52 22.4"/>
  <polygon class="st0" points="354.18 22.68 340.5 53.1 355.85 144.36 370.64 175.05 354.18 22.68"/>
  <polyline class="st0" points="319.64 22.68 336.11 53.1 352.01 144.36 336.11 175.05"/>
  <polyline class="st0" points="357.14 22.4 373.61 52.82 389.52 144.08 373.61 174.77"/>
  <polygon class="st0" points="390.82 22.4 407.29 174.77 410.36 174.77 393.89 22.4 390.82 22.4"/>
  <polygon class="st0" points="390.81 22.4 377.13 52.82 392.48 144.08 407.27 174.77 390.81 22.4"/>
  <polyline class="st0" points="394.17 22.4 410.64 52.82 426.54 144.08 410.64 174.77"/>
</svg>