<?xml version="1.0" encoding="UTF-8"?>
<svg id="Layer_1" xmlns="http://www.w3.org/2000/svg" version="1.1" viewBox="0 0 441.08 197.15">
  <!-- Generator: Adobe Illustrator 29.8.6, SVG Export Plug-In . SVG Version: 2.1.1 Build 1)  -->
  <defs>
    <style>
      .st0 {
        fill: none;
        stroke: #231f20;
        stroke-linecap: round;
        stroke-linejoin: round;
      }
    </style>
  </defs>
  <polygon class="st0" points="10.82 23.85 46.67 23.85 59.45 173.43 10.82 173.43 10.82 23.85"/>
  <path class="st0" d="M59.45,53.16"/>
  <polygon class="st0" points="419.1 53.16 59.45 53.16 70.99 144.41 430.26 144.41 419.1 53.16"/>
  <polygon class="st0" points="46.67 23.85 59.45 53.16 70.99 144.41 59.45 173.43 46.67 23.85"/>
  <polygon class="st0" points="71.81 22.74 83.97 175.11 86.24 175.11 74.08 22.74 71.81 22.74"/>
  <polygon class="st0" points="99.34 22.74 111.5 175.11 113.76 175.11 101.61 22.74 99.34 22.74"/>
  <polygon class="st0" points="126.13 22.46 138.28 174.83 140.55 174.83 128.39 22.46 126.13 22.46"/>
  <polygon class="st0" points="153.82 22.46 165.97 174.83 168.24 174.83 156.08 22.46 153.82 22.46"/>
  <polygon class="st0" points="181.51 22.46 193.66 174.83 195.93 174.83 183.77 22.46 181.51 22.46"/>
  <polygon class="st0" points="71.81 22.74 61.72 53.16 73.05 144.41 83.97 175.11 71.81 22.74"/>
  <polygon class="st0" points="99.34 22.74 89.24 53.16 100.57 144.41 111.49 175.11 99.34 22.74"/>
  <polygon class="st0" points="126.18 22.74 116.08 53.16 127.41 144.41 138.33 175.11 126.18 22.74"/>
  <polygon class="st0" points="153.98 22.46 143.89 52.88 155.22 144.13 166.14 174.83 153.98 22.46"/>
  <polygon class="st0" points="181.79 22.74 171.69 53.16 183.03 144.41 193.95 175.11 181.79 22.74"/>
  <polyline class="st0" points="74.08 22.74 86.24 53.16 97.98 144.41 86.24 175.11"/>
  <polyline class="st0" points="101.81 22.74 113.97 53.16 125.71 144.41 113.97 175.11"/>
  <polyline class="st0" points="128.6 22.74 140.76 53.16 152.5 144.41 140.76 175.11"/>
  <polyline class="st0" points="156.29 22.74 168.45 53.16 180.19 144.41 168.45 175.11"/>
  <polyline class="st0" points="183.98 22.46 196.14 52.88 207.88 144.13 196.14 174.83"/>
  <polygon class="st0" points="208.85 22.46 221 174.83 223.27 174.83 211.11 22.46 208.85 22.46"/>
  <polygon class="st0" points="208.84 22.46 198.74 52.88 210.07 144.13 220.99 174.83 208.84 22.46"/>
  <polyline class="st0" points="211.32 22.46 223.48 52.88 235.22 144.13 223.48 174.83"/>
  <polygon class="st0" points="236.04 22.18 248.2 174.55 250.47 174.55 238.31 22.18 236.04 22.18"/>
  <polygon class="st0" points="263.73 22.18 275.89 174.55 278.16 174.55 266 22.18 263.73 22.18"/>
  <polygon class="st0" points="236.21 22.18 226.11 52.6 237.44 143.85 248.37 174.55 236.21 22.18"/>
  <polygon class="st0" points="264.02 22.46 253.92 52.88 265.25 144.13 276.17 174.83 264.02 22.46"/>
  <polyline class="st0" points="238.52 22.46 250.67 52.88 262.42 144.13 250.67 174.83"/>
  <polyline class="st0" points="266.21 22.18 278.36 52.6 290.11 143.85 278.36 174.55"/>
  <polygon class="st0" points="291.07 22.18 303.23 174.55 305.5 174.55 293.34 22.18 291.07 22.18"/>
  <polygon class="st0" points="291.06 22.18 280.97 52.6 292.3 143.85 303.22 174.55 291.06 22.18"/>
  <polyline class="st0" points="293.55 22.18 305.7 52.6 317.45 143.85 305.7 174.55"/>
  <polygon class="st0" points="319.2 22.32 331.36 174.69 333.63 174.69 321.47 22.32 319.2 22.32"/>
  <polygon class="st0" points="319.19 22.32 309.1 52.74 320.43 143.99 331.35 174.69 319.19 22.32"/>
  <polyline class="st0" points="321.68 22.32 333.83 52.74 345.58 143.99 333.83 174.69"/>
  <polygon class="st0" points="346.4 22.04 358.56 174.41 360.82 174.41 348.67 22.04 346.4 22.04"/>
  <polygon class="st0" points="374.09 22.04 386.25 174.41 388.51 174.41 376.36 22.04 374.09 22.04"/>
  <polygon class="st0" points="346.56 22.04 336.47 52.46 347.8 143.71 358.72 174.41 346.56 22.04"/>
  <polygon class="st0" points="374.37 22.32 364.27 52.74 375.61 143.99 386.53 174.69 374.37 22.32"/>
  <polyline class="st0" points="348.87 22.32 361.03 52.74 372.77 143.99 361.03 174.69"/>
  <polyline class="st0" points="376.56 22.04 388.72 52.46 400.46 143.71 388.72 174.41"/>
  <polygon class="st0" points="401.43 22.04 413.59 174.41 415.85 174.41 403.7 22.04 401.43 22.04"/>
  <polygon class="st0" points="401.42 22.04 391.32 52.46 402.66 143.71 413.58 174.41 401.42 22.04"/>
  <polyline class="st0" points="403.9 22.04 416.06 52.46 427.8 143.71 416.06 174.41"/>
</svg>