<?xml version="1.0" encoding="UTF-8"?>
<svg id="Layer_1" xmlns="http://www.w3.org/2000/svg" version="1.1" viewBox="0 0 441.08 197.15">
  <!-- Generator: Adobe Illustrator 29.8.6, SVG Export Plug-In . SVG Version: 2.1.1 Build 1)  -->
  <defs>
    <style>
      .st0 {
        fill: none;
        stroke: #231f20;
        stroke-linecap: round;
        stroke-linejoin: round;
      }
    </style>
  </defs>
  <rect class="st0" x="113.91" y="4.28" width="54.85" height="188.54" transform="translate(282.67 197.09) rotate(180)"/>
  <polygon class="st0" points="168.76 173.11 172.39 173.11 178.29 22.01 168.76 22.01 168.76 173.11"/>
  <polyline class="st0" points="172.39 173.11 183.21 185.92 195.37 173.11 203.58 181.32 214.09 169.82 224.27 177.87 236.75 166.54 246.61 176.23 258.76 164.24 266.65 173.11 279.46 162.27 288.65 171.8 300.81 160.3 310.33 169.17 321.17 160.3 321.17 35.48 314.93 27.93 306.39 35.81 293.91 24.97 285.04 34.17 271.9 22.01 263.69 30.55 251.86 19.71 241.68 29.24 228 18.07 219.67 26.28 207.85 15.44 199.97 23.66 187.81 11.5 178.29 22.01"/>
  <line class="st0" x1="310.33" y1="169.17" x2="314.93" y2="27.93"/>
  <line class="st0" x1="288.65" y1="171.8" x2="293.91" y2="24.97"/>
  <line class="st0" x1="266.65" y1="173.11" x2="271.9" y2="22.01"/>
  <line class="st0" x1="246.61" y1="176.23" x2="251.86" y2="19.71"/>
  <line class="st0" x1="224.27" y1="177.87" x2="228" y2="18.07"/>
  <line class="st0" x1="203.58" y1="181.32" x2="207.85" y2="15.44"/>
  <line class="st0" x1="183.21" y1="185.92" x2="187.81" y2="11.5"/>
  <line class="st0" x1="195.37" y1="173.11" x2="199.97" y2="23.66"/>
  <line class="st0" x1="214.09" y1="169.82" x2="219.67" y2="26.28"/>
  <line class="st0" x1="236.75" y1="166.54" x2="241.68" y2="29.24"/>
  <line class="st0" x1="258.76" y1="164.24" x2="263.69" y2="30.55"/>
  <line class="st0" x1="279.46" y1="162.27" x2="285.04" y2="34.17"/>
  <line class="st0" x1="300.81" y1="160.3" x2="306.39" y2="35.81"/>
</svg>