<?xml version="1.0" encoding="UTF-8"?>
<svg id="Layer_1" xmlns="http://www.w3.org/2000/svg" version="1.1" viewBox="0 0 441.08 197.15">
  <!-- Generator: Adobe Illustrator 29.8.6, SVG Export Plug-In . SVG Version: 2.1.1 Build 1)  -->
  <defs>
    <style>
      .st0 {
        fill: none;
        stroke: #231f20;
        stroke-linecap: round;
        stroke-linejoin: round;
      }
    </style>
  </defs>
  <polygon class="st0" points="420.22 166.05 25.8 166.05 25.8 29.86 408.17 29.86 420.22 166.05"/>
  <polygon class="st0" points="63.47 11.59 76.42 183.28 80.84 183.28 67.89 11.59 63.47 11.59"/>
  <polygon class="st0" points="91.37 12.1 104.32 183.8 108.74 183.8 95.79 12.1 91.37 12.1"/>
  <polygon class="st0" points="117.12 12.1 130.07 183.8 134.48 183.8 121.53 12.1 117.12 12.1"/>
  <polyline class="st0" points="76.42 183.28 68.77 166.05 55.23 29.86 63.47 11.59"/>
  <polyline class="st0" points="104.61 183.8 96.95 166.56 83.41 30.37 91.66 12.1"/>
  <polyline class="st0" points="130.65 183.28 123 166.05 109.46 29.86 117.7 11.59"/>
  <polygon class="st0" points="144.64 12.36 157.59 184.06 162 184.06 149.05 12.36 144.64 12.36"/>
  <polyline class="st0" points="158.18 183.54 150.52 166.3 136.98 30.12 145.23 11.85"/>
  <polygon class="st0" points="172.16 12.62 185.11 184.32 189.52 184.32 176.57 12.62 172.16 12.62"/>
  <polyline class="st0" points="185.7 183.8 178.05 166.56 164.51 30.37 172.75 12.1"/>
  <polygon class="st0" points="198.46 12.36 211.41 184.06 215.82 184.06 202.87 12.36 198.46 12.36"/>
  <polyline class="st0" points="211.99 183.54 204.34 166.3 190.8 30.12 199.04 11.85"/>
  <polygon class="st0" points="226.14 12.36 239.09 184.06 243.51 184.06 230.56 12.36 226.14 12.36"/>
  <polyline class="st0" points="239.68 183.54 232.03 166.3 218.49 30.12 226.73 11.85"/>
  <polygon class="st0" points="252.56 12.1 265.51 183.8 269.92 183.8 256.97 12.1 252.56 12.1"/>
  <polyline class="st0" points="266.1 183.28 258.44 166.05 244.9 29.86 253.15 11.59"/>
  <polygon class="st0" points="280.25 12.88 293.2 184.57 297.62 184.57 284.67 12.88 280.25 12.88"/>
  <polyline class="st0" points="293.79 184.06 286.14 166.82 272.6 30.63 280.84 12.36"/>
  <polygon class="st0" points="307.62 12.1 320.57 183.8 324.99 183.8 312.03 12.1 307.62 12.1"/>
  <polyline class="st0" points="320.28 183.28 312.62 166.05 299.08 29.86 307.33 11.59"/>
  <polyline class="st0" points="67.89 11.59 76.42 29.86 89.08 166.05 80.84 183.28"/>
  <polyline class="st0" points="96.11 12.1 104.64 30.37 117.3 166.56 109.06 183.8"/>
  <polyline class="st0" points="121.29 12.1 129.83 30.37 142.48 166.56 134.24 183.8"/>
  <polyline class="st0" points="148.5 11.85 157.03 30.12 169.69 166.3 161.45 183.54"/>
  <polyline class="st0" points="176.96 12.62 185.5 30.89 198.15 167.08 189.91 184.32"/>
  <polyline class="st0" points="203.05 12.1 211.59 30.37 224.24 166.56 216 183.8"/>
  <polyline class="st0" points="230.59 12.62 239.13 30.89 251.78 167.08 243.54 184.32"/>
  <polyline class="st0" points="256.95 12.1 265.49 30.37 278.14 166.56 269.9 183.8"/>
  <polyline class="st0" points="284.71 13.1 293.25 31.37 305.91 167.56 297.67 184.8"/>
  <polyline class="st0" points="311.96 12.36 320.5 30.63 333.15 166.82 324.91 184.06"/>
  <polygon class="st0" points="334.04 12.86 346.99 184.56 351.41 184.56 338.46 12.86 334.04 12.86"/>
  <polyline class="st0" points="347.58 184.04 339.93 166.8 326.39 30.62 334.63 12.35"/>
  <polygon class="st0" points="361.74 13.64 374.69 185.33 379.1 185.33 366.15 13.64 361.74 13.64"/>
  <polyline class="st0" points="375.28 184.82 367.62 167.58 354.08 31.39 362.33 13.12"/>
  <polygon class="st0" points="389.1 12.86 402.05 184.56 406.47 184.56 393.52 12.86 389.1 12.86"/>
  <polyline class="st0" points="401.76 184.04 394.11 166.8 380.57 30.62 388.81 12.35"/>
  <polyline class="st0" points="338.44 12.86 346.97 31.13 359.63 167.32 351.39 184.56"/>
  <polyline class="st0" points="366.2 13.86 374.73 32.13 387.39 168.32 379.15 185.56"/>
  <polyline class="st0" points="393.45 13.12 401.98 31.39 414.64 167.58 406.4 184.82"/>
</svg>