<?xml version="1.0" encoding="UTF-8"?>
<svg id="Layer_1" xmlns="http://www.w3.org/2000/svg" version="1.1" viewBox="0 0 441.08 197.15">
  <!-- Generator: Adobe Illustrator 29.8.6, SVG Export Plug-In . SVG Version: 2.1.1 Build 1)  -->
  <defs>
    <style>
      .st0 {
        fill: none;
        stroke: #231f20;
        stroke-linecap: round;
        stroke-linejoin: round;
      }
    </style>
  </defs>
  <polygon class="st0" points="418.92 166.42 22.16 166.42 22.16 30.24 402.92 30.24 418.92 166.42"/>
  <polygon class="st0" points="69.79 11.97 86.16 183.66 91.74 183.66 75.37 11.97 69.79 11.97"/>
  <polygon class="st0" points="105.05 12.48 121.43 184.18 127.01 184.18 110.63 12.48 105.05 12.48"/>
  <polygon class="st0" points="137.6 12.48 153.97 184.18 159.55 184.18 143.18 12.48 137.6 12.48"/>
  <polyline class="st0" points="86.16 183.66 76.48 166.42 59.37 30.24 69.79 11.97"/>
  <polyline class="st0" points="121.79 184.18 112.11 166.94 94.99 30.75 105.41 12.48"/>
  <polyline class="st0" points="154.72 183.66 145.04 166.42 127.92 30.24 138.34 11.97"/>
  <polygon class="st0" points="172.39 12.74 188.76 184.44 194.35 184.44 177.97 12.74 172.39 12.74"/>
  <polyline class="st0" points="189.51 183.92 179.83 166.68 162.72 30.5 173.14 12.23"/>
  <polygon class="st0" points="207.19 13 223.56 184.69 229.14 184.69 212.77 13 207.19 13"/>
  <polyline class="st0" points="224.3 184.18 214.63 166.94 197.51 30.75 207.93 12.48"/>
  <polygon class="st0" points="240.43 12.74 256.8 184.44 262.38 184.44 246.01 12.74 240.43 12.74"/>
  <polyline class="st0" points="257.55 183.92 247.87 166.68 230.76 30.5 241.17 12.23"/>
  <polygon class="st0" points="275.43 12.74 291.8 184.44 297.38 184.44 281.01 12.74 275.43 12.74"/>
  <polyline class="st0" points="292.55 183.92 282.87 166.68 265.76 30.5 276.17 12.23"/>
  <polygon class="st0" points="308.83 12.48 325.2 184.18 330.78 184.18 314.41 12.48 308.83 12.48"/>
  <polyline class="st0" points="325.94 183.66 316.27 166.42 299.15 30.24 309.57 11.97"/>
  <polygon class="st0" points="343.84 13.26 360.21 184.95 365.79 184.95 349.42 13.26 343.84 13.26"/>
  <polyline class="st0" points="360.95 184.44 351.28 167.2 334.16 31.01 344.58 12.74"/>
  <polygon class="st0" points="378.44 12.48 394.81 184.18 400.39 184.18 384.02 12.48 378.44 12.48"/>
  <polyline class="st0" points="394.44 183.66 384.76 166.42 367.65 30.24 378.06 11.97"/>
  <polyline class="st0" points="75.37 11.97 86.16 30.24 102.16 166.42 91.74 183.66"/>
  <polyline class="st0" points="111.04 12.48 121.83 30.75 137.83 166.94 127.41 184.18"/>
  <polyline class="st0" points="142.88 12.48 153.67 30.75 169.67 166.94 159.25 184.18"/>
  <polyline class="st0" points="177.27 12.23 188.06 30.5 204.06 166.68 193.64 183.92"/>
  <polyline class="st0" points="213.26 13 224.05 31.27 240.05 167.45 229.63 184.69"/>
  <polyline class="st0" points="246.24 12.48 257.03 30.75 273.03 166.94 262.61 184.18"/>
  <polyline class="st0" points="281.05 13 291.84 31.27 307.84 167.45 297.43 184.69"/>
  <polyline class="st0" points="314.38 12.48 325.17 30.75 341.17 166.94 330.75 184.18"/>
  <polyline class="st0" points="349.48 13.48 360.27 31.75 376.27 167.94 365.85 185.18"/>
  <polyline class="st0" points="383.92 12.74 394.72 31.01 410.72 167.2 400.3 184.44"/>
</svg>