<?xml version="1.0" encoding="utf-8"?>
<svg id="master-artboard" viewBox="0 0 2400 2400" version="1.1" xmlns="http://www.w3.org/2000/svg" x="0px" y="0px" style="enable-background:new 0 0 2400 2400;" width="2400px" height="2400px">

<path d="M 0 0 H 2400 V 2400 H 0 V 0 Z" class="st0" style="fill: rgb(247, 148, 30);" transform="matrix(1, 0, 0, 1, 0, 0)"/>
<path d="M1479.8,1706.2l0.9-2.5c0-32.2-22.7-59-52.9-65.5v27.7c0,2.2-1.8,4-4,4l-20.1,0c-2.2,0-4-1.8-4-4v-27.7&#10;&#9;&#9;c-30.2,6.4-52.9,33.3-52.9,65.5l0.9,2.5h32.3v14.1l-7.2,0.6c-1.7,0.1-2.9,1.6-2.7,3.2c0.1,1.7,1.6,2.9,3.2,2.7l6.6-0.6v22.4&#10;&#9;&#9;l-7.2,0.6c-1.7,0.1-2.9,1.6-2.7,3.2c0.1,1.7,1.6,2.9,3.2,2.7l6.6-0.6v22.4l-7.2,0.6c-1.7,0.1-2.9,1.6-2.7,3.2&#10;&#9;&#9;c0.1,1.7,1.6,2.9,3.2,2.7l6.6-0.6v22.4l-7.2,0.6c-1.7,0.1-2.9,1.6-2.7,3.2c0.1,1.7,1.6,2.9,3.2,2.7l6.6-0.6v22.4l-7.2,0.6&#10;&#9;&#9;c-1.7,0.1-2.9,1.6-2.7,3.2c0.1,1.7,1.6,2.9,3.2,2.7l6.6-0.6v22.4l-3.7,0.3c-1.7,0.1-2.9,1.6-2.7,3.2s1.6,2.9,3.2,2.7l3.1-0.3v1.1&#10;&#9;&#9;l2,3.4h63.5l2-3.4v-7l3.7-0.3c1.7-0.1,2.9-1.6,2.7-3.2c-0.1-1.7-1.6-2.9-3.2-2.7l-3.1,0.3V1834l7.2-0.6c1.7-0.1,2.9-1.6,2.7-3.2&#10;&#9;&#9;c-0.1-1.7-1.6-2.9-3.2-2.7l-6.6,0.6v-22.4l7.2-0.6c1.7-0.1,2.9-1.6,2.7-3.2c-0.1-1.7-1.6-2.9-3.2-2.7l-6.6,0.6v-22.4l7.2-0.6&#10;&#9;&#9;c1.7-0.1,2.9-1.6,2.7-3.2c-0.1-1.7-1.6-2.9-3.2-2.7l-6.6,0.6v-22.4l7.2-0.6c1.7-0.1,2.9-1.6,2.7-3.2c-0.1-1.7-1.6-2.9-3.2-2.7&#10;&#9;&#9;l-6.6,0.6v-22.4l7.2-0.6c1.7-0.1,2.9-1.6,2.7-3.2c-0.1-1.7-1.6-2.9-3.2-2.7l-6.6,0.6v-8.2H1479.8z" transform="matrix(1, 0, 0, 1, 0, 0)"/><g transform="matrix(1, 0, 0, 1, 0, 0)">
			<path d="M1447.8,1398.2h32l0.9-2.5c0-32.2-22.7-59-52.9-65.5v27.7c0,2.2-1.8,4-4,4h-20.1c-2.2,0-4-1.8-4-4v-27.7&#10;&#9;&#9;&#9;&#9;c-30.2,6.4-52.9,33.3-52.9,65.5l0.9,2.5h31.3l-3,0.3c-1.7,0.1-2.9,1.6-2.7,3.2c0.1,1.7,1.6,2.9,3.2,2.7l3.1-0.3v8.2l-3.7,0.3&#10;&#9;&#9;&#9;&#9;c-1.7,0.1-2.9,1.6-2.7,3.2s1.6,2.9,3.2,2.7l3.1-0.3v8.2l-3.7,0.3c-1.7,0.1-2.9,1.6-2.7,3.2s1.6,2.9,3.2,2.7l3.1-0.3v8.2l-3.7,0.3&#10;&#9;&#9;&#9;&#9;c-1.7,0.1-2.9,1.6-2.7,3.2c0.1,1.7,1.6,2.9,3.2,2.7l3.1-0.3v8.2l-3.7,0.3c-1.7,0.1-2.9,1.6-2.7,3.2s1.6,2.9,3.2,2.7l3.1-0.3v8.2&#10;&#9;&#9;&#9;&#9;l-3.7,0.3c-1.7,0.1-2.9,1.6-2.7,3.2s1.6,2.9,3.2,2.7l3.1-0.3v8.2l-3.7,0.3c-1.7,0.1-2.9,1.6-2.7,3.2c0.1,1.7,1.6,2.9,3.2,2.7&#10;&#9;&#9;&#9;&#9;l3.1-0.3v8.2l-3.7,0.3c-1.7,0.1-2.9,1.6-2.7,3.2s1.6,2.9,3.2,2.7l3.1-0.3v8.2l-3.7,0.3c-1.7,0.1-2.9,1.6-2.7,3.2s1.6,2.9,3.2,2.7&#10;&#9;&#9;&#9;&#9;l3.1-0.3v8.2l-3.7,0.3c-1.7,0.1-2.9,1.6-2.7,3.2c0.1,1.7,1.6,2.9,3.2,2.7l3.1-0.3v8.2l-3.7,0.3c-1.7,0.1-2.9,1.6-2.7,3.2&#10;&#9;&#9;&#9;&#9;s1.6,2.9,3.2,2.7l3.1-0.3v8.2l-3.7,0.3c-1.7,0.1-2.9,1.6-2.7,3.2s1.6,2.9,3.2,2.7l3.1-0.3v1.1l2,3.4h63.5l2-3.4v-7l3.7-0.3&#10;&#9;&#9;&#9;&#9;c1.7-0.1,2.9-1.6,2.7-3.2c-0.1-1.7-1.6-2.9-3.2-2.7l-3.1,0.3v-8.2l3.7-0.3c1.7-0.1,2.9-1.6,2.7-3.2s-1.6-2.9-3.2-2.7l-3.1,0.3&#10;&#9;&#9;&#9;&#9;v-8.2l3.7-0.3c1.7-0.1,2.9-1.6,2.7-3.2s-1.6-2.9-3.2-2.7l-3.1,0.3v-8.2l3.7-0.3c1.7-0.1,2.9-1.6,2.7-3.2&#10;&#9;&#9;&#9;&#9;c-0.1-1.7-1.6-2.9-3.2-2.7l-3.1,0.3v-8.2l3.7-0.3c1.7-0.1,2.9-1.6,2.7-3.2s-1.6-2.9-3.2-2.7l-3.1,0.3v-8.2l3.7-0.3&#10;&#9;&#9;&#9;&#9;c1.7-0.1,2.9-1.6,2.7-3.2s-1.6-2.9-3.2-2.7l-3.1,0.3v-8.2l3.7-0.3c1.7-0.1,2.9-1.6,2.7-3.2c-0.1-1.7-1.6-2.9-3.2-2.7l-3.1,0.3&#10;&#9;&#9;&#9;&#9;v-8.2l3.7-0.3c1.7-0.1,2.9-1.6,2.7-3.2c-0.1-1.7-1.6-2.9-3.2-2.7l-3.1,0.3v-8.2l3.7-0.3c1.7-0.1,2.9-1.6,2.7-3.2&#10;&#9;&#9;&#9;&#9;s-1.6-2.9-3.2-2.7l-3.1,0.3v-8.2l3.7-0.3c1.7-0.1,2.9-1.6,2.7-3.2c-0.1-1.7-1.6-2.9-3.2-2.7l-3.1,0.3v-8.2l3.7-0.3&#10;&#9;&#9;&#9;&#9;c1.7-0.1,2.9-1.6,2.7-3.2c-0.1-1.7-1.6-2.9-3.2-2.7l-3.1,0.3v-8.2L1447.8,1398.2z"/>
		</g><path d="M1447.8,601.1h32l0.9-2.5c0-32.2-22.7-59-52.9-65.5v27.7c0,2.2-1.8,4-4,4h-20.1c-2.2,0-4-1.8-4-4v-27.7&#10;&#9;&#9;c-30.2,6.4-52.9,33.3-52.9,65.5l0.9,2.5h31.3l-3,0.3c-1.7,0.1-2.9,1.6-2.7,3.2c0.1,1.7,1.6,2.9,3.2,2.7l3.1-0.3v8.2l-3.7,0.3&#10;&#9;&#9;c-1.7,0.1-2.9,1.6-2.7,3.2c0.1,1.7,1.6,2.9,3.2,2.7l3.1-0.3v8.2l-3.7,0.3c-1.7,0.1-2.9,1.6-2.7,3.2s1.6,2.9,3.2,2.7l3.1-0.3v8.2&#10;&#9;&#9;l-3.7,0.3c-1.7,0.1-2.9,1.6-2.7,3.2c0.1,1.7,1.6,2.9,3.2,2.7l3.1-0.3v8.2l-3.7,0.3c-1.7,0.1-2.9,1.6-2.7,3.2&#10;&#9;&#9;c0.1,1.7,1.6,2.9,3.2,2.7l3.1-0.3v8.2l-3.7,0.3c-1.7,0.1-2.9,1.6-2.7,3.2c0.1,1.7,1.6,2.9,3.2,2.7l3.1-0.3v8.2l-3.7,0.3&#10;&#9;&#9;c-1.7,0.1-2.9,1.6-2.7,3.2c0.1,1.7,1.6,2.9,3.2,2.7l3.1-0.3v8.2l-3.7,0.3c-1.7,0.1-2.9,1.6-2.7,3.2s1.6,2.9,3.2,2.7l3.1-0.3v8.2&#10;&#9;&#9;l-3.7,0.3c-1.7,0.1-2.9,1.6-2.7,3.2c0.1,1.7,1.6,2.9,3.2,2.7l3.1-0.3v8.2l-3.7,0.3c-1.7,0.1-2.9,1.6-2.7,3.2&#10;&#9;&#9;c0.1,1.7,1.6,2.9,3.2,2.7l3.1-0.3v8.2l-3.7,0.3c-1.7,0.1-2.9,1.6-2.7,3.2c0.1,1.7,1.6,2.9,3.2,2.7l3.1-0.3v8.2l-3.7,0.3&#10;&#9;&#9;c-1.7,0.1-2.9,1.6-2.7,3.2c0.1,1.7,1.6,2.9,3.2,2.7l3.1-0.3v8.2l-3.7,0.3c-1.7,0.1-2.9,1.6-2.7,3.2c0.1,1.7,1.6,2.9,3.2,2.7&#10;&#9;&#9;l3.1-0.3v8.2l-3.7,0.3c-1.7,0.1-2.9,1.6-2.7,3.2c0.1,1.7,1.6,2.9,3.2,2.7l3.1-0.3v8.2l-3.7,0.3c-1.7,0.1-2.9,1.6-2.7,3.2&#10;&#9;&#9;s1.6,2.9,3.2,2.7l3.1-0.3v8.2l-3.7,0.3c-1.7,0.1-2.9,1.6-2.7,3.2c0.1,1.7,1.6,2.9,3.2,2.7l3.1-0.3v8.2l-3.7,0.3&#10;&#9;&#9;c-1.7,0.1-2.9,1.6-2.7,3.2c0.1,1.7,1.6,2.9,3.2,2.7l3.1-0.3v8.2l-3.7,0.3c-1.7,0.1-2.9,1.6-2.7,3.2s1.6,2.9,3.2,2.7l3.1-0.3v8.2&#10;&#9;&#9;l-3.7,0.3c-1.7,0.1-2.9,1.6-2.7,3.2c0.1,1.7,1.6,2.9,3.2,2.7l3.1-0.3v8.2l-3.7,0.3c-1.7,0.1-2.9,1.6-2.7,3.2&#10;&#9;&#9;c0.1,1.7,1.6,2.9,3.2,2.7l3.1-0.3v8.2l-3.7,0.3c-1.7,0.1-2.9,1.6-2.7,3.2s1.6,2.9,3.2,2.7l3.1-0.3v8.2l-3.7,0.3&#10;&#9;&#9;c-1.7,0.1-2.9,1.6-2.7,3.2c0.1,1.7,1.6,2.9,3.2,2.7l3.1-0.3v8.2l-3.7,0.3c-1.7,0.1-2.9,1.6-2.7,3.2c0.1,1.7,1.6,2.9,3.2,2.7&#10;&#9;&#9;l3.1-0.3v8.2l-3.7,0.3c-1.7,0.1-2.9,1.6-2.7,3.2c0.1,1.7,1.6,2.9,3.2,2.7l3.1-0.3v8.2l-3.7,0.3c-1.7,0.1-2.9,1.6-2.7,3.2&#10;&#9;&#9;s1.6,2.9,3.2,2.7l3.1-0.3v8.2l-3.7,0.3c-1.7,0.1-2.9,1.6-2.7,3.2c0.1,1.7,1.6,2.9,3.2,2.7l3.1-0.3v8.2l-3.7,0.3&#10;&#9;&#9;c-1.7,0.1-2.9,1.6-2.7,3.2c0.1,1.7,1.6,2.9,3.2,2.7l3.1-0.3v8.2l-3.7,0.3c-1.7,0.1-2.9,1.6-2.7,3.2s1.6,2.9,3.2,2.7l3.1-0.3v8.2&#10;&#9;&#9;l-3.7,0.3c-1.7,0.1-2.9,1.6-2.7,3.2c0.1,1.7,1.6,2.9,3.2,2.7l3.1-0.3v0.8l2,3.4h63.5l2-3.4v-6.7l3.7-0.3c1.7-0.1,2.9-1.6,2.7-3.2&#10;&#9;&#9;s-1.6-2.9-3.2-2.7l-3.1,0.3v-8.2l3.7-0.3c1.7-0.1,2.9-1.6,2.7-3.2c-0.1-1.7-1.6-2.9-3.2-2.7l-3.1,0.3v-8.2l3.7-0.3&#10;&#9;&#9;c1.7-0.1,2.9-1.6,2.7-3.2c-0.1-1.7-1.6-2.9-3.2-2.7l-3.1,0.3V956l3.7-0.3c1.7-0.1,2.9-1.6,2.7-3.2s-1.6-2.9-3.2-2.7l-3.1,0.3v-8.2&#10;&#9;&#9;l3.7-0.3c1.7-0.1,2.9-1.6,2.7-3.2c-0.1-1.7-1.6-2.9-3.2-2.7l-3.1,0.3v-8.2l3.7-0.3c1.7-0.1,2.9-1.6,2.7-3.2&#10;&#9;&#9;c-0.1-1.7-1.6-2.9-3.2-2.7l-3.1,0.3v-8.2l3.7-0.3c1.7-0.1,2.9-1.6,2.7-3.2s-1.6-2.9-3.2-2.7l-3.1,0.3v-8.2l3.7-0.3&#10;&#9;&#9;c1.7-0.1,2.9-1.6,2.7-3.2s-1.6-2.9-3.2-2.7l-3.1,0.3V885l3.7-0.3c1.7-0.1,2.9-1.6,2.7-3.2c-0.1-1.7-1.6-2.9-3.2-2.7l-3.1,0.3v-8.2&#10;&#9;&#9;l3.7-0.3c1.7-0.1,2.9-1.6,2.7-3.2c-0.1-1.7-1.6-2.9-3.2-2.7l-3.1,0.3v-8.2l3.7-0.3c1.7-0.1,2.9-1.6,2.7-3.2s-1.6-2.9-3.2-2.7&#10;&#9;&#9;l-3.1,0.3v-8.2l3.7-0.3c1.7-0.1,2.9-1.6,2.7-3.2c-0.1-1.7-1.6-2.9-3.2-2.7l-3.1,0.3v-8.2l3.7-0.3c1.7-0.1,2.9-1.6,2.7-3.2&#10;&#9;&#9;c-0.1-1.7-1.6-2.9-3.2-2.7l-3.1,0.3V814l3.7-0.3c1.7-0.1,2.9-1.6,2.7-3.2s-1.6-2.9-3.2-2.7l-3.1,0.3v-8.2l3.7-0.3&#10;&#9;&#9;c1.7-0.1,2.9-1.6,2.7-3.2c-0.1-1.7-1.6-2.9-3.2-2.7l-3.1,0.3v-8.2l3.7-0.3c1.7-0.1,2.9-1.6,2.7-3.2c-0.1-1.7-1.6-2.9-3.2-2.7&#10;&#9;&#9;l-3.1,0.3v-8.2l3.7-0.3c1.7-0.1,2.9-1.6,2.7-3.2c-0.1-1.7-1.6-2.9-3.2-2.7l-3.1,0.3v-8.2l3.7-0.3c1.7-0.1,2.9-1.6,2.7-3.2&#10;&#9;&#9;c-0.1-1.7-1.6-2.9-3.2-2.7l-3.1,0.3v-8.2l3.7-0.3c1.7-0.1,2.9-1.6,2.7-3.2s-1.6-2.9-3.2-2.7l-3.1,0.3v-8.2l3.7-0.3&#10;&#9;&#9;c1.7-0.1,2.9-1.6,2.7-3.2c-0.1-1.7-1.6-2.9-3.2-2.7l-3.1,0.3v-8.2l3.7-0.3c1.7-0.1,2.9-1.6,2.7-3.2c-0.1-1.7-1.6-2.9-3.2-2.7&#10;&#9;&#9;l-3.1,0.3v-8.2l3.7-0.3c1.7-0.1,2.9-1.6,2.7-3.2c-0.1-1.7-1.6-2.9-3.2-2.7l-3.1,0.3v-8.2l3.7-0.3c1.7-0.1,2.9-1.6,2.7-3.2&#10;&#9;&#9;c-0.1-1.7-1.6-2.9-3.2-2.7l-3.1,0.3v-8.2l3.7-0.3c1.7-0.1,2.9-1.6,2.7-3.2c-0.1-1.7-1.6-2.9-3.2-2.7l-3.1,0.3v-8.2l3.7-0.3&#10;&#9;&#9;c1.7-0.1,2.9-1.6,2.7-3.2c-0.1-1.7-1.6-2.9-3.2-2.7l-3.1,0.3v-8.2l3.7-0.3c1.7-0.1,2.9-1.6,2.7-3.2c-0.1-1.7-1.6-2.9-3.2-2.7&#10;&#9;&#9;l-3.1,0.3v-8.2l3.7-0.3c1.7-0.1,2.9-1.6,2.7-3.2c-0.1-1.7-1.6-2.9-3.2-2.7l-3.1,0.3v-8.2l3.7-0.3c1.7-0.1,2.9-1.6,2.7-3.2&#10;&#9;&#9;c-0.1-1.7-1.6-2.9-3.2-2.7l-3.1,0.3v-8.2L1447.8,601.1z" transform="matrix(1, 0, 0, 1, 0, 0)"/><path d="M1413.8,1065.6c-47.5,0-86,38.5-86,86c0,47.5,38.5,86,86,86s86-38.5,86-86C1499.8,1104.2,1461.2,1065.6,1413.8,1065.6z&#10;&#9;&#9; M1427.8,1165.7v49.8h-28.1v-49.8h-49.8v-28.1h49.8v-49.8l28.1,0v49.8h49.8l0,28.1H1427.8z" transform="matrix(1, 0, 0, 1, 0, 0)"/><g transform="matrix(1, 0, 0, 1, 0, 0)">
			<path d="M1201.2,1331.7v27.3c0,1.9-1.6,3.5-3.5,3.5l-26.4,0c-1.9,0-3.5-1.6-3.5-3.5v-27.3h-68.9v5l43.9,61.5h7.2l-3,0.3&#10;&#9;&#9;&#9;&#9;c-1.7,0.1-2.9,1.6-2.7,3.2c0.1,1.7,1.6,2.9,3.2,2.7l3.1-0.3v8.2l-3.7,0.3c-1.7,0.1-2.9,1.6-2.7,3.2s1.6,2.9,3.2,2.7l3.1-0.3v8.2&#10;&#9;&#9;&#9;&#9;l-3.7,0.3c-1.7,0.1-2.9,1.6-2.7,3.2s1.6,2.9,3.2,2.7l3.1-0.3v8.2l-3.7,0.3c-1.7,0.1-2.9,1.6-2.7,3.2c0.1,1.7,1.6,2.9,3.2,2.7&#10;&#9;&#9;&#9;&#9;l3.1-0.3v8.2l-3.7,0.3c-1.7,0.1-2.9,1.6-2.7,3.2s1.6,2.9,3.2,2.7l3.1-0.3v8.2l-3.7,0.3c-1.7,0.1-2.9,1.6-2.7,3.2s1.6,2.9,3.2,2.7&#10;&#9;&#9;&#9;&#9;l3.1-0.3v8.2l-3.7,0.3c-1.7,0.1-2.9,1.6-2.7,3.2c0.1,1.7,1.6,2.9,3.2,2.7l3.1-0.3v8.2l-3.7,0.3c-1.7,0.1-2.9,1.6-2.7,3.2&#10;&#9;&#9;&#9;&#9;s1.6,2.9,3.2,2.7l3.1-0.3v8.2l-3.7,0.3c-1.7,0.1-2.9,1.6-2.7,3.2c0.1,1.7,1.6,2.9,3.2,2.7l3.1-0.3v8.2l-3.7,0.3&#10;&#9;&#9;&#9;&#9;c-1.7,0.1-2.9,1.6-2.7,3.2c0.1,1.7,1.6,2.9,3.2,2.7l3.1-0.3v8.2l-3.7,0.3c-1.7,0.1-2.9,1.6-2.7,3.2s1.6,2.9,3.2,2.7l3.1-0.3v8.2&#10;&#9;&#9;&#9;&#9;l-3.7,0.3c-1.7,0.1-2.9,1.6-2.7,3.2c0.1,1.7,1.6,2.9,3.2,2.7l3.1-0.3v1.1l2,3.4h63.5l2-3.4v-7l3.7-0.3c1.7-0.1,2.9-1.6,2.7-3.2&#10;&#9;&#9;&#9;&#9;c-0.1-1.7-1.6-2.9-3.2-2.7l-3.1,0.3v-8.2l3.7-0.3c1.7-0.1,2.9-1.6,2.7-3.2c-0.1-1.7-1.6-2.9-3.2-2.7l-3.1,0.3v-8.2l3.7-0.3&#10;&#9;&#9;&#9;&#9;c1.7-0.1,2.9-1.6,2.7-3.2s-1.6-2.9-3.2-2.7l-3.1,0.3v-8.2l3.7-0.3c1.7-0.1,2.9-1.6,2.7-3.2c-0.1-1.7-1.6-2.9-3.2-2.7l-3.1,0.3&#10;&#9;&#9;&#9;&#9;v-8.2l3.7-0.3c1.7-0.1,2.9-1.6,2.7-3.2c-0.1-1.7-1.6-2.9-3.2-2.7l-3.1,0.3v-8.2l3.7-0.3c1.7-0.1,2.9-1.6,2.7-3.2&#10;&#9;&#9;&#9;&#9;s-1.6-2.9-3.2-2.7l-3.1,0.3v-8.2l3.7-0.3c1.7-0.1,2.9-1.6,2.7-3.2c-0.1-1.7-1.6-2.9-3.2-2.7l-3.1,0.3v-8.2l3.7-0.3&#10;&#9;&#9;&#9;&#9;c1.7-0.1,2.9-1.6,2.7-3.2c-0.1-1.7-1.6-2.9-3.2-2.7l-3.1,0.3v-8.2l3.7-0.3c1.7-0.1,2.9-1.6,2.7-3.2s-1.6-2.9-3.2-2.7l-3.1,0.3&#10;&#9;&#9;&#9;&#9;v-8.2l3.7-0.3c1.7-0.1,2.9-1.6,2.7-3.2c-0.1-1.7-1.6-2.9-3.2-2.7l-3.1,0.3v-8.2l3.7-0.3c1.7-0.1,2.9-1.6,2.7-3.2&#10;&#9;&#9;&#9;&#9;c-0.1-1.7-1.6-2.9-3.2-2.7l-3.1,0.3v-8.2l0.7-0.1h7.2l43.9-61.5v-5H1201.2z"/>
		</g><path d="M1201.2,534.5v27.3c0,1.9-1.6,3.5-3.5,3.5l-26.4,0c-1.9,0-3.5-1.6-3.5-3.5v-27.3h-68.9v5l43.9,61.5h7.2l-3,0.3&#10;&#9;&#9;c-1.7,0.1-2.9,1.6-2.7,3.2c0.1,1.7,1.6,2.9,3.2,2.7l3.1-0.3v8.2l-3.7,0.3c-1.7,0.1-2.9,1.6-2.7,3.2c0.1,1.7,1.6,2.9,3.2,2.7&#10;&#9;&#9;l3.1-0.3v8.2l-3.7,0.3c-1.7,0.1-2.9,1.6-2.7,3.2s1.6,2.9,3.2,2.7l3.1-0.3v8.2l-3.7,0.3c-1.7,0.1-2.9,1.6-2.7,3.2&#10;&#9;&#9;c0.1,1.7,1.6,2.9,3.2,2.7l3.1-0.3v8.2l-3.7,0.3c-1.7,0.1-2.9,1.6-2.7,3.2c0.1,1.7,1.6,2.9,3.2,2.7l3.1-0.3v8.2l-3.7,0.3&#10;&#9;&#9;c-1.7,0.1-2.9,1.6-2.7,3.2c0.1,1.7,1.6,2.9,3.2,2.7l3.1-0.3v8.2l-3.7,0.3c-1.7,0.1-2.9,1.6-2.7,3.2c0.1,1.7,1.6,2.9,3.2,2.7&#10;&#9;&#9;l3.1-0.3v8.2l-3.7,0.3c-1.7,0.1-2.9,1.6-2.7,3.2s1.6,2.9,3.2,2.7l3.1-0.3v8.2l-3.7,0.3c-1.7,0.1-2.9,1.6-2.7,3.2&#10;&#9;&#9;c0.1,1.7,1.6,2.9,3.2,2.7l3.1-0.3v8.2l-3.7,0.3c-1.7,0.1-2.9,1.6-2.7,3.2c0.1,1.7,1.6,2.9,3.2,2.7l3.1-0.3v8.2l-3.7,0.3&#10;&#9;&#9;c-1.7,0.1-2.9,1.6-2.7,3.2c0.1,1.7,1.6,2.9,3.2,2.7l3.1-0.3v8.2l-3.7,0.3c-1.7,0.1-2.9,1.6-2.7,3.2c0.1,1.7,1.6,2.9,3.2,2.7&#10;&#9;&#9;l3.1-0.3v8.2l-3.7,0.3c-1.7,0.1-2.9,1.6-2.7,3.2c0.1,1.7,1.6,2.9,3.2,2.7l3.1-0.3v8.2l-3.7,0.3c-1.7,0.1-2.9,1.6-2.7,3.2&#10;&#9;&#9;c0.1,1.7,1.6,2.9,3.2,2.7l3.1-0.3v8.2l-3.7,0.3c-1.7,0.1-2.9,1.6-2.7,3.2s1.6,2.9,3.2,2.7l3.1-0.3v8.2l-3.7,0.3&#10;&#9;&#9;c-1.7,0.1-2.9,1.6-2.7,3.2c0.1,1.7,1.6,2.9,3.2,2.7l3.1-0.3v8.2l-3.7,0.3c-1.7,0.1-2.9,1.6-2.7,3.2c0.1,1.7,1.6,2.9,3.2,2.7&#10;&#9;&#9;l3.1-0.3v8.2l-3.7,0.3c-1.7,0.1-2.9,1.6-2.7,3.2s1.6,2.9,3.2,2.7l3.1-0.3v8.2l-3.7,0.3c-1.7,0.1-2.9,1.6-2.7,3.2&#10;&#9;&#9;c0.1,1.7,1.6,2.9,3.2,2.7l3.1-0.3v8.2l-3.7,0.3c-1.7,0.1-2.9,1.6-2.7,3.2c0.1,1.7,1.6,2.9,3.2,2.7l3.1-0.3v8.2l-3.7,0.3&#10;&#9;&#9;c-1.7,0.1-2.9,1.6-2.7,3.2s1.6,2.9,3.2,2.7l3.1-0.3v8.2l-3.7,0.3c-1.7,0.1-2.9,1.6-2.7,3.2c0.1,1.7,1.6,2.9,3.2,2.7l3.1-0.3v8.2&#10;&#9;&#9;l-3.7,0.3c-1.7,0.1-2.9,1.6-2.7,3.2c0.1,1.7,1.6,2.9,3.2,2.7l3.1-0.3v8.2l-3.7,0.3c-1.7,0.1-2.9,1.6-2.7,3.2&#10;&#9;&#9;c0.1,1.7,1.6,2.9,3.2,2.7l3.1-0.3v8.2l-3.7,0.3c-1.7,0.1-2.9,1.6-2.7,3.2s1.6,2.9,3.2,2.7l3.1-0.3v8.2l-3.7,0.3&#10;&#9;&#9;c-1.7,0.1-2.9,1.6-2.7,3.2c0.1,1.7,1.6,2.9,3.2,2.7l3.1-0.3v8.2l-3.7,0.3c-1.7,0.1-2.9,1.6-2.7,3.2c0.1,1.7,1.6,2.9,3.2,2.7&#10;&#9;&#9;l3.1-0.3v8.2l-3.7,0.3c-1.7,0.1-2.9,1.6-2.7,3.2s1.6,2.9,3.2,2.7l3.1-0.3v8.2l-3.7,0.3c-1.7,0.1-2.9,1.6-2.7,3.2&#10;&#9;&#9;c0.1,1.7,1.6,2.9,3.2,2.7l3.1-0.3v0.8l2,3.4h63.5l2-3.4v-6.7l3.7-0.3c1.7-0.1,2.9-1.6,2.7-3.2s-1.6-2.9-3.2-2.7l-3.1,0.3v-8.2&#10;&#9;&#9;l3.7-0.3c1.7-0.1,2.9-1.6,2.7-3.2c-0.1-1.7-1.6-2.9-3.2-2.7l-3.1,0.3v-8.2l3.7-0.3c1.7-0.1,2.9-1.6,2.7-3.2&#10;&#9;&#9;c-0.1-1.7-1.6-2.9-3.2-2.7l-3.1,0.3V956l3.7-0.3c1.7-0.1,2.9-1.6,2.7-3.2s-1.6-2.9-3.2-2.7l-3.1,0.3v-8.2l3.7-0.3&#10;&#9;&#9;c1.7-0.1,2.9-1.6,2.7-3.2c-0.1-1.7-1.6-2.9-3.2-2.7l-3.1,0.3v-8.2l3.7-0.3c1.7-0.1,2.9-1.6,2.7-3.2c-0.1-1.7-1.6-2.9-3.2-2.7&#10;&#9;&#9;l-3.1,0.3v-8.2l3.7-0.3c1.7-0.1,2.9-1.6,2.7-3.2s-1.6-2.9-3.2-2.7l-3.1,0.3v-8.2l3.7-0.3c1.7-0.1,2.9-1.6,2.7-3.2s-1.6-2.9-3.2-2.7&#10;&#9;&#9;l-3.1,0.3V885l3.7-0.3c1.7-0.1,2.9-1.6,2.7-3.2c-0.1-1.7-1.6-2.9-3.2-2.7l-3.1,0.3v-8.2l3.7-0.3c1.7-0.1,2.9-1.6,2.7-3.2&#10;&#9;&#9;c-0.1-1.7-1.6-2.9-3.2-2.7l-3.1,0.3v-8.2l3.7-0.3c1.7-0.1,2.9-1.6,2.7-3.2s-1.6-2.9-3.2-2.7l-3.1,0.3v-8.2l3.7-0.3&#10;&#9;&#9;c1.7-0.1,2.9-1.6,2.7-3.2c-0.1-1.7-1.6-2.9-3.2-2.7l-3.1,0.3v-8.2l3.7-0.3c1.7-0.1,2.9-1.6,2.7-3.2c-0.1-1.7-1.6-2.9-3.2-2.7&#10;&#9;&#9;l-3.1,0.3V814l3.7-0.3c1.7-0.1,2.9-1.6,2.7-3.2s-1.6-2.9-3.2-2.7l-3.1,0.3v-8.2l3.7-0.3c1.7-0.1,2.9-1.6,2.7-3.2&#10;&#9;&#9;c-0.1-1.7-1.6-2.9-3.2-2.7l-3.1,0.3v-8.2l3.7-0.3c1.7-0.1,2.9-1.6,2.7-3.2c-0.1-1.7-1.6-2.9-3.2-2.7l-3.1,0.3v-8.2l3.7-0.3&#10;&#9;&#9;c1.7-0.1,2.9-1.6,2.7-3.2c-0.1-1.7-1.6-2.9-3.2-2.7l-3.1,0.3v-8.2l3.7-0.3c1.7-0.1,2.9-1.6,2.7-3.2c-0.1-1.7-1.6-2.9-3.2-2.7&#10;&#9;&#9;l-3.1,0.3v-8.2l3.7-0.3c1.7-0.1,2.9-1.6,2.7-3.2s-1.6-2.9-3.2-2.7l-3.1,0.3v-8.2l3.7-0.3c1.7-0.1,2.9-1.6,2.7-3.2&#10;&#9;&#9;c-0.1-1.7-1.6-2.9-3.2-2.7l-3.1,0.3v-8.2l3.7-0.3c1.7-0.1,2.9-1.6,2.7-3.2c-0.1-1.7-1.6-2.9-3.2-2.7l-3.1,0.3v-8.2l3.7-0.3&#10;&#9;&#9;c1.7-0.1,2.9-1.6,2.7-3.2c-0.1-1.7-1.6-2.9-3.2-2.7l-3.1,0.3v-8.2l3.7-0.3c1.7-0.1,2.9-1.6,2.7-3.2c-0.1-1.7-1.6-2.9-3.2-2.7&#10;&#9;&#9;l-3.1,0.3v-8.2l3.7-0.3c1.7-0.1,2.9-1.6,2.7-3.2c-0.1-1.7-1.6-2.9-3.2-2.7l-3.1,0.3v-8.2l3.7-0.3c1.7-0.1,2.9-1.6,2.7-3.2&#10;&#9;&#9;c-0.1-1.7-1.6-2.9-3.2-2.7l-3.1,0.3v-8.2l3.7-0.3c1.7-0.1,2.9-1.6,2.7-3.2c-0.1-1.7-1.6-2.9-3.2-2.7l-3.1,0.3v-8.2l3.7-0.3&#10;&#9;&#9;c1.7-0.1,2.9-1.6,2.7-3.2c-0.1-1.7-1.6-2.9-3.2-2.7l-3.1,0.3v-8.2l3.7-0.3c1.7-0.1,2.9-1.6,2.7-3.2c-0.1-1.7-1.6-2.9-3.2-2.7&#10;&#9;&#9;l-3.1,0.3v-8.2l0.7-0.1h7.2l43.9-61.5v-5H1201.2z" transform="matrix(1, 0, 0, 1, 0, 0)"/><path d="M1269.3,1137.6c-6.7-40.8-42.1-72-84.8-72s-78.1,31.2-84.8,72H1269.3z" transform="matrix(1, 0, 0, 1, 0, 0)"/><path d="M1099.7,1165.7c6.7,40.8,42.1,72,84.8,72s78.1-31.2,84.8-72H1099.7z" transform="matrix(1, 0, 0, 1, 0, 0)"/><path d="M1226.1,1706.2l43.9-61.5v-5h-68.9v27.3c0,1.9-1.6,3.5-3.5,3.5l-26.4,0c-1.9,0-3.5-1.6-3.5-3.5v-27.3h-68.9v5l43.9,61.5&#10;&#9;&#9;h7.9v14.1l-7.2,0.6c-1.7,0.1-2.9,1.6-2.7,3.2c0.1,1.7,1.6,2.9,3.2,2.7l6.6-0.6v22.4l-7.2,0.6c-1.7,0.1-2.9,1.6-2.7,3.2&#10;&#9;&#9;c0.1,1.7,1.6,2.9,3.2,2.7l6.6-0.6v22.4l-7.2,0.6c-1.7,0.1-2.9,1.6-2.7,3.2c0.1,1.7,1.6,2.9,3.2,2.7l6.6-0.6v22.4l-7.2,0.6&#10;&#9;&#9;c-1.7,0.1-2.9,1.6-2.7,3.2c0.1,1.7,1.6,2.9,3.2,2.7l6.6-0.6v22.4l-7.2,0.6c-1.7,0.1-2.9,1.6-2.7,3.2c0.1,1.7,1.6,2.9,3.2,2.7&#10;&#9;&#9;l6.6-0.6v22.4l-3.7,0.3c-1.7,0.1-2.9,1.6-2.7,3.2s1.6,2.9,3.2,2.7l3.1-0.3v1.1l2,3.4h63.5l2-3.4v-7l3.7-0.3&#10;&#9;&#9;c1.7-0.1,2.9-1.6,2.7-3.2c-0.1-1.7-1.6-2.9-3.2-2.7l-3.1,0.3V1834l7.2-0.6c1.7-0.1,2.9-1.6,2.7-3.2c-0.1-1.7-1.6-2.9-3.2-2.7&#10;&#9;&#9;l-6.6,0.6v-22.4l7.2-0.6c1.7-0.1,2.9-1.6,2.7-3.2c-0.1-1.7-1.6-2.9-3.2-2.7l-6.6,0.6v-22.4l7.2-0.6c1.7-0.1,2.9-1.6,2.7-3.2&#10;&#9;&#9;c-0.1-1.7-1.6-2.9-3.2-2.7l-6.6,0.6v-22.4l7.2-0.6c1.7-0.1,2.9-1.6,2.7-3.2c-0.1-1.7-1.6-2.9-3.2-2.7l-6.6,0.6v-22.4l7.2-0.6&#10;&#9;&#9;c1.7-0.1,2.9-1.6,2.7-3.2c-0.1-1.7-1.6-2.9-3.2-2.7l-6.6,0.6v-8.2H1226.1z" transform="matrix(1, 0, 0, 1, 0, 0)"/><path d="M955.3,1065.6c-47.5,0-86,38.5-86,86c0,47.5,38.5,86,86,86c47.5,0,86-38.5,86-86C1041.2,1104.2,1002.7,1065.6,955.3,1065.6&#10;&#9;&#9;z M974.3,1184.6h-38l-19-32.9l19-32.9h38l19,32.9L974.3,1184.6z" transform="matrix(1, 0, 0, 1, 0, 0)"/><g transform="matrix(1, 0, 0, 1, 0, 0)">
			<path d="M869.7,1331.7v5l43.9,61.5h7.2l-3,0.3c-1.7,0.1-2.9,1.6-2.7,3.2c0.1,1.7,1.6,2.9,3.2,2.7l3.1-0.3v8.2l-3.7,0.3&#10;&#9;&#9;&#9;&#9;c-1.7,0.1-2.9,1.6-2.7,3.2c0.1,1.7,1.6,2.9,3.2,2.7l3.1-0.3v8.2l-3.7,0.3c-1.7,0.1-2.9,1.6-2.7,3.2c0.1,1.7,1.6,2.9,3.2,2.7&#10;&#9;&#9;&#9;&#9;l3.1-0.3v8.2l-3.7,0.3c-1.7,0.1-2.9,1.6-2.7,3.2c0.1,1.7,1.6,2.9,3.2,2.7l3.1-0.3v8.2l-3.7,0.3c-1.7,0.1-2.9,1.6-2.7,3.2&#10;&#9;&#9;&#9;&#9;c0.1,1.7,1.6,2.9,3.2,2.7l3.1-0.3v8.2l-3.7,0.3c-1.7,0.1-2.9,1.6-2.7,3.2c0.1,1.7,1.6,2.9,3.2,2.7l3.1-0.3v8.2l-3.7,0.3&#10;&#9;&#9;&#9;&#9;c-1.7,0.1-2.9,1.6-2.7,3.2c0.1,1.7,1.6,2.9,3.2,2.7l3.1-0.3v8.2l-3.7,0.3c-1.7,0.1-2.9,1.6-2.7,3.2c0.1,1.7,1.6,2.9,3.2,2.7&#10;&#9;&#9;&#9;&#9;l3.1-0.3v8.2l-3.7,0.3c-1.7,0.1-2.9,1.6-2.7,3.2c0.1,1.7,1.6,2.9,3.2,2.7l3.1-0.3v8.2l-3.7,0.3c-1.7,0.1-2.9,1.6-2.7,3.2&#10;&#9;&#9;&#9;&#9;c0.1,1.7,1.6,2.9,3.2,2.7l3.1-0.3v8.2l-3.7,0.3c-1.7,0.1-2.9,1.6-2.7,3.2c0.1,1.7,1.6,2.9,3.2,2.7l3.1-0.3v8.2l-3.7,0.3&#10;&#9;&#9;&#9;&#9;c-1.7,0.1-2.9,1.6-2.7,3.2c0.1,1.7,1.6,2.9,3.2,2.7l3.1-0.3v1.1l2,3.4H987l2-3.4v-7l3.7-0.3c1.7-0.1,2.9-1.6,2.7-3.2&#10;&#9;&#9;&#9;&#9;c-0.1-1.7-1.6-2.9-3.2-2.7l-3.1,0.3v-8.2l3.7-0.3c1.7-0.1,2.9-1.6,2.7-3.2c-0.1-1.7-1.6-2.9-3.2-2.7l-3.1,0.3v-8.2l3.7-0.3&#10;&#9;&#9;&#9;&#9;c1.7-0.1,2.9-1.6,2.7-3.2c-0.1-1.7-1.6-2.9-3.2-2.7l-3.1,0.3v-8.2l3.7-0.3c1.7-0.1,2.9-1.6,2.7-3.2c-0.1-1.7-1.6-2.9-3.2-2.7&#10;&#9;&#9;&#9;&#9;l-3.1,0.3v-8.2l3.7-0.3c1.7-0.1,2.9-1.6,2.7-3.2c-0.1-1.7-1.6-2.9-3.2-2.7l-3.1,0.3v-8.2l3.7-0.3c1.7-0.1,2.9-1.6,2.7-3.2&#10;&#9;&#9;&#9;&#9;c-0.1-1.7-1.6-2.9-3.2-2.7l-3.1,0.3v-8.2l3.7-0.3c1.7-0.1,2.9-1.6,2.7-3.2c-0.1-1.7-1.6-2.9-3.2-2.7l-3.1,0.3v-8.2l3.7-0.3&#10;&#9;&#9;&#9;&#9;c1.7-0.1,2.9-1.6,2.7-3.2c-0.1-1.7-1.6-2.9-3.2-2.7l-3.1,0.3v-8.2l3.7-0.3c1.7-0.1,2.9-1.6,2.7-3.2c-0.1-1.7-1.6-2.9-3.2-2.7&#10;&#9;&#9;&#9;&#9;l-3.1,0.3v-8.2l3.7-0.3c1.7-0.1,2.9-1.6,2.7-3.2c-0.1-1.7-1.6-2.9-3.2-2.7l-3.1,0.3v-8.2l3.7-0.3c1.7-0.1,2.9-1.6,2.7-3.2&#10;&#9;&#9;&#9;&#9;c-0.1-1.7-1.6-2.9-3.2-2.7l-3.1,0.3v-8.2l0.7-0.1h7.2l43.9-61.5v-5H869.7z"/>
		</g><path d="M869.7,534.5v5l43.9,61.5h7.2l-3,0.3c-1.7,0.1-2.9,1.6-2.7,3.2c0.1,1.7,1.6,2.9,3.2,2.7l3.1-0.3v8.2l-3.7,0.3&#10;&#9;&#9;c-1.7,0.1-2.9,1.6-2.7,3.2c0.1,1.7,1.6,2.9,3.2,2.7l3.1-0.3v8.2l-3.7,0.3c-1.7,0.1-2.9,1.6-2.7,3.2c0.1,1.7,1.6,2.9,3.2,2.7&#10;&#9;&#9;l3.1-0.3v8.2l-3.7,0.3c-1.7,0.1-2.9,1.6-2.7,3.2c0.1,1.7,1.6,2.9,3.2,2.7l3.1-0.3v8.2l-3.7,0.3c-1.7,0.1-2.9,1.6-2.7,3.2&#10;&#9;&#9;c0.1,1.7,1.6,2.9,3.2,2.7l3.1-0.3v8.2l-3.7,0.3c-1.7,0.1-2.9,1.6-2.7,3.2c0.1,1.7,1.6,2.9,3.2,2.7l3.1-0.3v8.2l-3.7,0.3&#10;&#9;&#9;c-1.7,0.1-2.9,1.6-2.7,3.2c0.1,1.7,1.6,2.9,3.2,2.7l3.1-0.3v8.2l-3.7,0.3c-1.7,0.1-2.9,1.6-2.7,3.2c0.1,1.7,1.6,2.9,3.2,2.7&#10;&#9;&#9;l3.1-0.3v8.2l-3.7,0.3c-1.7,0.1-2.9,1.6-2.7,3.2c0.1,1.7,1.6,2.9,3.2,2.7l3.1-0.3v8.2l-3.7,0.3c-1.7,0.1-2.9,1.6-2.7,3.2&#10;&#9;&#9;c0.1,1.7,1.6,2.9,3.2,2.7l3.1-0.3v8.2l-3.7,0.3c-1.7,0.1-2.9,1.6-2.7,3.2c0.1,1.7,1.6,2.9,3.2,2.7l3.1-0.3v8.2l-3.7,0.3&#10;&#9;&#9;c-1.7,0.1-2.9,1.6-2.7,3.2c0.1,1.7,1.6,2.9,3.2,2.7l3.1-0.3v8.2l-3.7,0.3c-1.7,0.1-2.9,1.6-2.7,3.2c0.1,1.7,1.6,2.9,3.2,2.7&#10;&#9;&#9;l3.1-0.3v8.2l-3.7,0.3c-1.7,0.1-2.9,1.6-2.7,3.2c0.1,1.7,1.6,2.9,3.2,2.7l3.1-0.3v8.2l-3.7,0.3c-1.7,0.1-2.9,1.6-2.7,3.2&#10;&#9;&#9;c0.1,1.7,1.6,2.9,3.2,2.7l3.1-0.3v8.2l-3.7,0.3c-1.7,0.1-2.9,1.6-2.7,3.2c0.1,1.7,1.6,2.9,3.2,2.7l3.1-0.3v8.2l-3.7,0.3&#10;&#9;&#9;c-1.7,0.1-2.9,1.6-2.7,3.2c0.1,1.7,1.6,2.9,3.2,2.7l3.1-0.3v8.2l-3.7,0.3c-1.7,0.1-2.9,1.6-2.7,3.2c0.1,1.7,1.6,2.9,3.2,2.7&#10;&#9;&#9;l3.1-0.3v8.2l-3.7,0.3c-1.7,0.1-2.9,1.6-2.7,3.2c0.1,1.7,1.6,2.9,3.2,2.7l3.1-0.3v8.2l-3.7,0.3c-1.7,0.1-2.9,1.6-2.7,3.2&#10;&#9;&#9;c0.1,1.7,1.6,2.9,3.2,2.7l3.1-0.3v8.2l-3.7,0.3c-1.7,0.1-2.9,1.6-2.7,3.2c0.1,1.7,1.6,2.9,3.2,2.7l3.1-0.3v8.2l-3.7,0.3&#10;&#9;&#9;c-1.7,0.1-2.9,1.6-2.7,3.2c0.1,1.7,1.6,2.9,3.2,2.7l3.1-0.3v8.2l-3.7,0.3c-1.7,0.1-2.9,1.6-2.7,3.2c0.1,1.7,1.6,2.9,3.2,2.7&#10;&#9;&#9;l3.1-0.3v8.2l-3.7,0.3c-1.7,0.1-2.9,1.6-2.7,3.2c0.1,1.7,1.6,2.9,3.2,2.7l3.1-0.3v8.2l-3.7,0.3c-1.7,0.1-2.9,1.6-2.7,3.2&#10;&#9;&#9;c0.1,1.7,1.6,2.9,3.2,2.7l3.1-0.3v8.2l-3.7,0.3c-1.7,0.1-2.9,1.6-2.7,3.2c0.1,1.7,1.6,2.9,3.2,2.7l3.1-0.3v8.2l-3.7,0.3&#10;&#9;&#9;c-1.7,0.1-2.9,1.6-2.7,3.2c0.1,1.7,1.6,2.9,3.2,2.7l3.1-0.3v8.2l-3.7,0.3c-1.7,0.1-2.9,1.6-2.7,3.2c0.1,1.7,1.6,2.9,3.2,2.7&#10;&#9;&#9;l3.1-0.3v8.2l-3.7,0.3c-1.7,0.1-2.9,1.6-2.7,3.2c0.1,1.7,1.6,2.9,3.2,2.7l3.1-0.3v0.8l2,3.4H987l2-3.4v-6.7l3.7-0.3&#10;&#9;&#9;c1.7-0.1,2.9-1.6,2.7-3.2c-0.1-1.7-1.6-2.9-3.2-2.7l-3.1,0.3v-8.2l3.7-0.3c1.7-0.1,2.9-1.6,2.7-3.2c-0.1-1.7-1.6-2.9-3.2-2.7&#10;&#9;&#9;l-3.1,0.3v-8.2l3.7-0.3c1.7-0.1,2.9-1.6,2.7-3.2c-0.1-1.7-1.6-2.9-3.2-2.7l-3.1,0.3V956l3.7-0.3c1.7-0.1,2.9-1.6,2.7-3.2&#10;&#9;&#9;c-0.1-1.7-1.6-2.9-3.2-2.7L989,950v-8.2l3.7-0.3c1.7-0.1,2.9-1.6,2.7-3.2c-0.1-1.7-1.6-2.9-3.2-2.7l-3.1,0.3v-8.2l3.7-0.3&#10;&#9;&#9;c1.7-0.1,2.9-1.6,2.7-3.2c-0.1-1.7-1.6-2.9-3.2-2.7l-3.1,0.3v-8.2l3.7-0.3c1.7-0.1,2.9-1.6,2.7-3.2c-0.1-1.7-1.6-2.9-3.2-2.7&#10;&#9;&#9;l-3.1,0.3v-8.2l3.7-0.3c1.7-0.1,2.9-1.6,2.7-3.2c-0.1-1.7-1.6-2.9-3.2-2.7l-3.1,0.3V885l3.7-0.3c1.7-0.1,2.9-1.6,2.7-3.2&#10;&#9;&#9;c-0.1-1.7-1.6-2.9-3.2-2.7L989,879v-8.2l3.7-0.3c1.7-0.1,2.9-1.6,2.7-3.2c-0.1-1.7-1.6-2.9-3.2-2.7l-3.1,0.3v-8.2l3.7-0.3&#10;&#9;&#9;c1.7-0.1,2.9-1.6,2.7-3.2c-0.1-1.7-1.6-2.9-3.2-2.7l-3.1,0.3v-8.2l3.7-0.3c1.7-0.1,2.9-1.6,2.7-3.2c-0.1-1.7-1.6-2.9-3.2-2.7&#10;&#9;&#9;l-3.1,0.3v-8.2l3.7-0.3c1.7-0.1,2.9-1.6,2.7-3.2c-0.1-1.7-1.6-2.9-3.2-2.7l-3.1,0.3V814l3.7-0.3c1.7-0.1,2.9-1.6,2.7-3.2&#10;&#9;&#9;c-0.1-1.7-1.6-2.9-3.2-2.7L989,808v-8.2l3.7-0.3c1.7-0.1,2.9-1.6,2.7-3.2c-0.1-1.7-1.6-2.9-3.2-2.7l-3.1,0.3v-8.2l3.7-0.3&#10;&#9;&#9;c1.7-0.1,2.9-1.6,2.7-3.2c-0.1-1.7-1.6-2.9-3.2-2.7l-3.1,0.3v-8.2l3.7-0.3c1.7-0.1,2.9-1.6,2.7-3.2c-0.1-1.7-1.6-2.9-3.2-2.7&#10;&#9;&#9;l-3.1,0.3v-8.2l3.7-0.3c1.7-0.1,2.9-1.6,2.7-3.2c-0.1-1.7-1.6-2.9-3.2-2.7l-3.1,0.3v-8.2l3.7-0.3c1.7-0.1,2.9-1.6,2.7-3.2&#10;&#9;&#9;c-0.1-1.7-1.6-2.9-3.2-2.7l-3.1,0.3v-8.2l3.7-0.3c1.7-0.1,2.9-1.6,2.7-3.2c-0.1-1.7-1.6-2.9-3.2-2.7l-3.1,0.3v-8.2l3.7-0.3&#10;&#9;&#9;c1.7-0.1,2.9-1.6,2.7-3.2c-0.1-1.7-1.6-2.9-3.2-2.7l-3.1,0.3v-8.2l3.7-0.3c1.7-0.1,2.9-1.6,2.7-3.2c-0.1-1.7-1.6-2.9-3.2-2.7&#10;&#9;&#9;l-3.1,0.3v-8.2l3.7-0.3c1.7-0.1,2.9-1.6,2.7-3.2c-0.1-1.7-1.6-2.9-3.2-2.7l-3.1,0.3v-8.2l3.7-0.3c1.7-0.1,2.9-1.6,2.7-3.2&#10;&#9;&#9;c-0.1-1.7-1.6-2.9-3.2-2.7l-3.1,0.3v-8.2l3.7-0.3c1.7-0.1,2.9-1.6,2.7-3.2c-0.1-1.7-1.6-2.9-3.2-2.7l-3.1,0.3v-8.2l3.7-0.3&#10;&#9;&#9;c1.7-0.1,2.9-1.6,2.7-3.2c-0.1-1.7-1.6-2.9-3.2-2.7l-3.1,0.3v-8.2l3.7-0.3c1.7-0.1,2.9-1.6,2.7-3.2c-0.1-1.7-1.6-2.9-3.2-2.7&#10;&#9;&#9;l-3.1,0.3v-8.2l3.7-0.3c1.7-0.1,2.9-1.6,2.7-3.2c-0.1-1.7-1.6-2.9-3.2-2.7l-3.1,0.3v-8.2l0.7-0.1h7.2l43.9-61.5v-5H869.7z" transform="matrix(1, 0, 0, 1, 0, 0)"/><path d="M996.9,1706.2l43.9-41.5v-5H869.7v5l43.9,41.5h7.9v14.1l-7.2,0.6c-1.7,0.1-2.9,1.6-2.7,3.2c0.1,1.7,1.6,2.9,3.2,2.7&#10;&#9;&#9;l6.6-0.6v22.4l-7.2,0.6c-1.7,0.1-2.9,1.6-2.7,3.2c0.1,1.7,1.6,2.9,3.2,2.7l6.6-0.6v22.4l-7.2,0.6c-1.7,0.1-2.9,1.6-2.7,3.2&#10;&#9;&#9;c0.1,1.7,1.6,2.9,3.2,2.7l6.6-0.6v22.4l-7.2,0.6c-1.7,0.1-2.9,1.6-2.7,3.2c0.1,1.7,1.6,2.9,3.2,2.7l6.6-0.6v22.4l-7.2,0.6&#10;&#9;&#9;c-1.7,0.1-2.9,1.6-2.7,3.2c0.1,1.7,1.6,2.9,3.2,2.7l6.6-0.6v22.4l-3.7,0.3c-1.7,0.1-2.9,1.6-2.7,3.2c0.1,1.7,1.6,2.9,3.2,2.7&#10;&#9;&#9;l3.1-0.3v1.1l2,3.4H987l2-3.4v-7l3.7-0.3c1.7-0.1,2.9-1.6,2.7-3.2c-0.1-1.7-1.6-2.9-3.2-2.7l-3.1,0.3V1834l7.2-0.6&#10;&#9;&#9;c1.7-0.1,2.9-1.6,2.7-3.2c-0.1-1.7-1.6-2.9-3.2-2.7l-6.6,0.6v-22.4l7.2-0.6c1.7-0.1,2.9-1.6,2.7-3.2c-0.1-1.7-1.6-2.9-3.2-2.7&#10;&#9;&#9;l-6.6,0.6v-22.4l7.2-0.6c1.7-0.1,2.9-1.6,2.7-3.2c-0.1-1.7-1.6-2.9-3.2-2.7l-6.6,0.6v-22.4l7.2-0.6c1.7-0.1,2.9-1.6,2.7-3.2&#10;&#9;&#9;c-0.1-1.7-1.6-2.9-3.2-2.7l-6.6,0.6v-22.4l7.2-0.6c1.7-0.1,2.9-1.6,2.7-3.2c-0.1-1.7-1.6-2.9-3.2-2.7l-6.6,0.6v-8.2H996.9z" transform="matrix(1, 0, 0, 1, 0, 0)"/><path d="M 1729 1151.599976 A 86 86 0 0 1 1643 1237.599976 A 86 86 0 0 1 1557 1151.599976 A 86 86 0 0 1 1643 1065.599976 A 86 86 0 0 1 1729 1151.599976 Z" transform="matrix(1, 0, 0, 1, 0, 0)"/><path d="M1677.3,601.1h32l0.9-2.5c0-37.1-30.1-67.2-67.2-67.2s-67.2,30.1-67.2,67.2l0.9,2.5h31.7l-3,0.3c-1.7,0.1-2.9,1.6-2.7,3.2&#10;&#9;&#9;c0.1,1.7,1.6,2.9,3.2,2.7l3.1-0.3v8.2l-3.7,0.3c-1.7,0.1-2.9,1.6-2.7,3.2c0.1,1.7,1.6,2.9,3.2,2.7l3.1-0.3v8.2l-3.7,0.3&#10;&#9;&#9;c-1.7,0.1-2.9,1.6-2.7,3.2s1.6,2.9,3.2,2.7l3.1-0.3v8.2l-3.7,0.3c-1.7,0.1-2.9,1.6-2.7,3.2c0.1,1.7,1.6,2.9,3.2,2.7l3.1-0.3v8.2&#10;&#9;&#9;l-3.7,0.3c-1.7,0.1-2.9,1.6-2.7,3.2c0.1,1.7,1.6,2.9,3.2,2.7l3.1-0.3v8.2l-3.7,0.3c-1.7,0.1-2.9,1.6-2.7,3.2&#10;&#9;&#9;c0.1,1.7,1.6,2.9,3.2,2.7l3.1-0.3v8.2l-3.7,0.3c-1.7,0.1-2.9,1.6-2.7,3.2c0.1,1.7,1.6,2.9,3.2,2.7l3.1-0.3v8.2l-3.7,0.3&#10;&#9;&#9;c-1.7,0.1-2.9,1.6-2.7,3.2s1.6,2.9,3.2,2.7l3.1-0.3v8.2l-3.7,0.3c-1.7,0.1-2.9,1.6-2.7,3.2c0.1,1.7,1.6,2.9,3.2,2.7l3.1-0.3v8.2&#10;&#9;&#9;l-3.7,0.3c-1.7,0.1-2.9,1.6-2.7,3.2c0.1,1.7,1.6,2.9,3.2,2.7l3.1-0.3v8.2l-3.7,0.3c-1.7,0.1-2.9,1.6-2.7,3.2&#10;&#9;&#9;c0.1,1.7,1.6,2.9,3.2,2.7l3.1-0.3v8.2l-3.7,0.3c-1.7,0.1-2.9,1.6-2.7,3.2c0.1,1.7,1.6,2.9,3.2,2.7l3.1-0.3v8.2l-3.7,0.3&#10;&#9;&#9;c-1.7,0.1-2.9,1.6-2.7,3.2c0.1,1.7,1.6,2.9,3.2,2.7l3.1-0.3v8.2l-3.7,0.3c-1.7,0.1-2.9,1.6-2.7,3.2c0.1,1.7,1.6,2.9,3.2,2.7&#10;&#9;&#9;l3.1-0.3v8.2l-3.7,0.3c-1.7,0.1-2.9,1.6-2.7,3.2s1.6,2.9,3.2,2.7l3.1-0.3v8.2l-3.7,0.3c-1.7,0.1-2.9,1.6-2.7,3.2&#10;&#9;&#9;c0.1,1.7,1.6,2.9,3.2,2.7l3.1-0.3v8.2l-3.7,0.3c-1.7,0.1-2.9,1.6-2.7,3.2c0.1,1.7,1.6,2.9,3.2,2.7l3.1-0.3v8.2l-3.7,0.3&#10;&#9;&#9;c-1.7,0.1-2.9,1.6-2.7,3.2s1.6,2.9,3.2,2.7l3.1-0.3v8.2l-3.7,0.3c-1.7,0.1-2.9,1.6-2.7,3.2c0.1,1.7,1.6,2.9,3.2,2.7l3.1-0.3v8.2&#10;&#9;&#9;l-3.7,0.3c-1.7,0.1-2.9,1.6-2.7,3.2c0.1,1.7,1.6,2.9,3.2,2.7l3.1-0.3v8.2l-3.7,0.3c-1.7,0.1-2.9,1.6-2.7,3.2s1.6,2.9,3.2,2.7&#10;&#9;&#9;l3.1-0.3v8.2l-3.7,0.3c-1.7,0.1-2.9,1.6-2.7,3.2c0.1,1.7,1.6,2.9,3.2,2.7l3.1-0.3v8.2l-3.7,0.3c-1.7,0.1-2.9,1.6-2.7,3.2&#10;&#9;&#9;c0.1,1.7,1.6,2.9,3.2,2.7l3.1-0.3v8.2l-3.7,0.3c-1.7,0.1-2.9,1.6-2.7,3.2c0.1,1.7,1.6,2.9,3.2,2.7l3.1-0.3v8.2l-3.7,0.3&#10;&#9;&#9;c-1.7,0.1-2.9,1.6-2.7,3.2s1.6,2.9,3.2,2.7l3.1-0.3v8.2l-3.7,0.3c-1.7,0.1-2.9,1.6-2.7,3.2c0.1,1.7,1.6,2.9,3.2,2.7l3.1-0.3v8.2&#10;&#9;&#9;l-3.7,0.3c-1.7,0.1-2.9,1.6-2.7,3.2c0.1,1.7,1.6,2.9,3.2,2.7l3.1-0.3v8.2l-3.7,0.3c-1.7,0.1-2.9,1.6-2.7,3.2s1.6,2.9,3.2,2.7&#10;&#9;&#9;l3.1-0.3v8.2l-3.7,0.3c-1.7,0.1-2.9,1.6-2.7,3.2c0.1,1.7,1.6,2.9,3.2,2.7l3.1-0.3v0.8l2,3.4h63.5l2-3.4v-6.7l3.7-0.3&#10;&#9;&#9;c1.7-0.1,2.9-1.6,2.7-3.2s-1.6-2.9-3.2-2.7l-3.1,0.3v-8.2l3.7-0.3c1.7-0.1,2.9-1.6,2.7-3.2c-0.1-1.7-1.6-2.9-3.2-2.7l-3.1,0.3v-8.2&#10;&#9;&#9;l3.7-0.3c1.7-0.1,2.9-1.6,2.7-3.2c-0.1-1.7-1.6-2.9-3.2-2.7l-3.1,0.3V956l3.7-0.3c1.7-0.1,2.9-1.6,2.7-3.2s-1.6-2.9-3.2-2.7&#10;&#9;&#9;l-3.1,0.3v-8.2l3.7-0.3c1.7-0.1,2.9-1.6,2.7-3.2c-0.1-1.7-1.6-2.9-3.2-2.7l-3.1,0.3v-8.2l3.7-0.3c1.7-0.1,2.9-1.6,2.7-3.2&#10;&#9;&#9;c-0.1-1.7-1.6-2.9-3.2-2.7l-3.1,0.3v-8.2l3.7-0.3c1.7-0.1,2.9-1.6,2.7-3.2s-1.6-2.9-3.2-2.7l-3.1,0.3v-8.2l3.7-0.3&#10;&#9;&#9;c1.7-0.1,2.9-1.6,2.7-3.2s-1.6-2.9-3.2-2.7l-3.1,0.3V885l3.7-0.3c1.7-0.1,2.9-1.6,2.7-3.2c-0.1-1.7-1.6-2.9-3.2-2.7l-3.1,0.3v-8.2&#10;&#9;&#9;l3.7-0.3c1.7-0.1,2.9-1.6,2.7-3.2c-0.1-1.7-1.6-2.9-3.2-2.7l-3.1,0.3v-8.2l3.7-0.3c1.7-0.1,2.9-1.6,2.7-3.2s-1.6-2.9-3.2-2.7&#10;&#9;&#9;l-3.1,0.3v-8.2l3.7-0.3c1.7-0.1,2.9-1.6,2.7-3.2c-0.1-1.7-1.6-2.9-3.2-2.7l-3.1,0.3v-8.2l3.7-0.3c1.7-0.1,2.9-1.6,2.7-3.2&#10;&#9;&#9;c-0.1-1.7-1.6-2.9-3.2-2.7l-3.1,0.3V814l3.7-0.3c1.7-0.1,2.9-1.6,2.7-3.2s-1.6-2.9-3.2-2.7l-3.1,0.3v-8.2l3.7-0.3&#10;&#9;&#9;c1.7-0.1,2.9-1.6,2.7-3.2c-0.1-1.7-1.6-2.9-3.2-2.7l-3.1,0.3v-8.2l3.7-0.3c1.7-0.1,2.9-1.6,2.7-3.2c-0.1-1.7-1.6-2.9-3.2-2.7&#10;&#9;&#9;l-3.1,0.3v-8.2l3.7-0.3c1.7-0.1,2.9-1.6,2.7-3.2c-0.1-1.7-1.6-2.9-3.2-2.7l-3.1,0.3v-8.2l3.7-0.3c1.7-0.1,2.9-1.6,2.7-3.2&#10;&#9;&#9;c-0.1-1.7-1.6-2.9-3.2-2.7l-3.1,0.3v-8.2l3.7-0.3c1.7-0.1,2.9-1.6,2.7-3.2s-1.6-2.9-3.2-2.7l-3.1,0.3v-8.2l3.7-0.3&#10;&#9;&#9;c1.7-0.1,2.9-1.6,2.7-3.2c-0.1-1.7-1.6-2.9-3.2-2.7l-3.1,0.3v-8.2l3.7-0.3c1.7-0.1,2.9-1.6,2.7-3.2c-0.1-1.7-1.6-2.9-3.2-2.7&#10;&#9;&#9;l-3.1,0.3v-8.2l3.7-0.3c1.7-0.1,2.9-1.6,2.7-3.2c-0.1-1.7-1.6-2.9-3.2-2.7l-3.1,0.3v-8.2l3.7-0.3c1.7-0.1,2.9-1.6,2.7-3.2&#10;&#9;&#9;c-0.1-1.7-1.6-2.9-3.2-2.7l-3.1,0.3v-8.2l3.7-0.3c1.7-0.1,2.9-1.6,2.7-3.2c-0.1-1.7-1.6-2.9-3.2-2.7l-3.1,0.3v-8.2l3.7-0.3&#10;&#9;&#9;c1.7-0.1,2.9-1.6,2.7-3.2c-0.1-1.7-1.6-2.9-3.2-2.7l-3.1,0.3v-8.2l3.7-0.3c1.7-0.1,2.9-1.6,2.7-3.2c-0.1-1.7-1.6-2.9-3.2-2.7&#10;&#9;&#9;l-3.1,0.3v-8.2l3.7-0.3c1.7-0.1,2.9-1.6,2.7-3.2c-0.1-1.7-1.6-2.9-3.2-2.7l-3.1,0.3v-8.2l3.7-0.3c1.7-0.1,2.9-1.6,2.7-3.2&#10;&#9;&#9;c-0.1-1.7-1.6-2.9-3.2-2.7l-3.1,0.3v-8.2L1677.3,601.1z" transform="matrix(1, 0, 0, 1, 0, 0)"/><g transform="matrix(1, 0, 0, 1, 0, 0)">
			<path d="M1677.3,1398.2h32l0.9-2.5c0-37.1-30.1-67.2-67.2-67.2s-67.2,30.1-67.2,67.2l0.9,2.5h31.7l-3,0.3&#10;&#9;&#9;&#9;&#9;c-1.7,0.1-2.9,1.6-2.7,3.2c0.1,1.7,1.6,2.9,3.2,2.7l3.1-0.3v8.2l-3.7,0.3c-1.7,0.1-2.9,1.6-2.7,3.2s1.6,2.9,3.2,2.7l3.1-0.3v8.2&#10;&#9;&#9;&#9;&#9;l-3.7,0.3c-1.7,0.1-2.9,1.6-2.7,3.2s1.6,2.9,3.2,2.7l3.1-0.3v8.2l-3.7,0.3c-1.7,0.1-2.9,1.6-2.7,3.2c0.1,1.7,1.6,2.9,3.2,2.7&#10;&#9;&#9;&#9;&#9;l3.1-0.3v8.2l-3.7,0.3c-1.7,0.1-2.9,1.6-2.7,3.2s1.6,2.9,3.2,2.7l3.1-0.3v8.2l-3.7,0.3c-1.7,0.1-2.9,1.6-2.7,3.2s1.6,2.9,3.2,2.7&#10;&#9;&#9;&#9;&#9;l3.1-0.3v8.2l-3.7,0.3c-1.7,0.1-2.9,1.6-2.7,3.2c0.1,1.7,1.6,2.9,3.2,2.7l3.1-0.3v8.2l-3.7,0.3c-1.7,0.1-2.9,1.6-2.7,3.2&#10;&#9;&#9;&#9;&#9;s1.6,2.9,3.2,2.7l3.1-0.3v8.2l-3.7,0.3c-1.7,0.1-2.9,1.6-2.7,3.2c0.1,1.7,1.6,2.9,3.2,2.7l3.1-0.3v8.2l-3.7,0.3&#10;&#9;&#9;&#9;&#9;c-1.7,0.1-2.9,1.6-2.7,3.2c0.1,1.7,1.6,2.9,3.2,2.7l3.1-0.3v8.2l-3.7,0.3c-1.7,0.1-2.9,1.6-2.7,3.2s1.6,2.9,3.2,2.7l3.1-0.3v8.2&#10;&#9;&#9;&#9;&#9;l-3.7,0.3c-1.7,0.1-2.9,1.6-2.7,3.2c0.1,1.7,1.6,2.9,3.2,2.7l3.1-0.3v1.1l2,3.4h63.5l2-3.4v-7l3.7-0.3c1.7-0.1,2.9-1.6,2.7-3.2&#10;&#9;&#9;&#9;&#9;c-0.1-1.7-1.6-2.9-3.2-2.7l-3.1,0.3v-8.2l3.7-0.3c1.7-0.1,2.9-1.6,2.7-3.2c-0.1-1.7-1.6-2.9-3.2-2.7l-3.1,0.3v-8.2l3.7-0.3&#10;&#9;&#9;&#9;&#9;c1.7-0.1,2.9-1.6,2.7-3.2s-1.6-2.9-3.2-2.7l-3.1,0.3v-8.2l3.7-0.3c1.7-0.1,2.9-1.6,2.7-3.2c-0.1-1.7-1.6-2.9-3.2-2.7l-3.1,0.3&#10;&#9;&#9;&#9;&#9;v-8.2l3.7-0.3c1.7-0.1,2.9-1.6,2.7-3.2c-0.1-1.7-1.6-2.9-3.2-2.7l-3.1,0.3v-8.2l3.7-0.3c1.7-0.1,2.9-1.6,2.7-3.2&#10;&#9;&#9;&#9;&#9;s-1.6-2.9-3.2-2.7l-3.1,0.3v-8.2l3.7-0.3c1.7-0.1,2.9-1.6,2.7-3.2c-0.1-1.7-1.6-2.9-3.2-2.7l-3.1,0.3v-8.2l3.7-0.3&#10;&#9;&#9;&#9;&#9;c1.7-0.1,2.9-1.6,2.7-3.2c-0.1-1.7-1.6-2.9-3.2-2.7l-3.1,0.3v-8.2l3.7-0.3c1.7-0.1,2.9-1.6,2.7-3.2s-1.6-2.9-3.2-2.7l-3.1,0.3&#10;&#9;&#9;&#9;&#9;v-8.2l3.7-0.3c1.7-0.1,2.9-1.6,2.7-3.2c-0.1-1.7-1.6-2.9-3.2-2.7l-3.1,0.3v-8.2l3.7-0.3c1.7-0.1,2.9-1.6,2.7-3.2&#10;&#9;&#9;&#9;&#9;c-0.1-1.7-1.6-2.9-3.2-2.7l-3.1,0.3v-8.2L1677.3,1398.2z"/>
		</g><path d="M1709.3,1706.2l0.9-2.5c0-37.1-30.1-67.2-67.2-67.2s-67.2,30.1-67.2,67.2l0.9,2.5h32.4v14.1l-7.2,0.6&#10;&#9;&#9;c-1.7,0.1-2.9,1.6-2.7,3.2c0.1,1.7,1.6,2.9,3.2,2.7l6.6-0.6v22.4l-7.2,0.6c-1.7,0.1-2.9,1.6-2.7,3.2c0.1,1.7,1.6,2.9,3.2,2.7&#10;&#9;&#9;l6.6-0.6v22.4l-7.2,0.6c-1.7,0.1-2.9,1.6-2.7,3.2c0.1,1.7,1.6,2.9,3.2,2.7l6.6-0.6v22.4l-7.2,0.6c-1.7,0.1-2.9,1.6-2.7,3.2&#10;&#9;&#9;c0.1,1.7,1.6,2.9,3.2,2.7l6.6-0.6v22.4l-7.2,0.6c-1.7,0.1-2.9,1.6-2.7,3.2c0.1,1.7,1.6,2.9,3.2,2.7l6.6-0.6v22.4l-3.7,0.3&#10;&#9;&#9;c-1.7,0.1-2.9,1.6-2.7,3.2s1.6,2.9,3.2,2.7l3.1-0.3v1.1l2,3.4h63.5l2-3.4v-7l3.7-0.3c1.7-0.1,2.9-1.6,2.7-3.2&#10;&#9;&#9;c-0.1-1.7-1.6-2.9-3.2-2.7l-3.1,0.3V1834l7.2-0.6c1.7-0.1,2.9-1.6,2.7-3.2c-0.1-1.7-1.6-2.9-3.2-2.7l-6.6,0.6v-22.4l7.2-0.6&#10;&#9;&#9;c1.7-0.1,2.9-1.6,2.7-3.2c-0.1-1.7-1.6-2.9-3.2-2.7l-6.6,0.6v-22.4l7.2-0.6c1.7-0.1,2.9-1.6,2.7-3.2c-0.1-1.7-1.6-2.9-3.2-2.7&#10;&#9;&#9;l-6.6,0.6v-22.4l7.2-0.6c1.7-0.1,2.9-1.6,2.7-3.2c-0.1-1.7-1.6-2.9-3.2-2.7l-6.6,0.6v-22.4l7.2-0.6c1.7-0.1,2.9-1.6,2.7-3.2&#10;&#9;&#9;c-0.1-1.7-1.6-2.9-3.2-2.7l-6.6,0.6v-8.2H1709.3z" transform="matrix(1, 0, 0, 1, 0, 0)"/><path d="M 824.5 1151.599976 A 98.5 98.5 0 0 1 726 1250.099976 A 98.5 98.5 0 0 1 627.5 1151.599976 A 98.5 98.5 0 0 1 726 1053.099976 A 98.5 98.5 0 0 1 824.5 1151.599976 Z" transform="matrix(1, 0, 0, 1, 0, 0)"/><path d="M812.3,1706.2l0.9-2.5c0,0-30.3-27.2-87.2-27.2c-56.8,0-87.2,27.2-87.2,27.2l0.9,2.5h52.4v14.1l-7.2,0.6&#10;&#9;&#9;c-1.7,0.1-2.9,1.6-2.7,3.2c0.1,1.7,1.6,2.9,3.2,2.7l6.6-0.6v22.4l-7.2,0.6c-1.7,0.1-2.9,1.6-2.7,3.2c0.1,1.7,1.6,2.9,3.2,2.7&#10;&#9;&#9;l6.6-0.6v22.4l-7.2,0.6c-1.7,0.1-2.9,1.6-2.7,3.2c0.1,1.7,1.6,2.9,3.2,2.7l6.6-0.6v22.4l-7.2,0.6c-1.7,0.1-2.9,1.6-2.7,3.2&#10;&#9;&#9;c0.1,1.7,1.6,2.9,3.2,2.7l6.6-0.6v22.4l-7.2,0.6c-1.7,0.1-2.9,1.6-2.7,3.2c0.1,1.7,1.6,2.9,3.2,2.7l6.6-0.6v22.4l-3.7,0.3&#10;&#9;&#9;c-1.7,0.1-2.9,1.6-2.7,3.2c0.1,1.7,1.6,2.9,3.2,2.7l3.1-0.3v1.1l2,3.4h63.5l2-3.4v-7l3.7-0.3c1.7-0.1,2.9-1.6,2.7-3.2&#10;&#9;&#9;c-0.1-1.7-1.6-2.9-3.2-2.7l-3.1,0.3V1834l7.2-0.6c1.7-0.1,2.9-1.6,2.7-3.2c-0.1-1.7-1.6-2.9-3.2-2.7l-6.6,0.6v-22.4l7.2-0.6&#10;&#9;&#9;c1.7-0.1,2.9-1.6,2.7-3.2c-0.1-1.7-1.6-2.9-3.2-2.7l-6.6,0.6v-22.4l7.2-0.6c1.7-0.1,2.9-1.6,2.7-3.2c-0.1-1.7-1.6-2.9-3.2-2.7&#10;&#9;&#9;l-6.6,0.6v-22.4l7.2-0.6c1.7-0.1,2.9-1.6,2.7-3.2c-0.1-1.7-1.6-2.9-3.2-2.7l-6.6,0.6v-22.4l7.2-0.6c1.7-0.1,2.9-1.6,2.7-3.2&#10;&#9;&#9;c-0.1-1.7-1.6-2.9-3.2-2.7l-6.6,0.6v-8.2H812.3z" transform="matrix(1, 0, 0, 1, 0, 0)"/><path d="M812.3,1398.2l0.9-2.5c0,0-30.3-27.2-87.2-27.2c-56.8,0-87.2,27.2-87.2,27.2l0.9,2.5h51.9l-3,0.3c-1.7,0.1-2.9,1.6-2.7,3.2&#10;&#9;&#9;c0.1,1.7,1.6,2.9,3.2,2.7l3.1-0.3v8.2l-3.7,0.3c-1.7,0.1-2.9,1.6-2.7,3.2c0.1,1.7,1.6,2.9,3.2,2.7l3.1-0.3v8.2l-3.7,0.3&#10;&#9;&#9;c-1.7,0.1-2.9,1.6-2.7,3.2c0.1,1.7,1.6,2.9,3.2,2.7l3.1-0.3v8.2l-3.7,0.3c-1.7,0.1-2.9,1.6-2.7,3.2c0.1,1.7,1.6,2.9,3.2,2.7&#10;&#9;&#9;l3.1-0.3v8.2l-3.7,0.3c-1.7,0.1-2.9,1.6-2.7,3.2c0.1,1.7,1.6,2.9,3.2,2.7l3.1-0.3v8.2l-3.7,0.3c-1.7,0.1-2.9,1.6-2.7,3.2&#10;&#9;&#9;c0.1,1.7,1.6,2.9,3.2,2.7l3.1-0.3v8.2l-3.7,0.3c-1.7,0.1-2.9,1.6-2.7,3.2c0.1,1.7,1.6,2.9,3.2,2.7l3.1-0.3v8.2l-3.7,0.3&#10;&#9;&#9;c-1.7,0.1-2.9,1.6-2.7,3.2c0.1,1.7,1.6,2.9,3.2,2.7l3.1-0.3v8.2l-3.7,0.3c-1.7,0.1-2.9,1.6-2.7,3.2c0.1,1.7,1.6,2.9,3.2,2.7&#10;&#9;&#9;l3.1-0.3v8.2l-3.7,0.3c-1.7,0.1-2.9,1.6-2.7,3.2c0.1,1.7,1.6,2.9,3.2,2.7l3.1-0.3v8.2l-3.7,0.3c-1.7,0.1-2.9,1.6-2.7,3.2&#10;&#9;&#9;c0.1,1.7,1.6,2.9,3.2,2.7l3.1-0.3v8.2l-3.7,0.3c-1.7,0.1-2.9,1.6-2.7,3.2c0.1,1.7,1.6,2.9,3.2,2.7l3.1-0.3v1.1l2,3.4h63.5l2-3.4v-7&#10;&#9;&#9;l3.7-0.3c1.7-0.1,2.9-1.6,2.7-3.2c-0.1-1.7-1.6-2.9-3.2-2.7l-3.1,0.3v-8.2l3.7-0.3c1.7-0.1,2.9-1.6,2.7-3.2&#10;&#9;&#9;c-0.1-1.7-1.6-2.9-3.2-2.7l-3.1,0.3v-8.2l3.7-0.3c1.7-0.1,2.9-1.6,2.7-3.2c-0.1-1.7-1.6-2.9-3.2-2.7l-3.1,0.3v-8.2l3.7-0.3&#10;&#9;&#9;c1.7-0.1,2.9-1.6,2.7-3.2c-0.1-1.7-1.6-2.9-3.2-2.7l-3.1,0.3v-8.2l3.7-0.3c1.7-0.1,2.9-1.6,2.7-3.2c-0.1-1.7-1.6-2.9-3.2-2.7&#10;&#9;&#9;l-3.1,0.3v-8.2l3.7-0.3c1.7-0.1,2.9-1.6,2.7-3.2c-0.1-1.7-1.6-2.9-3.2-2.7l-3.1,0.3v-8.2l3.7-0.3c1.7-0.1,2.9-1.6,2.7-3.2&#10;&#9;&#9;c-0.1-1.7-1.6-2.9-3.2-2.7l-3.1,0.3v-8.2l3.7-0.3c1.7-0.1,2.9-1.6,2.7-3.2c-0.1-1.7-1.6-2.9-3.2-2.7l-3.1,0.3v-8.2l3.7-0.3&#10;&#9;&#9;c1.7-0.1,2.9-1.6,2.7-3.2c-0.1-1.7-1.6-2.9-3.2-2.7l-3.1,0.3v-8.2l3.7-0.3c1.7-0.1,2.9-1.6,2.7-3.2c-0.1-1.7-1.6-2.9-3.2-2.7&#10;&#9;&#9;l-3.1,0.3v-8.2l3.7-0.3c1.7-0.1,2.9-1.6,2.7-3.2c-0.1-1.7-1.6-2.9-3.2-2.7l-3.1,0.3v-8.2H812.3z" transform="matrix(1, 0, 0, 1, 0, 0)"/><path d="M759.8,601.1h52.5l0.9-2.5c0,0-30.3-27.2-87.2-27.2c-56.8,0-87.2,27.2-87.2,27.2l0.9,2.5h51.9l-3,0.3&#10;&#9;&#9;c-1.7,0.1-2.9,1.6-2.7,3.2c0.1,1.7,1.6,2.9,3.2,2.7l3.1-0.3v8.2l-3.7,0.3c-1.7,0.1-2.9,1.6-2.7,3.2c0.1,1.7,1.6,2.9,3.2,2.7&#10;&#9;&#9;l3.1-0.3v8.2l-3.7,0.3c-1.7,0.1-2.9,1.6-2.7,3.2c0.1,1.7,1.6,2.9,3.2,2.7l3.1-0.3v8.2l-3.7,0.3c-1.7,0.1-2.9,1.6-2.7,3.2&#10;&#9;&#9;c0.1,1.7,1.6,2.9,3.2,2.7l3.1-0.3v8.2l-3.7,0.3c-1.7,0.1-2.9,1.6-2.7,3.2c0.1,1.7,1.6,2.9,3.2,2.7l3.1-0.3v8.2l-3.7,0.3&#10;&#9;&#9;c-1.7,0.1-2.9,1.6-2.7,3.2c0.1,1.7,1.6,2.9,3.2,2.7l3.1-0.3v8.2l-3.7,0.3c-1.7,0.1-2.9,1.6-2.7,3.2c0.1,1.7,1.6,2.9,3.2,2.7&#10;&#9;&#9;l3.1-0.3v8.2l-3.7,0.3c-1.7,0.1-2.9,1.6-2.7,3.2c0.1,1.7,1.6,2.9,3.2,2.7l3.1-0.3v8.2l-3.7,0.3c-1.7,0.1-2.9,1.6-2.7,3.2&#10;&#9;&#9;c0.1,1.7,1.6,2.9,3.2,2.7l3.1-0.3v8.2l-3.7,0.3c-1.7,0.1-2.9,1.6-2.7,3.2c0.1,1.7,1.6,2.9,3.2,2.7l3.1-0.3v8.2l-3.7,0.3&#10;&#9;&#9;c-1.7,0.1-2.9,1.6-2.7,3.2c0.1,1.7,1.6,2.9,3.2,2.7l3.1-0.3v8.2l-3.7,0.3c-1.7,0.1-2.9,1.6-2.7,3.2c0.1,1.7,1.6,2.9,3.2,2.7&#10;&#9;&#9;l3.1-0.3v8.2l-3.7,0.3c-1.7,0.1-2.9,1.6-2.7,3.2c0.1,1.7,1.6,2.9,3.2,2.7l3.1-0.3v8.2l-3.7,0.3c-1.7,0.1-2.9,1.6-2.7,3.2&#10;&#9;&#9;c0.1,1.7,1.6,2.9,3.2,2.7l3.1-0.3v8.2l-3.7,0.3c-1.7,0.1-2.9,1.6-2.7,3.2c0.1,1.7,1.6,2.9,3.2,2.7l3.1-0.3v8.2l-3.7,0.3&#10;&#9;&#9;c-1.7,0.1-2.9,1.6-2.7,3.2c0.1,1.7,1.6,2.9,3.2,2.7l3.1-0.3v8.2l-3.7,0.3c-1.7,0.1-2.9,1.6-2.7,3.2c0.1,1.7,1.6,2.9,3.2,2.7&#10;&#9;&#9;l3.1-0.3v8.2l-3.7,0.3c-1.7,0.1-2.9,1.6-2.7,3.2c0.1,1.7,1.6,2.9,3.2,2.7l3.1-0.3v8.2l-3.7,0.3c-1.7,0.1-2.9,1.6-2.7,3.2&#10;&#9;&#9;c0.1,1.7,1.6,2.9,3.2,2.7l3.1-0.3v8.2l-3.7,0.3c-1.7,0.1-2.9,1.6-2.7,3.2c0.1,1.7,1.6,2.9,3.2,2.7l3.1-0.3v8.2l-3.7,0.3&#10;&#9;&#9;c-1.7,0.1-2.9,1.6-2.7,3.2c0.1,1.7,1.6,2.9,3.2,2.7l3.1-0.3v8.2l-3.7,0.3c-1.7,0.1-2.9,1.6-2.7,3.2c0.1,1.7,1.6,2.9,3.2,2.7&#10;&#9;&#9;l3.1-0.3v8.2l-3.7,0.3c-1.7,0.1-2.9,1.6-2.7,3.2c0.1,1.7,1.6,2.9,3.2,2.7l3.1-0.3v8.2l-3.7,0.3c-1.7,0.1-2.9,1.6-2.7,3.2&#10;&#9;&#9;c0.1,1.7,1.6,2.9,3.2,2.7l3.1-0.3v8.2l-3.7,0.3c-1.7,0.1-2.9,1.6-2.7,3.2c0.1,1.7,1.6,2.9,3.2,2.7l3.1-0.3v8.2l-3.7,0.3&#10;&#9;&#9;c-1.7,0.1-2.9,1.6-2.7,3.2c0.1,1.7,1.6,2.9,3.2,2.7l3.1-0.3v8.2l-3.7,0.3c-1.7,0.1-2.9,1.6-2.7,3.2c0.1,1.7,1.6,2.9,3.2,2.7&#10;&#9;&#9;l3.1-0.3v8.2l-3.7,0.3c-1.7,0.1-2.9,1.6-2.7,3.2c0.1,1.7,1.6,2.9,3.2,2.7l3.1-0.3v8.2l-3.7,0.3c-1.7,0.1-2.9,1.6-2.7,3.2&#10;&#9;&#9;c0.1,1.7,1.6,2.9,3.2,2.7l3.1-0.3v0.8l2,3.4h63.5l2-3.4v-6.7l3.7-0.3c1.7-0.1,2.9-1.6,2.7-3.2c-0.1-1.7-1.6-2.9-3.2-2.7l-3.1,0.3&#10;&#9;&#9;v-8.2l3.7-0.3c1.7-0.1,2.9-1.6,2.7-3.2c-0.1-1.7-1.6-2.9-3.2-2.7l-3.1,0.3v-8.2l3.7-0.3c1.7-0.1,2.9-1.6,2.7-3.2&#10;&#9;&#9;c-0.1-1.7-1.6-2.9-3.2-2.7l-3.1,0.3V956l3.7-0.3c1.7-0.1,2.9-1.6,2.7-3.2c-0.1-1.7-1.6-2.9-3.2-2.7l-3.1,0.3v-8.2l3.7-0.3&#10;&#9;&#9;c1.7-0.1,2.9-1.6,2.7-3.2c-0.1-1.7-1.6-2.9-3.2-2.7l-3.1,0.3v-8.2l3.7-0.3c1.7-0.1,2.9-1.6,2.7-3.2c-0.1-1.7-1.6-2.9-3.2-2.7&#10;&#9;&#9;l-3.1,0.3v-8.2l3.7-0.3c1.7-0.1,2.9-1.6,2.7-3.2c-0.1-1.7-1.6-2.9-3.2-2.7l-3.1,0.3v-8.2l3.7-0.3c1.7-0.1,2.9-1.6,2.7-3.2&#10;&#9;&#9;c-0.1-1.7-1.6-2.9-3.2-2.7l-3.1,0.3V885l3.7-0.3c1.7-0.1,2.9-1.6,2.7-3.2c-0.1-1.7-1.6-2.9-3.2-2.7l-3.1,0.3v-8.2l3.7-0.3&#10;&#9;&#9;c1.7-0.1,2.9-1.6,2.7-3.2c-0.1-1.7-1.6-2.9-3.2-2.7l-3.1,0.3v-8.2l3.7-0.3c1.7-0.1,2.9-1.6,2.7-3.2c-0.1-1.7-1.6-2.9-3.2-2.7&#10;&#9;&#9;l-3.1,0.3v-8.2l3.7-0.3c1.7-0.1,2.9-1.6,2.7-3.2c-0.1-1.7-1.6-2.9-3.2-2.7l-3.1,0.3v-8.2l3.7-0.3c1.7-0.1,2.9-1.6,2.7-3.2&#10;&#9;&#9;c-0.1-1.7-1.6-2.9-3.2-2.7l-3.1,0.3V814l3.7-0.3c1.7-0.1,2.9-1.6,2.7-3.2c-0.1-1.7-1.6-2.9-3.2-2.7l-3.1,0.3v-8.2l3.7-0.3&#10;&#9;&#9;c1.7-0.1,2.9-1.6,2.7-3.2c-0.1-1.7-1.6-2.9-3.2-2.7l-3.1,0.3v-8.2l3.7-0.3c1.7-0.1,2.9-1.6,2.7-3.2c-0.1-1.7-1.6-2.9-3.2-2.7&#10;&#9;&#9;l-3.1,0.3v-8.2l3.7-0.3c1.7-0.1,2.9-1.6,2.7-3.2c-0.1-1.7-1.6-2.9-3.2-2.7l-3.1,0.3v-8.2l3.7-0.3c1.7-0.1,2.9-1.6,2.7-3.2&#10;&#9;&#9;c-0.1-1.7-1.6-2.9-3.2-2.7l-3.1,0.3v-8.2l3.7-0.3c1.7-0.1,2.9-1.6,2.7-3.2c-0.1-1.7-1.6-2.9-3.2-2.7l-3.1,0.3v-8.2l3.7-0.3&#10;&#9;&#9;c1.7-0.1,2.9-1.6,2.7-3.2c-0.1-1.7-1.6-2.9-3.2-2.7l-3.1,0.3v-8.2l3.7-0.3c1.7-0.1,2.9-1.6,2.7-3.2c-0.1-1.7-1.6-2.9-3.2-2.7&#10;&#9;&#9;l-3.1,0.3v-8.2l3.7-0.3c1.7-0.1,2.9-1.6,2.7-3.2c-0.1-1.7-1.6-2.9-3.2-2.7l-3.1,0.3v-8.2l3.7-0.3c1.7-0.1,2.9-1.6,2.7-3.2&#10;&#9;&#9;c-0.1-1.7-1.6-2.9-3.2-2.7l-3.1,0.3v-8.2l3.7-0.3c1.7-0.1,2.9-1.6,2.7-3.2c-0.1-1.7-1.6-2.9-3.2-2.7l-3.1,0.3v-8.2l3.7-0.3&#10;&#9;&#9;c1.7-0.1,2.9-1.6,2.7-3.2c-0.1-1.7-1.6-2.9-3.2-2.7l-3.1,0.3v-8.2l3.7-0.3c1.7-0.1,2.9-1.6,2.7-3.2c-0.1-1.7-1.6-2.9-3.2-2.7&#10;&#9;&#9;l-3.1,0.3v-8.2l3.7-0.3c1.7-0.1,2.9-1.6,2.7-3.2c-0.1-1.7-1.6-2.9-3.2-2.7l-3.1,0.3v-8.2l3.7-0.3c1.7-0.1,2.9-1.6,2.7-3.2&#10;&#9;&#9;c-0.1-1.7-1.6-2.9-3.2-2.7l-3.1,0.3L759.8,601.1z" transform="matrix(1, 0, 0, 1, 0, 0)"/><path d="M 1827.300048828125 1229.5999755859375 L 1782.199951171875 1151.5999755859375 L 1827.300048828125 1073.699951171875 L 1917.300048828125 1073.699951171875 L 1962.199951171875 1151.5999755859375 L 1917.300048828125 1229.5999755859375 Z" transform="matrix(1, 0, 0, 1, 0, 0)"/><path d="M1934.4,527.2h-124.3c-2.8,0-5,2.2-5,5v65.4l2.9,3.5h29.7l-3,0.3c-1.7,0.1-2.9,1.6-2.7,3.2c0.1,1.7,1.6,2.9,3.2,2.7&#10;&#9;&#9;l3.1-0.3v8.2l-3.7,0.3c-1.7,0.1-2.9,1.6-2.7,3.2c0.1,1.7,1.6,2.9,3.2,2.7l3.1-0.3v8.2l-3.7,0.3c-1.7,0.1-2.9,1.6-2.7,3.2&#10;&#9;&#9;s1.6,2.9,3.2,2.7l3.1-0.3v8.2l-3.7,0.3c-1.7,0.1-2.9,1.6-2.7,3.2c0.1,1.7,1.6,2.9,3.2,2.7l3.1-0.3v8.2l-3.7,0.3&#10;&#9;&#9;c-1.7,0.1-2.9,1.6-2.7,3.2c0.1,1.7,1.6,2.9,3.2,2.7l3.1-0.3v8.2l-3.7,0.3c-1.7,0.1-2.9,1.6-2.7,3.2c0.1,1.7,1.6,2.9,3.2,2.7&#10;&#9;&#9;l3.1-0.3v8.2l-3.7,0.3c-1.7,0.1-2.9,1.6-2.7,3.2c0.1,1.7,1.6,2.9,3.2,2.7l3.1-0.3v8.2l-3.7,0.3c-1.7,0.1-2.9,1.6-2.7,3.2&#10;&#9;&#9;s1.6,2.9,3.2,2.7l3.1-0.3v8.2l-3.7,0.3c-1.7,0.1-2.9,1.6-2.7,3.2c0.1,1.7,1.6,2.9,3.2,2.7l3.1-0.3v8.2l-3.7,0.3&#10;&#9;&#9;c-1.7,0.1-2.9,1.6-2.7,3.2c0.1,1.7,1.6,2.9,3.2,2.7l3.1-0.3v8.2l-3.7,0.3c-1.7,0.1-2.9,1.6-2.7,3.2c0.1,1.7,1.6,2.9,3.2,2.7&#10;&#9;&#9;l3.1-0.3v8.2l-3.7,0.3c-1.7,0.1-2.9,1.6-2.7,3.2c0.1,1.7,1.6,2.9,3.2,2.7l3.1-0.3v8.2l-3.7,0.3c-1.7,0.1-2.9,1.6-2.7,3.2&#10;&#9;&#9;c0.1,1.7,1.6,2.9,3.2,2.7l3.1-0.3v8.2l-3.7,0.3c-1.7,0.1-2.9,1.6-2.7,3.2c0.1,1.7,1.6,2.9,3.2,2.7l3.1-0.3v8.2l-3.7,0.3&#10;&#9;&#9;c-1.7,0.1-2.9,1.6-2.7,3.2s1.6,2.9,3.2,2.7l3.1-0.3v8.2l-3.7,0.3c-1.7,0.1-2.9,1.6-2.7,3.2c0.1,1.7,1.6,2.9,3.2,2.7l3.1-0.3v8.2&#10;&#9;&#9;l-3.7,0.3c-1.7,0.1-2.9,1.6-2.7,3.2c0.1,1.7,1.6,2.9,3.2,2.7l3.1-0.3v8.2l-3.7,0.3c-1.7,0.1-2.9,1.6-2.7,3.2s1.6,2.9,3.2,2.7&#10;&#9;&#9;l3.1-0.3v8.2l-3.7,0.3c-1.7,0.1-2.9,1.6-2.7,3.2c0.1,1.7,1.6,2.9,3.2,2.7l3.1-0.3v8.2l-3.7,0.3c-1.7,0.1-2.9,1.6-2.7,3.2&#10;&#9;&#9;c0.1,1.7,1.6,2.9,3.2,2.7l3.1-0.3v8.2l-3.7,0.3c-1.7,0.1-2.9,1.6-2.7,3.2s1.6,2.9,3.2,2.7l3.1-0.3v8.2l-3.7,0.3&#10;&#9;&#9;c-1.7,0.1-2.9,1.6-2.7,3.2c0.1,1.7,1.6,2.9,3.2,2.7l3.1-0.3v8.2l-3.7,0.3c-1.7,0.1-2.9,1.6-2.7,3.2c0.1,1.7,1.6,2.9,3.2,2.7&#10;&#9;&#9;l3.1-0.3v8.2l-3.7,0.3c-1.7,0.1-2.9,1.6-2.7,3.2c0.1,1.7,1.6,2.9,3.2,2.7l3.1-0.3v8.2l-3.7,0.3c-1.7,0.1-2.9,1.6-2.7,3.2&#10;&#9;&#9;s1.6,2.9,3.2,2.7l3.1-0.3v8.2l-3.7,0.3c-1.7,0.1-2.9,1.6-2.7,3.2c0.1,1.7,1.6,2.9,3.2,2.7l3.1-0.3v8.2l-3.7,0.3&#10;&#9;&#9;c-1.7,0.1-2.9,1.6-2.7,3.2c0.1,1.7,1.6,2.9,3.2,2.7l3.1-0.3v8.2l-3.7,0.3c-1.7,0.1-2.9,1.6-2.7,3.2s1.6,2.9,3.2,2.7l3.1-0.3v8.2&#10;&#9;&#9;l-3.7,0.3c-1.7,0.1-2.9,1.6-2.7,3.2c0.1,1.7,1.6,2.9,3.2,2.7l3.1-0.3v0.8l2,3.4h63.5l2-3.4v-6.7l3.7-0.3c1.7-0.1,2.9-1.6,2.7-3.2&#10;&#9;&#9;s-1.6-2.9-3.2-2.7l-3.1,0.3v-8.2l3.7-0.3c1.7-0.1,2.9-1.6,2.7-3.2c-0.1-1.7-1.6-2.9-3.2-2.7l-3.1,0.3v-8.2l3.7-0.3&#10;&#9;&#9;c1.7-0.1,2.9-1.6,2.7-3.2c-0.1-1.7-1.6-2.9-3.2-2.7l-3.1,0.3V956l3.7-0.3c1.7-0.1,2.9-1.6,2.7-3.2s-1.6-2.9-3.2-2.7l-3.1,0.3v-8.2&#10;&#9;&#9;l3.7-0.3c1.7-0.1,2.9-1.6,2.7-3.2c-0.1-1.7-1.6-2.9-3.2-2.7l-3.1,0.3v-8.2l3.7-0.3c1.7-0.1,2.9-1.6,2.7-3.2&#10;&#9;&#9;c-0.1-1.7-1.6-2.9-3.2-2.7l-3.1,0.3v-8.2l3.7-0.3c1.7-0.1,2.9-1.6,2.7-3.2s-1.6-2.9-3.2-2.7l-3.1,0.3v-8.2l3.7-0.3&#10;&#9;&#9;c1.7-0.1,2.9-1.6,2.7-3.2s-1.6-2.9-3.2-2.7l-3.1,0.3V885l3.7-0.3c1.7-0.1,2.9-1.6,2.7-3.2c-0.1-1.7-1.6-2.9-3.2-2.7l-3.1,0.3v-8.2&#10;&#9;&#9;l3.7-0.3c1.7-0.1,2.9-1.6,2.7-3.2c-0.1-1.7-1.6-2.9-3.2-2.7l-3.1,0.3v-8.2l3.7-0.3c1.7-0.1,2.9-1.6,2.7-3.2s-1.6-2.9-3.2-2.7&#10;&#9;&#9;l-3.1,0.3v-8.2l3.7-0.3c1.7-0.1,2.9-1.6,2.7-3.2c-0.1-1.7-1.6-2.9-3.2-2.7l-3.1,0.3v-8.2l3.7-0.3c1.7-0.1,2.9-1.6,2.7-3.2&#10;&#9;&#9;c-0.1-1.7-1.6-2.9-3.2-2.7l-3.1,0.3V814l3.7-0.3c1.7-0.1,2.9-1.6,2.7-3.2s-1.6-2.9-3.2-2.7l-3.1,0.3v-8.2l3.7-0.3&#10;&#9;&#9;c1.7-0.1,2.9-1.6,2.7-3.2c-0.1-1.7-1.6-2.9-3.2-2.7l-3.1,0.3v-8.2l3.7-0.3c1.7-0.1,2.9-1.6,2.7-3.2c-0.1-1.7-1.6-2.9-3.2-2.7&#10;&#9;&#9;l-3.1,0.3v-8.2l3.7-0.3c1.7-0.1,2.9-1.6,2.7-3.2c-0.1-1.7-1.6-2.9-3.2-2.7l-3.1,0.3v-8.2l3.7-0.3c1.7-0.1,2.9-1.6,2.7-3.2&#10;&#9;&#9;c-0.1-1.7-1.6-2.9-3.2-2.7l-3.1,0.3v-8.2l3.7-0.3c1.7-0.1,2.9-1.6,2.7-3.2s-1.6-2.9-3.2-2.7l-3.1,0.3v-8.2l3.7-0.3&#10;&#9;&#9;c1.7-0.1,2.9-1.6,2.7-3.2c-0.1-1.7-1.6-2.9-3.2-2.7l-3.1,0.3v-8.2l3.7-0.3c1.7-0.1,2.9-1.6,2.7-3.2c-0.1-1.7-1.6-2.9-3.2-2.7&#10;&#9;&#9;l-3.1,0.3v-8.2l3.7-0.3c1.7-0.1,2.9-1.6,2.7-3.2c-0.1-1.7-1.6-2.9-3.2-2.7l-3.1,0.3v-8.2l3.7-0.3c1.7-0.1,2.9-1.6,2.7-3.2&#10;&#9;&#9;c-0.1-1.7-1.6-2.9-3.2-2.7l-3.1,0.3v-8.2l3.7-0.3c1.7-0.1,2.9-1.6,2.7-3.2c-0.1-1.7-1.6-2.9-3.2-2.7l-3.1,0.3v-8.2l3.7-0.3&#10;&#9;&#9;c1.7-0.1,2.9-1.6,2.7-3.2c-0.1-1.7-1.6-2.9-3.2-2.7l-3.1,0.3v-8.2l3.7-0.3c1.7-0.1,2.9-1.6,2.7-3.2c-0.1-1.7-1.6-2.9-3.2-2.7&#10;&#9;&#9;l-3.1,0.3v-8.2l3.7-0.3c1.7-0.1,2.9-1.6,2.7-3.2c-0.1-1.7-1.6-2.9-3.2-2.7l-3.1,0.3v-8.2l3.7-0.3c1.7-0.1,2.9-1.6,2.7-3.2&#10;&#9;&#9;c-0.1-1.7-1.6-2.9-3.2-2.7l-3.1,0.3v-8.2l0.7-0.1h30l2.9-3.5v-65.4C1939.4,529.4,1937.2,527.2,1934.4,527.2z" transform="matrix(1, 0, 0, 1, 0, 0)"/><g transform="matrix(1, 0, 0, 1, 0, 0)">
			<path d="M1934.4,1330.7h-124.3c-2.8,0-5,2.2-5,5v59.4l2.9,3.5h29.7l-3,0.3c-1.7,0.1-2.9,1.6-2.7,3.2c0.1,1.7,1.6,2.9,3.2,2.7&#10;&#9;&#9;&#9;&#9;l3.1-0.3v8.2l-3.7,0.3c-1.7,0.1-2.9,1.6-2.7,3.2s1.6,2.9,3.2,2.7l3.1-0.3v8.2l-3.7,0.3c-1.7,0.1-2.9,1.6-2.7,3.2s1.6,2.9,3.2,2.7&#10;&#9;&#9;&#9;&#9;l3.1-0.3v8.2l-3.7,0.3c-1.7,0.1-2.9,1.6-2.7,3.2c0.1,1.7,1.6,2.9,3.2,2.7l3.1-0.3v8.2l-3.7,0.3c-1.7,0.1-2.9,1.6-2.7,3.2&#10;&#9;&#9;&#9;&#9;s1.6,2.9,3.2,2.7l3.1-0.3v8.2l-3.7,0.3c-1.7,0.1-2.9,1.6-2.7,3.2s1.6,2.9,3.2,2.7l3.1-0.3v8.2l-3.7,0.3c-1.7,0.1-2.9,1.6-2.7,3.2&#10;&#9;&#9;&#9;&#9;c0.1,1.7,1.6,2.9,3.2,2.7l3.1-0.3v8.2l-3.7,0.3c-1.7,0.1-2.9,1.6-2.7,3.2s1.6,2.9,3.2,2.7l3.1-0.3v8.2l-3.7,0.3&#10;&#9;&#9;&#9;&#9;c-1.7,0.1-2.9,1.6-2.7,3.2s1.6,2.9,3.2,2.7l3.1-0.3v8.2l-3.7,0.3c-1.7,0.1-2.9,1.6-2.7,3.2s1.6,2.9,3.2,2.7l3.1-0.3v8.2l-3.7,0.3&#10;&#9;&#9;&#9;&#9;c-1.7,0.1-2.9,1.6-2.7,3.2c0.1,1.7,1.6,2.9,3.2,2.7l3.1-0.3v8.2l-3.7,0.3c-1.7,0.1-2.9,1.6-2.7,3.2s1.6,2.9,3.2,2.7l3.1-0.3v0.8&#10;&#9;&#9;&#9;&#9;l2,3.4h63.5l2-3.4v-6.7l3.7-0.3c1.7-0.1,2.9-1.6,2.7-3.2s-1.6-2.9-3.2-2.7l-3.1,0.3v-8.2l3.7-0.3c1.7-0.1,2.9-1.6,2.7-3.2&#10;&#9;&#9;&#9;&#9;s-1.6-2.9-3.2-2.7l-3.1,0.3v-8.2l3.7-0.3c1.7-0.1,2.9-1.6,2.7-3.2c-0.1-1.7-1.6-2.9-3.2-2.7l-3.1,0.3v-8.2l3.7-0.3&#10;&#9;&#9;&#9;&#9;c1.7-0.1,2.9-1.6,2.7-3.2s-1.6-2.9-3.2-2.7l-3.1,0.3v-8.2l3.7-0.3c1.7-0.1,2.9-1.6,2.7-3.2c-0.1-1.7-1.6-2.9-3.2-2.7l-3.1,0.3&#10;&#9;&#9;&#9;&#9;v-8.2l3.7-0.3c1.7-0.1,2.9-1.6,2.7-3.2s-1.6-2.9-3.2-2.7l-3.1,0.3v-8.2l3.7-0.3c1.7-0.1,2.9-1.6,2.7-3.2&#10;&#9;&#9;&#9;&#9;c-0.1-1.7-1.6-2.9-3.2-2.7l-3.1,0.3v-8.2l3.7-0.3c1.7-0.1,2.9-1.6,2.7-3.2c-0.1-1.7-1.6-2.9-3.2-2.7l-3.1,0.3v-8.2l3.7-0.3&#10;&#9;&#9;&#9;&#9;c1.7-0.1,2.9-1.6,2.7-3.2s-1.6-2.9-3.2-2.7l-3.1,0.3v-8.2l3.7-0.3c1.7-0.1,2.9-1.6,2.7-3.2c-0.1-1.7-1.6-2.9-3.2-2.7l-3.1,0.3&#10;&#9;&#9;&#9;&#9;v-8.2l3.7-0.3c1.7-0.1,2.9-1.6,2.7-3.2c-0.1-1.7-1.6-2.9-3.2-2.7l-3.1,0.3v-8.2l0.7-0.1h30l2.9-3.5v-59.4&#10;&#9;&#9;&#9;&#9;C1939.4,1332.9,1937.2,1330.7,1934.4,1330.7z"/>
		</g><path d="M1934.4,1648.3h-124.3c-2.8,0-5,2.2-5,5v49.4l2.9,3.5h30.4v14.1l-7.2,0.6c-1.7,0.1-2.9,1.6-2.7,3.2&#10;&#9;&#9;c0.1,1.7,1.6,2.9,3.2,2.7l6.6-0.6v22.4l-7.2,0.6c-1.7,0.1-2.9,1.6-2.7,3.2c0.1,1.7,1.6,2.9,3.2,2.7l6.6-0.6v22.4l-7.2,0.6&#10;&#9;&#9;c-1.7,0.1-2.9,1.6-2.7,3.2c0.1,1.7,1.6,2.9,3.2,2.7l6.6-0.6v22.4l-7.2,0.6c-1.7,0.1-2.9,1.6-2.7,3.2c0.1,1.7,1.6,2.9,3.2,2.7&#10;&#9;&#9;l6.6-0.6v22.4l-7.2,0.6c-1.7,0.1-2.9,1.6-2.7,3.2c0.1,1.7,1.6,2.9,3.2,2.7l6.6-0.6v22.4l-3.7,0.3c-1.7,0.1-2.9,1.6-2.7,3.2&#10;&#9;&#9;s1.6,2.9,3.2,2.7l3.1-0.3v1.1l2,3.4h63.5l2-3.4v-7l3.7-0.3c1.7-0.1,2.9-1.6,2.7-3.2c-0.1-1.7-1.6-2.9-3.2-2.7l-3.1,0.3V1834&#10;&#9;&#9;l7.2-0.6c1.7-0.1,2.9-1.6,2.7-3.2c-0.1-1.7-1.6-2.9-3.2-2.7l-6.6,0.6v-22.4l7.2-0.6c1.7-0.1,2.9-1.6,2.7-3.2&#10;&#9;&#9;c-0.1-1.7-1.6-2.9-3.2-2.7l-6.6,0.6v-22.4l7.2-0.6c1.7-0.1,2.9-1.6,2.7-3.2c-0.1-1.7-1.6-2.9-3.2-2.7l-6.6,0.6v-22.4l7.2-0.6&#10;&#9;&#9;c1.7-0.1,2.9-1.6,2.7-3.2c-0.1-1.7-1.6-2.9-3.2-2.7l-6.6,0.6v-22.4l7.2-0.6c1.7-0.1,2.9-1.6,2.7-3.2c-0.1-1.7-1.6-2.9-3.2-2.7&#10;&#9;&#9;l-6.6,0.6v-8.2h30.6l2.9-3.5v-49.4C1939.4,1650.5,1937.2,1648.3,1934.4,1648.3z" transform="matrix(1, 0, 0, 1, 0, 0)"/><path d="M2101.5,1053.1c-54.4,0-98.5,44.1-98.5,98.5c0,54.4,44.1,98.5,98.5,98.5c54.4,0,98.5-44.1,98.5-98.5&#10;&#9;&#9;C2200,1097.2,2155.9,1053.1,2101.5,1053.1z M2143.9,1225.2h-84.9l-42.4-73.5l42.4-73.5h84.9l42.4,73.5L2143.9,1225.2z" transform="matrix(1, 0, 0, 1, 0, 0)"/><path d="M2168.7,592.6v-45.4c0-2.8-2.2-5-5-5h-124.3c-2.8,0-5,2.2-5,5v45.4h-20v8.5h52.6l-3,0.3c-1.7,0.1-2.9,1.6-2.7,3.2&#10;&#9;&#9;c0.1,1.7,1.6,2.9,3.2,2.7l3.1-0.3v8.2l-3.7,0.3c-1.7,0.1-2.9,1.6-2.7,3.2c0.1,1.7,1.6,2.9,3.2,2.7l3.1-0.3v8.2l-3.7,0.3&#10;&#9;&#9;c-1.7,0.1-2.9,1.6-2.7,3.2s1.6,2.9,3.2,2.7l3.1-0.3v8.2l-3.7,0.3c-1.7,0.1-2.9,1.6-2.7,3.2c0.1,1.7,1.6,2.9,3.2,2.7l3.1-0.3v8.2&#10;&#9;&#9;l-3.7,0.3c-1.7,0.1-2.9,1.6-2.7,3.2c0.1,1.7,1.6,2.9,3.2,2.7l3.1-0.3v8.2l-3.7,0.3c-1.7,0.1-2.9,1.6-2.7,3.2&#10;&#9;&#9;c0.1,1.7,1.6,2.9,3.2,2.7l3.1-0.3v8.2l-3.7,0.3c-1.7,0.1-2.9,1.6-2.7,3.2c0.1,1.7,1.6,2.9,3.2,2.7l3.1-0.3v8.2l-3.7,0.3&#10;&#9;&#9;c-1.7,0.1-2.9,1.6-2.7,3.2s1.6,2.9,3.2,2.7l3.1-0.3v8.2l-3.7,0.3c-1.7,0.1-2.9,1.6-2.7,3.2c0.1,1.7,1.6,2.9,3.2,2.7l3.1-0.3v8.2&#10;&#9;&#9;l-3.7,0.3c-1.7,0.1-2.9,1.6-2.7,3.2c0.1,1.7,1.6,2.9,3.2,2.7l3.1-0.3v8.2l-3.7,0.3c-1.7,0.1-2.9,1.6-2.7,3.2&#10;&#9;&#9;c0.1,1.7,1.6,2.9,3.2,2.7l3.1-0.3v8.2l-3.7,0.3c-1.7,0.1-2.9,1.6-2.7,3.2c0.1,1.7,1.6,2.9,3.2,2.7l3.1-0.3v8.2l-3.7,0.3&#10;&#9;&#9;c-1.7,0.1-2.9,1.6-2.7,3.2c0.1,1.7,1.6,2.9,3.2,2.7l3.1-0.3v8.2l-3.7,0.3c-1.7,0.1-2.9,1.6-2.7,3.2c0.1,1.7,1.6,2.9,3.2,2.7&#10;&#9;&#9;l3.1-0.3v8.2l-3.7,0.3c-1.7,0.1-2.9,1.6-2.7,3.2s1.6,2.9,3.2,2.7l3.1-0.3v8.2l-3.7,0.3c-1.7,0.1-2.9,1.6-2.7,3.2&#10;&#9;&#9;c0.1,1.7,1.6,2.9,3.2,2.7l3.1-0.3v8.2l-3.7,0.3c-1.7,0.1-2.9,1.6-2.7,3.2c0.1,1.7,1.6,2.9,3.2,2.7l3.1-0.3v8.2l-3.7,0.3&#10;&#9;&#9;c-1.7,0.1-2.9,1.6-2.7,3.2s1.6,2.9,3.2,2.7l3.1-0.3v8.2l-3.7,0.3c-1.7,0.1-2.9,1.6-2.7,3.2c0.1,1.7,1.6,2.9,3.2,2.7l3.1-0.3v8.2&#10;&#9;&#9;l-3.7,0.3c-1.7,0.1-2.9,1.6-2.7,3.2c0.1,1.7,1.6,2.9,3.2,2.7l3.1-0.3v8.2l-3.7,0.3c-1.7,0.1-2.9,1.6-2.7,3.2s1.6,2.9,3.2,2.7&#10;&#9;&#9;l3.1-0.3v8.2l-3.7,0.3c-1.7,0.1-2.9,1.6-2.7,3.2c0.1,1.7,1.6,2.9,3.2,2.7l3.1-0.3v8.2l-3.7,0.3c-1.7,0.1-2.9,1.6-2.7,3.2&#10;&#9;&#9;c0.1,1.7,1.6,2.9,3.2,2.7l3.1-0.3v8.2l-3.7,0.3c-1.7,0.1-2.9,1.6-2.7,3.2c0.1,1.7,1.6,2.9,3.2,2.7l3.1-0.3v8.2l-3.7,0.3&#10;&#9;&#9;c-1.7,0.1-2.9,1.6-2.7,3.2s1.6,2.9,3.2,2.7l3.1-0.3v8.2l-3.7,0.3c-1.7,0.1-2.9,1.6-2.7,3.2c0.1,1.7,1.6,2.9,3.2,2.7l3.1-0.3v8.2&#10;&#9;&#9;l-3.7,0.3c-1.7,0.1-2.9,1.6-2.7,3.2c0.1,1.7,1.6,2.9,3.2,2.7l3.1-0.3v8.2l-3.7,0.3c-1.7,0.1-2.9,1.6-2.7,3.2s1.6,2.9,3.2,2.7&#10;&#9;&#9;l3.1-0.3v8.2l-3.7,0.3c-1.7,0.1-2.9,1.6-2.7,3.2c0.1,1.7,1.6,2.9,3.2,2.7l3.1-0.3v0.8l2,3.4h63.5l2-3.4v-6.7l3.7-0.3&#10;&#9;&#9;c1.7-0.1,2.9-1.6,2.7-3.2s-1.6-2.9-3.2-2.7l-3.1,0.3v-8.2l3.7-0.3c1.7-0.1,2.9-1.6,2.7-3.2c-0.1-1.7-1.6-2.9-3.2-2.7l-3.1,0.3v-8.2&#10;&#9;&#9;l3.7-0.3c1.7-0.1,2.9-1.6,2.7-3.2c-0.1-1.7-1.6-2.9-3.2-2.7l-3.1,0.3V956l3.7-0.3c1.7-0.1,2.9-1.6,2.7-3.2s-1.6-2.9-3.2-2.7&#10;&#9;&#9;l-3.1,0.3v-8.2l3.7-0.3c1.7-0.1,2.9-1.6,2.7-3.2c-0.1-1.7-1.6-2.9-3.2-2.7l-3.1,0.3v-8.2l3.7-0.3c1.7-0.1,2.9-1.6,2.7-3.2&#10;&#9;&#9;c-0.1-1.7-1.6-2.9-3.2-2.7l-3.1,0.3v-8.2l3.7-0.3c1.7-0.1,2.9-1.6,2.7-3.2s-1.6-2.9-3.2-2.7l-3.1,0.3v-8.2l3.7-0.3&#10;&#9;&#9;c1.7-0.1,2.9-1.6,2.7-3.2s-1.6-2.9-3.2-2.7l-3.1,0.3V885l3.7-0.3c1.7-0.1,2.9-1.6,2.7-3.2c-0.1-1.7-1.6-2.9-3.2-2.7l-3.1,0.3v-8.2&#10;&#9;&#9;l3.7-0.3c1.7-0.1,2.9-1.6,2.7-3.2c-0.1-1.7-1.6-2.9-3.2-2.7l-3.1,0.3v-8.2l3.7-0.3c1.7-0.1,2.9-1.6,2.7-3.2s-1.6-2.9-3.2-2.7&#10;&#9;&#9;l-3.1,0.3v-8.2l3.7-0.3c1.7-0.1,2.9-1.6,2.7-3.2c-0.1-1.7-1.6-2.9-3.2-2.7l-3.1,0.3v-8.2l3.7-0.3c1.7-0.1,2.9-1.6,2.7-3.2&#10;&#9;&#9;c-0.1-1.7-1.6-2.9-3.2-2.7l-3.1,0.3V814l3.7-0.3c1.7-0.1,2.9-1.6,2.7-3.2s-1.6-2.9-3.2-2.7l-3.1,0.3v-8.2l3.7-0.3&#10;&#9;&#9;c1.7-0.1,2.9-1.6,2.7-3.2c-0.1-1.7-1.6-2.9-3.2-2.7l-3.1,0.3v-8.2l3.7-0.3c1.7-0.1,2.9-1.6,2.7-3.2c-0.1-1.7-1.6-2.9-3.2-2.7&#10;&#9;&#9;l-3.1,0.3v-8.2l3.7-0.3c1.7-0.1,2.9-1.6,2.7-3.2c-0.1-1.7-1.6-2.9-3.2-2.7l-3.1,0.3v-8.2l3.7-0.3c1.7-0.1,2.9-1.6,2.7-3.2&#10;&#9;&#9;c-0.1-1.7-1.6-2.9-3.2-2.7l-3.1,0.3v-8.2l3.7-0.3c1.7-0.1,2.9-1.6,2.7-3.2s-1.6-2.9-3.2-2.7l-3.1,0.3v-8.2l3.7-0.3&#10;&#9;&#9;c1.7-0.1,2.9-1.6,2.7-3.2c-0.1-1.7-1.6-2.9-3.2-2.7l-3.1,0.3v-8.2l3.7-0.3c1.7-0.1,2.9-1.6,2.7-3.2c-0.1-1.7-1.6-2.9-3.2-2.7&#10;&#9;&#9;l-3.1,0.3v-8.2l3.7-0.3c1.7-0.1,2.9-1.6,2.7-3.2c-0.1-1.7-1.6-2.9-3.2-2.7l-3.1,0.3v-8.2l3.7-0.3c1.7-0.1,2.9-1.6,2.7-3.2&#10;&#9;&#9;c-0.1-1.7-1.6-2.9-3.2-2.7l-3.1,0.3v-8.2l3.7-0.3c1.7-0.1,2.9-1.6,2.7-3.2c-0.1-1.7-1.6-2.9-3.2-2.7l-3.1,0.3v-8.2l3.7-0.3&#10;&#9;&#9;c1.7-0.1,2.9-1.6,2.7-3.2c-0.1-1.7-1.6-2.9-3.2-2.7l-3.1,0.3v-8.2l3.7-0.3c1.7-0.1,2.9-1.6,2.7-3.2c-0.1-1.7-1.6-2.9-3.2-2.7&#10;&#9;&#9;l-3.1,0.3v-8.2l3.7-0.3c1.7-0.1,2.9-1.6,2.7-3.2c-0.1-1.7-1.6-2.9-3.2-2.7l-3.1,0.3v-8.2l3.7-0.3c1.7-0.1,2.9-1.6,2.7-3.2&#10;&#9;&#9;c-0.1-1.7-1.6-2.9-3.2-2.7l-3.1,0.3v-8.2l0.7-0.1h52.9v-8.5H2168.7z" transform="matrix(1, 0, 0, 1, 0, 0)"/><path d="M2168.7,1390.1v-44.4c0-2.8-2.2-5-5-5h-124.3c-2.8,0-5,2.2-5,5v44.4h-20v8.5h52.6l-3,0.3c-1.7,0.1-2.9,1.6-2.7,3.2&#10;&#9;&#9;c0.1,1.7,1.6,2.9,3.2,2.7l3.1-0.3v8.2l-3.7,0.3c-1.7,0.1-2.9,1.6-2.7,3.2s1.6,2.9,3.2,2.7l3.1-0.3v8.2l-3.7,0.3&#10;&#9;&#9;c-1.7,0.1-2.9,1.6-2.7,3.2s1.6,2.9,3.2,2.7l3.1-0.3v8.2l-3.7,0.3c-1.7,0.1-2.9,1.6-2.7,3.2c0.1,1.7,1.6,2.9,3.2,2.7l3.1-0.3v8.2&#10;&#9;&#9;l-3.7,0.3c-1.7,0.1-2.9,1.6-2.7,3.2s1.6,2.9,3.2,2.7l3.1-0.3v8.2l-3.7,0.3c-1.7,0.1-2.9,1.6-2.7,3.2s1.6,2.9,3.2,2.7l3.1-0.3v8.2&#10;&#9;&#9;l-3.7,0.3c-1.7,0.1-2.9,1.6-2.7,3.2c0.1,1.7,1.6,2.9,3.2,2.7l3.1-0.3v8.2l-3.7,0.3c-1.7,0.1-2.9,1.6-2.7,3.2s1.6,2.9,3.2,2.7&#10;&#9;&#9;l3.1-0.3v8.2l-3.7,0.3c-1.7,0.1-2.9,1.6-2.7,3.2s1.6,2.9,3.2,2.7l3.1-0.3v8.2l-3.7,0.3c-1.7,0.1-2.9,1.6-2.7,3.2s1.6,2.9,3.2,2.7&#10;&#9;&#9;l3.1-0.3v8.2l-3.7,0.3c-1.7,0.1-2.9,1.6-2.7,3.2c0.1,1.7,1.6,2.9,3.2,2.7l3.1-0.3v8.2l-3.7,0.3c-1.7,0.1-2.9,1.6-2.7,3.2&#10;&#9;&#9;s1.6,2.9,3.2,2.7l3.1-0.3v0.8l2,3.4h63.5l2-3.4v-6.7l3.7-0.3c1.7-0.1,2.9-1.6,2.7-3.2s-1.6-2.9-3.2-2.7l-3.1,0.3v-8.2l3.7-0.3&#10;&#9;&#9;c1.7-0.1,2.9-1.6,2.7-3.2s-1.6-2.9-3.2-2.7l-3.1,0.3v-8.2l3.7-0.3c1.7-0.1,2.9-1.6,2.7-3.2c-0.1-1.7-1.6-2.9-3.2-2.7l-3.1,0.3v-8.2&#10;&#9;&#9;l3.7-0.3c1.7-0.1,2.9-1.6,2.7-3.2s-1.6-2.9-3.2-2.7l-3.1,0.3v-8.2l3.7-0.3c1.7-0.1,2.9-1.6,2.7-3.2c-0.1-1.7-1.6-2.9-3.2-2.7&#10;&#9;&#9;l-3.1,0.3v-8.2l3.7-0.3c1.7-0.1,2.9-1.6,2.7-3.2s-1.6-2.9-3.2-2.7l-3.1,0.3v-8.2l3.7-0.3c1.7-0.1,2.9-1.6,2.7-3.2&#10;&#9;&#9;c-0.1-1.7-1.6-2.9-3.2-2.7l-3.1,0.3v-8.2l3.7-0.3c1.7-0.1,2.9-1.6,2.7-3.2c-0.1-1.7-1.6-2.9-3.2-2.7l-3.1,0.3v-8.2l3.7-0.3&#10;&#9;&#9;c1.7-0.1,2.9-1.6,2.7-3.2s-1.6-2.9-3.2-2.7l-3.1,0.3v-8.2l3.7-0.3c1.7-0.1,2.9-1.6,2.7-3.2c-0.1-1.7-1.6-2.9-3.2-2.7l-3.1,0.3v-8.2&#10;&#9;&#9;l3.7-0.3c1.7-0.1,2.9-1.6,2.7-3.2c-0.1-1.7-1.6-2.9-3.2-2.7l-3.1,0.3v-8.2l0.7-0.1h52.9v-8.5H2168.7z" transform="matrix(1, 0, 0, 1, 0, 0)"/><path d="M2168.7,1697.7v-44.4c0-2.8-2.2-5-5-5h-124.3c-2.8,0-5,2.2-5,5v44.4h-20v8.5h53.3v14.1l-7.2,0.6c-1.7,0.1-2.9,1.6-2.7,3.2&#10;&#9;&#9;c0.1,1.7,1.6,2.9,3.2,2.7l6.6-0.6v22.4l-7.2,0.6c-1.7,0.1-2.9,1.6-2.7,3.2c0.1,1.7,1.6,2.9,3.2,2.7l6.6-0.6v22.4l-7.2,0.6&#10;&#9;&#9;c-1.7,0.1-2.9,1.6-2.7,3.2c0.1,1.7,1.6,2.9,3.2,2.7l6.6-0.6v22.4l-7.2,0.6c-1.7,0.1-2.9,1.6-2.7,3.2c0.1,1.7,1.6,2.9,3.2,2.7&#10;&#9;&#9;l6.6-0.6v22.4l-7.2,0.6c-1.7,0.1-2.9,1.6-2.7,3.2c0.1,1.7,1.6,2.9,3.2,2.7l6.6-0.6v22.4l-3.7,0.3c-1.7,0.1-2.9,1.6-2.7,3.2&#10;&#9;&#9;s1.6,2.9,3.2,2.7l3.1-0.3v1.1l2,3.4h63.5l2-3.4v-7l3.7-0.3c1.7-0.1,2.9-1.6,2.7-3.2c-0.1-1.7-1.6-2.9-3.2-2.7l-3.1,0.3V1834&#10;&#9;&#9;l7.2-0.6c1.7-0.1,2.9-1.6,2.7-3.2c-0.1-1.7-1.6-2.9-3.2-2.7l-6.6,0.6v-22.4l7.2-0.6c1.7-0.1,2.9-1.6,2.7-3.2&#10;&#9;&#9;c-0.1-1.7-1.6-2.9-3.2-2.7l-6.6,0.6v-22.4l7.2-0.6c1.7-0.1,2.9-1.6,2.7-3.2c-0.1-1.7-1.6-2.9-3.2-2.7l-6.6,0.6v-22.4l7.2-0.6&#10;&#9;&#9;c1.7-0.1,2.9-1.6,2.7-3.2c-0.1-1.7-1.6-2.9-3.2-2.7l-6.6,0.6v-22.4l7.2-0.6c1.7-0.1,2.9-1.6,2.7-3.2c-0.1-1.7-1.6-2.9-3.2-2.7&#10;&#9;&#9;l-6.6,0.6v-8.2h53.5v-8.5H2168.7z" transform="matrix(1, 0, 0, 1, 0, 0)"/><path d="M308.4,1719.8c1.7-0.1,2.9-1.6,2.7-3.2c-0.1-1.7-1.6-2.9-3.2-2.7l-6.6,0.6v-8.2h2.9l29.3-32.8c-12.1-15.5-32.5-26-52-30.1&#10;&#9;&#9;v22.7c0,2.2-1.8,4-4,4l-20.1,0c-2.2,0-4-1.8-4-4v-22.7c-19.4,4.1-39.8,14.6-52,30.1l29.3,32.8h2.9v14.1l-7.2,0.6&#10;&#9;&#9;c-1.7,0.1-2.9,1.6-2.7,3.2c0.1,1.7,1.6,2.9,3.2,2.7l6.6-0.6v22.4l-7.2,0.6c-1.7,0.1-2.9,1.6-2.7,3.2c0.1,1.7,1.6,2.9,3.2,2.7&#10;&#9;&#9;l6.6-0.6v22.4l-7.2,0.6c-1.7,0.1-2.9,1.6-2.7,3.2c0.1,1.7,1.6,2.9,3.2,2.7l6.6-0.6v22.4l-7.2,0.6c-1.7,0.1-2.9,1.6-2.7,3.2&#10;&#9;&#9;c0.1,1.7,1.6,2.9,3.2,2.7l6.6-0.6v22.4l-7.2,0.6c-1.7,0.1-2.9,1.6-2.7,3.2c0.1,1.7,1.6,2.9,3.2,2.7l6.6-0.6v22.4l-3.7,0.3&#10;&#9;&#9;c-1.7,0.1-2.9,1.6-2.7,3.2c0.1,1.7,1.6,2.9,3.2,2.7l3.1-0.3v1.1l2,3.4h63.5l2-3.4v-7l3.7-0.3c1.7-0.1,2.9-1.6,2.7-3.2&#10;&#9;&#9;c-0.1-1.7-1.6-2.9-3.2-2.7l-3.1,0.3V1834l7.2-0.6c1.7-0.1,2.9-1.6,2.7-3.2c-0.1-1.7-1.6-2.9-3.2-2.7l-6.6,0.6v-22.4l7.2-0.6&#10;&#9;&#9;c1.7-0.1,2.9-1.6,2.7-3.2c-0.1-1.7-1.6-2.9-3.2-2.7l-6.6,0.6v-22.4l7.2-0.6c1.7-0.1,2.9-1.6,2.7-3.2c-0.1-1.7-1.6-2.9-3.2-2.7&#10;&#9;&#9;l-6.6,0.6v-22.4l7.2-0.6c1.7-0.1,2.9-1.6,2.7-3.2c-0.1-1.7-1.6-2.9-3.2-2.7l-6.6,0.6v-22.4L308.4,1719.8z" transform="matrix(1, 0, 0, 1, 0, 0)"/><path d="M304.9,1412.1c1.7-0.1,2.9-1.6,2.7-3.2c-0.1-1.7-1.6-2.9-3.2-2.7l-3.1,0.3v-8.2h2.9l29.3-32.8c-12.1-15.5-32.5-26-52-30.1&#10;&#9;&#9;v22.7c0,2.2-1.8,4-4,4l-20.1,0c-2.2,0-4-1.8-4-4v-22.7c-19.4,4.1-39.8,14.6-52,30.1l29.3,32.8h2.9v14.1l-3.7,0.3&#10;&#9;&#9;c-1.7,0.1-2.9,1.6-2.7,3.2s1.6,2.9,3.2,2.7l3.1-0.3v8.2l-3.7,0.3c-1.7,0.1-2.9,1.6-2.7,3.2s1.6,2.9,3.2,2.7l3.1-0.3v8.2l-3.7,0.3&#10;&#9;&#9;c-1.7,0.1-2.9,1.6-2.7,3.2c0.1,1.7,1.6,2.9,3.2,2.7l3.1-0.3v8.2l-3.7,0.3c-1.7,0.1-2.9,1.6-2.7,3.2s1.6,2.9,3.2,2.7l3.1-0.3v8.2&#10;&#9;&#9;l-3.7,0.3c-1.7,0.1-2.9,1.6-2.7,3.2s1.6,2.9,3.2,2.7l3.1-0.3v8.2l-3.7,0.3c-1.7,0.1-2.9,1.6-2.7,3.2c0.1,1.7,1.6,2.9,3.2,2.7&#10;&#9;&#9;l3.1-0.3v8.2l-3.7,0.3c-1.7,0.1-2.9,1.6-2.7,3.2s1.6,2.9,3.2,2.7l3.1-0.3v8.2l-3.7,0.3c-1.7,0.1-2.9,1.6-2.7,3.2s1.6,2.9,3.2,2.7&#10;&#9;&#9;l3.1-0.3v8.2l-3.7,0.3c-1.7,0.1-2.9,1.6-2.7,3.2c0.1,1.7,1.6,2.9,3.2,2.7l3.1-0.3v8.2l-3.7,0.3c-1.7,0.1-2.9,1.6-2.7,3.2&#10;&#9;&#9;s1.6,2.9,3.2,2.7l3.1-0.3v8.2l-3.7,0.3c-1.7,0.1-2.9,1.6-2.7,3.2s1.6,2.9,3.2,2.7l3.1-0.3v1.1l2,3.4h63.5l2-3.4v-7l3.7-0.3&#10;&#9;&#9;c1.7-0.1,2.9-1.6,2.7-3.2c-0.1-1.7-1.6-2.9-3.2-2.7l-3.1,0.3v-8.2l3.7-0.3c1.7-0.1,2.9-1.6,2.7-3.2s-1.6-2.9-3.2-2.7l-3.1,0.3v-8.2&#10;&#9;&#9;l3.7-0.3c1.7-0.1,2.9-1.6,2.7-3.2s-1.6-2.9-3.2-2.7l-3.1,0.3v-8.2l3.7-0.3c1.7-0.1,2.9-1.6,2.7-3.2c-0.1-1.7-1.6-2.9-3.2-2.7&#10;&#9;&#9;l-3.1,0.3v-8.2l3.7-0.3c1.7-0.1,2.9-1.6,2.7-3.2s-1.6-2.9-3.2-2.7l-3.1,0.3v-8.2l3.7-0.3c1.7-0.1,2.9-1.6,2.7-3.2s-1.6-2.9-3.2-2.7&#10;&#9;&#9;l-3.1,0.3v-8.2l3.7-0.3c1.7-0.1,2.9-1.6,2.7-3.2c-0.1-1.7-1.6-2.9-3.2-2.7l-3.1,0.3v-8.2l3.7-0.3c1.7-0.1,2.9-1.6,2.7-3.2&#10;&#9;&#9;c-0.1-1.7-1.6-2.9-3.2-2.7l-3.1,0.3v-8.2l3.7-0.3c1.7-0.1,2.9-1.6,2.7-3.2s-1.6-2.9-3.2-2.7l-3.1,0.3v-8.2l3.7-0.3&#10;&#9;&#9;c1.7-0.1,2.9-1.6,2.7-3.2c-0.1-1.7-1.6-2.9-3.2-2.7l-3.1,0.3v-8.2L304.9,1412.1z" transform="matrix(1, 0, 0, 1, 0, 0)"/><path d="M304.9,615c1.7-0.1,2.9-1.6,2.7-3.2c-0.1-1.7-1.6-2.9-3.2-2.7l-3.1,0.3v-8.2h2.9l29.3-32.8c-12.1-15.5-32.5-26-52-30.1&#10;&#9;&#9;v22.7c0,2.2-1.8,4-4,4l-20.1,0c-2.2,0-4-1.8-4-4v-22.7c-19.4,4.1-39.8,14.6-52,30.1l29.3,32.8h2.9v14.1l-3.7,0.3&#10;&#9;&#9;c-1.7,0.1-2.9,1.6-2.7,3.2c0.1,1.7,1.6,2.9,3.2,2.7l3.1-0.3v8.2l-3.7,0.3c-1.7,0.1-2.9,1.6-2.7,3.2s1.6,2.9,3.2,2.7l3.1-0.3v8.2&#10;&#9;&#9;l-3.7,0.3c-1.7,0.1-2.9,1.6-2.7,3.2c0.1,1.7,1.6,2.9,3.2,2.7l3.1-0.3v8.2l-3.7,0.3c-1.7,0.1-2.9,1.6-2.7,3.2&#10;&#9;&#9;c0.1,1.7,1.6,2.9,3.2,2.7l3.1-0.3v8.2l-3.7,0.3c-1.7,0.1-2.9,1.6-2.7,3.2c0.1,1.7,1.6,2.9,3.2,2.7l3.1-0.3v8.2l-3.7,0.3&#10;&#9;&#9;c-1.7,0.1-2.9,1.6-2.7,3.2c0.1,1.7,1.6,2.9,3.2,2.7l3.1-0.3v8.2l-3.7,0.3c-1.7,0.1-2.9,1.6-2.7,3.2s1.6,2.9,3.2,2.7l3.1-0.3v8.2&#10;&#9;&#9;l-3.7,0.3c-1.7,0.1-2.9,1.6-2.7,3.2c0.1,1.7,1.6,2.9,3.2,2.7l3.1-0.3v8.2l-3.7,0.3c-1.7,0.1-2.9,1.6-2.7,3.2&#10;&#9;&#9;c0.1,1.7,1.6,2.9,3.2,2.7l3.1-0.3v8.2l-3.7,0.3c-1.7,0.1-2.9,1.6-2.7,3.2c0.1,1.7,1.6,2.9,3.2,2.7l3.1-0.3v8.2l-3.7,0.3&#10;&#9;&#9;c-1.7,0.1-2.9,1.6-2.7,3.2c0.1,1.7,1.6,2.9,3.2,2.7l3.1-0.3v8.2l-3.7,0.3c-1.7,0.1-2.9,1.6-2.7,3.2c0.1,1.7,1.6,2.9,3.2,2.7&#10;&#9;&#9;l3.1-0.3v8.2l-3.7,0.3c-1.7,0.1-2.9,1.6-2.7,3.2c0.1,1.7,1.6,2.9,3.2,2.7l3.1-0.3v8.2l-3.7,0.3c-1.7,0.1-2.9,1.6-2.7,3.2&#10;&#9;&#9;s1.6,2.9,3.2,2.7l3.1-0.3v8.2l-3.7,0.3c-1.7,0.1-2.9,1.6-2.7,3.2c0.1,1.7,1.6,2.9,3.2,2.7l3.1-0.3v8.2l-3.7,0.3&#10;&#9;&#9;c-1.7,0.1-2.9,1.6-2.7,3.2c0.1,1.7,1.6,2.9,3.2,2.7l3.1-0.3v8.2l-3.7,0.3c-1.7,0.1-2.9,1.6-2.7,3.2s1.6,2.9,3.2,2.7l3.1-0.3v8.2&#10;&#9;&#9;l-3.7,0.3c-1.7,0.1-2.9,1.6-2.7,3.2c0.1,1.7,1.6,2.9,3.2,2.7l3.1-0.3v8.2l-3.7,0.3c-1.7,0.1-2.9,1.6-2.7,3.2&#10;&#9;&#9;c0.1,1.7,1.6,2.9,3.2,2.7l3.1-0.3v8.2l-3.7,0.3c-1.7,0.1-2.9,1.6-2.7,3.2s1.6,2.9,3.2,2.7l3.1-0.3v8.2l-3.7,0.3&#10;&#9;&#9;c-1.7,0.1-2.9,1.6-2.7,3.2c0.1,1.7,1.6,2.9,3.2,2.7l3.1-0.3v8.2l-3.7,0.3c-1.7,0.1-2.9,1.6-2.7,3.2c0.1,1.7,1.6,2.9,3.2,2.7&#10;&#9;&#9;l3.1-0.3v8.2l-3.7,0.3c-1.7,0.1-2.9,1.6-2.7,3.2c0.1,1.7,1.6,2.9,3.2,2.7l3.1-0.3v8.2l-3.7,0.3c-1.7,0.1-2.9,1.6-2.7,3.2&#10;&#9;&#9;s1.6,2.9,3.2,2.7l3.1-0.3v8.2l-3.7,0.3c-1.7,0.1-2.9,1.6-2.7,3.2c0.1,1.7,1.6,2.9,3.2,2.7l3.1-0.3v8.2l-3.7,0.3&#10;&#9;&#9;c-1.7,0.1-2.9,1.6-2.7,3.2c0.1,1.7,1.6,2.9,3.2,2.7l3.1-0.3v8.2l-3.7,0.3c-1.7,0.1-2.9,1.6-2.7,3.2s1.6,2.9,3.2,2.7l3.1-0.3v8.2&#10;&#9;&#9;l-3.7,0.3c-1.7,0.1-2.9,1.6-2.7,3.2c0.1,1.7,1.6,2.9,3.2,2.7l3.1-0.3v0.8l2,3.4h63.5l2-3.4v-6.7l3.7-0.3c1.7-0.1,2.9-1.6,2.7-3.2&#10;&#9;&#9;s-1.6-2.9-3.2-2.7l-3.1,0.3v-8.2l3.7-0.3c1.7-0.1,2.9-1.6,2.7-3.2c-0.1-1.7-1.6-2.9-3.2-2.7l-3.1,0.3v-8.2l3.7-0.3&#10;&#9;&#9;c1.7-0.1,2.9-1.6,2.7-3.2c-0.1-1.7-1.6-2.9-3.2-2.7l-3.1,0.3V956l3.7-0.3c1.7-0.1,2.9-1.6,2.7-3.2s-1.6-2.9-3.2-2.7l-3.1,0.3v-8.2&#10;&#9;&#9;l3.7-0.3c1.7-0.1,2.9-1.6,2.7-3.2c-0.1-1.7-1.6-2.9-3.2-2.7l-3.1,0.3v-8.2l3.7-0.3c1.7-0.1,2.9-1.6,2.7-3.2&#10;&#9;&#9;c-0.1-1.7-1.6-2.9-3.2-2.7l-3.1,0.3v-8.2l3.7-0.3c1.7-0.1,2.9-1.6,2.7-3.2s-1.6-2.9-3.2-2.7l-3.1,0.3v-8.2l3.7-0.3&#10;&#9;&#9;c1.7-0.1,2.9-1.6,2.7-3.2s-1.6-2.9-3.2-2.7l-3.1,0.3V885l3.7-0.3c1.7-0.1,2.9-1.6,2.7-3.2c-0.1-1.7-1.6-2.9-3.2-2.7l-3.1,0.3v-8.2&#10;&#9;&#9;l3.7-0.3c1.7-0.1,2.9-1.6,2.7-3.2c-0.1-1.7-1.6-2.9-3.2-2.7l-3.1,0.3v-8.2l3.7-0.3c1.7-0.1,2.9-1.6,2.7-3.2s-1.6-2.9-3.2-2.7&#10;&#9;&#9;l-3.1,0.3v-8.2l3.7-0.3c1.7-0.1,2.9-1.6,2.7-3.2c-0.1-1.7-1.6-2.9-3.2-2.7l-3.1,0.3v-8.2l3.7-0.3c1.7-0.1,2.9-1.6,2.7-3.2&#10;&#9;&#9;c-0.1-1.7-1.6-2.9-3.2-2.7l-3.1,0.3V814l3.7-0.3c1.7-0.1,2.9-1.6,2.7-3.2s-1.6-2.9-3.2-2.7l-3.1,0.3v-8.2l3.7-0.3&#10;&#9;&#9;c1.7-0.1,2.9-1.6,2.7-3.2c-0.1-1.7-1.6-2.9-3.2-2.7l-3.1,0.3v-8.2l3.7-0.3c1.7-0.1,2.9-1.6,2.7-3.2c-0.1-1.7-1.6-2.9-3.2-2.7&#10;&#9;&#9;l-3.1,0.3v-8.2l3.7-0.3c1.7-0.1,2.9-1.6,2.7-3.2c-0.1-1.7-1.6-2.9-3.2-2.7l-3.1,0.3v-8.2l3.7-0.3c1.7-0.1,2.9-1.6,2.7-3.2&#10;&#9;&#9;c-0.1-1.7-1.6-2.9-3.2-2.7l-3.1,0.3v-8.2l3.7-0.3c1.7-0.1,2.9-1.6,2.7-3.2s-1.6-2.9-3.2-2.7l-3.1,0.3v-8.2l3.7-0.3&#10;&#9;&#9;c1.7-0.1,2.9-1.6,2.7-3.2c-0.1-1.7-1.6-2.9-3.2-2.7l-3.1,0.3v-8.2l3.7-0.3c1.7-0.1,2.9-1.6,2.7-3.2c-0.1-1.7-1.6-2.9-3.2-2.7&#10;&#9;&#9;l-3.1,0.3v-8.2l3.7-0.3c1.7-0.1,2.9-1.6,2.7-3.2c-0.1-1.7-1.6-2.9-3.2-2.7l-3.1,0.3v-8.2l3.7-0.3c1.7-0.1,2.9-1.6,2.7-3.2&#10;&#9;&#9;c-0.1-1.7-1.6-2.9-3.2-2.7l-3.1,0.3v-8.2l3.7-0.3c1.7-0.1,2.9-1.6,2.7-3.2c-0.1-1.7-1.6-2.9-3.2-2.7l-3.1,0.3v-8.2l3.7-0.3&#10;&#9;&#9;c1.7-0.1,2.9-1.6,2.7-3.2c-0.1-1.7-1.6-2.9-3.2-2.7l-3.1,0.3v-8.2l3.7-0.3c1.7-0.1,2.9-1.6,2.7-3.2c-0.1-1.7-1.6-2.9-3.2-2.7&#10;&#9;&#9;l-3.1,0.3v-8.2l3.7-0.3c1.7-0.1,2.9-1.6,2.7-3.2c-0.1-1.7-1.6-2.9-3.2-2.7l-3.1,0.3v-8.2L304.9,615z" transform="matrix(1, 0, 0, 1, 0, 0)"/><path d="M281.5,1085.6v132.1c30.5-6.5,53.5-33.6,53.5-66C335,1119.2,312.1,1092.1,281.5,1085.6z" transform="matrix(1, 0, 0, 1, 0, 0)"/><path d="M253.5,1085.6c-30.5,6.5-53.5,33.6-53.5,66c0,32.5,22.9,59.6,53.5,66V1085.6z" transform="matrix(1, 0, 0, 1, 0, 0)"/><path d="M583,1706.2l0.9-2.5c0,0-25.4-22.7-73.1-26.6v10.4c0,2.2-1.8,4-4,4l-20.1,0c-2.2,0-4-1.8-4-4v-10.4&#10;&#9;&#9;c-47.8,3.9-73.1,26.6-73.1,26.6l0.9,2.5h52.4v14.1l-7.2,0.6c-1.7,0.1-2.9,1.6-2.7,3.2c0.1,1.7,1.6,2.9,3.2,2.7l6.6-0.6v22.4&#10;&#9;&#9;l-7.2,0.6c-1.7,0.1-2.9,1.6-2.7,3.2c0.1,1.7,1.6,2.9,3.2,2.7l6.6-0.6v22.4l-7.2,0.6c-1.7,0.1-2.9,1.6-2.7,3.2&#10;&#9;&#9;c0.1,1.7,1.6,2.9,3.2,2.7l6.6-0.6v22.4l-7.2,0.6c-1.7,0.1-2.9,1.6-2.7,3.2c0.1,1.7,1.6,2.9,3.2,2.7l6.6-0.6v22.4l-7.2,0.6&#10;&#9;&#9;c-1.7,0.1-2.9,1.6-2.7,3.2c0.1,1.7,1.6,2.9,3.2,2.7l6.6-0.6v22.4l-3.7,0.3c-1.7,0.1-2.9,1.6-2.7,3.2s1.6,2.9,3.2,2.7l3.1-0.3v1.1&#10;&#9;&#9;l2,3.4h63.5l2-3.4v-7l3.7-0.3c1.7-0.1,2.9-1.6,2.7-3.2c-0.1-1.7-1.6-2.9-3.2-2.7l-3.1,0.3V1834l7.2-0.6c1.7-0.1,2.9-1.6,2.7-3.2&#10;&#9;&#9;c-0.1-1.7-1.6-2.9-3.2-2.7l-6.6,0.6v-22.4l7.2-0.6c1.7-0.1,2.9-1.6,2.7-3.2c-0.1-1.7-1.6-2.9-3.2-2.7l-6.6,0.6v-22.4l7.2-0.6&#10;&#9;&#9;c1.7-0.1,2.9-1.6,2.7-3.2c-0.1-1.7-1.6-2.9-3.2-2.7l-6.6,0.6v-22.4l7.2-0.6c1.7-0.1,2.9-1.6,2.7-3.2c-0.1-1.7-1.6-2.9-3.2-2.7&#10;&#9;&#9;l-6.6,0.6v-22.4l7.2-0.6c1.7-0.1,2.9-1.6,2.7-3.2c-0.1-1.7-1.6-2.9-3.2-2.7l-6.6,0.6v-8.2H583z" transform="matrix(1, 0, 0, 1, 0, 0)"/><path d="M583,1398.2l0.9-2.5c0,0-25.4-22.7-73.1-26.6v10.4c0,2.2-1.8,4-4,4l-20.1,0c-2.2,0-4-1.8-4-4v-10.4&#10;&#9;&#9;c-47.8,3.9-73.1,26.6-73.1,26.6l0.9,2.5h51.9l-3,0.3c-1.7,0.1-2.9,1.6-2.7,3.2c0.1,1.7,1.6,2.9,3.2,2.7l3.1-0.3v8.2l-3.7,0.3&#10;&#9;&#9;c-1.7,0.1-2.9,1.6-2.7,3.2s1.6,2.9,3.2,2.7l3.1-0.3v8.2l-3.7,0.3c-1.7,0.1-2.9,1.6-2.7,3.2s1.6,2.9,3.2,2.7l3.1-0.3v8.2l-3.7,0.3&#10;&#9;&#9;c-1.7,0.1-2.9,1.6-2.7,3.2c0.1,1.7,1.6,2.9,3.2,2.7l3.1-0.3v8.2l-3.7,0.3c-1.7,0.1-2.9,1.6-2.7,3.2s1.6,2.9,3.2,2.7l3.1-0.3v8.2&#10;&#9;&#9;l-3.7,0.3c-1.7,0.1-2.9,1.6-2.7,3.2s1.6,2.9,3.2,2.7l3.1-0.3v8.2l-3.7,0.3c-1.7,0.1-2.9,1.6-2.7,3.2c0.1,1.7,1.6,2.9,3.2,2.7&#10;&#9;&#9;l3.1-0.3v8.2l-3.7,0.3c-1.7,0.1-2.9,1.6-2.7,3.2s1.6,2.9,3.2,2.7l3.1-0.3v8.2l-3.7,0.3c-1.7,0.1-2.9,1.6-2.7,3.2s1.6,2.9,3.2,2.7&#10;&#9;&#9;l3.1-0.3v8.2l-3.7,0.3c-1.7,0.1-2.9,1.6-2.7,3.2c0.1,1.7,1.6,2.9,3.2,2.7l3.1-0.3v8.2l-3.7,0.3c-1.7,0.1-2.9,1.6-2.7,3.2&#10;&#9;&#9;s1.6,2.9,3.2,2.7l3.1-0.3v8.2l-3.7,0.3c-1.7,0.1-2.9,1.6-2.7,3.2s1.6,2.9,3.2,2.7l3.1-0.3v1.1l2,3.4h63.5l2-3.4v-7l3.7-0.3&#10;&#9;&#9;c1.7-0.1,2.9-1.6,2.7-3.2c-0.1-1.7-1.6-2.9-3.2-2.7l-3.1,0.3v-8.2l3.7-0.3c1.7-0.1,2.9-1.6,2.7-3.2c-0.1-1.7-1.6-2.9-3.2-2.7&#10;&#9;&#9;l-3.1,0.3v-8.2l3.7-0.3c1.7-0.1,2.9-1.6,2.7-3.2c-0.1-1.7-1.6-2.9-3.2-2.7l-3.1,0.3v-8.2l3.7-0.3c1.7-0.1,2.9-1.6,2.7-3.2&#10;&#9;&#9;c-0.1-1.7-1.6-2.9-3.2-2.7l-3.1,0.3v-8.2l3.7-0.3c1.7-0.1,2.9-1.6,2.7-3.2c-0.1-1.7-1.6-2.9-3.2-2.7l-3.1,0.3v-8.2l3.7-0.3&#10;&#9;&#9;c1.7-0.1,2.9-1.6,2.7-3.2c-0.1-1.7-1.6-2.9-3.2-2.7l-3.1,0.3v-8.2l3.7-0.3c1.7-0.1,2.9-1.6,2.7-3.2c-0.1-1.7-1.6-2.9-3.2-2.7&#10;&#9;&#9;l-3.1,0.3v-8.2l3.7-0.3c1.7-0.1,2.9-1.6,2.7-3.2c-0.1-1.7-1.6-2.9-3.2-2.7l-3.1,0.3v-8.2l3.7-0.3c1.7-0.1,2.9-1.6,2.7-3.2&#10;&#9;&#9;c-0.1-1.7-1.6-2.9-3.2-2.7l-3.1,0.3v-8.2l3.7-0.3c1.7-0.1,2.9-1.6,2.7-3.2c-0.1-1.7-1.6-2.9-3.2-2.7l-3.1,0.3v-8.2l3.7-0.3&#10;&#9;&#9;c1.7-0.1,2.9-1.6,2.7-3.2c-0.1-1.7-1.6-2.9-3.2-2.7l-3.1,0.3v-8.2H583z" transform="matrix(1, 0, 0, 1, 0, 0)"/><path d="M583,601.1l0.9-2.5c0,0-25.4-22.7-73.1-26.6v10.4c0,2.2-1.8,4-4,4l-20.1,0c-2.2,0-4-1.8-4-4V572&#10;&#9;&#9;c-47.8,3.9-73.1,26.6-73.1,26.6l0.9,2.5h51.9l-3,0.3c-1.7,0.1-2.9,1.6-2.7,3.2c0.1,1.7,1.6,2.9,3.2,2.7l3.1-0.3v8.2l-3.7,0.3&#10;&#9;&#9;c-1.7,0.1-2.9,1.6-2.7,3.2c0.1,1.7,1.6,2.9,3.2,2.7l3.1-0.3v8.2l-3.7,0.3c-1.7,0.1-2.9,1.6-2.7,3.2s1.6,2.9,3.2,2.7l3.1-0.3v8.2&#10;&#9;&#9;l-3.7,0.3c-1.7,0.1-2.9,1.6-2.7,3.2c0.1,1.7,1.6,2.9,3.2,2.7l3.1-0.3v8.2l-3.7,0.3c-1.7,0.1-2.9,1.6-2.7,3.2&#10;&#9;&#9;c0.1,1.7,1.6,2.9,3.2,2.7l3.1-0.3v8.2l-3.7,0.3c-1.7,0.1-2.9,1.6-2.7,3.2c0.1,1.7,1.6,2.9,3.2,2.7l3.1-0.3v8.2l-3.7,0.3&#10;&#9;&#9;c-1.7,0.1-2.9,1.6-2.7,3.2c0.1,1.7,1.6,2.9,3.2,2.7l3.1-0.3v8.2l-3.7,0.3c-1.7,0.1-2.9,1.6-2.7,3.2s1.6,2.9,3.2,2.7l3.1-0.3v8.2&#10;&#9;&#9;l-3.7,0.3c-1.7,0.1-2.9,1.6-2.7,3.2c0.1,1.7,1.6,2.9,3.2,2.7l3.1-0.3v8.2l-3.7,0.3c-1.7,0.1-2.9,1.6-2.7,3.2&#10;&#9;&#9;c0.1,1.7,1.6,2.9,3.2,2.7l3.1-0.3v8.2l-3.7,0.3c-1.7,0.1-2.9,1.6-2.7,3.2c0.1,1.7,1.6,2.9,3.2,2.7l3.1-0.3v8.2l-3.7,0.3&#10;&#9;&#9;c-1.7,0.1-2.9,1.6-2.7,3.2c0.1,1.7,1.6,2.9,3.2,2.7l3.1-0.3v8.2l-3.7,0.3c-1.7,0.1-2.9,1.6-2.7,3.2c0.1,1.7,1.6,2.9,3.2,2.7&#10;&#9;&#9;l3.1-0.3v8.2l-3.7,0.3c-1.7,0.1-2.9,1.6-2.7,3.2c0.1,1.7,1.6,2.9,3.2,2.7l3.1-0.3v8.2l-3.7,0.3c-1.7,0.1-2.9,1.6-2.7,3.2&#10;&#9;&#9;s1.6,2.9,3.2,2.7l3.1-0.3v8.2l-3.7,0.3c-1.7,0.1-2.9,1.6-2.7,3.2c0.1,1.7,1.6,2.9,3.2,2.7l3.1-0.3v8.2l-3.7,0.3&#10;&#9;&#9;c-1.7,0.1-2.9,1.6-2.7,3.2c0.1,1.7,1.6,2.9,3.2,2.7l3.1-0.3v8.2l-3.7,0.3c-1.7,0.1-2.9,1.6-2.7,3.2s1.6,2.9,3.2,2.7l3.1-0.3v8.2&#10;&#9;&#9;l-3.7,0.3c-1.7,0.1-2.9,1.6-2.7,3.2c0.1,1.7,1.6,2.9,3.2,2.7l3.1-0.3v8.2l-3.7,0.3c-1.7,0.1-2.9,1.6-2.7,3.2&#10;&#9;&#9;c0.1,1.7,1.6,2.9,3.2,2.7l3.1-0.3v8.2l-3.7,0.3c-1.7,0.1-2.9,1.6-2.7,3.2s1.6,2.9,3.2,2.7l3.1-0.3v8.2l-3.7,0.3&#10;&#9;&#9;c-1.7,0.1-2.9,1.6-2.7,3.2c0.1,1.7,1.6,2.9,3.2,2.7l3.1-0.3v8.2l-3.7,0.3c-1.7,0.1-2.9,1.6-2.7,3.2c0.1,1.7,1.6,2.9,3.2,2.7&#10;&#9;&#9;l3.1-0.3v8.2l-3.7,0.3c-1.7,0.1-2.9,1.6-2.7,3.2c0.1,1.7,1.6,2.9,3.2,2.7l3.1-0.3v8.2l-3.7,0.3c-1.7,0.1-2.9,1.6-2.7,3.2&#10;&#9;&#9;s1.6,2.9,3.2,2.7l3.1-0.3v8.2l-3.7,0.3c-1.7,0.1-2.9,1.6-2.7,3.2c0.1,1.7,1.6,2.9,3.2,2.7l3.1-0.3v8.2l-3.7,0.3&#10;&#9;&#9;c-1.7,0.1-2.9,1.6-2.7,3.2c0.1,1.7,1.6,2.9,3.2,2.7l3.1-0.3v8.2l-3.7,0.3c-1.7,0.1-2.9,1.6-2.7,3.2s1.6,2.9,3.2,2.7l3.1-0.3v8.2&#10;&#9;&#9;l-3.7,0.3c-1.7,0.1-2.9,1.6-2.7,3.2c0.1,1.7,1.6,2.9,3.2,2.7l3.1-0.3v0.8l2,3.4h63.5l2-3.4v-6.7l3.7-0.3c1.7-0.1,2.9-1.6,2.7-3.2&#10;&#9;&#9;c-0.1-1.7-1.6-2.9-3.2-2.7l-3.1,0.3v-8.2l3.7-0.3c1.7-0.1,2.9-1.6,2.7-3.2c-0.1-1.7-1.6-2.9-3.2-2.7l-3.1,0.3v-8.2l3.7-0.3&#10;&#9;&#9;c1.7-0.1,2.9-1.6,2.7-3.2c-0.1-1.7-1.6-2.9-3.2-2.7l-3.1,0.3V956l3.7-0.3c1.7-0.1,2.9-1.6,2.7-3.2c-0.1-1.7-1.6-2.9-3.2-2.7&#10;&#9;&#9;l-3.1,0.3v-8.2l3.7-0.3c1.7-0.1,2.9-1.6,2.7-3.2c-0.1-1.7-1.6-2.9-3.2-2.7l-3.1,0.3v-8.2l3.7-0.3c1.7-0.1,2.9-1.6,2.7-3.2&#10;&#9;&#9;c-0.1-1.7-1.6-2.9-3.2-2.7l-3.1,0.3v-8.2l3.7-0.3c1.7-0.1,2.9-1.6,2.7-3.2c-0.1-1.7-1.6-2.9-3.2-2.7l-3.1,0.3v-8.2l3.7-0.3&#10;&#9;&#9;c1.7-0.1,2.9-1.6,2.7-3.2c-0.1-1.7-1.6-2.9-3.2-2.7l-3.1,0.3V885l3.7-0.3c1.7-0.1,2.9-1.6,2.7-3.2c-0.1-1.7-1.6-2.9-3.2-2.7&#10;&#9;&#9;l-3.1,0.3v-8.2l3.7-0.3c1.7-0.1,2.9-1.6,2.7-3.2c-0.1-1.7-1.6-2.9-3.2-2.7l-3.1,0.3v-8.2l3.7-0.3c1.7-0.1,2.9-1.6,2.7-3.2&#10;&#9;&#9;c-0.1-1.7-1.6-2.9-3.2-2.7l-3.1,0.3v-8.2l3.7-0.3c1.7-0.1,2.9-1.6,2.7-3.2c-0.1-1.7-1.6-2.9-3.2-2.7l-3.1,0.3v-8.2l3.7-0.3&#10;&#9;&#9;c1.7-0.1,2.9-1.6,2.7-3.2c-0.1-1.7-1.6-2.9-3.2-2.7l-3.1,0.3V814l3.7-0.3c1.7-0.1,2.9-1.6,2.7-3.2c-0.1-1.7-1.6-2.9-3.2-2.7&#10;&#9;&#9;l-3.1,0.3v-8.2l3.7-0.3c1.7-0.1,2.9-1.6,2.7-3.2c-0.1-1.7-1.6-2.9-3.2-2.7l-3.1,0.3v-8.2l3.7-0.3c1.7-0.1,2.9-1.6,2.7-3.2&#10;&#9;&#9;c-0.1-1.7-1.6-2.9-3.2-2.7l-3.1,0.3v-8.2l3.7-0.3c1.7-0.1,2.9-1.6,2.7-3.2c-0.1-1.7-1.6-2.9-3.2-2.7l-3.1,0.3v-8.2l3.7-0.3&#10;&#9;&#9;c1.7-0.1,2.9-1.6,2.7-3.2c-0.1-1.7-1.6-2.9-3.2-2.7l-3.1,0.3v-8.2l3.7-0.3c1.7-0.1,2.9-1.6,2.7-3.2c-0.1-1.7-1.6-2.9-3.2-2.7&#10;&#9;&#9;l-3.1,0.3v-8.2l3.7-0.3c1.7-0.1,2.9-1.6,2.7-3.2c-0.1-1.7-1.6-2.9-3.2-2.7l-3.1,0.3v-8.2l3.7-0.3c1.7-0.1,2.9-1.6,2.7-3.2&#10;&#9;&#9;c-0.1-1.7-1.6-2.9-3.2-2.7l-3.1,0.3v-8.2l3.7-0.3c1.7-0.1,2.9-1.6,2.7-3.2c-0.1-1.7-1.6-2.9-3.2-2.7l-3.1,0.3v-8.2l3.7-0.3&#10;&#9;&#9;c1.7-0.1,2.9-1.6,2.7-3.2c-0.1-1.7-1.6-2.9-3.2-2.7l-3.1,0.3v-8.2l3.7-0.3c1.7-0.1,2.9-1.6,2.7-3.2c-0.1-1.7-1.6-2.9-3.2-2.7&#10;&#9;&#9;l-3.1,0.3v-8.2l3.7-0.3c1.7-0.1,2.9-1.6,2.7-3.2c-0.1-1.7-1.6-2.9-3.2-2.7l-3.1,0.3v-8.2l3.7-0.3c1.7-0.1,2.9-1.6,2.7-3.2&#10;&#9;&#9;c-0.1-1.7-1.6-2.9-3.2-2.7l-3.1,0.3v-8.2l3.7-0.3c1.7-0.1,2.9-1.6,2.7-3.2c-0.1-1.7-1.6-2.9-3.2-2.7l-3.1,0.3v-8.2l3.7-0.3&#10;&#9;&#9;c1.7-0.1,2.9-1.6,2.7-3.2c-0.1-1.7-1.6-2.9-3.2-2.7l-3.1,0.3l0-8.2H583z" transform="matrix(1, 0, 0, 1, 0, 0)"/><path d="M496.8,1053.1c-54.4,0-98.5,44.1-98.5,98.5c0,54.4,44.1,98.5,98.5,98.5c54.4,0,98.5-44.1,98.5-98.5&#10;&#9;&#9;C595.2,1097.2,551.2,1053.1,496.8,1053.1z M510.8,1165.7v41.2l-28.1,0v-41.2h-41.2v-28.1h41.2v-41.2h28.1v41.2H552l0,28.1H510.8z" transform="matrix(1, 0, 0, 1, 0, 0)"/>
</svg>