<?xml version="1.0" encoding="utf-8"?>
<!-- Generator: Adobe Illustrator 19.0.0, SVG Export Plug-In . SVG Version: 6.00 Build 0)  -->
<svg xmlns="http://www.w3.org/2000/svg" xmlns:xlink="http://www.w3.org/1999/xlink" version="1.1" id="Layer_1" x="0px" y="0px" viewBox="0 0 1400 980" style="enable-background:new 0 0 1400 980;" xml:space="preserve">
<style type="text/css">
	.st0{fill:#FFFFFF;}
	.st1{fill:#969696;stroke:#243035;stroke-width:6;stroke-linecap:round;stroke-linejoin:round;stroke-miterlimit:10;}
	.st2{fill:#D3D3D3;}
	.st3{fill:none;stroke:#243035;stroke-width:6;stroke-linecap:round;stroke-linejoin:round;stroke-miterlimit:10;}
	.st4{fill:#727373;}
	.st5{fill:#C1C1BF;}
	.st6{fill:#9D9D9D;stroke:#243035;stroke-width:6;stroke-linecap:round;stroke-linejoin:round;stroke-miterlimit:10;}
	.st7{fill:#ABABAA;stroke:#243035;stroke-width:6;stroke-linecap:round;stroke-linejoin:round;stroke-miterlimit:10;}
	.st8{fill:#7B7B7B;}
	.st9{fill:#D3D3D3;stroke:#243035;stroke-width:6;stroke-linecap:round;stroke-linejoin:round;stroke-miterlimit:10;}
	.st10{fill:#EAEAEA;}
	.st11{fill:#C1C1C0;stroke:#243035;stroke-width:6;stroke-linecap:round;stroke-linejoin:round;stroke-miterlimit:10;}
	.st12{fill:#ABABAA;}
	.st13{fill:#EDEDED;}
	.st14{fill:#7D7C7C;stroke:#243035;stroke-width:6;stroke-linecap:round;stroke-linejoin:round;stroke-miterlimit:10;}
	.st15{fill:#969696;}
	.st16{fill:#727373;stroke:#243035;stroke-width:6;stroke-linecap:round;stroke-linejoin:round;stroke-miterlimit:10;}
	.st17{fill:#626464;stroke:#243035;stroke-width:6;stroke-linecap:round;stroke-linejoin:round;stroke-miterlimit:10;}
	.st18{fill:#ABABAA;stroke:#243035;stroke-width:6;stroke-miterlimit:10;}
</style>

<g id="XMLID_460_">
	<g id="XMLID_34_">
		<path id="XMLID_57_" class="st1" d="M241.9,191.9h-92c-2.8,0-5-2.2-5-5v-44.1c0-2.8,2.2-5,5-5h92c2.8,0,5,2.2,5,5v44.1    C246.9,189.7,244.7,191.9,241.9,191.9z"/>
		<path id="XMLID_83_" class="st1" d="M207.6,385.1h-23.3c-6.1,0-11-4.9-11-11V265.9h45.3v108.2    C218.6,380.2,213.7,385.1,207.6,385.1z"/>
		<path id="XMLID_114_" class="st2" d="M195.5,265.9h-22.3v106.7c0,6.9,5.6,12.5,12.5,12.5h9.8V265.9z"/>
		<path id="XMLID_93_" class="st3" d="M207.6,385.1h-23.3c-6.1,0-11-4.9-11-11V265.9h45.3v108.2    C218.6,380.2,213.7,385.1,207.6,385.1z"/>
		<rect id="XMLID_63_" x="175.5" y="137.8" class="st3" width="40.8" height="54.1"/>
		<rect id="XMLID_64_" x="201.2" y="138.3" class="st4" width="14.9" height="54.1"/>
		<rect id="XMLID_75_" x="175.5" y="137.8" class="st2" width="11.3" height="54.1"/>
		<rect id="XMLID_78_" x="216.1" y="137.8" class="st5" width="11.2" height="54.1"/>
		<path id="XMLID_76_" class="st3" d="M241.9,191.9h-92c-2.8,0-5-2.2-5-5v-44.1c0-2.8,2.2-5,5-5h92c2.8,0,5,2.2,5,5v44.1    C246.9,189.7,244.7,191.9,241.9,191.9z"/>
		<rect id="XMLID_77_" x="175.5" y="137.8" class="st3" width="40.8" height="54.1"/>
		<path id="XMLID_81_" class="st1" d="M225.4,191.9h-58.9v69c0,2.8,2.2,5,5,5h48.9c2.8,0,5-2.2,5-5V191.9z"/>
		<path id="XMLID_102_" class="st2" d="M188,191.9h-21.5v68.4c0,3.1,2.5,5.7,5.7,5.7H188V191.9z"/>
		<path id="XMLID_84_" class="st3" d="M225.4,191.9h-58.9v69c0,2.8,2.2,5,5,5h48.9c2.8,0,5-2.2,5-5V191.9z"/>
		<g id="XMLID_85_">
			<path id="XMLID_86_" class="st6" d="M220.9,272.2H171c-3.4,0-6.2-2.8-6.2-6.2s2.8-6.2,6.2-6.2h49.9c3.4,0,6.2,2.8,6.2,6.2     S224.3,272.2,220.9,272.2z"/>
		</g>
		<g id="XMLID_87_">
			<path id="XMLID_88_" class="st6" d="M220.9,284.6H171c-3.4,0-6.2-2.8-6.2-6.2s2.8-6.2,6.2-6.2h49.9c3.4,0,6.2,2.8,6.2,6.2     S224.3,284.6,220.9,284.6z"/>
		</g>
		<g id="XMLID_89_">
			<path id="XMLID_90_" class="st6" d="M220.9,297.1H171c-3.4,0-6.2-2.8-6.2-6.2s2.8-6.2,6.2-6.2h49.9c3.4,0,6.2,2.8,6.2,6.2     S224.3,297.1,220.9,297.1z"/>
		</g>
		<g id="XMLID_91_">
			<path id="XMLID_92_" class="st6" d="M220.9,309.6H171c-3.4,0-6.2-2.8-6.2-6.2c0-3.4,2.8-6.2,6.2-6.2h49.9c3.4,0,6.2,2.8,6.2,6.2     C227.1,306.8,224.3,309.6,220.9,309.6z"/>
		</g>
		<g id="XMLID_94_">
			<path id="XMLID_96_" class="st6" d="M220.9,322H171c-3.4,0-6.2-2.8-6.2-6.2s2.8-6.2,6.2-6.2h49.9c3.4,0,6.2,2.8,6.2,6.2     S224.3,322,220.9,322z"/>
		</g>
		<g id="XMLID_97_">
			<path id="XMLID_98_" class="st6" d="M220.9,334.5H171c-3.4,0-6.2-2.8-6.2-6.2s2.8-6.2,6.2-6.2h49.9c3.4,0,6.2,2.8,6.2,6.2     S224.3,334.5,220.9,334.5z"/>
		</g>
		<g id="XMLID_99_">
			<path id="XMLID_100_" class="st6" d="M220.9,347H171c-3.4,0-6.2-2.8-6.2-6.2s2.8-6.2,6.2-6.2h49.9c3.4,0,6.2,2.8,6.2,6.2     S224.3,347,220.9,347z"/>
		</g>
		<g id="XMLID_101_">
			<path id="XMLID_103_" class="st6" d="M220.9,359.4H171c-3.4,0-6.2-2.8-6.2-6.2c0-3.4,2.8-6.2,6.2-6.2h49.9c3.4,0,6.2,2.8,6.2,6.2     C227.1,356.6,224.3,359.4,220.9,359.4z"/>
		</g>
		<g id="XMLID_104_">
			<path id="XMLID_105_" class="st6" d="M220.9,371.9H171c-3.4,0-6.2-2.8-6.2-6.2c0-3.4,2.8-6.2,6.2-6.2h49.9c3.4,0,6.2,2.8,6.2,6.2     C227.1,369.1,224.3,371.9,220.9,371.9z"/>
		</g>
		<g id="XMLID_123_">
			<path id="XMLID_144_" class="st2" d="M195.5,259.7H171c-3.4,0-6.2,2.8-6.2,6.2s2.8,6.2,6.2,6.2h24.6V259.7z"/>
		</g>
		<g id="XMLID_121_">
			<path id="XMLID_137_" class="st2" d="M195.5,272.2H171c-3.4,0-6.2,2.8-6.2,6.2s2.8,6.2,6.2,6.2h24.6V272.2z"/>
		</g>
		<g id="XMLID_119_">
			<path id="XMLID_136_" class="st2" d="M195.5,284.6H171c-3.4,0-6.2,2.8-6.2,6.2s2.8,6.2,6.2,6.2h24.6V284.6z"/>
		</g>
		<g id="XMLID_116_">
			<path id="XMLID_135_" class="st2" d="M195.5,297.1H171c-3.4,0-6.2,2.8-6.2,6.2c0,3.4,2.8,6.2,6.2,6.2h24.6V297.1z"/>
		</g>
		<g id="XMLID_113_">
			<path id="XMLID_134_" class="st2" d="M195.5,309.6H171c-3.4,0-6.2,2.8-6.2,6.2s2.8,6.2,6.2,6.2h24.6V309.6z"/>
		</g>
		<g id="XMLID_111_">
			<path id="XMLID_132_" class="st2" d="M195.5,322H171c-3.4,0-6.2,2.8-6.2,6.2s2.8,6.2,6.2,6.2h24.6V322z"/>
		</g>
		<g id="XMLID_109_">
			<path id="XMLID_131_" class="st2" d="M195.5,334.5H171c-3.4,0-6.2,2.8-6.2,6.2s2.8,6.2,6.2,6.2h24.6V334.5z"/>
		</g>
		<g id="XMLID_107_">
			<path id="XMLID_130_" class="st2" d="M195.5,347H171c-3.4,0-6.2,2.8-6.2,6.2c0,3.4,2.8,6.2,6.2,6.2h24.6V347z"/>
		</g>
		<g id="XMLID_106_">
			<path id="XMLID_129_" class="st2" d="M195.5,359.4H171c-3.4,0-6.2,2.8-6.2,6.2c0,3.4,2.8,6.2,6.2,6.2h24.6V359.4z"/>
		</g>
		<g id="XMLID_140_">
			<path id="XMLID_141_" class="st3" d="M220.9,272.2H171c-3.4,0-6.2-2.8-6.2-6.2s2.8-6.2,6.2-6.2h49.9c3.4,0,6.2,2.8,6.2,6.2     S224.3,272.2,220.9,272.2z"/>
		</g>
		<g id="XMLID_138_">
			<path id="XMLID_139_" class="st3" d="M220.9,284.6H171c-3.4,0-6.2-2.8-6.2-6.2s2.8-6.2,6.2-6.2h49.9c3.4,0,6.2,2.8,6.2,6.2     S224.3,284.6,220.9,284.6z"/>
		</g>
		<g id="XMLID_128_">
			<path id="XMLID_133_" class="st3" d="M220.9,297.1H171c-3.4,0-6.2-2.8-6.2-6.2s2.8-6.2,6.2-6.2h49.9c3.4,0,6.2,2.8,6.2,6.2     S224.3,297.1,220.9,297.1z"/>
		</g>
		<g id="XMLID_126_">
			<path id="XMLID_127_" class="st3" d="M220.9,309.6H171c-3.4,0-6.2-2.8-6.2-6.2c0-3.4,2.8-6.2,6.2-6.2h49.9c3.4,0,6.2,2.8,6.2,6.2     C227.1,306.8,224.3,309.6,220.9,309.6z"/>
		</g>
		<g id="XMLID_124_">
			<path id="XMLID_125_" class="st3" d="M220.9,322H171c-3.4,0-6.2-2.8-6.2-6.2s2.8-6.2,6.2-6.2h49.9c3.4,0,6.2,2.8,6.2,6.2     S224.3,322,220.9,322z"/>
		</g>
		<g id="XMLID_120_">
			<path id="XMLID_122_" class="st3" d="M220.9,334.5H171c-3.4,0-6.2-2.8-6.2-6.2s2.8-6.2,6.2-6.2h49.9c3.4,0,6.2,2.8,6.2,6.2     S224.3,334.5,220.9,334.5z"/>
		</g>
		<g id="XMLID_115_">
			<path id="XMLID_118_" class="st3" d="M220.9,347H171c-3.4,0-6.2-2.8-6.2-6.2s2.8-6.2,6.2-6.2h49.9c3.4,0,6.2,2.8,6.2,6.2     S224.3,347,220.9,347z"/>
		</g>
		<g id="XMLID_110_">
			<path id="XMLID_112_" class="st3" d="M220.9,359.4H171c-3.4,0-6.2-2.8-6.2-6.2c0-3.4,2.8-6.2,6.2-6.2h49.9c3.4,0,6.2,2.8,6.2,6.2     C227.1,356.6,224.3,359.4,220.9,359.4z"/>
		</g>
		<g id="XMLID_108_">
			<path id="XMLID_143_" class="st3" d="M220.9,371.9H171c-3.4,0-6.2-2.8-6.2-6.2c0-3.4,2.8-6.2,6.2-6.2h49.9c3.4,0,6.2,2.8,6.2,6.2     C227.1,369.1,224.3,371.9,220.9,371.9z"/>
		</g>
	</g>
	<g id="XMLID_343_">
		<path id="XMLID_61_" class="st7" d="M315.5,172.5v229.2c0,0.8,0.2,1.5,0.5,2.2l11.5,26.3c0.3,0.6,0.9,1,1.6,1c0.7,0,1.3-0.4,1.6-1    l11.5-26.3c0.3-0.7,0.5-1.5,0.5-2.2V172.5H315.5z"/>
		<path id="XMLID_60_" class="st8" d="M329.3,172.5v258.7c0.6-0.1,1.1-0.5,1.3-1l11.5-26.3c0.3-0.7,0.5-1.5,0.5-2.2V172.5H329.3z"/>
		<path id="XMLID_59_" class="st3" d="M315.5,172.5v229.2c0,0.8,0.2,1.5,0.5,2.2l11.5,26.3c0.3,0.6,0.9,1,1.6,1c0.7,0,1.3-0.4,1.6-1    l11.5-26.3c0.3-0.7,0.5-1.5,0.5-2.2V172.5H315.5z"/>
		<g id="XMLID_49_">
			<path id="XMLID_54_" class="st9" d="M346.2,255c-1.4-3.5-5.3-5.2-8.9-3.9l-21.5,8.1c-3.5,1.3-5.3,5.2-4,8.7     c1,2.7,3.6,4.3,6.4,4.3c0.8,0,1.6-0.1,2.5-0.4l21.5-8.1C345.8,262.3,347.5,258.4,346.2,255z"/>
			<path id="XMLID_53_" class="st9" d="M346.2,286.7c-1.4-3.5-5.3-5.2-8.9-3.9l-21.5,8.1c-3.5,1.3-5.3,5.2-4,8.7     c1,2.7,3.6,4.3,6.4,4.3c0.8,0,1.6-0.1,2.5-0.4l21.5-8.1C345.8,294.1,347.5,290.2,346.2,286.7z"/>
			<path id="XMLID_52_" class="st9" d="M346.2,318.5c-1.4-3.5-5.3-5.2-8.9-3.9l-21.5,8.1c-3.5,1.3-5.3,5.2-4,8.7     c1,2.7,3.6,4.3,6.4,4.3c0.8,0,1.6-0.1,2.5-0.4l21.5-8.1C345.8,325.9,347.5,322,346.2,318.5z"/>
			<path id="XMLID_51_" class="st9" d="M346.2,350.3c-1.4-3.5-5.3-5.2-8.9-3.9l-21.5,8.1c-3.5,1.3-5.3,5.2-4,8.7     c1,2.7,3.6,4.3,6.4,4.3c0.8,0,1.6-0.1,2.5-0.4l21.5-8.1C345.8,357.6,347.5,353.7,346.2,350.3z"/>
			<path id="XMLID_50_" class="st9" d="M346.2,382c-1.4-3.5-5.3-5.2-8.9-3.9l-21.5,8.1c-3.5,1.3-5.3,5.2-4,8.7     c1,2.7,3.6,4.3,6.4,4.3c0.8,0,1.6-0.1,2.5-0.4l21.5-8.1C345.8,389.4,347.5,385.5,346.2,382z"/>
		</g>
		<g id="XMLID_195_">
			<path id="XMLID_224_" class="st10" d="M328.7,254.3l-12.8,4.8c-3.5,1.3-5.3,5.2-4,8.7c1,2.7,3.6,4.3,6.4,4.3     c0.8,0,1.6-0.1,2.5-0.4l7.9-3V254.3z"/>
			<path id="XMLID_216_" class="st10" d="M328.7,286.1l-12.8,4.8c-3.5,1.3-5.3,5.2-4,8.7c1,2.7,3.6,4.3,6.4,4.3     c0.8,0,1.6-0.1,2.5-0.4l7.9-3V286.1z"/>
			<path id="XMLID_213_" class="st10" d="M328.7,317.9l-12.8,4.8c-3.5,1.3-5.3,5.2-4,8.7c1,2.7,3.6,4.3,6.4,4.3     c0.8,0,1.6-0.1,2.5-0.4l7.9-3V317.9z"/>
			<path id="XMLID_212_" class="st10" d="M328.7,349.6l-12.8,4.8c-3.5,1.3-5.3,5.2-4,8.7c1,2.7,3.6,4.3,6.4,4.3     c0.8,0,1.6-0.1,2.5-0.4l7.9-3V349.6z"/>
			<path id="XMLID_211_" class="st10" d="M328.7,381.4l-12.8,4.8c-3.5,1.3-5.3,5.2-4,8.7c1,2.7,3.6,4.3,6.4,4.3     c0.8,0,1.6-0.1,2.5-0.4l7.9-3V381.4z"/>
		</g>
		<path id="XMLID_62_" class="st11" d="M340,140.8v15.1c0,1.6-1.3,2.9-2.9,2.9h-16c-1.6,0-2.9-1.3-2.9-2.9v-15.1c0-2-2-3.5-3.9-2.8    c-15.2,5.5-28.2,18.9-28.2,34.5h86.1c0-15.6-13-28.9-28.2-34.5C342,137.3,340,138.8,340,140.8z"/>
		<path id="XMLID_80_" class="st9" d="M290.2,157.3c-2.7,4.6-4.2,9.8-4.2,15.2h86.1c0-5.4-1.6-10.5-4.2-15.2H290.2z"/>
		<path id="XMLID_217_" class="st10" d="M322.9,157.3h-32.7c-2.7,4.6-4.2,9.8-4.2,15.2h36.9V157.3z"/>
		<path id="XMLID_82_" class="st1" d="M348.6,225.7v-53.3h-39.1v66.1c0,3.3,3.3,5.4,6.3,4.2l30.1-12.8    C347.5,229.2,348.6,227.6,348.6,225.7z"/>
		<path id="XMLID_79_" class="st2" d="M323.2,172.5h-13.7v66.1c0,3.3,3.3,5.4,6.3,4.2l7.4-3.2V172.5z"/>
		<path id="XMLID_48_" class="st3" d="M348.6,225.7v-53.3h-39.1v66.1c0,3.3,3.3,5.4,6.3,4.2l30.1-12.8    C347.5,229.2,348.6,227.6,348.6,225.7z"/>
		<path id="XMLID_194_" class="st3" d="M290.2,157.3c-2.7,4.6-4.2,9.8-4.2,15.2h86.1c0-5.4-1.6-10.5-4.2-15.2H290.2z"/>
		<g id="XMLID_196_">
			<path id="XMLID_202_" class="st3" d="M346.2,255c-1.4-3.5-5.3-5.2-8.9-3.9l-21.5,8.1c-3.5,1.3-5.3,5.2-4,8.7     c1,2.7,3.6,4.3,6.4,4.3c0.8,0,1.6-0.1,2.5-0.4l21.5-8.1C345.8,262.3,347.5,258.4,346.2,255z"/>
			<path id="XMLID_201_" class="st3" d="M346.2,286.7c-1.4-3.5-5.3-5.2-8.9-3.9l-21.5,8.1c-3.5,1.3-5.3,5.2-4,8.7     c1,2.7,3.6,4.3,6.4,4.3c0.8,0,1.6-0.1,2.5-0.4l21.5-8.1C345.8,294.1,347.5,290.2,346.2,286.7z"/>
			<path id="XMLID_199_" class="st3" d="M346.2,318.5c-1.4-3.5-5.3-5.2-8.9-3.9l-21.5,8.1c-3.5,1.3-5.3,5.2-4,8.7     c1,2.7,3.6,4.3,6.4,4.3c0.8,0,1.6-0.1,2.5-0.4l21.5-8.1C345.8,325.9,347.5,322,346.2,318.5z"/>
			<path id="XMLID_198_" class="st3" d="M346.2,350.3c-1.4-3.5-5.3-5.2-8.9-3.9l-21.5,8.1c-3.5,1.3-5.3,5.2-4,8.7     c1,2.7,3.6,4.3,6.4,4.3c0.8,0,1.6-0.1,2.5-0.4l21.5-8.1C345.8,357.6,347.5,353.7,346.2,350.3z"/>
			<path id="XMLID_197_" class="st3" d="M346.2,382c-1.4-3.5-5.3-5.2-8.9-3.9l-21.5,8.1c-3.5,1.3-5.3,5.2-4,8.7     c1,2.7,3.6,4.3,6.4,4.3c0.8,0,1.6-0.1,2.5-0.4l21.5-8.1C345.8,389.4,347.5,385.5,346.2,382z"/>
		</g>
	</g>
	<g id="XMLID_342_">
		<path id="XMLID_8_" class="st7" d="M429,173.8v229.2c0,0.8,0.2,1.5,0.5,2.2l11.5,26.3c0.3,0.6,0.9,1,1.6,1c0.7,0,1.3-0.4,1.6-1    l11.5-26.3c0.3-0.7,0.5-1.5,0.5-2.2V173.8H429z"/>
		<path id="XMLID_35_" class="st8" d="M442.9,173.8v258.7c0.6-0.1,1.1-0.5,1.3-1l11.5-26.3c0.3-0.7,0.5-1.5,0.5-2.2V173.8H442.9z"/>
		<path id="XMLID_14_" class="st3" d="M429,173.8v229.2c0,0.8,0.2,1.5,0.5,2.2l11.5,26.3c0.3,0.6,0.9,1,1.6,1c0.7,0,1.3-0.4,1.6-1    l11.5-26.3c0.3-0.7,0.5-1.5,0.5-2.2V173.8H429z"/>
		<path id="XMLID_36_" class="st1" d="M468.5,137.8h-51.9c-3.1,0-5.7,2.5-5.7,5.7v9.7l18.2,20.6h27.1l18-20.3v-9.9    C474.1,140.4,471.6,137.8,468.5,137.8z"/>
		<path id="XMLID_117_" class="st12" d="M443,137.8h-26.4c-3.1,0-5.7,2.5-5.7,5.7v9.7l18.2,20.6H443V137.8z"/>
		<path id="XMLID_95_" class="st3" d="M468.5,137.8h-51.9c-3.1,0-5.7,2.5-5.7,5.7v9.7l18.2,20.6h27.1l18-20.3v-9.9    C474.1,140.4,471.6,137.8,468.5,137.8z"/>
		<path id="XMLID_37_" class="st11" d="M468.5,137.8h-51.9c-3.1,0-5.7,2.5-5.7,5.7v9.2l0,0.1h63.2v-9.3    C474.1,140.4,471.6,137.8,468.5,137.8z"/>
		<path id="XMLID_230_" class="st10" d="M443,137.8h-26.5c-3.1,0-5.7,2.5-5.7,5.7v9.2l0,0.1H443V137.8z"/>
		<g id="XMLID_5_">
			<path id="XMLID_10_" class="st9" d="M459.7,192.7c-1.4-3.5-5.3-5.2-8.9-3.9l-21.5,8.1c-3.5,1.3-5.3,5.2-4,8.7     c1,2.7,3.6,4.3,6.4,4.3c0.8,0,1.6-0.1,2.5-0.4l21.5-8.1C459.3,200.1,461.1,196.2,459.7,192.7z"/>
			<path id="XMLID_6_" class="st9" d="M459.7,224.5c-1.4-3.5-5.3-5.2-8.9-3.9l-21.5,8.1c-3.5,1.3-5.3,5.2-4,8.7     c1,2.7,3.6,4.3,6.4,4.3c0.8,0,1.6-0.1,2.5-0.4l21.5-8.1C459.3,231.8,461.1,227.9,459.7,224.5z"/>
			<path id="XMLID_7_" class="st9" d="M459.7,256.2c-1.4-3.5-5.3-5.2-8.9-3.9l-21.5,8.1c-3.5,1.3-5.3,5.2-4,8.7     c1,2.7,3.6,4.3,6.4,4.3c0.8,0,1.6-0.1,2.5-0.4l21.5-8.1C459.3,263.6,461.1,259.7,459.7,256.2z"/>
			<path id="XMLID_9_" class="st9" d="M459.7,288c-1.4-3.5-5.3-5.2-8.9-3.9l-21.5,8.1c-3.5,1.3-5.3,5.2-4,8.7c1,2.7,3.6,4.3,6.4,4.3     c0.8,0,1.6-0.1,2.5-0.4l21.5-8.1C459.3,295.4,461.1,291.5,459.7,288z"/>
			<path id="XMLID_11_" class="st9" d="M459.7,319.8c-1.4-3.5-5.3-5.2-8.9-3.9l-21.5,8.1c-3.5,1.3-5.3,5.2-4,8.7     c1,2.7,3.6,4.3,6.4,4.3c0.8,0,1.6-0.1,2.5-0.4l21.5-8.1C459.3,327.2,461.1,323.3,459.7,319.8z"/>
			<path id="XMLID_12_" class="st9" d="M459.7,351.6c-1.4-3.5-5.3-5.2-8.9-3.9l-21.5,8.1c-3.5,1.3-5.3,5.2-4,8.7     c1,2.7,3.6,4.3,6.4,4.3c0.8,0,1.6-0.1,2.5-0.4l21.5-8.1C459.3,358.9,461.1,355,459.7,351.6z"/>
			<path id="XMLID_13_" class="st9" d="M459.7,383.3c-1.4-3.5-5.3-5.2-8.9-3.9l-21.5,8.1c-3.5,1.3-5.3,5.2-4,8.7     c1,2.7,3.6,4.3,6.4,4.3c0.8,0,1.6-0.1,2.5-0.4l21.5-8.1C459.3,390.7,461.1,386.8,459.7,383.3z"/>
		</g>
		<g id="XMLID_203_">
			<path id="XMLID_239_" class="st10" d="M442.8,191.9l-13.4,5c-3.5,1.3-5.3,5.2-4,8.7c1,2.7,3.6,4.3,6.4,4.3c0.8,0,1.6-0.1,2.5-0.4     l8.5-3.2V191.9z"/>
			<path id="XMLID_232_" class="st10" d="M442.8,223.6l-13.4,5c-3.5,1.3-5.3,5.2-4,8.7c1,2.7,3.6,4.3,6.4,4.3c0.8,0,1.6-0.1,2.5-0.4     l8.5-3.2V223.6z"/>
			<path id="XMLID_231_" class="st10" d="M442.8,255.4l-13.4,5c-3.5,1.3-5.3,5.2-4,8.7c1,2.7,3.6,4.3,6.4,4.3c0.8,0,1.6-0.1,2.5-0.4     l8.5-3.2V255.4z"/>
			<path id="XMLID_229_" class="st10" d="M442.8,287.2l-13.4,5c-3.5,1.3-5.3,5.2-4,8.7c1,2.7,3.6,4.3,6.4,4.3c0.8,0,1.6-0.1,2.5-0.4     l8.5-3.2V287.2z"/>
			<path id="XMLID_228_" class="st10" d="M442.8,319l-13.4,5c-3.5,1.3-5.3,5.2-4,8.7c1,2.7,3.6,4.3,6.4,4.3c0.8,0,1.6-0.1,2.5-0.4     l8.5-3.2V319z"/>
			<path id="XMLID_226_" class="st10" d="M442.8,350.7l-13.4,5c-3.5,1.3-5.3,5.2-4,8.7c1,2.7,3.6,4.3,6.4,4.3c0.8,0,1.6-0.1,2.5-0.4     l8.5-3.2V350.7z"/>
			<path id="XMLID_225_" class="st10" d="M442.8,382.5l-13.4,5c-3.5,1.3-5.3,5.2-4,8.7c1,2.7,3.6,4.3,6.4,4.3c0.8,0,1.6-0.1,2.5-0.4     l8.5-3.2V382.5z"/>
		</g>
		<path id="XMLID_15_" class="st3" d="M468.5,137.8h-51.9c-3.1,0-5.7,2.5-5.7,5.7v9.2l0,0.1h63.2v-9.3    C474.1,140.4,471.6,137.8,468.5,137.8z"/>
		<g id="XMLID_204_">
			<path id="XMLID_218_" class="st3" d="M459.7,192.7c-1.4-3.5-5.3-5.2-8.9-3.9l-21.5,8.1c-3.5,1.3-5.3,5.2-4,8.7     c1,2.7,3.6,4.3,6.4,4.3c0.8,0,1.6-0.1,2.5-0.4l21.5-8.1C459.3,200.1,461.1,196.2,459.7,192.7z"/>
			<path id="XMLID_210_" class="st3" d="M459.7,224.5c-1.4-3.5-5.3-5.2-8.9-3.9l-21.5,8.1c-3.5,1.3-5.3,5.2-4,8.7     c1,2.7,3.6,4.3,6.4,4.3c0.8,0,1.6-0.1,2.5-0.4l21.5-8.1C459.3,231.8,461.1,227.9,459.7,224.5z"/>
			<path id="XMLID_209_" class="st3" d="M459.7,256.2c-1.4-3.5-5.3-5.2-8.9-3.9l-21.5,8.1c-3.5,1.3-5.3,5.2-4,8.7     c1,2.7,3.6,4.3,6.4,4.3c0.8,0,1.6-0.1,2.5-0.4l21.5-8.1C459.3,263.6,461.1,259.7,459.7,256.2z"/>
			<path id="XMLID_208_" class="st3" d="M459.7,288c-1.4-3.5-5.3-5.2-8.9-3.9l-21.5,8.1c-3.5,1.3-5.3,5.2-4,8.7     c1,2.7,3.6,4.3,6.4,4.3c0.8,0,1.6-0.1,2.5-0.4l21.5-8.1C459.3,295.4,461.1,291.5,459.7,288z"/>
			<path id="XMLID_207_" class="st3" d="M459.7,319.8c-1.4-3.5-5.3-5.2-8.9-3.9l-21.5,8.1c-3.5,1.3-5.3,5.2-4,8.7     c1,2.7,3.6,4.3,6.4,4.3c0.8,0,1.6-0.1,2.5-0.4l21.5-8.1C459.3,327.2,461.1,323.3,459.7,319.8z"/>
			<path id="XMLID_206_" class="st3" d="M459.7,351.6c-1.4-3.5-5.3-5.2-8.9-3.9l-21.5,8.1c-3.5,1.3-5.3,5.2-4,8.7     c1,2.7,3.6,4.3,6.4,4.3c0.8,0,1.6-0.1,2.5-0.4l21.5-8.1C459.3,358.9,461.1,355,459.7,351.6z"/>
			<path id="XMLID_205_" class="st3" d="M459.7,383.3c-1.4-3.5-5.3-5.2-8.9-3.9l-21.5,8.1c-3.5,1.3-5.3,5.2-4,8.7     c1,2.7,3.6,4.3,6.4,4.3c0.8,0,1.6-0.1,2.5-0.4l21.5-8.1C459.3,390.7,461.1,386.8,459.7,383.3z"/>
		</g>
	</g>
	<g id="XMLID_341_">
		<path id="XMLID_47_" class="st7" d="M535.8,173.8v141c0,1,0.2,2.1,0.6,3l15.6,21.1c0.4,0.9,1.2,1.4,2.2,1.4c1,0,1.8-0.6,2.2-1.4    l15.6-21.1c0.4-1,0.6-2,0.6-3v-141H535.8z"/>
		<path id="XMLID_40_" class="st8" d="M554.6,173.8v166.5c0.8-0.1,1.5-0.6,1.8-1.4l15.6-21.1c0.4-1,0.6-2,0.6-3v-141H554.6z"/>
		<path id="XMLID_39_" class="st3" d="M535.8,173.8v141c0,1,0.2,2.1,0.6,3l15.6,21.1c0.4,0.9,1.2,1.4,2.2,1.4c1,0,1.8-0.6,2.2-1.4    l15.6-21.1c0.4-1,0.6-2,0.6-3v-141H535.8z"/>
		<path id="XMLID_25_" class="st1" d="M581.2,137.8H527c-3.1,0-5.7,2.5-5.7,5.7v9.7l14.5,20.6h36.8l14.3-20.3v-9.9    C586.9,140.4,584.3,137.8,581.2,137.8z"/>
		<path id="XMLID_24_" class="st11" d="M581.2,137.8H527c-3.1,0-5.7,2.5-5.7,5.7v9.2l0,0.1h65.5v-9.3    C586.9,140.4,584.3,137.8,581.2,137.8z"/>
		<path id="XMLID_248_" class="st12" d="M554.6,137.8H527c-3.1,0-5.7,2.5-5.7,5.7v9.7l14.5,20.6h18.7V137.8z"/>
		<path id="XMLID_241_" class="st10" d="M554.6,137.8H527c-3.1,0-5.7,2.5-5.7,5.7v9.2l0,0.1h33.2V137.8z"/>
		<g id="XMLID_16_">
			<path id="XMLID_21_" class="st9" d="M579.1,200.9c-1.1-3.6-4.9-5.6-8.5-4.5c0,0-9.2,2.8-18.4,5.6c-4.6,1.4-9.2,2.9-12.7,4     c-1.8,0.6-3.3,1-4.3,1.4c-1.9,0.6-6.2,2.1-6.2,7c0,3.8,3,6.8,6.8,6.8c1.1,0,2.1-0.3,3-0.7c2.9-1.1,20.3-6.4,35.7-11.1     C578.2,208.3,580.2,204.5,579.1,200.9z"/>
			<path id="XMLID_17_" class="st9" d="M579.1,232.7c-1.1-3.6-4.9-5.6-8.5-4.5c0,0-9.2,2.8-18.4,5.6c-4.6,1.4-9.2,2.9-12.7,4     c-1.8,0.6-3.3,1-4.3,1.4c-1.9,0.6-6.2,2.1-6.2,7c0,3.8,3,6.8,6.8,6.8c1.1,0,2.1-0.3,3-0.7c2.9-1.1,20.3-6.4,35.7-11.1     C578.2,240.1,580.2,236.3,579.1,232.7z"/>
			<path id="XMLID_20_" class="st9" d="M579.1,264.5c-1.1-3.6-4.9-5.6-8.5-4.5c0,0-9.2,2.8-18.4,5.6c-4.6,1.4-9.2,2.9-12.7,4     c-1.8,0.6-3.3,1-4.3,1.4c-1.9,0.6-6.2,2.1-6.2,7c0,3.8,3,6.8,6.8,6.8c1.1,0,2.1-0.3,3-0.7c2.9-1.1,20.3-6.4,35.7-11.1     C578.2,271.9,580.2,268.1,579.1,264.5z"/>
			<path id="XMLID_23_" class="st9" d="M579.1,296.3c-1.1-3.6-4.9-5.6-8.5-4.5c0,0-9.2,2.8-18.4,5.6c-4.6,1.4-9.2,2.9-12.7,4     c-1.8,0.6-3.3,1-4.3,1.4c-1.9,0.6-6.2,2.1-6.2,7c0,3.8,3,6.8,6.8,6.8c1.1,0,2.1-0.3,3-0.7c2.9-1.1,20.3-6.4,35.7-11.1     C578.2,303.7,580.2,299.9,579.1,296.3z"/>
		</g>
		<g id="XMLID_220_">
			<path id="XMLID_260_" class="st10" d="M554.1,201.5c-0.6,0.2-1.3,0.4-1.9,0.6c-4.6,1.4-9.2,2.9-12.7,4c-1.8,0.6-3.3,1-4.3,1.4     c-1.9,0.6-6.2,2.1-6.2,7c0,3.8,3,6.8,6.8,6.8c1.1,0,2.1-0.3,3-0.7c1.6-0.6,7.6-2.5,15.2-4.8V201.5z"/>
			<path id="XMLID_252_" class="st10" d="M554.1,233.2c-0.6,0.2-1.3,0.4-1.9,0.6c-4.6,1.4-9.2,2.9-12.7,4c-1.8,0.6-3.3,1-4.3,1.4     c-1.9,0.6-6.2,2.1-6.2,7c0,3.8,3,6.8,6.8,6.8c1.1,0,2.1-0.3,3-0.7c1.6-0.6,7.6-2.5,15.2-4.8V233.2z"/>
			<path id="XMLID_250_" class="st10" d="M554.1,265c-0.6,0.2-1.3,0.4-1.9,0.6c-4.6,1.4-9.2,2.9-12.7,4c-1.8,0.6-3.3,1-4.3,1.4     c-1.9,0.6-6.2,2.1-6.2,7c0,3.8,3,6.8,6.8,6.8c1.1,0,2.1-0.3,3-0.7c1.6-0.6,7.6-2.5,15.2-4.8V265z"/>
			<path id="XMLID_246_" class="st10" d="M554.1,296.8c-0.6,0.2-1.3,0.4-1.9,0.6c-4.6,1.4-9.2,2.9-12.7,4c-1.8,0.6-3.3,1-4.3,1.4     c-1.9,0.6-6.2,2.1-6.2,7c0,3.8,3,6.8,6.8,6.8c1.1,0,2.1-0.3,3-0.7c1.6-0.6,7.6-2.5,15.2-4.8V296.8z"/>
		</g>
		<path id="XMLID_219_" class="st3" d="M581.2,137.8H527c-3.1,0-5.7,2.5-5.7,5.7v9.7l14.5,20.6h36.8l14.3-20.3v-9.9    C586.9,140.4,584.3,137.8,581.2,137.8z"/>
		<path id="XMLID_4_" class="st3" d="M581.2,137.8H527c-3.1,0-5.7,2.5-5.7,5.7v9.2l0,0.1h65.5v-9.3    C586.9,140.4,584.3,137.8,581.2,137.8z"/>
		<g id="XMLID_221_">
			<path id="XMLID_236_" class="st3" d="M579.1,200.9c-1.1-3.6-4.9-5.6-8.5-4.5c0,0-9.2,2.8-18.4,5.6c-4.6,1.4-9.2,2.9-12.7,4     c-1.8,0.6-3.3,1-4.3,1.4c-1.9,0.6-6.2,2.1-6.2,7c0,3.8,3,6.8,6.8,6.8c1.1,0,2.1-0.3,3-0.7c2.9-1.1,20.3-6.4,35.7-11.1     C578.2,208.3,580.2,204.5,579.1,200.9z"/>
			<path id="XMLID_234_" class="st3" d="M579.1,232.7c-1.1-3.6-4.9-5.6-8.5-4.5c0,0-9.2,2.8-18.4,5.6c-4.6,1.4-9.2,2.9-12.7,4     c-1.8,0.6-3.3,1-4.3,1.4c-1.9,0.6-6.2,2.1-6.2,7c0,3.8,3,6.8,6.8,6.8c1.1,0,2.1-0.3,3-0.7c2.9-1.1,20.3-6.4,35.7-11.1     C578.2,240.1,580.2,236.3,579.1,232.7z"/>
			<path id="XMLID_227_" class="st3" d="M579.1,264.5c-1.1-3.6-4.9-5.6-8.5-4.5c0,0-9.2,2.8-18.4,5.6c-4.6,1.4-9.2,2.9-12.7,4     c-1.8,0.6-3.3,1-4.3,1.4c-1.9,0.6-6.2,2.1-6.2,7c0,3.8,3,6.8,6.8,6.8c1.1,0,2.1-0.3,3-0.7c2.9-1.1,20.3-6.4,35.7-11.1     C578.2,271.9,580.2,268.1,579.1,264.5z"/>
			<path id="XMLID_222_" class="st3" d="M579.1,296.3c-1.1-3.6-4.9-5.6-8.5-4.5c0,0-9.2,2.8-18.4,5.6c-4.6,1.4-9.2,2.9-12.7,4     c-1.8,0.6-3.3,1-4.3,1.4c-1.9,0.6-6.2,2.1-6.2,7c0,3.8,3,6.8,6.8,6.8c1.1,0,2.1-0.3,3-0.7c2.9-1.1,20.3-6.4,35.7-11.1     C578.2,303.7,580.2,299.9,579.1,296.3z"/>
		</g>
	</g>
	<g id="XMLID_340_">
		<path id="XMLID_46_" class="st7" d="M647.2,171.5v125.9c0,1,0.2,2,0.6,2.9l14.6,19.2c0.4,0.8,1.2,1.3,2,1.3c0.9,0,1.7-0.5,2-1.3    l14.6-19.2c0.4-0.9,0.6-1.9,0.6-2.9V171.5H647.2z"/>
		<path id="XMLID_45_" class="st8" d="M664.9,171.5v149.2c0.7-0.1,1.4-0.6,1.7-1.3l14.6-19.2c0.4-0.9,0.6-1.9,0.6-2.9V171.5H664.9z"/>
		<path id="XMLID_44_" class="st3" d="M647.2,171.5v125.9c0,1,0.2,2,0.6,2.9l14.6,19.2c0.4,0.8,1.2,1.3,2,1.3c0.9,0,1.7-0.5,2-1.3    l14.6-19.2c0.4-0.9,0.6-1.9,0.6-2.9V171.5H647.2z"/>
		<g id="XMLID_27_">
			<path id="XMLID_38_" class="st9" d="M688.3,194.2c-0.8-3.4-4.2-5.6-7.6-4.8c0,0-8.8,2-17.6,4c-4.4,1-8.8,2-12.2,2.8     c-1.7,0.4-3.1,0.8-4.1,1c-1.8,0.5-5.9,1.5-6.3,6.2c-0.3,3.5,2.4,6.6,5.9,6.8c1,0.1,2-0.1,2.9-0.5c2.8-0.8,19.4-4.6,34.2-7.9     C687,201,689.1,197.6,688.3,194.2z"/>
			<path id="XMLID_28_" class="st9" d="M688.3,222.4c-0.8-3.4-4.2-5.6-7.6-4.8c0,0-8.8,2-17.6,4c-4.4,1-8.8,2-12.2,2.8     c-1.7,0.4-3.1,0.8-4.1,1c-1.8,0.5-5.9,1.5-6.3,6.2c-0.3,3.5,2.4,6.6,5.9,6.8c1,0.1,2-0.1,2.9-0.5c2.8-0.8,19.4-4.6,34.2-7.9     C687,229.2,689.1,225.8,688.3,222.4z"/>
			<path id="XMLID_30_" class="st9" d="M688.3,250.5c-0.8-3.4-4.2-5.6-7.6-4.8c0,0-8.8,2-17.6,4c-4.4,1-8.8,2-12.2,2.8     c-1.7,0.4-3.1,0.8-4.1,1c-1.8,0.5-5.9,1.5-6.3,6.2c-0.3,3.5,2.4,6.6,5.9,6.8c1,0.1,2-0.1,2.9-0.5c2.8-0.8,19.4-4.6,34.2-7.9     C687,257.4,689.1,254,688.3,250.5z"/>
			<path id="XMLID_32_" class="st9" d="M688.3,278.7c-0.8-3.4-4.2-5.6-7.6-4.8c0,0-8.8,2-17.6,4c-4.4,1-8.8,2-12.2,2.8     c-1.7,0.4-3.1,0.8-4.1,1c-1.8,0.5-5.9,1.5-6.3,6.2c-0.3,3.5,2.4,6.6,5.9,6.8c1,0.1,2-0.1,2.9-0.5c2.8-0.8,19.4-4.6,34.2-7.9     C687,285.6,689.1,282.2,688.3,278.7z"/>
		</g>
		<g id="XMLID_238_">
			<path id="XMLID_274_" class="st10" d="M664.9,192.9c-0.6,0.1-1.2,0.3-1.8,0.4c-4.4,1-8.8,2-12.2,2.8c-1.7,0.4-3.1,0.8-4.1,1     c-1.8,0.5-5.9,1.5-6.3,6.2c-0.3,3.5,2.4,6.6,5.9,6.8c1,0.1,2-0.1,2.9-0.5c1.6-0.5,7.8-1.9,15.6-3.7V192.9z"/>
			<path id="XMLID_266_" class="st10" d="M664.9,221.1c-0.6,0.1-1.2,0.3-1.8,0.4c-4.4,1-8.8,2-12.2,2.8c-1.7,0.4-3.1,0.8-4.1,1     c-1.8,0.5-5.9,1.5-6.3,6.2c-0.3,3.5,2.4,6.6,5.9,6.8c1,0.1,2-0.1,2.9-0.5c1.6-0.5,7.8-1.9,15.6-3.7V221.1z"/>
			<path id="XMLID_264_" class="st10" d="M664.9,249.3c-0.6,0.1-1.2,0.3-1.8,0.4c-4.4,1-8.8,2-12.2,2.8c-1.7,0.4-3.1,0.8-4.1,1     c-1.8,0.5-5.9,1.5-6.3,6.2c-0.3,3.5,2.4,6.6,5.9,6.8c1,0.1,2-0.1,2.9-0.5c1.6-0.5,7.8-1.9,15.6-3.7V249.3z"/>
			<path id="XMLID_261_" class="st10" d="M664.9,277.5c-0.6,0.1-1.2,0.3-1.8,0.4c-4.4,1-8.8,2-12.2,2.8c-1.7,0.4-3.1,0.8-4.1,1     c-1.8,0.5-5.9,1.5-6.3,6.2c-0.3,3.5,2.4,6.6,5.9,6.8c1,0.1,2-0.1,2.9-0.5c1.6-0.5,7.8-1.9,15.6-3.7V277.5z"/>
		</g>
		<path id="XMLID_43_" class="st11" d="M625.5,171.5c0-18.6,20.4-33.7,39-33.7c18.6,0,39,15.1,39,33.7H625.5z"/>
		<path id="XMLID_67_" class="st9" d="M628.8,158.9c-2.1,3.9-3.3,8.2-3.3,12.7h78c0-4.5-1.2-8.8-3.3-12.7H628.8z"/>
		<path id="XMLID_280_" class="st10" d="M664.9,137.9c-0.1,0-0.2,0-0.4,0c-18.6,0-39,15.1-39,33.7h39.4V137.9z"/>
		<path id="XMLID_272_" class="st13" d="M664.9,158.9h-36.1c-2.1,3.9-3.3,8.2-3.3,12.7h39.4V158.9z"/>
		<g id="XMLID_240_">
			<path id="XMLID_251_" class="st3" d="M688.3,194.2c-0.8-3.4-4.2-5.6-7.6-4.8c0,0-8.8,2-17.6,4c-4.4,1-8.8,2-12.2,2.8     c-1.7,0.4-3.1,0.8-4.1,1c-1.8,0.5-5.9,1.5-6.3,6.2c-0.3,3.5,2.4,6.6,5.9,6.8c1,0.1,2-0.1,2.9-0.5c2.8-0.8,19.4-4.6,34.2-7.9     C687,201,689.1,197.6,688.3,194.2z"/>
			<path id="XMLID_247_" class="st3" d="M688.3,222.4c-0.8-3.4-4.2-5.6-7.6-4.8c0,0-8.8,2-17.6,4c-4.4,1-8.8,2-12.2,2.8     c-1.7,0.4-3.1,0.8-4.1,1c-1.8,0.5-5.9,1.5-6.3,6.2c-0.3,3.5,2.4,6.6,5.9,6.8c1,0.1,2-0.1,2.9-0.5c2.8-0.8,19.4-4.6,34.2-7.9     C687,229.2,689.1,225.8,688.3,222.4z"/>
			<path id="XMLID_244_" class="st3" d="M688.3,250.5c-0.8-3.4-4.2-5.6-7.6-4.8c0,0-8.8,2-17.6,4c-4.4,1-8.8,2-12.2,2.8     c-1.7,0.4-3.1,0.8-4.1,1c-1.8,0.5-5.9,1.5-6.3,6.2c-0.3,3.5,2.4,6.6,5.9,6.8c1,0.1,2-0.1,2.9-0.5c2.8-0.8,19.4-4.6,34.2-7.9     C687,257.4,689.1,254,688.3,250.5z"/>
			<path id="XMLID_242_" class="st3" d="M688.3,278.7c-0.8-3.4-4.2-5.6-7.6-4.8c0,0-8.8,2-17.6,4c-4.4,1-8.8,2-12.2,2.8     c-1.7,0.4-3.1,0.8-4.1,1c-1.8,0.5-5.9,1.5-6.3,6.2c-0.3,3.5,2.4,6.6,5.9,6.8c1,0.1,2-0.1,2.9-0.5c2.8-0.8,19.4-4.6,34.2-7.9     C687,285.6,689.1,282.2,688.3,278.7z"/>
		</g>
		<path id="XMLID_255_" class="st3" d="M625.5,171.5c0-18.6,20.4-33.7,39-33.7c18.6,0,39,15.1,39,33.7H625.5z"/>
		<path id="XMLID_254_" class="st3" d="M628.8,158.9c-2.1,3.9-3.3,8.2-3.3,12.7h78c0-4.5-1.2-8.8-3.3-12.7H628.8z"/>
	</g>
	<g id="XMLID_339_">
		<path id="XMLID_72_" class="st7" d="M763.8,175.7v149.9c0,1.1,0.2,2.2,0.7,3.3l16.7,21.9c0.4,0.9,1.3,1.5,2.3,1.5    c1,0,1.9-0.6,2.3-1.5l16.7-21.9c0.5-1,0.7-2.1,0.7-3.3V175.7H763.8z"/>
		<path id="XMLID_71_" class="st8" d="M783.9,175.7v176.6c0.8-0.1,1.6-0.7,1.9-1.5l16.7-21.9c0.4-1,0.7-2.1,0.7-3.3V175.7H783.9z"/>
		<path id="XMLID_70_" class="st3" d="M763.8,175.7v149.9c0,1.1,0.2,2.2,0.7,3.3l16.7,21.9c0.4,0.9,1.3,1.5,2.3,1.5    c1,0,1.9-0.6,2.3-1.5l16.7-21.9c0.5-1,0.7-2.1,0.7-3.3V175.7H763.8z"/>
		<path id="XMLID_56_" class="st11" d="M752,175.7c-7.3,0-12.1-7.8-8.7-14.3c7.3-13.8,24.3-23.6,40.2-23.6    c15.9,0,32.9,9.8,40.2,23.6c3.4,6.5-1.4,14.3-8.7,14.3H752z"/>
		<path id="XMLID_42_" class="st9" d="M743.3,161.4c0,0,0,0.1-0.1,0.1c-3.4,6.4,1.5,14.1,8.7,14.1h63c7.3,0,12.1-7.7,8.7-14.1    l-0.1-0.1H743.3z"/>
		<path id="XMLID_294_" class="st10" d="M783.9,137.9c-0.1,0-0.2,0-0.4,0c-15.9,0-32.9,9.8-40.2,23.6c-3.4,6.5,1.4,14.3,8.7,14.3    h31.9V137.9z"/>
		<path id="XMLID_286_" class="st13" d="M783.9,161.4h-40.5c0,0,0,0.1-0.1,0.1c-3.4,6.4,1.5,14.1,8.7,14.1h31.9V161.4z"/>
		<g id="XMLID_58_">
			<path id="XMLID_73_" class="st9" d="M808.4,201.8c-1.1-3.6-4.9-5.6-8.5-4.5c0,0-9.2,2.8-18.4,5.6c-4.6,1.4-9.2,2.9-12.7,4     c-1.8,0.6-3.3,1-4.3,1.4c-1.9,0.6-6.2,2.1-6.2,7c0,3.8,3,6.8,6.8,6.8c1.1,0,2.1-0.3,3-0.7c2.9-1.1,20.3-6.4,35.7-11.1     C807.5,209.2,809.5,205.4,808.4,201.8z"/>
			<path id="XMLID_68_" class="st9" d="M808.4,233.5c-1.1-3.6-4.9-5.6-8.5-4.5c0,0-9.2,2.8-18.4,5.6c-4.6,1.4-9.2,2.9-12.7,4     c-1.8,0.6-3.3,1-4.3,1.4c-1.9,0.6-6.2,2.1-6.2,7c0,3.8,3,6.8,6.8,6.8c1.1,0,2.1-0.3,3-0.7c2.9-1.1,20.3-6.4,35.7-11.1     C807.5,240.9,809.5,237.1,808.4,233.5z"/>
			<path id="XMLID_65_" class="st9" d="M808.4,265.3c-1.1-3.6-4.9-5.6-8.5-4.5c0,0-9.2,2.8-18.4,5.6c-4.6,1.4-9.2,2.9-12.7,4     c-1.8,0.6-3.3,1-4.3,1.4c-1.9,0.6-6.2,2.1-6.2,7c0,3.8,3,6.8,6.8,6.8c1.1,0,2.1-0.3,3-0.7c2.9-1.1,20.3-6.4,35.7-11.1     C807.5,272.7,809.5,268.9,808.4,265.3z"/>
		</g>
		<g id="XMLID_142_">
			<path id="XMLID_289_" class="st10" d="M783.9,202.1c-0.8,0.2-1.6,0.5-2.4,0.7c-4.6,1.4-9.2,2.9-12.7,4c-1.8,0.6-3.3,1-4.3,1.4     c-1.9,0.6-6.2,2.1-6.2,7c0,3.8,3,6.8,6.8,6.8c1.1,0,2.1-0.3,3-0.7c1.6-0.6,7.9-2.6,15.7-5V202.1z"/>
			<path id="XMLID_281_" class="st10" d="M783.9,233.9c-0.8,0.2-1.6,0.5-2.4,0.7c-4.6,1.4-9.2,2.9-12.7,4c-1.8,0.6-3.3,1-4.3,1.4     c-1.9,0.6-6.2,2.1-6.2,7c0,3.8,3,6.8,6.8,6.8c1.1,0,2.1-0.3,3-0.7c1.6-0.6,7.9-2.6,15.7-5V233.9z"/>
			<path id="XMLID_278_" class="st10" d="M783.9,265.7c-0.8,0.2-1.6,0.5-2.4,0.7c-4.6,1.4-9.2,2.9-12.7,4c-1.8,0.6-3.3,1-4.3,1.4     c-1.9,0.6-6.2,2.1-6.2,7c0,3.8,3,6.8,6.8,6.8c1.1,0,2.1-0.3,3-0.7c1.6-0.6,7.9-2.6,15.7-5V265.7z"/>
		</g>
		<g id="XMLID_256_">
			<path id="XMLID_263_" class="st3" d="M808.4,201.8c-1.1-3.6-4.9-5.6-8.5-4.5c0,0-9.2,2.8-18.4,5.6c-4.6,1.4-9.2,2.9-12.7,4     c-1.8,0.6-3.3,1-4.3,1.4c-1.9,0.6-6.2,2.1-6.2,7c0,3.8,3,6.8,6.8,6.8c1.1,0,2.1-0.3,3-0.7c2.9-1.1,20.3-6.4,35.7-11.1     C807.5,209.2,809.5,205.4,808.4,201.8z"/>
			<path id="XMLID_259_" class="st3" d="M808.4,233.5c-1.1-3.6-4.9-5.6-8.5-4.5c0,0-9.2,2.8-18.4,5.6c-4.6,1.4-9.2,2.9-12.7,4     c-1.8,0.6-3.3,1-4.3,1.4c-1.9,0.6-6.2,2.1-6.2,7c0,3.8,3,6.8,6.8,6.8c1.1,0,2.1-0.3,3-0.7c2.9-1.1,20.3-6.4,35.7-11.1     C807.5,240.9,809.5,237.1,808.4,233.5z"/>
			<path id="XMLID_257_" class="st3" d="M808.4,265.3c-1.1-3.6-4.9-5.6-8.5-4.5c0,0-9.2,2.8-18.4,5.6c-4.6,1.4-9.2,2.9-12.7,4     c-1.8,0.6-3.3,1-4.3,1.4c-1.9,0.6-6.2,2.1-6.2,7c0,3.8,3,6.8,6.8,6.8c1.1,0,2.1-0.3,3-0.7c2.9-1.1,20.3-6.4,35.7-11.1     C807.5,272.7,809.5,268.9,808.4,265.3z"/>
		</g>
		<path id="XMLID_268_" class="st3" d="M752,175.7c-7.3,0-12.1-7.8-8.7-14.3c7.3-13.8,24.3-23.6,40.2-23.6    c15.9,0,32.9,9.8,40.2,23.6c3.4,6.5-1.4,14.3-8.7,14.3H752z"/>
		<path id="XMLID_267_" class="st3" d="M743.3,161.4c0,0,0,0.1-0.1,0.1c-3.4,6.4,1.5,14.1,8.7,14.1h63c7.3,0,12.1-7.7,8.7-14.1    l-0.1-0.1H743.3z"/>
	</g>
	<g id="XMLID_338_">
		<path id="XMLID_158_" class="st7" d="M884.7,167.7v250.4c0,0.8,0.1,1.7,0.4,2.4l9.9,28.7c0.2,0.7,0.8,1.1,1.4,1.1    c0.6,0,1.2-0.4,1.4-1.1l9.9-28.7c0.3-0.8,0.4-1.6,0.4-2.4V167.7H884.7z"/>
		<path id="XMLID_157_" class="st8" d="M896.7,167.7v282.6c0.5-0.1,0.9-0.5,1.1-1.1l9.9-28.7c0.3-0.8,0.4-1.6,0.4-2.4V167.7H896.7z"/>
		<path id="XMLID_156_" class="st3" d="M884.7,167.7v250.4c0,0.8,0.1,1.7,0.4,2.4l9.9,28.7c0.2,0.7,0.8,1.1,1.4,1.1    c0.6,0,1.2-0.4,1.4-1.1l9.9-28.7c0.3-0.8,0.4-1.6,0.4-2.4V167.7H884.7z"/>
		<path id="XMLID_155_" class="st1" d="M924.7,137.8h-56.8c-3.4,0-6.2,2.8-6.2,6.2v10.6l23,13h23.4l22.7-12.8V144    C930.9,140.6,928.1,137.8,924.7,137.8z"/>
		<path id="XMLID_154_" class="st12" d="M896.8,137.8h-28.9c-3.4,0-6.2,2.8-6.2,6.2v10.6l23,13h12.1V137.8z"/>
		<path id="XMLID_153_" class="st3" d="M924.7,137.8h-56.8c-3.4,0-6.2,2.8-6.2,6.2v10.6l23,13h23.4l22.7-12.8V144    C930.9,140.6,928.1,137.8,924.7,137.8z"/>
		<path id="XMLID_152_" class="st11" d="M924.7,137.8h-56.8c-3.4,0-6.2,2.8-6.2,6.2v10.1l0.1,0.1h69.1V144    C930.9,140.6,928.1,137.8,924.7,137.8z"/>
		<path id="XMLID_296_" class="st10" d="M896.6,137.8h-28.7c-3.4,0-6.2,2.8-6.2,6.2v10.1l0.1,0.1h34.8V137.8z"/>
		<path id="XMLID_145_" class="st3" d="M924.7,137.8h-56.8c-3.4,0-6.2,2.8-6.2,6.2v10.1l0.1,0.1h69.1V144    C930.9,140.6,928.1,137.8,924.7,137.8z"/>
	</g>
	<g id="XMLID_336_">
		<path id="XMLID_167_" class="st7" d="M983.4,173.8v172.5c0,1,0.2,2.1,0.6,3l15.6,21.1c0.4,0.9,1.2,1.4,2.2,1.4    c0.9,0,1.8-0.6,2.2-1.4l15.6-21.1c0.4-1,0.6-2,0.6-3V173.8H983.4z"/>
		<path id="XMLID_166_" class="st8" d="M1002.2,173.8v198c0.8-0.1,1.5-0.6,1.8-1.4l15.6-21.1c0.4-1,0.6-2,0.6-3V173.8H1002.2z"/>
		<path id="XMLID_165_" class="st3" d="M983.4,173.8v172.5c0,1,0.2,2.1,0.6,3l15.6,21.1c0.4,0.9,1.2,1.4,2.2,1.4    c0.9,0,1.8-0.6,2.2-1.4l15.6-21.1c0.4-1,0.6-2,0.6-3V173.8H983.4z"/>
		<g id="XMLID_269_">
			<path id="XMLID_161_" class="st9" d="M1026.7,188c-1.1-3.6-4.9-5.6-8.5-4.5c0,0-9.2,2.8-18.4,5.6c-4.6,1.4-9.2,2.9-12.7,4     c-1.8,0.6-3.3,1-4.3,1.4c-1.9,0.6-6.2,2.1-6.2,7c0,3.8,3,6.8,6.8,6.8c1.1,0,2.1-0.3,3-0.7c2.9-1.1,20.3-6.4,35.7-11.1     C1025.8,195.4,1027.8,191.6,1026.7,188z"/>
			<path id="XMLID_146_" class="st9" d="M1026.7,215c-1.1-3.6-4.9-5.6-8.5-4.5c0,0-9.2,2.8-18.4,5.6c-4.6,1.4-9.2,2.9-12.7,4     c-1.8,0.6-3.3,1-4.3,1.4c-1.9,0.6-6.2,2.1-6.2,7c0,3.8,3,6.8,6.8,6.8c1.1,0,2.1-0.3,3-0.7c2.9-1.1,20.3-6.4,35.7-11.1     C1025.8,222.4,1027.8,218.6,1026.7,215z"/>
			<path id="XMLID_148_" class="st9" d="M1026.7,241.9c-1.1-3.6-4.9-5.6-8.5-4.5c0,0-9.2,2.8-18.4,5.6c-4.6,1.4-9.2,2.9-12.7,4     c-1.8,0.6-3.3,1-4.3,1.4c-1.9,0.6-6.2,2.1-6.2,7c0,3.8,3,6.8,6.8,6.8c1.1,0,2.1-0.3,3-0.7c2.9-1.1,20.3-6.4,35.7-11.1     C1025.8,249.3,1027.8,245.5,1026.7,241.9z"/>
			<path id="XMLID_150_" class="st9" d="M1026.7,268.9c-1.1-3.6-4.9-5.6-8.5-4.5c0,0-9.2,2.8-18.4,5.6c-4.6,1.4-9.2,2.9-12.7,4     c-1.8,0.6-3.3,1-4.3,1.4c-1.9,0.6-6.2,2.1-6.2,7c0,3.8,3,6.8,6.8,6.8c1.1,0,2.1-0.3,3-0.7c2.9-1.1,20.3-6.4,35.7-11.1     C1025.8,276.3,1027.8,272.5,1026.7,268.9z"/>
			<path id="XMLID_159_" class="st9" d="M1026.7,295.9c-1.1-3.6-4.9-5.6-8.5-4.5c0,0-9.2,2.8-18.4,5.6c-4.6,1.4-9.2,2.9-12.7,4     c-1.8,0.6-3.3,1-4.3,1.4c-1.9,0.6-6.2,2.1-6.2,7c0,3.8,3,6.8,6.8,6.8c1.1,0,2.1-0.3,3-0.7c2.9-1.1,20.3-6.4,35.7-11.1     C1025.8,303.2,1027.8,299.4,1026.7,295.9z"/>
			<path id="XMLID_164_" class="st9" d="M1026.7,322.8c-1.1-3.6-4.9-5.6-8.5-4.5c0,0-9.2,2.8-18.4,5.6c-4.6,1.4-9.2,2.9-12.7,4     c-1.8,0.6-3.3,1-4.3,1.4c-1.9,0.6-6.2,2.1-6.2,7c0,3.8,3,6.8,6.8,6.8c1.1,0,2.1-0.3,3-0.7c2.9-1.1,20.3-6.4,35.7-11.1     C1025.8,330.2,1027.8,326.4,1026.7,322.8z"/>
		</g>
		<g id="XMLID_270_">
			<path id="XMLID_313_" class="st10" d="M1002.3,188.4c-0.8,0.2-1.6,0.5-2.4,0.8c-4.6,1.4-9.2,2.9-12.7,4c-1.8,0.6-3.3,1-4.3,1.4     c-1.9,0.6-6.2,2.1-6.2,7c0,3.8,3,6.8,6.8,6.8c1.1,0,2.1-0.3,3-0.7c1.6-0.6,7.9-2.6,15.8-5V188.4z"/>
			<path id="XMLID_305_" class="st10" d="M1002.3,215.3c-0.8,0.2-1.6,0.5-2.4,0.8c-4.6,1.4-9.2,2.9-12.7,4c-1.8,0.6-3.3,1-4.3,1.4     c-1.9,0.6-6.2,2.1-6.2,7c0,3.8,3,6.8,6.8,6.8c1.1,0,2.1-0.3,3-0.7c1.6-0.6,7.9-2.6,15.8-5V215.3z"/>
			<path id="XMLID_303_" class="st10" d="M1002.3,242.3c-0.8,0.2-1.6,0.5-2.4,0.8c-4.6,1.4-9.2,2.9-12.7,4c-1.8,0.6-3.3,1-4.3,1.4     c-1.9,0.6-6.2,2.1-6.2,7c0,3.8,3,6.8,6.8,6.8c1.1,0,2.1-0.3,3-0.7c1.6-0.6,7.9-2.6,15.8-5V242.3z"/>
			<path id="XMLID_300_" class="st10" d="M1002.3,269.2c-0.8,0.2-1.6,0.5-2.4,0.8c-4.6,1.4-9.2,2.9-12.7,4c-1.8,0.6-3.3,1-4.3,1.4     c-1.9,0.6-6.2,2.1-6.2,7c0,3.8,3,6.8,6.8,6.8c1.1,0,2.1-0.3,3-0.7c1.6-0.6,7.9-2.6,15.8-5V269.2z"/>
			<path id="XMLID_298_" class="st10" d="M1002.3,296.2c-0.8,0.2-1.6,0.5-2.4,0.8c-4.6,1.4-9.2,2.9-12.7,4c-1.8,0.6-3.3,1-4.3,1.4     c-1.9,0.6-6.2,2.1-6.2,7c0,3.8,3,6.8,6.8,6.8c1.1,0,2.1-0.3,3-0.7c1.6-0.6,7.9-2.6,15.8-5V296.2z"/>
			<path id="XMLID_293_" class="st10" d="M1002.3,323.2c-0.8,0.2-1.6,0.5-2.4,0.8c-4.6,1.4-9.2,2.9-12.7,4c-1.8,0.6-3.3,1-4.3,1.4     c-1.9,0.6-6.2,2.1-6.2,7c0,3.8,3,6.8,6.8,6.8c1.1,0,2.1-0.3,3-0.7c1.6-0.6,7.9-2.6,15.8-5V323.2z"/>
		</g>
		<path id="XMLID_163_" class="st11" d="M1013.2,140.8V156c0,1.6-1.3,2.9-2.9,2.9h-16.1c-1.6,0-2.9-1.3-2.9-2.9v-15.2    c0-2-2-3.5-3.9-2.8c-15.3,5.6-28.4,19-28.4,34.7h86.7c0-15.7-13.1-29.1-28.4-34.7C1015.3,137.3,1013.2,138.8,1013.2,140.8z"/>
		<path id="XMLID_55_" class="st9" d="M963.1,157.5c-2.7,4.7-4.3,9.8-4.3,15.3h86.7c0-5.4-1.6-10.6-4.3-15.3H963.1z"/>
		<path id="XMLID_297_" class="st13" d="M1002.3,157.5h-39.1c-2.7,4.7-4.3,9.8-4.3,15.3h43.4V157.5z"/>
		<path id="XMLID_169_" class="st3" d="M963.1,157.5c-2.7,4.7-4.3,9.8-4.3,15.3h86.7c0-5.4-1.6-10.6-4.3-15.3H963.1z"/>
		<g id="XMLID_271_">
			<path id="XMLID_288_" class="st3" d="M1026.7,188c-1.1-3.6-4.9-5.6-8.5-4.5c0,0-9.2,2.8-18.4,5.6c-4.6,1.4-9.2,2.9-12.7,4     c-1.8,0.6-3.3,1-4.3,1.4c-1.9,0.6-6.2,2.1-6.2,7c0,3.8,3,6.8,6.8,6.8c1.1,0,2.1-0.3,3-0.7c2.9-1.1,20.3-6.4,35.7-11.1     C1025.8,195.4,1027.8,191.6,1026.7,188z"/>
			<path id="XMLID_285_" class="st3" d="M1026.7,215c-1.1-3.6-4.9-5.6-8.5-4.5c0,0-9.2,2.8-18.4,5.6c-4.6,1.4-9.2,2.9-12.7,4     c-1.8,0.6-3.3,1-4.3,1.4c-1.9,0.6-6.2,2.1-6.2,7c0,3.8,3,6.8,6.8,6.8c1.1,0,2.1-0.3,3-0.7c2.9-1.1,20.3-6.4,35.7-11.1     C1025.8,222.4,1027.8,218.6,1026.7,215z"/>
			<path id="XMLID_283_" class="st3" d="M1026.7,241.9c-1.1-3.6-4.9-5.6-8.5-4.5c0,0-9.2,2.8-18.4,5.6c-4.6,1.4-9.2,2.9-12.7,4     c-1.8,0.6-3.3,1-4.3,1.4c-1.9,0.6-6.2,2.1-6.2,7c0,3.8,3,6.8,6.8,6.8c1.1,0,2.1-0.3,3-0.7c2.9-1.1,20.3-6.4,35.7-11.1     C1025.8,249.3,1027.8,245.5,1026.7,241.9z"/>
			<path id="XMLID_279_" class="st3" d="M1026.7,268.9c-1.1-3.6-4.9-5.6-8.5-4.5c0,0-9.2,2.8-18.4,5.6c-4.6,1.4-9.2,2.9-12.7,4     c-1.8,0.6-3.3,1-4.3,1.4c-1.9,0.6-6.2,2.1-6.2,7c0,3.8,3,6.8,6.8,6.8c1.1,0,2.1-0.3,3-0.7c2.9-1.1,20.3-6.4,35.7-11.1     C1025.8,276.3,1027.8,272.5,1026.7,268.9z"/>
			<path id="XMLID_276_" class="st3" d="M1026.7,295.9c-1.1-3.6-4.9-5.6-8.5-4.5c0,0-9.2,2.8-18.4,5.6c-4.6,1.4-9.2,2.9-12.7,4     c-1.8,0.6-3.3,1-4.3,1.4c-1.9,0.6-6.2,2.1-6.2,7c0,3.8,3,6.8,6.8,6.8c1.1,0,2.1-0.3,3-0.7c2.9-1.1,20.3-6.4,35.7-11.1     C1025.8,303.2,1027.8,299.4,1026.7,295.9z"/>
			<path id="XMLID_273_" class="st3" d="M1026.7,322.8c-1.1-3.6-4.9-5.6-8.5-4.5c0,0-9.2,2.8-18.4,5.6c-4.6,1.4-9.2,2.9-12.7,4     c-1.8,0.6-3.3,1-4.3,1.4c-1.9,0.6-6.2,2.1-6.2,7c0,3.8,3,6.8,6.8,6.8c1.1,0,2.1-0.3,3-0.7c2.9-1.1,20.3-6.4,35.7-11.1     C1025.8,330.2,1027.8,326.4,1026.7,322.8z"/>
		</g>
	</g>
	<g id="XMLID_335_">
		<path id="XMLID_185_" class="st7" d="M1115.7,173.8V454c0,0.8,0.2,1.5,0.5,2.2l11.5,26.3c0.3,0.6,0.9,1,1.6,1c0.7,0,1.3-0.4,1.6-1    l11.5-26.3c0.3-0.7,0.5-1.5,0.5-2.2V173.8H1115.7z"/>
		<path id="XMLID_184_" class="st8" d="M1129.6,173.8v309.7c0.6-0.1,1.1-0.5,1.3-1l11.5-26.3c0.3-0.7,0.5-1.5,0.5-2.2V173.8H1129.6z    "/>
		<path id="XMLID_183_" class="st3" d="M1115.7,173.8V454c0,0.8,0.2,1.5,0.5,2.2l11.5,26.3c0.3,0.6,0.9,1,1.6,1c0.7,0,1.3-0.4,1.6-1    l11.5-26.3c0.3-0.7,0.5-1.5,0.5-2.2V173.8H1115.7z"/>
		<path id="XMLID_182_" class="st1" d="M1155.1,137.8h-51.9c-3.1,0-5.7,2.5-5.7,5.7v9.7l18.2,20.6h27.1l18-20.3v-9.9    C1160.8,140.4,1158.3,137.8,1155.1,137.8z"/>
		<path id="XMLID_181_" class="st12" d="M1129.6,137.8h-26.4c-3.1,0-5.7,2.5-5.7,5.7v9.7l18.2,20.6h13.9V137.8z"/>
		<path id="XMLID_180_" class="st3" d="M1155.1,137.8h-51.9c-3.1,0-5.7,2.5-5.7,5.7v9.7l18.2,20.6h27.1l18-20.3v-9.9    C1160.8,140.4,1158.3,137.8,1155.1,137.8z"/>
		<path id="XMLID_179_" class="st11" d="M1155.1,137.8h-51.9c-3.1,0-5.7,2.5-5.7,5.7v9.2l0,0.1h63.2v-9.3    C1160.8,140.4,1158.3,137.8,1155.1,137.8z"/>
		<path id="XMLID_320_" class="st10" d="M1129.2,137.8h-26c-3.1,0-5.7,2.5-5.7,5.7v9.2l0,0.1h31.6V137.8z"/>
		<g id="XMLID_292_">
			<g id="XMLID_171_">
				<path id="XMLID_178_" class="st9" d="M1146.4,290.8c-1.4-3.5-5.3-5.2-8.9-3.9l-21.5,8.1c-3.5,1.3-5.3,5.2-4,8.7      c1,2.7,3.6,4.3,6.4,4.3c0.8,0,1.6-0.1,2.5-0.4l21.5-8.1C1146,298.2,1147.8,294.3,1146.4,290.8z"/>
			</g>
			<g id="XMLID_172_">
				<path id="XMLID_173_" class="st9" d="M1146.4,317.8c-1.4-3.5-5.3-5.2-8.9-3.9l-21.5,8.1c-3.5,1.3-5.3,5.2-4,8.7      c1,2.7,3.6,4.3,6.4,4.3c0.8,0,1.6-0.1,2.5-0.4l21.5-8.1C1146,325.1,1147.8,321.2,1146.4,317.8z"/>
			</g>
			<g id="XMLID_191_">
				<path id="XMLID_192_" class="st9" d="M1146.4,263.9c-1.4-3.5-5.3-5.2-8.9-3.9l-21.5,8.1c-3.5,1.3-5.3,5.2-4,8.7      c1,2.7,3.6,4.3,6.4,4.3c0.8,0,1.6-0.1,2.5-0.4l21.5-8.1C1146,271.2,1147.8,267.3,1146.4,263.9z"/>
			</g>
			<g id="XMLID_174_">
				<path id="XMLID_175_" class="st9" d="M1146.4,344.7c-1.4-3.5-5.3-5.2-8.9-3.9l-21.5,8.1c-3.5,1.3-5.3,5.2-4,8.7      c1,2.7,3.6,4.3,6.4,4.3c0.8,0,1.6-0.1,2.5-0.4l21.5-8.1C1146,352.1,1147.8,348.2,1146.4,344.7z"/>
			</g>
			<g id="XMLID_176_">
				<path id="XMLID_177_" class="st9" d="M1146.4,371.7c-1.4-3.5-5.3-5.2-8.9-3.9l-21.5,8.1c-3.5,1.3-5.3,5.2-4,8.7      c1,2.7,3.6,4.3,6.4,4.3c0.8,0,1.6-0.1,2.5-0.4l21.5-8.1C1146,379.1,1147.8,375.2,1146.4,371.7z"/>
			</g>
			<g id="XMLID_186_">
				<path id="XMLID_187_" class="st9" d="M1146.4,398.6c-1.4-3.5-5.3-5.2-8.9-3.9l-21.5,8.1c-3.5,1.3-5.3,5.2-4,8.7      c1,2.7,3.6,4.3,6.4,4.3c0.8,0,1.6-0.1,2.5-0.4l21.5-8.1C1146,406,1147.8,402.1,1146.4,398.6z"/>
			</g>
			<g id="XMLID_188_">
				<path id="XMLID_189_" class="st9" d="M1146.4,425.6c-1.4-3.5-5.3-5.2-8.9-3.9l-21.5,8.1c-3.5,1.3-5.3,5.2-4,8.7      c1,2.7,3.6,4.3,6.4,4.3c0.8,0,1.6-0.1,2.5-0.4l21.5-8.1C1146,433,1147.8,429.1,1146.4,425.6z"/>
			</g>
		</g>
		<g id="XMLID_295_">
			<g id="XMLID_315_">
				<path id="XMLID_337_" class="st10" d="M1129.5,290l-13.4,5c-3.5,1.3-5.3,5.2-4,8.7c1,2.7,3.6,4.3,6.4,4.3c0.8,0,1.6-0.1,2.5-0.4      l8.5-3.2V290z"/>
			</g>
			<g id="XMLID_312_">
				<path id="XMLID_330_" class="st10" d="M1129.5,316.9l-13.4,5c-3.5,1.3-5.3,5.2-4,8.7c1,2.7,3.6,4.3,6.4,4.3      c0.8,0,1.6-0.1,2.5-0.4l8.5-3.2V316.9z"/>
			</g>
			<g id="XMLID_310_">
				<path id="XMLID_329_" class="st10" d="M1129.5,263l-13.4,5c-3.5,1.3-5.3,5.2-4,8.7c1,2.7,3.6,4.3,6.4,4.3c0.8,0,1.6-0.1,2.5-0.4      l8.5-3.2V263z"/>
			</g>
			<g id="XMLID_308_">
				<path id="XMLID_328_" class="st10" d="M1129.5,343.9l-13.4,5c-3.5,1.3-5.3,5.2-4,8.7c1,2.7,3.6,4.3,6.4,4.3      c0.8,0,1.6-0.1,2.5-0.4l8.5-3.2V343.9z"/>
			</g>
			<g id="XMLID_306_">
				<path id="XMLID_327_" class="st10" d="M1129.5,370.8l-13.4,5c-3.5,1.3-5.3,5.2-4,8.7c1,2.7,3.6,4.3,6.4,4.3      c0.8,0,1.6-0.1,2.5-0.4l8.5-3.2V370.8z"/>
			</g>
			<g id="XMLID_302_">
				<path id="XMLID_325_" class="st10" d="M1129.5,397.8l-13.4,5c-3.5,1.3-5.3,5.2-4,8.7c1,2.7,3.6,4.3,6.4,4.3      c0.8,0,1.6-0.1,2.5-0.4l8.5-3.2V397.8z"/>
			</g>
			<g id="XMLID_299_">
				<path id="XMLID_324_" class="st10" d="M1129.5,424.8l-13.4,5c-3.5,1.3-5.3,5.2-4,8.7c1,2.7,3.6,4.3,6.4,4.3      c0.8,0,1.6-0.1,2.5-0.4l8.5-3.2V424.8z"/>
			</g>
		</g>
		<path id="XMLID_291_" class="st3" d="M1155.1,137.8h-51.9c-3.1,0-5.7,2.5-5.7,5.7v9.2l0,0.1h63.2v-9.3    C1160.8,140.4,1158.3,137.8,1155.1,137.8z"/>
		<g id="XMLID_301_">
			<g id="XMLID_326_">
				<path id="XMLID_331_" class="st3" d="M1146.4,290.8c-1.4-3.5-5.3-5.2-8.9-3.9l-21.5,8.1c-3.5,1.3-5.3,5.2-4,8.7      c1,2.7,3.6,4.3,6.4,4.3c0.8,0,1.6-0.1,2.5-0.4l21.5-8.1C1146,298.2,1147.8,294.3,1146.4,290.8z"/>
			</g>
			<g id="XMLID_322_">
				<path id="XMLID_323_" class="st3" d="M1146.4,317.8c-1.4-3.5-5.3-5.2-8.9-3.9l-21.5,8.1c-3.5,1.3-5.3,5.2-4,8.7      c1,2.7,3.6,4.3,6.4,4.3c0.8,0,1.6-0.1,2.5-0.4l21.5-8.1C1146,325.1,1147.8,321.2,1146.4,317.8z"/>
			</g>
			<g id="XMLID_319_">
				<path id="XMLID_321_" class="st3" d="M1146.4,263.9c-1.4-3.5-5.3-5.2-8.9-3.9l-21.5,8.1c-3.5,1.3-5.3,5.2-4,8.7      c1,2.7,3.6,4.3,6.4,4.3c0.8,0,1.6-0.1,2.5-0.4l21.5-8.1C1146,271.2,1147.8,267.3,1146.4,263.9z"/>
			</g>
			<g id="XMLID_317_">
				<path id="XMLID_318_" class="st3" d="M1146.4,344.7c-1.4-3.5-5.3-5.2-8.9-3.9l-21.5,8.1c-3.5,1.3-5.3,5.2-4,8.7      c1,2.7,3.6,4.3,6.4,4.3c0.8,0,1.6-0.1,2.5-0.4l21.5-8.1C1146,352.1,1147.8,348.2,1146.4,344.7z"/>
			</g>
			<g id="XMLID_314_">
				<path id="XMLID_316_" class="st3" d="M1146.4,371.7c-1.4-3.5-5.3-5.2-8.9-3.9l-21.5,8.1c-3.5,1.3-5.3,5.2-4,8.7      c1,2.7,3.6,4.3,6.4,4.3c0.8,0,1.6-0.1,2.5-0.4l21.5-8.1C1146,379.1,1147.8,375.2,1146.4,371.7z"/>
			</g>
			<g id="XMLID_309_">
				<path id="XMLID_311_" class="st3" d="M1146.4,398.6c-1.4-3.5-5.3-5.2-8.9-3.9l-21.5,8.1c-3.5,1.3-5.3,5.2-4,8.7      c1,2.7,3.6,4.3,6.4,4.3c0.8,0,1.6-0.1,2.5-0.4l21.5-8.1C1146,406,1147.8,402.1,1146.4,398.6z"/>
			</g>
			<g id="XMLID_304_">
				<path id="XMLID_307_" class="st3" d="M1146.4,425.6c-1.4-3.5-5.3-5.2-8.9-3.9l-21.5,8.1c-3.5,1.3-5.3,5.2-4,8.7      c1,2.7,3.6,4.3,6.4,4.3c0.8,0,1.6-0.1,2.5-0.4l21.5-8.1C1146,433,1147.8,429.1,1146.4,425.6z"/>
			</g>
		</g>
	</g>
	<g id="XMLID_334_">
		<path id="XMLID_170_" class="st1" d="M1242.6,137.8h-29.8c-6.9,0-12.5,5.6-12.5,12.5v3.6l0.3,0.2c10.8,6.5,17.5,18.3,17.5,30.9    v159.6c0,0.7,0.1,1.4,0.3,2l8.2,23.6c0.2,0.6,0.6,0.9,1.1,0.9c0.5,0,0.9-0.4,1.1-0.9l8.2-23.6c0.2-0.6,0.3-1.3,0.3-2V185.2    c0-12.7,6.7-24.5,17.6-31l0,0v-3.9C1255.1,143.4,1249.5,137.8,1242.6,137.8z"/>
		<path id="XMLID_215_" class="st12" d="M1227.3,137.8h-14.4c-6.9,0-12.5,5.6-12.5,12.5v3.6l0.3,0.2c10.8,6.5,17.5,18.3,17.5,30.9    v159.6c0,0.7,0.1,1.4,0.3,2l8.2,23.6c0.1,0.3,0.3,0.6,0.6,0.8V137.8z"/>
		<path id="XMLID_193_" class="st3" d="M1242.6,137.8h-29.8c-6.9,0-12.5,5.6-12.5,12.5v3.6l0.3,0.2c10.8,6.5,17.5,18.3,17.5,30.9    v159.6c0,0.7,0.1,1.4,0.3,2l8.2,23.6c0.2,0.6,0.6,0.9,1.1,0.9c0.5,0,0.9-0.4,1.1-0.9l8.2-23.6c0.2-0.6,0.3-1.3,0.3-2V185.2    c0-12.7,6.7-24.5,17.6-31l0,0v-3.9C1255.1,143.4,1249.5,137.8,1242.6,137.8z"/>
		<path id="XMLID_214_" class="st1" d="M1211.7,164.5h32.3c2.9-4.1,6.6-7.6,11.1-10.3v-3.9c0-6.9-5.6-12.5-12.5-12.5h-29.8    c-6.9,0-12.5,5.6-12.5,12.5v3.6l0.3,0.2C1205.1,156.8,1208.8,160.4,1211.7,164.5z"/>
		<path id="XMLID_200_" class="st3" d="M1242.6,137.8h-29.8c-6.9,0-12.5,5.6-12.5,12.5v3.6l0.3,0.2c10.8,6.5,17.5,18.3,17.5,30.9    v159.6c0,0.7,0.1,1.4,0.3,2l8.2,23.6c0.2,0.6,0.6,0.9,1.1,0.9c0.5,0,0.9-0.4,1.1-0.9l8.2-23.6c0.2-0.6,0.3-1.3,0.3-2V185.2    c0-12.7,6.7-24.5,17.6-31l0,0v-3.9C1255.1,143.4,1249.5,137.8,1242.6,137.8z"/>
		<path id="XMLID_190_" class="st11" d="M1242.6,137.8h-29.8c-6.9,0-12.5,5.6-12.5,12.5v3.2l0,0h54.7v-3.2    C1255.1,143.4,1249.5,137.8,1242.6,137.8z"/>
		<path id="XMLID_354_" class="st12" d="M1226.9,137.8h-14.1c-6.9,0-12.5,5.6-12.5,12.5v3.6l0.3,0.2c4.4,2.7,8.1,6.2,11,10.3h15.3    V137.8z"/>
		<path id="XMLID_347_" class="st10" d="M1226.9,137.8h-14.1c-6.9,0-12.5,5.6-12.5,12.5v3.2l0,0h26.5V137.8z"/>
		<path id="XMLID_333_" class="st3" d="M1211.7,164.5h32.3c2.9-4.1,6.6-7.6,11.1-10.3v-3.9c0-6.9-5.6-12.5-12.5-12.5h-29.8    c-6.9,0-12.5,5.6-12.5,12.5v3.6l0.3,0.2C1205.1,156.8,1208.8,160.4,1211.7,164.5z"/>
		<path id="XMLID_332_" class="st3" d="M1242.6,137.8h-29.8c-6.9,0-12.5,5.6-12.5,12.5v3.2l0,0h54.7v-3.2    C1255.1,143.4,1249.5,137.8,1242.6,137.8z"/>
	</g>
</g>
<g id="XMLID_364_">
	<path id="XMLID_355_" class="st1" d="M825.2,554.6l-45.8-79.3c-2.7-4.8-7.8-7.7-13.3-7.7h-91.6c-5.5,0-10.6,2.9-13.3,7.7   l-45.8,79.3c-2.7,4.8-2.7,10.6,0,15.4l45.8,79.3c2.7,4.8,7.8,7.7,13.3,7.7H766c5.5,0,10.6-2.9,13.3-7.7l45.8-79.3   C827.9,565.2,827.9,559.4,825.2,554.6z M720.2,598.6c-20,0-36.3-16.2-36.3-36.3c0-20,16.2-36.3,36.3-36.3c20,0,36.3,16.2,36.3,36.3   C756.5,582.3,740.3,598.6,720.2,598.6z"/>
	<path id="XMLID_351_" class="st9" d="M720.2,490.7c-39.6,0-71.6,32.1-71.6,71.6c0,39.6,32.1,71.6,71.6,71.6   c39.6,0,71.6-32.1,71.6-71.6C791.9,522.7,759.8,490.7,720.2,490.7z M720.2,598.6c-20,0-36.3-16.2-36.3-36.3   c0-20,16.2-36.3,36.3-36.3c20,0,36.3,16.2,36.3,36.3C756.5,582.3,740.3,598.6,720.2,598.6z"/>
	<path id="XMLID_360_" class="st14" d="M720.2,508.7c-29.6,0-53.6,24-53.6,53.6c0,29.6,24,53.6,53.6,53.6c29.6,0,53.6-24,53.6-53.6   C773.8,532.7,749.8,508.7,720.2,508.7z M720.2,598.6c-20,0-36.3-16.2-36.3-36.3c0-20,16.2-36.3,36.3-36.3c20,0,36.3,16.2,36.3,36.3   C756.5,582.3,740.3,598.6,720.2,598.6z"/>
	<path id="XMLID_385_" class="st12" d="M720.5,598.6c-0.1,0-0.2,0-0.2,0c-20,0-36.3-16.2-36.3-36.3c0-20,16.2-36.3,36.3-36.3   c0.1,0,0.2,0,0.2,0v-58.4h-46.1c-5.5,0-10.6,2.9-13.3,7.7l-45.8,79.3c-2.7,4.8-2.7,10.6,0,15.4l45.8,79.3c2.7,4.8,7.8,7.7,13.3,7.7   h46.1V598.6z"/>
	<path id="XMLID_376_" class="st10" d="M720.5,598.6c-0.1,0-0.2,0-0.2,0c-20,0-36.3-16.2-36.3-36.3c0-20,16.2-36.3,36.3-36.3   c0.1,0,0.2,0,0.2,0v-35.4c-0.1,0-0.2,0-0.2,0c-39.6,0-71.6,32.1-71.6,71.6c0,39.6,32.1,71.6,71.6,71.6c0.1,0,0.2,0,0.2,0V598.6z"/>
	<path id="XMLID_373_" class="st15" d="M720.5,598.6c-0.1,0-0.2,0-0.2,0c-20,0-36.3-16.2-36.3-36.3c0-20,16.2-36.3,36.3-36.3   c0.1,0,0.2,0,0.2,0v-17.3c-0.1,0-0.2,0-0.2,0c-29.6,0-53.6,24-53.6,53.6c0,29.6,24,53.6,53.6,53.6c0.1,0,0.2,0,0.2,0V598.6z"/>
	<path id="XMLID_361_" class="st3" d="M825.2,554.6l-45.8-79.3c-2.7-4.8-7.8-7.7-13.3-7.7h-91.6c-5.5,0-10.6,2.9-13.3,7.7   l-45.8,79.3c-2.7,4.8-2.7,10.6,0,15.4l45.8,79.3c2.7,4.8,7.8,7.7,13.3,7.7H766c5.5,0,10.6-2.9,13.3-7.7l45.8-79.3   C827.9,565.2,827.9,559.4,825.2,554.6z M720.2,598.6c-20,0-36.3-16.2-36.3-36.3c0-20,16.2-36.3,36.3-36.3c20,0,36.3,16.2,36.3,36.3   C756.5,582.3,740.3,598.6,720.2,598.6z"/>
	<path id="XMLID_352_" class="st3" d="M720.2,490.7c-39.6,0-71.6,32.1-71.6,71.6c0,39.6,32.1,71.6,71.6,71.6   c39.6,0,71.6-32.1,71.6-71.6C791.9,522.7,759.8,490.7,720.2,490.7z M720.2,598.6c-20,0-36.3-16.2-36.3-36.3   c0-20,16.2-36.3,36.3-36.3c20,0,36.3,16.2,36.3,36.3C756.5,582.3,740.3,598.6,720.2,598.6z"/>
	<path id="XMLID_344_" class="st3" d="M720.2,508.7c-29.6,0-53.6,24-53.6,53.6c0,29.6,24,53.6,53.6,53.6c29.6,0,53.6-24,53.6-53.6   C773.8,532.7,749.8,508.7,720.2,508.7z M720.2,598.6c-20,0-36.3-16.2-36.3-36.3c0-20,16.2-36.3,36.3-36.3c20,0,36.3,16.2,36.3,36.3   C756.5,582.3,740.3,598.6,720.2,598.6z"/>
</g>
<g id="XMLID_371_">
	<circle id="XMLID_370_" class="st16" cx="474.1" cy="790" r="70.9"/>
	<circle id="XMLID_365_" class="st1" cx="474.1" cy="790" r="57.1"/>
	<circle id="XMLID_366_" class="st9" cx="474.1" cy="790" r="31.1"/>
	<path id="XMLID_395_" class="st15" d="M496.4,768.3v43.5c5.5-5.6,8.9-13.3,8.9-21.7C505.2,781.6,501.9,773.9,496.4,768.3z"/>
	<path id="XMLID_391_" class="st12" d="M474,732.9c-31.5,0-57,25.6-57,57.1c0,31.5,25.5,57.1,57,57.1V732.9z"/>
	<path id="XMLID_383_" class="st10" d="M474,758.9c-17.1,0-31,14-31,31.1c0,17.2,13.9,31.1,31,31.1V758.9z"/>
	<path id="XMLID_396_" class="st15" d="M456,764.7c-7.9,5.6-13,14.9-13,25.3c0,10.4,5.1,19.6,13,25.3V764.7z"/>
	<circle id="XMLID_368_" class="st3" cx="474.1" cy="790" r="57.1"/>
	<circle id="XMLID_367_" class="st3" cx="474.1" cy="790" r="31.1"/>
	<circle id="XMLID_369_" class="st3" cx="474.1" cy="790" r="31.1"/>
</g>
<g id="XMLID_381_">
	<circle id="XMLID_384_" class="st17" cx="222.5" cy="586.1" r="57.1"/>
	<path id="XMLID_377_" class="st1" d="M222.5,515.2c-35.3,0-64.6,25.9-70,59.7h140C287.2,541.1,257.9,515.2,222.5,515.2z"/>
	<path id="XMLID_379_" class="st1" d="M222.5,657c35.3,0,64.6-25.9,70-59.7h-140C157.9,631.1,187.2,657,222.5,657z"/>
	<path id="XMLID_404_" class="st4" d="M222.5,529c-31.5,0-57,25.6-57,57.1c0,31.5,25.5,57.1,57,57.1V529z"/>
	<path id="XMLID_397_" class="st12" d="M222.5,515.2c-35.3,0-64.6,25.9-69.9,59.7h69.9V515.2z"/>
	<path id="XMLID_394_" class="st12" d="M222.5,597.3h-69.9c5.4,33.8,34.6,59.7,69.9,59.7V597.3z"/>
	<path id="XMLID_378_" class="st3" d="M278.7,575.7c0.6,3.4,0.9,6.9,0.9,10.4c0,3.8-0.4,7.6-1.1,11.2"/>
	<path id="XMLID_380_" class="st3" d="M166.3,596.3c-0.6-3.3-0.9-6.7-0.9-10.2c0-3.8,0.4-7.6,1.1-11.2"/>
	<path id="XMLID_409_" class="st2" d="M156.4,560.7c-1.8,4.6-3.1,9.3-3.8,14.3h140c-0.8-5-2.1-9.7-3.8-14.3H156.4z"/>
	<path id="XMLID_375_" class="st2" d="M288.7,611.6c1.8-4.6,3.1-9.3,3.8-14.3h-140c0.8,5,2.1,9.7,3.8,14.3H288.7z"/>
	<path id="XMLID_374_" class="st3" d="M222.5,515.2c-35.3,0-64.6,25.9-70,59.7h140C287.2,541.1,257.9,515.2,222.5,515.2z"/>
	<path id="XMLID_372_" class="st3" d="M222.5,657c35.3,0,64.6-25.9,70-59.7h-140C157.9,631.1,187.2,657,222.5,657z"/>
</g>
<g id="XMLID_403_">
	<circle id="XMLID_400_" class="st1" cx="965.1" cy="586.1" r="70.9"/>
	<path id="XMLID_390_" class="st17" d="M996.6,575h-10.8c-5.2,0-9.5-4.2-9.5-9.5v-10.8c0-0.7-0.6-1.3-1.3-1.3h-19.7   c-0.7,0-1.3,0.6-1.3,1.3v10.8c0,5.2-4.2,9.5-9.5,9.5h-10.8c-0.7,0-1.3,0.6-1.3,1.3V596c0,0.7,0.6,1.3,1.3,1.3h10.8   c5.2,0,9.5,4.2,9.5,9.5v10.8c0,0.7,0.6,1.3,1.3,1.3H975c0.7,0,1.3-0.6,1.3-1.3v-10.8c0-5.2,4.2-9.5,9.5-9.5h10.8   c0.7,0,1.3-0.6,1.3-1.3v-19.7C997.8,575.6,997.2,575,996.6,575z"/>
	<path id="XMLID_415_" class="st12" d="M964,515.3c-38.6,0.6-69.7,32.1-69.7,70.9c0,38.8,31.1,70.2,69.7,70.9V515.3z"/>
	<path id="XMLID_407_" class="st4" d="M964,553.4h-8.7c-0.7,0-1.3,0.6-1.3,1.3v10.8c0,5.2-4.2,9.5-9.5,9.5h-10.8   c-0.7,0-1.3,0.6-1.3,1.3V596c0,0.7,0.6,1.3,1.3,1.3h10.8c5.2,0,9.5,4.2,9.5,9.5v10.8c0,0.7,0.6,1.3,1.3,1.3h8.7V553.4z"/>
	<circle id="XMLID_386_" class="st3" cx="965.1" cy="586.1" r="70.9"/>
	<path id="XMLID_382_" class="st3" d="M996.6,575h-10.8c-5.2,0-9.5-4.2-9.5-9.5v-10.8c0-0.7-0.6-1.3-1.3-1.3h-19.7   c-0.7,0-1.3,0.6-1.3,1.3v10.8c0,5.2-4.2,9.5-9.5,9.5h-10.8c-0.7,0-1.3,0.6-1.3,1.3V596c0,0.7,0.6,1.3,1.3,1.3h10.8   c5.2,0,9.5,4.2,9.5,9.5v10.8c0,0.7,0.6,1.3,1.3,1.3H975c0.7,0,1.3-0.6,1.3-1.3v-10.8c0-5.2,4.2-9.5,9.5-9.5h10.8   c0.7,0,1.3-0.6,1.3-1.3v-19.7C997.8,575.6,997.2,575,996.6,575z"/>
</g>
<g id="XMLID_402_">
	<circle id="XMLID_399_" class="st17" cx="1184.2" cy="586.1" r="70.9"/>
	<path id="XMLID_425_" class="st4" d="M1183.7,515.2c-38.9,0.2-70.4,31.9-70.4,70.9c0,39,31.5,70.6,70.4,70.9V515.2z"/>
	<circle id="XMLID_401_" class="st3" cx="1184.2" cy="586.1" r="70.9"/>
	<circle id="XMLID_398_" class="st1" cx="1184.2" cy="586.1" r="44.6"/>
	<path id="XMLID_393_" class="st17" d="M1204,579.1h-6.8c-3.3,0-6-2.7-6-6v-6.8c0-0.4-0.4-0.8-0.8-0.8H1178c-0.4,0-0.8,0.4-0.8,0.8   v6.8c0,3.3-2.7,6-6,6h-6.8c-0.4,0-0.8,0.4-0.8,0.8v12.4c0,0.4,0.4,0.8,0.8,0.8h6.8c3.3,0,6,2.7,6,6v6.8c0,0.4,0.4,0.8,0.8,0.8h12.4   c0.4,0,0.8-0.4,0.8-0.8v-6.8c0-3.3,2.7-6,6-6h6.8c0.4,0,0.8-0.4,0.8-0.8v-12.4C1204.7,579.5,1204.4,579.1,1204,579.1z"/>
	<path id="XMLID_392_" class="st12" d="M1183.5,541.5c-24.3,0.4-43.9,20.2-43.9,44.6c0,24.4,19.6,44.2,43.9,44.6V541.5z"/>
	<path id="XMLID_389_" class="st4" d="M1183.5,565.6h-5.5c-0.4,0-0.8,0.4-0.8,0.8v6.8c0,3.3-2.7,6-6,6h-6.8c-0.4,0-0.8,0.4-0.8,0.8   v12.4c0,0.4,0.4,0.8,0.8,0.8h6.8c3.3,0,6,2.7,6,6v6.8c0,0.4,0.4,0.8,0.8,0.8h5.5V565.6z"/>
	<circle id="XMLID_388_" class="st3" cx="1184.2" cy="586.1" r="44.6"/>
	<path id="XMLID_387_" class="st3" d="M1204,579.1h-5.3c-4.1,0-7.4-3.3-7.4-7.4v-5.3c0-0.4-0.4-0.8-0.8-0.8H1178   c-0.4,0-0.8,0.4-0.8,0.8v5.3c0,4.1-3.3,7.4-7.4,7.4h-5.3c-0.4,0-0.8,0.4-0.8,0.8v12.4c0,0.4,0.4,0.8,0.8,0.8h5.3   c4.1,0,7.4,3.3,7.4,7.4v5.3c0,0.4,0.4,0.8,0.8,0.8h12.4c0.4,0,0.8-0.4,0.8-0.8v-5.3c0-4.1,3.3-7.4,7.4-7.4h5.3   c0.4,0,0.8-0.4,0.8-0.8v-12.4C1204.7,579.5,1204.4,579.1,1204,579.1z"/>
</g>
<g id="XMLID_414_">
	<circle id="XMLID_418_" class="st18" cx="1184.2" cy="790" r="70.9"/>
	<circle id="XMLID_417_" class="st17" cx="1184.2" cy="790" r="57.1"/>
	<path id="XMLID_413_" class="st4" d="M1184.1,732.9c-31.5,0-57,25.6-57,57.1c0,31.5,25.5,57.1,57,57.1V732.9z"/>
	<circle id="XMLID_410_" class="st3" cx="1184.2" cy="790" r="57.1"/>
	<circle id="XMLID_408_" class="st3" cx="1184.2" cy="790" r="31.1"/>
	<circle id="XMLID_406_" class="st1" cx="1184.2" cy="790" r="37.5"/>
	<path id="XMLID_439_" class="st12" d="M1183.8,752.5c-20.6,0.2-37.2,16.9-37.2,37.5c0,20.6,16.6,37.3,37.2,37.5V752.5z"/>
	<circle id="XMLID_411_" class="st3" cx="1184.2" cy="790" r="37.5"/>
	<g id="XMLID_405_">
		<path id="XMLID_421_" class="st17" d="M1204,783h-6.8c-3.3,0-6-2.7-6-6v-6.8c0-0.4-0.4-0.8-0.8-0.8H1178c-0.4,0-0.8,0.4-0.8,0.8    v6.8c0,3.3-2.7,6-6,6h-6.8c-0.4,0-0.8,0.4-0.8,0.8v12.4c0,0.4,0.4,0.8,0.8,0.8h6.8c3.3,0,6,2.7,6,6v6.8c0,0.4,0.4,0.8,0.8,0.8    h12.4c0.4,0,0.8-0.4,0.8-0.8V803c0-3.3,2.7-6,6-6h6.8c0.4,0,0.8-0.4,0.8-0.8v-12.4C1204.7,783.4,1204.4,783,1204,783z"/>
		<path id="XMLID_419_" class="st4" d="M1183.5,769.5h-5.5c-0.4,0-0.8,0.4-0.8,0.8v6.8c0,3.3-2.7,6-6,6h-6.8c-0.4,0-0.8,0.4-0.8,0.8    v12.4c0,0.4,0.4,0.8,0.8,0.8h6.8c3.3,0,6,2.7,6,6v6.8c0,0.4,0.4,0.8,0.8,0.8h5.5V769.5z"/>
		<path id="XMLID_412_" class="st3" d="M1204,783h-5.3c-4.1,0-7.4-3.3-7.4-7.4v-5.3c0-0.4-0.4-0.8-0.8-0.8H1178    c-0.4,0-0.8,0.4-0.8,0.8v5.3c0,4.1-3.3,7.4-7.4,7.4h-5.3c-0.4,0-0.8,0.4-0.8,0.8v12.4c0,0.4,0.4,0.8,0.8,0.8h5.3    c4.1,0,7.4,3.3,7.4,7.4v5.3c0,0.4,0.4,0.8,0.8,0.8h12.4c0.4,0,0.8-0.4,0.8-0.8v-5.3c0-4.1,3.3-7.4,7.4-7.4h5.3    c0.4,0,0.8-0.4,0.8-0.8v-12.4C1204.7,783.4,1204.4,783,1204,783z"/>
	</g>
</g>
<g id="XMLID_432_">
	<circle id="XMLID_420_" class="st17" cx="222.5" cy="783.3" r="77.6"/>
	<circle id="XMLID_427_" class="st1" cx="222.5" cy="783.3" r="62.5"/>
	<path id="XMLID_424_" class="st12" d="M221.5,720.8c-34.1,0.5-61.5,28.3-61.5,62.5c0,34.2,27.4,61.9,61.5,62.5V720.8z"/>
	<circle id="XMLID_422_" class="st3" cx="222.5" cy="783.3" r="62.5"/>
	<g id="XMLID_426_">
		<path id="XMLID_423_" class="st17" d="M260.9,772.9h-19c-0.1,0-0.3,0-0.4,0l11.7-11.7c2.4-2.4,2.4-6.2,0-8.5    c-2.4-2.4-6.2-2.4-8.5,0L233,764.3c0-0.1,0-0.3,0-0.4v-19c0-0.7-0.5-1.2-1.2-1.2h-18.6c-0.7,0-1.2,0.5-1.2,1.2v19    c0,0.1,0,0.3,0,0.4l-11.7-11.7c-2.4-2.4-6.2-2.4-8.5,0c-2.4,2.4-2.4,6.2,0,8.5l11.7,11.7c-0.1,0-0.3,0-0.4,0h-19    c-0.7,0-1.2,0.5-1.2,1.2v18.6c0,0.7,0.5,1.2,1.2,1.2h19c0.1,0,0.3,0,0.4,0l-11.7,11.7c-2.4,2.4-2.4,6.2,0,8.5    c1.2,1.2,2.7,1.8,4.3,1.8s3.1-0.6,4.3-1.8l11.7-11.7c0,0.1,0,0.3,0,0.4v19c0,0.7,0.5,1.2,1.2,1.2h18.6c0.7,0,1.2-0.5,1.2-1.2v-19    c0-0.1,0-0.3,0-0.4l11.7,11.7c1.2,1.2,2.7,1.8,4.3,1.8c1.5,0,3.1-0.6,4.3-1.8c2.4-2.4,2.4-6.2,0-8.5l-11.7-11.7c0.1,0,0.3,0,0.4,0    h19c0.7,0,1.2-0.5,1.2-1.2V774C262.1,773.4,261.6,772.9,260.9,772.9z"/>
		<path id="XMLID_446_" class="st4" d="M221.7,743.7h-8.5c-0.7,0-1.2,0.5-1.2,1.2v19c0,0.1,0,0.3,0,0.4l-11.7-11.7    c-2.4-2.4-6.2-2.4-8.5,0c-2.4,2.4-2.4,6.2,0,8.5l11.7,11.7c-0.1,0-0.3,0-0.4,0h-19c-0.7,0-1.2,0.5-1.2,1.2v18.6    c0,0.7,0.5,1.2,1.2,1.2h19c0.1,0,0.3,0,0.4,0l-11.7,11.7c-2.4,2.4-2.4,6.2,0,8.5c1.2,1.2,2.7,1.8,4.3,1.8s3.1-0.6,4.3-1.8    l11.7-11.7c0,0.1,0,0.3,0,0.4v19c0,0.7,0.5,1.2,1.2,1.2h8.5V743.7z"/>
		<path id="XMLID_416_" class="st3" d="M260.9,772.9h-19c-0.1,0-0.3,0-0.4,0l11.7-11.7c2.4-2.4,2.4-6.2,0-8.5    c-2.4-2.4-6.2-2.4-8.5,0L233,764.3c0-0.1,0-0.3,0-0.4v-19c0-0.7-0.5-1.2-1.2-1.2h-18.6c-0.7,0-1.2,0.5-1.2,1.2v19    c0,0.1,0,0.3,0,0.4l-11.7-11.7c-2.4-2.4-6.2-2.4-8.5,0c-2.4,2.4-2.4,6.2,0,8.5l11.7,11.7c-0.1,0-0.3,0-0.4,0h-19    c-0.7,0-1.2,0.5-1.2,1.2v18.6c0,0.7,0.5,1.2,1.2,1.2h19c0.1,0,0.3,0,0.4,0l-11.7,11.7c-2.4,2.4-2.4,6.2,0,8.5    c1.2,1.2,2.7,1.8,4.3,1.8s3.1-0.6,4.3-1.8l11.7-11.7c0,0.1,0,0.3,0,0.4v19c0,0.7,0.5,1.2,1.2,1.2h18.6c0.7,0,1.2-0.5,1.2-1.2v-19    c0-0.1,0-0.3,0-0.4l11.7,11.7c1.2,1.2,2.7,1.8,4.3,1.8c1.5,0,3.1-0.6,4.3-1.8c2.4-2.4,2.4-6.2,0-8.5l-11.7-11.7c0.1,0,0.3,0,0.4,0    h19c0.7,0,1.2-0.5,1.2-1.2V774C262.1,773.4,261.6,772.9,260.9,772.9z"/>
	</g>
</g>
<g id="XMLID_455_">
	<circle id="XMLID_456_" class="st1" cx="720.2" cy="783.3" r="64.2"/>
	<circle id="XMLID_452_" class="st11" cx="720.2" cy="783.3" r="77.6"/>
	<circle id="XMLID_447_" class="st1" cx="720.2" cy="783.3" r="64.2"/>
	<path id="XMLID_476_" class="st12" d="M720.2,719.1c-35.4,0-64.2,28.7-64.2,64.2c0,35.4,28.7,64.2,64.2,64.2V719.1z"/>
	<circle id="XMLID_454_" class="st3" cx="720.2" cy="783.3" r="64.2"/>
	<g id="XMLID_448_">
		<path id="XMLID_451_" class="st17" d="M756.6,773.4h-18c-0.1,0-0.2,0-0.4,0l11.1-11.1c2.2-2.2,2.2-5.8,0-8.1    c-2.2-2.2-5.8-2.2-8.1,0l-11.1,11.1c0-0.1,0-0.2,0-0.4v-18c0-0.6-0.5-1.1-1.1-1.1h-17.6c-0.6,0-1.1,0.5-1.1,1.1v18    c0,0.1,0,0.2,0,0.4l-11.1-11.1c-2.2-2.2-5.8-2.2-8.1,0c-2.2,2.2-2.2,5.8,0,8.1l11.1,11.1c-0.1,0-0.2,0-0.4,0h-18    c-0.6,0-1.1,0.5-1.1,1.1v17.6c0,0.6,0.5,1.1,1.1,1.1h18c0.1,0,0.2,0,0.4,0l-11.1,11.1c-2.2,2.2-2.2,5.8,0,8.1    c1.1,1.1,2.6,1.7,4,1.7s2.9-0.6,4-1.7l11.1-11.1c0,0.1,0,0.2,0,0.4v18c0,0.6,0.5,1.1,1.1,1.1H729c0.6,0,1.1-0.5,1.1-1.1v-18    c0-0.1,0-0.2,0-0.4l11.1,11.1c1.1,1.1,2.6,1.7,4,1.7c1.5,0,2.9-0.6,4-1.7c2.2-2.2,2.2-5.8,0-8.1l-11.1-11.1c0.1,0,0.2,0,0.4,0h18    c0.6,0,1.1-0.5,1.1-1.1v-17.6C757.7,773.9,757.2,773.4,756.6,773.4z"/>
		<path id="XMLID_450_" class="st4" d="M719.5,745.8h-8c-0.6,0-1.1,0.5-1.1,1.1v18c0,0.1,0,0.2,0,0.4l-11.1-11.1    c-2.2-2.2-5.8-2.2-8.1,0c-2.2,2.2-2.2,5.8,0,8.1l11.1,11.1c-0.1,0-0.2,0-0.4,0h-18c-0.6,0-1.1,0.5-1.1,1.1v17.6    c0,0.6,0.5,1.1,1.1,1.1h18c0.1,0,0.2,0,0.4,0l-11.1,11.1c-2.2,2.2-2.2,5.8,0,8.1c1.1,1.1,2.6,1.7,4,1.7s2.9-0.6,4-1.7l11.1-11.1    c0,0.1,0,0.2,0,0.4v18c0,0.6,0.5,1.1,1.1,1.1h8V745.8z"/>
		<path id="XMLID_449_" class="st3" d="M756.6,773.4h-18c-0.1,0-0.2,0-0.4,0l11.1-11.1c2.2-2.2,2.2-5.8,0-8.1    c-2.2-2.2-5.8-2.2-8.1,0l-11.1,11.1c0-0.1,0-0.2,0-0.4v-18c0-0.6-0.5-1.1-1.1-1.1h-17.6c-0.6,0-1.1,0.5-1.1,1.1v18    c0,0.1,0,0.2,0,0.4l-11.1-11.1c-2.2-2.2-5.8-2.2-8.1,0c-2.2,2.2-2.2,5.8,0,8.1l11.1,11.1c-0.1,0-0.2,0-0.4,0h-18    c-0.6,0-1.1,0.5-1.1,1.1v17.6c0,0.6,0.5,1.1,1.1,1.1h18c0.1,0,0.2,0,0.4,0l-11.1,11.1c-2.2,2.2-2.2,5.8,0,8.1    c1.1,1.1,2.6,1.7,4,1.7s2.9-0.6,4-1.7l11.1-11.1c0,0.1,0,0.2,0,0.4v18c0,0.6,0.5,1.1,1.1,1.1H729c0.6,0,1.1-0.5,1.1-1.1v-18    c0-0.1,0-0.2,0-0.4l11.1,11.1c1.1,1.1,2.6,1.7,4,1.7c1.5,0,2.9-0.6,4-1.7c2.2-2.2,2.2-5.8,0-8.1l-11.1-11.1c0.1,0,0.2,0,0.4,0h18    c0.6,0,1.1-0.5,1.1-1.1v-17.6C757.7,773.9,757.2,773.4,756.6,773.4z"/>
	</g>
</g>
<g id="XMLID_431_">
	<circle id="XMLID_435_" class="st1" cx="965.1" cy="790" r="70.9"/>
	<circle id="XMLID_428_" class="st11" cx="965.1" cy="790" r="48.9"/>
	<path id="XMLID_453_" class="st12" d="M963,719.2c-38.2,1.1-68.8,32.4-68.8,70.8c0,38.4,30.6,69.7,68.8,70.8V719.2z"/>
	<path id="XMLID_445_" class="st10" d="M963,741.2c-26,1.1-46.8,22.5-46.8,48.8s20.8,47.7,46.8,48.8V741.2z"/>
	<circle id="XMLID_430_" class="st3" cx="965.1" cy="790" r="70.9"/>
	<circle id="XMLID_429_" class="st3" cx="965.1" cy="790" r="48.9"/>
</g>
<g id="XMLID_444_">
	<circle id="XMLID_443_" class="st17" cx="474.1" cy="579.4" r="77.6"/>
	<g id="XMLID_436_">
		<path id="XMLID_437_" class="st1" d="M551.1,569.5c-4.9-38.2-37.5-67.7-76.9-67.7c-39.5,0-72.1,29.5-76.9,67.7H551.1z"/>
		<path id="XMLID_438_" class="st1" d="M397.2,589.3c4.9,38.2,37.5,67.7,76.9,67.7c39.5,0,72.1-29.5,76.9-67.7H397.2z"/>
	</g>
	<path id="XMLID_465_" class="st4" d="M474.2,501.8C474.2,501.8,474.1,501.8,474.2,501.8c-42.9,0-77.6,34.7-77.6,77.6   c0,42.9,34.7,77.6,77.6,77.6c0,0,0,0,0.1,0V501.8z"/>
	<g id="XMLID_433_">
		<path id="XMLID_458_" class="st12" d="M474.2,501.8C474.2,501.8,474.1,501.8,474.2,501.8c-39.5,0-72.1,29.5-77,67.7h77V501.8z"/>
		<path id="XMLID_457_" class="st12" d="M474.2,589.3h-77c4.9,38.2,37.5,67.7,76.9,67.7c0,0,0,0,0.1,0V589.3z"/>
	</g>
	<circle id="XMLID_442_" class="st3" cx="474.1" cy="579.4" r="77.6"/>
	<g id="XMLID_434_">
		<path id="XMLID_441_" class="st3" d="M551.1,569.5c-4.9-38.2-37.5-67.7-76.9-67.7c-39.5,0-72.1,29.5-76.9,67.7H551.1z"/>
		<path id="XMLID_440_" class="st3" d="M397.2,589.3c4.9,38.2,37.5,67.7,76.9,67.7c39.5,0,72.1-29.5,76.9-67.7H397.2z"/>
	</g>
</g>
</svg>
