<?xml version="1.0" encoding="UTF-8"?>
<svg xmlns="http://www.w3.org/2000/svg" xmlns:xlink="http://www.w3.org/1999/xlink" width="4464" height="2592" viewBox="0 0 4464 2592">
<rect x="-446.4" y="-259.2" width="5356.8" height="3110.4" fill="rgb(100%, 100%, 100%)" fill-opacity="1"/>
<path fill-rule="nonzero" fill="rgb(0%, 0%, 0%)" fill-opacity="1" d="M 1637.519531 349.320312 C 1637.089844 467.371094 1541.050781 562.710938 1423 562.28125 C 1304.949219 561.859375 1209.601562 465.808594 1210.03125 347.761719 C 1210.460938 229.710938 1306.511719 134.359375 1424.558594 134.789062 C 1542.609375 135.21875 1637.949219 231.269531 1637.519531 349.320312 M 1626.671875 349.28125 C 1627.078125 237.21875 1536.570312 146.050781 1424.519531 145.640625 C 1312.460938 145.230469 1221.289062 235.738281 1220.878906 347.800781 C 1220.46875 459.859375 1310.980469 551.03125 1423.039062 551.429688 C 1535.089844 551.839844 1626.269531 461.339844 1626.671875 349.28125 Z M 1626.671875 349.28125 "/>
<path fill-rule="nonzero" fill="rgb(0%, 0%, 0%)" fill-opacity="1" d="M 1354.800781 221.199219 L 1493.679688 221.710938 L 1562.679688 342.230469 L 1492.808594 462.25 L 1353.921875 461.75 L 1284.921875 341.21875 Z M 1354.800781 221.199219 "/>
<path fill-rule="nonzero" fill="rgb(0%, 0%, 0%)" fill-opacity="1" d="M 2144.449219 349.320312 C 2144.011719 467.371094 2047.96875 562.710938 1929.921875 562.28125 C 1811.871094 561.851562 1716.519531 465.808594 1716.949219 347.761719 C 1717.378906 229.710938 1813.429688 134.359375 1931.480469 134.789062 C 2049.53125 135.21875 2144.878906 231.269531 2144.449219 349.320312 M 2133.589844 349.28125 C 2134 237.21875 2043.5 146.050781 1931.441406 145.640625 C 1819.378906 145.230469 1728.210938 235.738281 1727.808594 347.800781 C 1727.390625 459.851562 1817.898438 551.019531 1929.960938 551.429688 C 2042.019531 551.839844 2133.179688 461.328125 2133.589844 349.28125 Z M 2133.589844 349.28125 "/>
<path fill-rule="nonzero" fill="rgb(0%, 0%, 0%)" fill-opacity="1" d="M 1809.621094 226.570312 L 2052.660156 227.460938 L 2051.78125 470.5 L 1808.730469 469.609375 Z M 1809.621094 226.570312 "/>
<path fill-rule="nonzero" fill="rgb(0%, 0%, 0%)" fill-opacity="1" d="M 1130.050781 349.320312 C 1129.621094 467.371094 1033.570312 562.710938 915.519531 562.28125 C 797.472656 561.859375 702.125 465.808594 702.554688 347.761719 C 702.984375 229.710938 799.03125 134.359375 917.082031 134.789062 C 1035.128906 135.21875 1130.480469 231.269531 1130.050781 349.320312 M 1119.199219 349.28125 C 1119.609375 237.21875 1029.101562 146.050781 917.042969 145.640625 C 804.984375 145.230469 713.8125 235.738281 713.402344 347.800781 C 712.996094 459.859375 803.503906 551.03125 915.5625 551.429688 C 1027.621094 551.839844 1118.789062 461.339844 1119.199219 349.28125 Z M 1119.199219 349.28125 "/>
<path fill-rule="nonzero" fill="rgb(0%, 0%, 0%)" fill-opacity="1" d="M 915.800781 173.378906 L 954.570312 293.910156 L 1082.421875 294.101562 L 978.882812 368.789062 L 1018.25 489.628906 L 915.078125 414.480469 L 812.625 489.300781 L 852.359375 368.578125 L 749.324219 293.980469 L 876.566406 294.050781 Z M 915.800781 173.378906 "/>
<path fill-rule="nonzero" fill="rgb(0%, 0%, 0%)" fill-opacity="1" d="M 1130.050781 1566.308594 C 1129.621094 1684.359375 1033.570312 1779.707031 915.523438 1779.277344 C 797.472656 1778.847656 702.125 1682.800781 702.554688 1564.75 C 702.984375 1446.699219 799.03125 1351.351562 917.082031 1351.789062 C 1035.128906 1352.210938 1130.480469 1448.261719 1130.050781 1566.308594 M 1119.199219 1566.269531 C 1119.609375 1454.210938 1029.101562 1363.039062 917.042969 1362.628906 C 804.984375 1362.21875 713.8125 1452.730469 713.402344 1564.789062 C 712.996094 1676.847656 803.503906 1768.015625 915.5625 1768.425781 C 1027.621094 1768.835938 1118.789062 1678.328125 1119.199219 1566.269531 Z M 1119.199219 1566.269531 "/>
<path fill-rule="nonzero" fill="rgb(0%, 0%, 0%)" fill-opacity="1" d="M 755.25 1519.53125 L 917.371094 1402.878906 L 1078.898438 1521.191406 L 1016.109375 1711.09375 L 815.570312 1710.210938 Z M 755.25 1519.53125 "/>
<path fill-rule="nonzero" fill="rgb(0%, 0%, 0%)" fill-opacity="1" d="M 1130.050781 944.320312 C 1129.621094 1062.371094 1033.570312 1157.71875 915.523438 1157.289062 C 797.472656 1156.859375 702.125 1060.808594 702.554688 942.769531 C 702.984375 824.710938 799.03125 729.371094 917.082031 729.800781 C 1035.128906 730.230469 1130.480469 826.269531 1130.050781 944.320312 M 1119.199219 944.28125 C 1119.609375 832.230469 1029.101562 741.058594 917.042969 740.648438 C 804.984375 740.238281 713.8125 830.75 713.402344 942.808594 C 712.996094 1054.859375 803.503906 1146.03125 915.5625 1146.441406 C 1027.621094 1146.851562 1118.789062 1056.339844 1119.199219 944.28125 Z M 1119.199219 944.28125 "/>
<path fill-rule="nonzero" fill="rgb(0%, 0%, 0%)" fill-opacity="1" d="M 916.480469 912.71875 L 912.296875 912.980469 C 903.863281 914.269531 897.101562 918.121094 892.011719 924.570312 C 886.925781 931.058594 884.832031 938.710938 885.734375 947.550781 C 887.019531 955.980469 890.882812 962.75 897.324219 967.839844 C 903.8125 972.921875 911.472656 975.011719 920.308594 974.109375 C 928.742188 972.820312 935.503906 968.960938 940.59375 962.519531 C 945.679688 956.03125 947.769531 948.371094 946.867188 939.539062 C 945.582031 931.109375 941.71875 924.339844 935.277344 919.25 C 933.195312 917.621094 930.921875 916.28125 928.464844 915.210938 L 924.667969 913.871094 C 922.054688 913.128906 919.324219 912.75 916.480469 912.71875 Z M 916.480469 912.71875 "/>
<path fill-rule="nonzero" fill="rgb(0%, 0%, 0%)" fill-opacity="1" d="M 917.324219 767.148438 L 872.714844 855.089844 L 784.515625 854.578125 L 828.105469 943.03125 L 783.496094 1030.980469 L 871.691406 1031.488281 L 915.28125 1119.941406 L 959.890625 1032 L 1048.089844 1032.511719 L 1004.5 944.058594 L 1049.109375 856.109375 L 960.910156 855.601562 Z M 916.632812 886.171875 L 924.414062 886.738281 C 940.085938 889.308594 952.589844 896.648438 961.925781 908.75 C 971.25 920.929688 974.980469 935.230469 973.109375 951.660156 C 970.535156 967.328125 963.199219 979.828125 951.097656 989.171875 C 938.914062 998.488281 924.613281 1002.21875 908.1875 1000.351562 C 892.515625 997.78125 880.011719 990.441406 870.679688 978.339844 C 861.351562 966.160156 857.625 951.859375 859.496094 935.429688 C 862.070312 919.761719 869.40625 907.25 881.503906 897.921875 C 885.414062 894.929688 889.671875 892.46875 894.273438 890.550781 L 901.367188 888.128906 C 906.25 886.808594 911.335938 886.148438 916.632812 886.171875 Z M 916.632812 886.171875 "/>
<path fill-rule="nonzero" fill="rgb(0%, 0%, 0%)" fill-opacity="1" d="M 1426.628906 767.449219 L 1469.21875 856.210938 L 1557.269531 857.640625 L 1511.820312 944.96875 L 1554.421875 1033.730469 L 1466.378906 1032.300781 L 1420.929688 1119.628906 L 1378.328125 1030.871094 L 1290.289062 1029.449219 L 1335.730469 942.121094 L 1293.128906 853.359375 L 1381.179688 854.78125 Z M 1426.628906 767.449219 "/>
<path fill-rule="nonzero" fill="rgb(0%, 0%, 0%)" fill-opacity="1" d="M 1637.519531 944.320312 C 1637.089844 1062.371094 1541.050781 1157.71875 1423 1157.289062 C 1304.949219 1156.859375 1209.601562 1060.808594 1210.03125 942.761719 C 1210.460938 824.710938 1306.511719 729.371094 1424.558594 729.800781 C 1542.609375 730.230469 1637.949219 826.269531 1637.519531 944.320312 M 1626.671875 944.28125 C 1627.078125 832.230469 1536.570312 741.058594 1424.519531 740.648438 C 1312.460938 740.238281 1221.289062 830.75 1220.878906 942.808594 C 1220.46875 1054.859375 1310.980469 1146.03125 1423.039062 1146.441406 C 1535.089844 1146.851562 1626.261719 1056.339844 1626.671875 944.28125 Z M 1626.671875 944.28125 "/>
<path fill-rule="nonzero" fill="rgb(0%, 0%, 0%)" fill-opacity="1" d="M 2439.75 172.101562 L 2439.75 172.109375 L 2618.429688 422.96875 L 2260.390625 422.480469 Z M 2439.75 172.101562 "/>
<path fill-rule="nonzero" fill="rgb(0%, 0%, 0%)" fill-opacity="1" d="M 2651.359375 349.320312 C 2650.929688 467.359375 2554.878906 562.710938 2436.828125 562.28125 C 2318.789062 561.851562 2223.441406 465.808594 2223.871094 347.761719 C 2224.300781 229.710938 2320.339844 134.359375 2438.390625 134.789062 C 2556.441406 135.21875 2651.789062 231.269531 2651.359375 349.320312 M 2640.511719 349.28125 C 2640.910156 237.21875 2550.410156 146.050781 2438.351562 145.640625 C 2326.300781 145.230469 2235.128906 235.738281 2234.71875 347.800781 C 2234.308594 459.851562 2324.820312 551.019531 2436.871094 551.429688 C 2548.929688 551.839844 2640.101562 461.328125 2640.511719 349.28125 Z M 2640.511719 349.28125 "/>
<path fill-rule="nonzero" fill="rgb(0%, 0%, 0%)" fill-opacity="1" d="M 2144.449219 944.320312 C 2144.019531 1062.371094 2047.96875 1157.71875 1929.921875 1157.289062 C 1811.871094 1156.859375 1716.519531 1060.808594 1716.949219 942.761719 C 1717.378906 824.710938 1813.429688 729.371094 1931.480469 729.800781 C 2049.53125 730.230469 2144.878906 826.269531 2144.449219 944.320312 M 2133.589844 944.28125 C 2134 832.230469 2043.5 741.058594 1931.441406 740.648438 C 1819.378906 740.238281 1728.210938 830.75 1727.808594 942.808594 C 1727.390625 1054.859375 1817.898438 1146.03125 1929.960938 1146.441406 C 2042.019531 1146.851562 2133.191406 1056.339844 2133.589844 944.28125 Z M 2133.589844 944.28125 "/>
<path fill-rule="nonzero" fill="rgb(0%, 0%, 0%)" fill-opacity="1" d="M 1894.699219 787.539062 L 1966.699219 787.539062 L 1966.699219 907.539062 L 2086.699219 907.539062 L 2086.699219 979.539062 L 1966.699219 979.539062 L 1966.699219 1099.539062 L 1894.699219 1099.539062 L 1894.699219 979.539062 L 1774.699219 979.539062 L 1774.699219 907.539062 L 1894.699219 907.539062 Z M 1894.699219 787.539062 "/>
<path fill-rule="nonzero" fill="rgb(0%, 0%, 0%)" fill-opacity="1" d="M 2651.359375 944.320312 C 2650.929688 1062.371094 2554.878906 1157.71875 2436.828125 1157.289062 C 2318.789062 1156.859375 2223.441406 1060.808594 2223.871094 942.761719 C 2224.300781 824.710938 2320.339844 729.371094 2438.390625 729.800781 C 2556.441406 730.230469 2651.789062 826.269531 2651.359375 944.320312 M 2640.511719 944.28125 C 2640.910156 832.230469 2550.410156 741.058594 2438.351562 740.648438 C 2326.300781 740.238281 2235.128906 830.75 2234.71875 942.800781 C 2234.308594 1054.859375 2324.820312 1146.03125 2436.871094 1146.441406 C 2548.929688 1146.851562 2640.101562 1056.339844 2640.511719 944.28125 Z M 2640.511719 944.28125 "/>
<path fill-rule="nonzero" fill="rgb(0%, 0%, 0%)" fill-opacity="1" d="M 2233.601562 879.589844 C 2228.019531 897.398438 2224.710938 916.210938 2224.011719 935.691406 L 2224.019531 935.691406 C 2224.519531 949.359375 2226.320312 962.691406 2229.28125 975.589844 L 2237.230469 975.589844 L 2237.21875 975.589844 L 2637.980469 975.589844 L 2637.988281 975.601562 L 2645.929688 975.589844 L 2645.949219 975.589844 C 2648.898438 962.710938 2650.699219 949.378906 2651.199219 935.71875 L 2651.21875 935.71875 C 2650.519531 916.230469 2647.210938 897.410156 2641.628906 879.589844 Z M 2233.601562 879.589844 "/>
<path fill-rule="nonzero" fill="rgb(0%, 0%, 0%)" fill-opacity="1" d="M 3162.75 944.320312 C 3162.308594 1062.371094 3066.269531 1157.71875 2948.21875 1157.289062 C 2830.171875 1156.859375 2734.820312 1060.808594 2735.261719 942.761719 C 2735.691406 824.710938 2831.730469 729.371094 2949.78125 729.800781 C 3067.828125 730.230469 3163.179688 826.269531 3162.75 944.320312 M 3151.890625 944.28125 C 3152.308594 832.230469 3061.800781 741.058594 2949.738281 740.648438 C 2837.679688 740.238281 2746.519531 830.75 2746.109375 942.800781 C 2745.699219 1054.859375 2836.199219 1146.03125 2948.261719 1146.441406 C 3060.320312 1146.851562 3151.480469 1056.339844 3151.890625 944.28125 Z M 3151.890625 944.28125 "/>
<path fill-rule="nonzero" fill="rgb(0%, 0%, 0%)" fill-opacity="1" d="M 2781 919.539062 L 2781 967.539062 L 2881.261719 967.539062 L 2879.570312 962.679688 C 2877.878906 956.570312 2877.019531 950.191406 2877 943.539062 C 2877.21875 934.929688 2878.589844 926.929688 2881.128906 919.539062 L 2881.148438 919.539062 Z M 2973 775.539062 L 2925 775.539062 L 2925 875.679688 C 2932.390625 873.140625 2940.390625 871.761719 2949 871.539062 C 2957.609375 871.761719 2965.609375 873.140625 2973 875.679688 Z M 3117 919.539062 L 3016.851562 919.539062 L 3016.859375 919.539062 C 3019.410156 926.929688 3020.78125 934.929688 3021 943.539062 L 3020.339844 953.308594 C 3019.550781 958.308594 3018.378906 963.058594 3016.808594 967.539062 L 3117 967.539062 Z M 3021 943.539062 L 3020.339844 953.308594 C 3017.230469 973 3008.109375 988.738281 2993 1000.539062 C 2977.78125 1012.328125 2959.859375 1017.109375 2939.230469 1014.890625 C 2919.550781 1011.769531 2903.808594 1002.660156 2892 987.539062 C 2888.21875 982.648438 2885.109375 977.328125 2882.660156 971.570312 L 2879.570312 962.679688 C 2877.878906 956.570312 2877.019531 950.191406 2877 943.539062 C 2877.519531 923.140625 2884.539062 906.179688 2898.089844 892.628906 C 2911.628906 879.089844 2928.601562 872.058594 2949 871.539062 C 2969.398438 872.058594 2986.371094 879.089844 2999.910156 892.628906 C 3013.460938 906.179688 3020.480469 923.140625 3021 943.539062 M 2925 1011.359375 L 2925 1111.539062 L 2973 1111.539062 L 2973 1011.480469 L 2972.980469 1011.480469 C 2965.449219 1014.109375 2957.410156 1015.421875 2948.859375 1015.421875 C 2945.71875 1015.421875 2942.511719 1015.238281 2939.230469 1014.890625 C 2934.238281 1014.089844 2929.5 1012.921875 2925.019531 1011.359375 Z M 2925 1011.359375 "/>
<path fill-rule="nonzero" fill="rgb(0%, 0%, 0%)" fill-opacity="1" d="M 3172.339844 349.320312 C 3171.910156 467.359375 3075.871094 562.710938 2957.820312 562.28125 C 2839.769531 561.851562 2744.429688 465.808594 2744.859375 347.761719 C 2745.289062 229.710938 2841.328125 134.359375 2959.378906 134.789062 C 3077.429688 135.21875 3172.769531 231.269531 3172.339844 349.320312 M 3161.488281 349.28125 C 3161.898438 237.21875 3071.390625 146.050781 2959.339844 145.640625 C 2847.289062 145.230469 2756.109375 235.738281 2755.710938 347.800781 C 2755.300781 459.851562 2845.808594 551.019531 2957.859375 551.429688 C 3069.910156 551.839844 3161.089844 461.328125 3161.488281 349.28125 Z M 3161.488281 349.28125 "/>
<path fill-rule="nonzero" fill="rgb(0%, 0%, 0%)" fill-opacity="1" d="M 2837.269531 297.761719 L 2786.75 347.910156 L 2836.898438 398.429688 Z M 2837.519531 226.570312 L 3080.558594 227.460938 L 3079.679688 470.5 C 2998.660156 470.199219 2917.648438 469.910156 2836.640625 469.609375 L 2837.519531 226.570312 M 2959.230469 176.679688 L 2908.710938 226.828125 L 3009.378906 227.199219 Z M 3080.308594 298.640625 L 3079.941406 399.320312 L 3130.449219 349.160156 Z M 2907.820312 469.871094 L 2957.96875 520.390625 L 3008.488281 470.238281 L 3008.511719 470.238281 L 3008.488281 470.238281 C 2974.941406 470.121094 2941.390625 470 2907.839844 469.871094 Z M 2907.820312 469.871094 "/>
<path fill-rule="nonzero" fill="rgb(0%, 0%, 0%)" fill-opacity="1" d="M 3681.089844 349.320312 C 3680.660156 467.359375 3584.621094 562.710938 3466.570312 562.28125 C 3348.519531 561.851562 3253.179688 465.808594 3253.609375 347.761719 C 3254.039062 229.710938 3350.078125 134.359375 3468.128906 134.789062 C 3586.179688 135.21875 3681.519531 231.269531 3681.089844 349.320312 M 3670.238281 349.28125 C 3670.648438 237.21875 3580.140625 146.050781 3468.089844 145.640625 C 3356.03125 145.230469 3264.871094 235.738281 3264.460938 347.800781 C 3264.050781 459.851562 3354.558594 551.019531 3466.609375 551.429688 C 3578.660156 551.839844 3669.839844 461.328125 3670.238281 349.28125 Z M 3670.238281 349.28125 "/>
<path fill-rule="nonzero" fill="rgb(0%, 0%, 0%)" fill-opacity="1" d="M 3423.480469 182.371094 L 3633.511719 304.660156 L 3511.230469 514.699219 L 3301.191406 392.410156 L 3423.480469 182.371094 M 3512.441406 182.699219 L 3467.859375 208.21875 L 3496.460938 224.871094 L 3556.628906 259.898438 L 3521.96875 239.71875 L 3500.359375 227.140625 L 3537.949219 227.269531 Z M 3500.359375 227.140625 L 3589.128906 278.820312 L 3589.308594 227.460938 Z M 3607.671875 349.050781 L 3555.980469 437.820312 L 3588.75 381.539062 L 3555.980469 437.820312 L 3588.621094 419.140625 L 3633.191406 393.621094 Z M 3572.398438 409.621094 L 3563.671875 424.621094 L 3537.070312 470.308594 L 3588.429688 470.5 L 3588.621094 419.140625 L 3555.980469 437.820312 Z M 3396.75 469.800781 C 3405.25 484.660156 3413.761719 499.519531 3422.269531 514.371094 L 3466.839844 488.859375 L 3434.210938 469.859375 L 3434.351562 469.941406 L 3396.769531 469.800781 Z M 3345.570312 418.25 L 3345.390625 469.609375 L 3434.351562 469.941406 Z M 3346.089844 277.929688 L 3301.511719 303.449219 C 3310.019531 318.308594 3318.53125 333.171875 3327.03125 348.019531 L 3345.949219 315.53125 Z M 3346.269531 226.570312 L 3345.949219 315.53125 L 3397.628906 226.761719 Z M 3346.269531 226.570312 "/>
<path fill-rule="nonzero" fill="rgb(0%, 0%, 0%)" fill-opacity="1" d="M 2144.449219 1566.308594 C 2144.019531 1684.355469 2047.96875 1779.707031 1929.921875 1779.273438 C 1811.871094 1778.84375 1716.519531 1682.796875 1716.949219 1564.75 C 1717.378906 1446.699219 1813.429688 1351.351562 1931.480469 1351.789062 C 2049.53125 1352.210938 2144.878906 1448.261719 2144.449219 1566.308594 M 2133.589844 1566.269531 C 2134 1454.210938 2043.5 1363.039062 1931.441406 1362.628906 C 1819.378906 1362.21875 1728.210938 1452.730469 1727.808594 1564.789062 C 1727.390625 1676.84375 1817.898438 1768.015625 1929.960938 1768.425781 C 2042.019531 1768.832031 2133.191406 1678.324219 2133.589844 1566.269531 Z M 2133.589844 1566.269531 "/>
<path fill-rule="nonzero" fill="rgb(0%, 0%, 0%)" fill-opacity="1" d="M 1930.699219 1421.53125 L 1882.699219 1421.53125 L 1882.699219 1565.53125 L 1786.699219 1565.53125 L 1786.699219 1613.53125 L 1930.699219 1613.527344 L 1930.699219 1709.527344 L 1978.699219 1709.53125 L 1978.699219 1565.53125 L 2074.699219 1565.53125 L 2074.699219 1517.53125 L 1930.699219 1517.53125 Z M 1930.699219 1421.53125 "/>
<path fill-rule="nonzero" fill="rgb(0%, 0%, 0%)" fill-opacity="1" d="M 2651.359375 1566.308594 C 2650.929688 1684.355469 2554.878906 1779.703125 2436.828125 1779.273438 C 2318.789062 1778.84375 2223.441406 1682.796875 2223.871094 1564.75 C 2224.300781 1446.699219 2320.339844 1351.351562 2438.390625 1351.789062 C 2556.441406 1352.210938 2651.789062 1448.261719 2651.359375 1566.308594 M 2640.511719 1566.269531 C 2640.910156 1454.210938 2550.410156 1363.039062 2438.351562 1362.628906 C 2326.300781 1362.21875 2235.128906 1452.730469 2234.71875 1564.789062 C 2234.308594 1676.84375 2324.820312 1768.015625 2436.871094 1768.421875 C 2548.929688 1768.832031 2640.101562 1678.324219 2640.511719 1566.269531 Z M 2640.511719 1566.269531 "/>
<path fill-rule="nonzero" fill="rgb(0%, 0%, 0%)" fill-opacity="1" d="M 2442.660156 1373.339844 C 2394.25 1375.238281 2354.191406 1392.488281 2322.46875 1425.089844 C 2319.019531 1428.640625 2315.75 1432.28125 2312.671875 1436.019531 L 2312.691406 1436.019531 L 2402.289062 1544.890625 L 2315.761719 1656.191406 L 2315.769531 1656.195312 C 2343.699219 1688.355469 2379.828125 1707.632812 2424.179688 1714.023438 C 2431.980469 1714.757812 2439.609375 1715.070312 2447.070312 1714.96875 C 2486.539062 1714.421875 2521.308594 1702.164062 2551.378906 1678.195312 C 2561.128906 1670.359375 2569.789062 1661.835938 2577.378906 1652.617188 L 2577.390625 1652.621094 L 2577.378906 1652.617188 L 2577.390625 1652.617188 L 2487.769531 1543.710938 L 2574.320312 1432.398438 L 2574.328125 1432.398438 L 2574.320312 1432.390625 L 2574.339844 1432.398438 C 2571.160156 1428.75 2567.789062 1425.191406 2564.238281 1421.738281 C 2531.640625 1390.03125 2491.109375 1373.898438 2442.660156 1373.339844 Z M 2577.390625 1652.617188 Z M 2577.390625 1652.617188 "/>
<path fill-rule="nonzero" fill="rgb(0%, 0%, 0%)" fill-opacity="1" d="M 3159.941406 1566.308594 C 3159.511719 1684.355469 3063.46875 1779.703125 2945.421875 1779.273438 C 2827.371094 1778.84375 2732.019531 1682.796875 2732.449219 1564.75 C 2732.878906 1446.699219 2828.929688 1351.351562 2946.980469 1351.789062 C 3065.019531 1352.210938 3160.371094 1448.261719 3159.941406 1566.308594 M 3149.089844 1566.269531 C 3149.5 1454.210938 3058.988281 1363.039062 2946.941406 1362.628906 C 2834.878906 1362.21875 2743.710938 1452.730469 2743.300781 1564.789062 C 2742.890625 1676.84375 2833.398438 1768.015625 2945.460938 1768.421875 C 3057.511719 1768.832031 3148.679688 1678.324219 3149.089844 1566.269531 Z M 3149.089844 1566.269531 "/>
<path fill-rule="nonzero" fill="rgb(0%, 0%, 0%)" fill-opacity="1" d="M 2929.429688 1562.878906 C 2929.339844 1562.871094 2929.269531 1562.929688 2929.261719 1563.011719 C 2928.359375 1567.378906 2926.78125 1572.179688 2924.519531 1577.398438 C 2924.5 1577.449219 2924.5 1577.511719 2924.53125 1577.558594 C 2924.558594 1577.601562 2924.609375 1577.628906 2924.660156 1577.628906 L 2924.640625 1577.628906 C 2930.101562 1581.328125 2934.679688 1585.25 2938.359375 1589.398438 L 2938.371094 1589.398438 C 2941 1592.234375 2943.390625 1595.183594 2945.558594 1598.246094 C 2945.589844 1598.289062 2945.628906 1598.316406 2945.679688 1598.316406 C 2945.691406 1598.316406 2945.691406 1598.316406 2945.699219 1598.316406 L 2945.710938 1598.316406 C 2945.761719 1598.316406 2945.808594 1598.289062 2945.839844 1598.25 C 2945.929688 1598.132812 2946.011719 1598.023438 2946.089844 1597.917969 C 2946.128906 1597.871094 2946.128906 1597.808594 2946.109375 1597.753906 L 2946.089844 1597.753906 C 2946.480469 1597.128906 2949.648438 1593.96875 2955.589844 1588.28125 C 2959.328125 1584.828125 2963.558594 1581.761719 2968.261719 1579.070312 L 2968.238281 1579.070312 C 2968.289062 1579.058594 2968.339844 1579.039062 2968.371094 1578.988281 C 2968.398438 1578.949219 2968.410156 1578.890625 2968.390625 1578.839844 C 2966.679688 1574.039062 2965.449219 1569.171875 2964.730469 1564.25 C 2964.71875 1564.179688 2964.648438 1564.121094 2964.578125 1564.109375 L 2964.519531 1564.109375 C 2958.800781 1565.109375 2952.878906 1565.511719 2946.738281 1565.308594 C 2943.179688 1565.179688 2939.558594 1564.859375 2935.859375 1564.328125 L 2935.859375 1564.339844 C 2933.691406 1563.910156 2931.558594 1563.429688 2929.480469 1562.890625 L 2929.449219 1562.878906 Z M 3031.351562 1486.679688 L 3030.230469 1497.738281 C 3025.941406 1519.949219 3014.988281 1537.46875 2997.390625 1550.28125 C 2979.660156 1563.078125 2959.140625 1567.820312 2935.820312 1564.5 C 2913.609375 1560.210938 2896.089844 1549.261719 2883.28125 1531.660156 C 2879.179688 1525.960938 2875.851562 1519.808594 2873.289062 1513.171875 L 2870.128906 1502.96875 C 2868.441406 1495.96875 2867.71875 1488.691406 2867.949219 1481.160156 C 2869.308594 1458.03125 2877.941406 1439.039062 2893.828125 1424.191406 C 2909.71875 1409.339844 2929.238281 1402.019531 2952.410156 1402.210938 C 2975.539062 1403.578125 2994.519531 1412.210938 3009.371094 1428.101562 C 3024.21875 1443.980469 3031.550781 1463.511719 3031.351562 1486.679688 M 2853.609375 1464.289062 C 2853.121094 1464.269531 2852.640625 1464.261719 2852.160156 1464.261719 C 2841.859375 1464.179688 2832.289062 1465.570312 2823.429688 1468.460938 C 2812.179688 1472.359375 2802.839844 1477.738281 2795.390625 1484.589844 C 2788.679688 1491.019531 2785.488281 1494.25 2785.828125 1494.25 C 2785.839844 1494.25 2785.851562 1494.25 2785.859375 1494.25 L 2785.878906 1494.25 C 2783.660156 1497.128906 2780.609375 1501.871094 2776.699219 1508.488281 C 2773.378906 1515.691406 2770.980469 1522.800781 2769.488281 1529.789062 L 2767.949219 1540.199219 C 2766.230469 1560.871094 2772.738281 1580.570312 2787.480469 1599.320312 C 2799.308594 1613.199219 2814.941406 1622.21875 2834.378906 1626.386719 C 2838.359375 1627.011719 2842.289062 1627.386719 2846.191406 1627.519531 C 2853.109375 1627.753906 2859.890625 1627.210938 2866.550781 1625.894531 C 2869.921875 1625.277344 2874.609375 1623.902344 2880.621094 1621.769531 C 2882.261719 1621.324219 2887.769531 1618.175781 2897.140625 1612.328125 C 2905.941406 1605.730469 2912.898438 1598.527344 2918.019531 1590.710938 C 2920.628906 1586.089844 2922.820312 1581.730469 2924.601562 1577.621094 L 2924.621094 1577.621094 L 2924.601562 1577.621094 L 2924.621094 1577.621094 C 2924.609375 1577.621094 2924.609375 1577.621094 2924.601562 1577.621094 C 2926.898438 1572.320312 2928.511719 1567.460938 2929.421875 1563.050781 L 2929.441406 1563.050781 L 2929.421875 1563.039062 L 2929.429688 1563.050781 C 2929.429688 1563.039062 2929.421875 1563.039062 2929.421875 1563.039062 C 2929.429688 1562.988281 2929.441406 1562.929688 2929.449219 1562.878906 L 2929.429688 1562.878906 C 2929.351562 1562.878906 2929.28125 1562.929688 2929.261719 1563 C 2910.128906 1557.929688 2894.808594 1547.488281 2883.28125 1531.660156 C 2879.179688 1525.960938 2875.851562 1519.808594 2873.289062 1513.171875 L 2870.128906 1502.96875 C 2868.441406 1495.96875 2867.71875 1488.691406 2867.949219 1481.160156 C 2868.238281 1476.238281 2868.859375 1471.519531 2869.800781 1466.980469 L 2869.820312 1466.980469 L 2869.800781 1466.980469 L 2869.820312 1466.980469 C 2863.820312 1465.351562 2858.410156 1464.449219 2853.609375 1464.289062 Z M 2924.601562 1577.621094 C 2922.820312 1581.71875 2920.628906 1586.089844 2918.019531 1590.710938 C 2912.898438 1598.527344 2905.941406 1605.730469 2897.140625 1612.328125 C 2887.769531 1618.175781 2882.261719 1621.324219 2880.621094 1621.769531 C 2874.609375 1623.902344 2869.921875 1625.277344 2866.550781 1625.894531 C 2859.890625 1627.210938 2853.109375 1627.753906 2846.191406 1627.519531 C 2842.289062 1627.386719 2838.359375 1627.011719 2834.378906 1626.386719 C 2822.738281 1623.894531 2812.46875 1619.660156 2803.558594 1613.683594 L 2803.539062 1613.683594 C 2797.171875 1630.160156 2795.441406 1645.496094 2798.339844 1659.691406 C 2801.140625 1670.734375 2803.308594 1677.304688 2804.851562 1679.398438 C 2809.339844 1688.605469 2814.699219 1696.441406 2820.929688 1702.914062 C 2832.199219 1714.289062 2846.46875 1721.828125 2863.75 1725.53125 C 2867.851562 1726.085938 2871.828125 1726.425781 2875.699219 1726.558594 C 2888.71875 1727 2900.378906 1725.035156 2910.679688 1720.664062 C 2924.140625 1714.089844 2934.820312 1705.953125 2942.71875 1696.253906 C 2931.410156 1679.503906 2926.519531 1662.007812 2928.03125 1643.765625 C 2928.609375 1636.878906 2930.089844 1629.882812 2932.5 1622.785156 L 2936.789062 1612.054688 C 2940.480469 1605.792969 2943.421875 1601.207031 2945.589844 1598.300781 L 2945.621094 1598.300781 C 2945.589844 1598.289062 2945.570312 1598.269531 2945.558594 1598.246094 C 2943.390625 1595.183594 2941 1592.234375 2938.371094 1589.398438 C 2934.679688 1585.25 2930.101562 1581.328125 2924.640625 1577.628906 L 2924.660156 1577.628906 C 2924.640625 1577.628906 2924.628906 1577.628906 2924.621094 1577.621094 Z M 2968.269531 1579.058594 C 2968.261719 1579.058594 2968.25 1579.070312 2968.238281 1579.070312 L 2968.261719 1579.070312 C 2963.558594 1581.761719 2959.328125 1584.828125 2955.589844 1588.28125 C 2949.648438 1593.96875 2946.480469 1597.128906 2946.089844 1597.753906 L 2946.109375 1597.753906 C 2946.128906 1597.808594 2946.128906 1597.871094 2946.089844 1597.917969 C 2946.011719 1598.023438 2945.929688 1598.132812 2945.839844 1598.25 C 2945.820312 1598.269531 2945.808594 1598.28125 2945.789062 1598.292969 C 2945.761719 1598.253906 2945.730469 1598.214844 2945.710938 1598.175781 L 2945.691406 1598.175781 C 2945.660156 1598.214844 2945.628906 1598.257812 2945.589844 1598.296875 L 2945.609375 1598.300781 L 2945.589844 1598.300781 C 2943.421875 1601.207031 2940.480469 1605.792969 2936.789062 1612.054688 L 2932.5 1622.785156 C 2930.089844 1629.882812 2928.609375 1636.878906 2928.03125 1643.765625 C 2926.519531 1662.007812 2931.410156 1679.503906 2942.71875 1696.253906 L 2942.71875 1696.257812 C 2942.71875 1696.261719 2942.71875 1696.265625 2942.710938 1696.269531 L 2942.730469 1696.269531 C 2944.230469 1698.488281 2945.839844 1700.691406 2947.570312 1702.886719 C 2959.390625 1716.761719 2975.03125 1725.78125 2994.46875 1729.949219 C 2998.449219 1730.574219 3002.378906 1730.949219 3006.269531 1731.082031 C 3013.191406 1731.316406 3019.980469 1730.773438 3026.628906 1729.457031 C 3030.011719 1728.839844 3034.699219 1727.464844 3040.710938 1725.332031 C 3042.351562 1724.886719 3047.851562 1721.738281 3057.21875 1715.890625 C 3066.03125 1709.292969 3072.988281 1702.089844 3078.109375 1694.273438 C 3084.941406 1682.167969 3088.921875 1671.855469 3090.058594 1663.347656 L 3091.179688 1652.285156 C 3091.21875 1646.824219 3090.820312 1641.070312 3089.980469 1635.019531 C 3089.898438 1633.597656 3088.769531 1629.617188 3086.589844 1623.078125 L 3086.570312 1623.078125 C 3080.351562 1626.820312 3076.339844 1628.816406 3074.558594 1629.0625 C 3065.859375 1632.363281 3056.601562 1634.070312 3046.789062 1634.1875 C 3034.070312 1633.726562 3026.609375 1632.828125 3024.429688 1631.492188 C 3015.019531 1628.929688 3006.539062 1625.050781 2998.980469 1619.855469 C 2996.808594 1618.96875 2991.660156 1614.332031 2983.558594 1605.949219 C 2976.679688 1597.195312 2971.589844 1588.230469 2968.289062 1579.058594 Z M 3048.238281 1470.890625 C 3042.039062 1470.839844 3036.101562 1471.320312 3030.429688 1472.351562 L 3030.449219 1472.351562 C 3031.089844 1476.960938 3031.390625 1481.730469 3031.351562 1486.679688 L 3030.230469 1497.738281 C 3025.941406 1519.949219 3014.988281 1537.46875 2997.390625 1550.28125 C 2987.390625 1557.5 2976.5 1562.148438 2964.730469 1564.238281 C 2964.710938 1564.171875 2964.648438 1564.121094 2964.578125 1564.109375 L 2964.539062 1564.109375 C 2964.550781 1564.160156 2964.558594 1564.21875 2964.558594 1564.269531 C 2964.558594 1564.269531 2964.550781 1564.269531 2964.539062 1564.269531 L 2964.558594 1564.28125 C 2965.289062 1569.199219 2966.519531 1574.070312 2968.230469 1578.890625 C 2968.230469 1578.890625 2968.21875 1578.890625 2968.21875 1578.898438 L 2968.230469 1578.898438 C 2968.25 1578.949219 2968.269531 1579 2968.289062 1579.058594 C 2968.289062 1579.058594 2968.28125 1579.058594 2968.269531 1579.058594 L 2968.289062 1579.058594 C 2971.589844 1588.230469 2976.679688 1597.195312 2983.558594 1605.949219 C 2991.660156 1614.332031 2996.808594 1618.96875 2998.980469 1619.855469 C 3006.539062 1625.050781 3015.019531 1628.929688 3024.429688 1631.492188 C 3026.609375 1632.828125 3034.070312 1633.726562 3046.789062 1634.1875 C 3056.601562 1634.070312 3065.859375 1632.363281 3074.558594 1629.0625 C 3076.339844 1628.816406 3080.351562 1626.820312 3086.570312 1623.074219 L 3086.589844 1623.074219 C 3086.589844 1623.070312 3086.589844 1623.066406 3086.589844 1623.0625 L 3086.589844 1623.066406 C 3088.570312 1621.871094 3090.789062 1620.5 3093.21875 1618.953125 C 3101.039062 1613.257812 3107.550781 1606.636719 3112.738281 1599.085938 C 3114.449219 1597.488281 3117.609375 1591.300781 3122.210938 1580.53125 C 3123.820312 1576.058594 3125.109375 1571.351562 3126.058594 1566.410156 L 3127.179688 1555.351562 C 3127.21875 1550.199219 3126.890625 1545.230469 3126.199219 1540.441406 C 3126.308594 1537.828125 3124.429688 1531.050781 3120.539062 1520.109375 C 3116.910156 1511.609375 3111.800781 1503.828125 3105.199219 1496.769531 C 3098.601562 1489.710938 3091.179688 1484.078125 3082.949219 1479.890625 C 3081.148438 1478.390625 3074.511719 1476.058594 3063.039062 1472.871094 C 3058.308594 1471.859375 3053.378906 1471.191406 3048.238281 1470.890625 Z M 2964.699219 1564.25 L 2964.730469 1564.25 Z M 2964.699219 1564.25 "/>
<path fill-rule="nonzero" fill="rgb(0%, 0%, 0%)" fill-opacity="1" d="M 2651.359375 2194.464844 C 2650.929688 2312.515625 2554.878906 2407.863281 2436.828125 2407.429688 C 2318.789062 2407 2223.441406 2310.953125 2223.871094 2192.90625 C 2224.300781 2074.859375 2320.339844 1979.511719 2438.390625 1979.941406 C 2556.441406 1980.371094 2651.789062 2076.417969 2651.359375 2194.464844 M 2640.511719 2194.425781 C 2640.910156 2082.371094 2550.410156 1991.199219 2438.351562 1990.792969 C 2326.300781 1990.382812 2235.128906 2080.890625 2234.71875 2192.945312 C 2234.308594 2305.003906 2324.820312 2396.171875 2436.871094 2396.582031 C 2548.929688 2396.988281 2640.101562 2306.484375 2640.511719 2194.425781 Z M 2640.511719 2194.425781 "/>
<path fill-rule="nonzero" fill="rgb(0%, 0%, 0%)" fill-opacity="1" d="M 2375.269531 2183.003906 L 2279.269531 2183.007812 L 2279.269531 2231.007812 L 2375.269531 2231.003906 Z M 2423.269531 2039.003906 L 2423.269531 2135.003906 L 2471.269531 2135.007812 L 2471.269531 2039.003906 Z M 2543.25 2101.75 C 2540.601562 2101.75 2538.160156 2102.890625 2536.449219 2104.742188 L 2536.441406 2104.742188 L 2506.179688 2135.003906 L 2519.269531 2135.007812 C 2519.269531 2139.371094 2519.269531 2143.734375 2519.269531 2148.097656 L 2549.808594 2117.550781 C 2551.339844 2116.023438 2552.28125 2114.015625 2552.480469 2111.863281 C 2552.960938 2106.773438 2549.21875 2102.261719 2544.128906 2101.789062 C 2543.828125 2101.761719 2543.539062 2101.75 2543.25 2101.75 Z M 2519.269531 2183.007812 C 2519.269531 2199.007812 2519.269531 2215.007812 2519.269531 2231.007812 L 2615.269531 2231.003906 L 2615.269531 2183.007812 Z M 2375.269531 2135.003906 L 2375.269531 2135.007812 L 2519.269531 2135.003906 C 2519.269531 2183.003906 2519.269531 2231.003906 2519.269531 2279.003906 L 2375.269531 2279.003906 L 2375.269531 2135.003906 M 2423.269531 2279.003906 L 2423.269531 2375.007812 L 2471.269531 2375.003906 L 2471.269531 2279.003906 Z M 2375.269531 2265.914062 L 2344.71875 2296.460938 C 2341.109375 2300.074219 2341.109375 2305.9375 2344.71875 2309.550781 C 2346.53125 2311.359375 2348.898438 2312.261719 2351.269531 2312.261719 C 2353.640625 2312.261719 2356 2311.359375 2357.808594 2309.550781 L 2388.359375 2279.003906 L 2375.269531 2279.007812 Z M 2375.269531 2265.914062 "/>
<path fill-rule="nonzero" fill="rgb(0%, 0%, 0%)" fill-opacity="1" d="M 3669.640625 944.320312 C 3669.21875 1062.371094 3573.171875 1157.71875 3455.121094 1157.289062 C 3337.070312 1156.859375 3241.730469 1060.808594 3242.160156 942.761719 C 3242.589844 824.710938 3338.628906 729.371094 3456.679688 729.800781 C 3574.730469 730.230469 3670.070312 826.269531 3669.640625 944.320312 M 3658.789062 944.28125 C 3659.199219 832.230469 3568.691406 741.058594 3456.640625 740.648438 C 3344.589844 740.238281 3253.410156 830.75 3253.011719 942.800781 C 3252.601562 1054.859375 3343.109375 1146.03125 3455.160156 1146.441406 C 3567.21875 1146.839844 3658.390625 1056.339844 3658.789062 944.28125 Z M 3658.789062 944.28125 "/>
<path fill-rule="nonzero" fill="rgb(0%, 0%, 0%)" fill-opacity="1" d="M 3401.53125 978.039062 C 3379.21875 1000.648438 3357.300781 1024.179688 3335.738281 1048.621094 L 3350.488281 1035.730469 C 3371.878906 1021.351562 3392.761719 1006.429688 3413.128906 990.988281 L 3413.148438 990.988281 L 3413.128906 990.988281 L 3413.148438 990.988281 C 3409.71875 987.960938 3406.519531 984.570312 3403.578125 980.800781 C 3402.878906 979.890625 3402.199219 978.96875 3401.550781 978.039062 Z M 3413.140625 990.988281 Z M 3292.578125 912.800781 L 3292.578125 960.800781 L 3392.839844 960.800781 L 3391.148438 955.941406 C 3389.449219 949.820312 3388.589844 943.441406 3388.570312 936.800781 C 3388.789062 928.191406 3390.171875 920.191406 3392.710938 912.800781 L 3392.730469 912.800781 Z M 3484.578125 768.800781 L 3436.570312 768.800781 L 3436.578125 868.929688 C 3443.96875 866.390625 3451.96875 865.019531 3460.570312 864.800781 C 3469.191406 865.019531 3477.191406 866.390625 3484.570312 868.929688 Z M 3628.570312 912.800781 L 3528.429688 912.800781 L 3528.441406 912.800781 C 3530.980469 920.191406 3532.359375 928.191406 3532.570312 936.800781 L 3531.921875 946.570312 C 3531.128906 951.570312 3529.949219 956.308594 3528.390625 960.800781 L 3628.578125 960.800781 Z M 3532.570312 936.800781 L 3531.921875 946.570312 C 3528.808594 966.25 3519.691406 982 3504.570312 993.800781 C 3489.351562 1005.589844 3471.429688 1010.371094 3450.808594 1008.140625 C 3431.121094 1005.03125 3415.378906 995.910156 3403.578125 980.800781 C 3399.800781 975.910156 3396.679688 970.589844 3394.230469 964.820312 L 3391.148438 955.941406 C 3389.449219 949.820312 3388.589844 943.441406 3388.570312 936.800781 C 3389.089844 916.398438 3396.121094 899.429688 3409.660156 885.890625 C 3423.210938 872.339844 3440.179688 865.308594 3460.570312 864.800781 C 3480.96875 865.308594 3497.941406 872.339844 3511.488281 885.890625 C 3525.03125 899.429688 3532.058594 916.398438 3532.570312 936.800781 M 3436.578125 1004.609375 L 3436.578125 1104.800781 L 3484.578125 1104.800781 L 3484.578125 1004.738281 L 3484.558594 1004.738281 C 3477.019531 1007.359375 3468.980469 1008.671875 3460.441406 1008.671875 C 3457.289062 1008.671875 3454.089844 1008.5 3450.808594 1008.140625 C 3445.808594 1007.351562 3441.070312 1006.179688 3436.589844 1004.609375 Z M 3572.570312 835.628906 C 3572.429688 835.628906 3572.199219 835.730469 3571.878906 835.929688 L 3571.859375 835.941406 C 3549.589844 851.820312 3528.46875 867.550781 3508.53125 883.101562 L 3508.558594 883.109375 C 3509.550781 884 3510.53125 884.929688 3511.488281 885.890625 C 3514.199219 888.601562 3516.660156 891.460938 3518.851562 894.449219 C 3521.511719 891.710938 3524.25 888.898438 3527.058594 886 C 3559.011719 852.488281 3574.191406 835.699219 3572.589844 835.628906 Z M 3355.878906 835.929688 L 3356 836.109375 C 3372.019531 856.261719 3387.769531 875.28125 3403.261719 893.179688 C 3405.199219 890.640625 3407.339844 888.210938 3409.660156 885.890625 C 3410.851562 884.699219 3412.058594 883.570312 3413.289062 882.488281 L 3413.300781 882.488281 L 3413.289062 882.488281 L 3413.308594 882.488281 C 3410.980469 880.460938 3408.601562 878.390625 3406.160156 876.269531 C 3387.859375 860.539062 3374.75 849.558594 3366.828125 843.308594 L 3357.378906 835.960938 Z M 3515.230469 983.699219 C 3512.089844 987.339844 3508.539062 990.699219 3504.570312 993.800781 C 3504.261719 994.039062 3503.941406 994.28125 3503.628906 994.519531 L 3503.640625 994.519531 C 3524.75 1013.050781 3546.601562 1031.210938 3569.191406 1049.03125 L 3556.289062 1035.730469 C 3543.011719 1017.96875 3529.320312 1000.621094 3515.25 983.699219 Z M 3515.230469 983.699219 "/>
<path fill-rule="nonzero" fill="rgb(0%, 0%, 0%)" fill-opacity="1" d="M 1637.519531 1566.308594 C 1637.089844 1684.359375 1541.050781 1779.707031 1423 1779.273438 C 1304.949219 1778.84375 1209.601562 1682.796875 1210.03125 1564.75 C 1210.460938 1446.699219 1306.511719 1351.351562 1424.558594 1351.78125 C 1542.609375 1352.210938 1637.949219 1448.261719 1637.519531 1566.308594 M 1626.679688 1566.269531 C 1627.078125 1454.210938 1536.570312 1363.039062 1424.519531 1362.628906 C 1312.460938 1362.21875 1221.289062 1452.730469 1220.878906 1564.789062 C 1220.46875 1676.84375 1310.980469 1768.015625 1423.039062 1768.425781 C 1535.089844 1768.835938 1626.269531 1678.324219 1626.679688 1566.269531 Z M 1626.679688 1566.269531 "/>
<path fill-rule="nonzero" fill="rgb(0%, 0%, 0%)" fill-opacity="1" d="M 1348.359375 1559.871094 C 1348.359375 1579.75 1332.238281 1595.871094 1312.359375 1595.871094 C 1292.480469 1595.871094 1276.359375 1579.75 1276.359375 1559.871094 C 1276.359375 1539.988281 1292.480469 1523.871094 1312.359375 1523.871094 C 1332.238281 1523.871094 1348.359375 1539.988281 1348.359375 1559.871094 Z M 1348.359375 1559.871094 "/>
<path fill-rule="nonzero" fill="rgb(0%, 0%, 0%)" fill-opacity="1" d="M 1564.359375 1559.871094 C 1564.359375 1579.75 1548.238281 1595.871094 1528.359375 1595.871094 C 1508.480469 1595.871094 1492.359375 1579.75 1492.359375 1559.871094 C 1492.359375 1539.988281 1508.480469 1523.871094 1528.359375 1523.871094 C 1548.238281 1523.871094 1564.359375 1539.988281 1564.359375 1559.871094 Z M 1564.359375 1559.871094 "/>
<path fill-rule="nonzero" fill="rgb(0%, 0%, 0%)" fill-opacity="1" d="M 1637.519531 2194.46875 C 1637.089844 2312.515625 1541.050781 2407.863281 1423 2407.433594 C 1304.949219 2407.003906 1209.601562 2310.957031 1210.03125 2192.90625 C 1210.460938 2074.859375 1306.511719 1979.511719 1424.558594 1979.941406 C 1542.609375 1980.371094 1637.960938 2076.417969 1637.519531 2194.46875 M 1626.679688 2194.425781 C 1627.078125 2082.371094 1536.570312 1991.199219 1424.519531 1990.792969 C 1312.460938 1990.382812 1221.289062 2080.890625 1220.878906 2192.945312 C 1220.46875 2305.003906 1310.980469 2396.175781 1423.039062 2396.582031 C 1535.089844 2396.992188 1626.269531 2306.484375 1626.679688 2194.425781 Z M 1626.679688 2194.425781 "/>
<path fill-rule="nonzero" fill="rgb(0%, 0%, 0%)" fill-opacity="1" d="M 1501.550781 2259.570312 C 1495.480469 2267.582031 1488.011719 2274.757812 1479.140625 2281.097656 C 1460.199219 2294.539062 1438.421875 2301.257812 1413.820312 2301.257812 C 1409.171875 2301.257812 1404.410156 2301.019531 1399.558594 2300.539062 C 1370.429688 2296.316406 1347.128906 2283.960938 1329.660156 2263.476562 C 1329.171875 2262.894531 1328.691406 2262.308594 1328.210938 2261.71875 L 1284.75 2317.621094 L 1284.761719 2317.621094 C 1312.691406 2349.785156 1348.820312 2369.058594 1393.171875 2375.449219 C 1400 2376.09375 1406.710938 2376.414062 1413.28125 2376.414062 C 1414.210938 2376.414062 1415.128906 2376.410156 1416.058594 2376.394531 C 1455.53125 2375.847656 1490.300781 2363.589844 1520.359375 2339.621094 C 1530.121094 2331.789062 1538.78125 2323.261719 1546.371094 2314.046875 L 1546.378906 2314.046875 L 1546.371094 2314.046875 L 1546.378906 2314.046875 L 1501.558594 2259.570312 Z M 1411.648438 2034.773438 C 1363.238281 2036.667969 1323.179688 2053.914062 1291.460938 2086.519531 C 1288.011719 2090.066406 1284.738281 2093.710938 1281.660156 2097.445312 L 1281.679688 2097.445312 L 1325 2150.085938 C 1328.898438 2144.6875 1333.460938 2139.605469 1338.671875 2134.835938 C 1358.710938 2116.480469 1383.828125 2106.953125 1414.019531 2106.253906 C 1444.210938 2106.953125 1469.328125 2116.480469 1489.378906 2134.835938 C 1493.839844 2138.929688 1497.828125 2143.25 1501.339844 2147.800781 L 1543.308594 2093.824219 L 1543.320312 2093.828125 L 1543.308594 2093.824219 L 1543.328125 2093.824219 C 1540.148438 2090.171875 1536.78125 2086.621094 1533.230469 2083.171875 C 1500.628906 2051.457031 1460.101562 2035.324219 1411.648438 2034.773438 Z M 1520.589844 2203.84375 L 1519.621094 2217.085938 C 1515.011719 2243.761719 1501.519531 2265.101562 1479.140625 2281.097656 C 1456.621094 2297.078125 1430.089844 2303.558594 1399.558594 2300.539062 C 1370.429688 2296.316406 1347.128906 2283.960938 1329.660156 2263.476562 C 1324.058594 2256.851562 1319.449219 2249.636719 1315.828125 2241.828125 L 1311.261719 2229.785156 C 1308.75 2221.5 1307.480469 2212.851562 1307.460938 2203.84375 C 1308.21875 2176.195312 1318.621094 2153.195312 1338.671875 2134.835938 C 1358.710938 2116.480469 1383.828125 2106.953125 1414.019531 2106.253906 C 1444.210938 2106.953125 1469.328125 2116.480469 1489.378906 2134.835938 C 1509.429688 2153.195312 1519.828125 2176.195312 1520.589844 2203.84375 Z M 1520.589844 2203.84375 "/>
<path fill-rule="nonzero" fill="rgb(0%, 0%, 0%)" fill-opacity="1" d="M 3665.179688 2194.464844 C 3664.75 2312.511719 3568.699219 2407.859375 3450.648438 2407.429688 C 3332.609375 2407 3237.261719 2310.953125 3237.691406 2192.90625 C 3238.121094 2074.859375 3334.160156 1979.511719 3452.210938 1979.941406 C 3570.261719 1980.371094 3665.609375 2076.417969 3665.179688 2194.464844 M 3654.320312 2194.425781 C 3654.730469 2082.371094 3564.230469 1991.199219 3452.171875 1990.792969 C 3340.121094 1990.382812 3248.949219 2080.890625 3248.539062 2192.945312 C 3248.128906 2305 3338.640625 2396.171875 3450.691406 2396.578125 C 3562.75 2396.988281 3653.921875 2306.480469 3654.320312 2194.425781 Z M 3654.320312 2194.425781 "/>
<path fill-rule="nonzero" fill="rgb(0%, 0%, 0%)" fill-opacity="1" d="M 3452.488281 2035.304688 C 3420.601562 2071.464844 3388.710938 2107.621094 3364.710938 2151.621094 C 3340.710938 2195.625 3324.601562 2247.464844 3308.488281 2299.304688 C 3354.878906 2311.304688 3401.269531 2323.304688 3449.269531 2323.304688 C 3497.269531 2323.304688 3546.878906 2311.304688 3596.488281 2299.304688 C 3584.488281 2249.304688 3572.488281 2199.304688 3548.488281 2155.304688 C 3524.488281 2111.304688 3488.488281 2073.304688 3452.488281 2035.304688 Z M 3452.488281 2035.304688 "/>
<path fill-rule="nonzero" fill="rgb(0%, 0%, 0%)" fill-opacity="1" d="M 1130.050781 2194.46875 C 1129.621094 2312.515625 1033.570312 2407.863281 915.523438 2407.433594 C 797.472656 2407.003906 702.125 2310.957031 702.554688 2192.910156 C 702.984375 2074.859375 799.03125 1979.511719 917.082031 1979.941406 C 1035.128906 1980.371094 1130.480469 2076.417969 1130.050781 2194.46875 M 1119.199219 2194.429688 C 1119.609375 2082.371094 1029.101562 1991.199219 917.042969 1990.792969 C 804.984375 1990.382812 713.8125 2080.890625 713.402344 2192.949219 C 712.996094 2305.003906 803.503906 2396.175781 915.5625 2396.585938 C 1027.621094 2396.992188 1118.789062 2306.484375 1119.199219 2194.429688 Z M 1119.199219 2194.429688 "/>
<path fill-rule="nonzero" fill="rgb(0%, 0%, 0%)" fill-opacity="1" d="M 921.839844 2026.929688 L 877.230469 2114.871094 L 789.03125 2114.359375 L 832.621094 2202.8125 L 788.011719 2290.757812 L 876.207031 2291.265625 L 919.796875 2379.71875 L 964.40625 2291.777344 L 1052.601562 2292.289062 L 1009.019531 2203.835938 L 1053.628906 2115.894531 L 965.425781 2115.382812 Z M 921.148438 2145.949219 L 928.933594 2146.519531 C 944.601562 2149.089844 957.105469 2156.429688 966.441406 2168.527344 C 975.765625 2180.710938 979.496094 2195.015625 977.625 2211.441406 C 975.050781 2227.109375 967.714844 2239.613281 955.613281 2248.949219 C 943.433594 2258.273438 929.128906 2262.003906 912.703125 2260.132812 C 897.03125 2257.558594 884.527344 2250.222656 875.195312 2238.121094 C 865.867188 2225.9375 862.140625 2211.636719 864.011719 2195.210938 C 866.585938 2179.539062 873.921875 2167.035156 886.019531 2157.703125 C 889.929688 2154.710938 894.1875 2152.253906 898.789062 2150.328125 L 905.886719 2147.910156 C 910.765625 2146.585938 915.851562 2145.933594 921.148438 2145.949219 Z M 921.148438 2145.949219 "/>
<path fill-rule="nonzero" fill="rgb(0%, 0%, 0%)" fill-opacity="1" d="M 2144.449219 2194.464844 C 2144.019531 2312.515625 2047.96875 2407.863281 1929.921875 2407.433594 C 1811.871094 2407 1716.519531 2310.957031 1716.949219 2192.90625 C 1717.378906 2074.859375 1813.429688 1979.511719 1931.480469 1979.941406 C 2049.53125 1980.371094 2144.878906 2076.417969 2144.449219 2194.464844 M 2133.589844 2194.425781 C 2134 2082.371094 2043.5 1991.199219 1931.441406 1990.792969 C 1819.378906 1990.382812 1728.210938 2080.890625 1727.808594 2192.945312 C 1727.390625 2305.003906 1817.898438 2396.171875 1929.960938 2396.582031 C 2042.019531 2396.992188 2133.191406 2306.484375 2133.589844 2194.425781 Z M 2133.589844 2194.425781 "/>
<path fill-rule="nonzero" fill="rgb(0%, 0%, 0%)" fill-opacity="1" d="M 1855.601562 2220.882812 C 1855.601562 2240.765625 1839.480469 2256.882812 1819.601562 2256.882812 C 1799.71875 2256.882812 1783.601562 2240.765625 1783.601562 2220.882812 C 1783.601562 2201 1799.71875 2184.882812 1819.601562 2184.882812 C 1839.480469 2184.882812 1855.601562 2201 1855.601562 2220.882812 Z M 1855.601562 2220.882812 "/>
<path fill-rule="nonzero" fill="rgb(0%, 0%, 0%)" fill-opacity="1" d="M 1951.601562 2076.882812 C 1951.601562 2096.765625 1935.480469 2112.882812 1915.601562 2112.882812 C 1895.71875 2112.882812 1879.601562 2096.765625 1879.601562 2076.882812 C 1879.601562 2057 1895.71875 2040.882812 1915.601562 2040.882812 C 1935.480469 2040.882812 1951.601562 2057 1951.601562 2076.882812 Z M 1951.601562 2076.882812 "/>
<path fill-rule="nonzero" fill="rgb(0%, 0%, 0%)" fill-opacity="1" d="M 2047.601562 2220.882812 C 2047.601562 2240.765625 2031.480469 2256.882812 2011.601562 2256.882812 C 1991.71875 2256.882812 1975.601562 2240.765625 1975.601562 2220.882812 C 1975.601562 2201 1991.71875 2184.882812 2011.601562 2184.882812 C 2031.480469 2184.882812 2047.601562 2201 2047.601562 2220.882812 Z M 2047.601562 2220.882812 "/>
<path fill-rule="nonzero" fill="rgb(0%, 0%, 0%)" fill-opacity="1" d="M 3158.269531 2194.464844 C 3157.839844 2312.511719 3061.789062 2407.859375 2943.738281 2407.429688 C 2825.699219 2407 2730.351562 2310.953125 2730.78125 2192.90625 C 2731.210938 2074.859375 2827.25 1979.511719 2945.300781 1979.941406 C 3063.351562 1980.371094 3158.699219 2076.417969 3158.269531 2194.464844 M 3147.421875 2194.425781 C 3147.820312 2082.371094 3057.320312 1991.199219 2945.261719 1990.792969 C 2833.210938 1990.382812 2742.039062 2080.890625 2741.628906 2192.945312 C 2741.21875 2305 2831.730469 2396.171875 2943.78125 2396.582031 C 3055.839844 2396.988281 3147.011719 2306.480469 3147.421875 2194.425781 Z M 3147.421875 2194.425781 "/>
<path fill-rule="nonzero" fill="rgb(0%, 0%, 0%)" fill-opacity="1" d="M 2861 2186.785156 C 2865.269531 2192.101562 2867.949219 2196.953125 2869.011719 2201.339844 C 2869.941406 2203.316406 2870.320312 2206.175781 2870.148438 2209.910156 L 2886.460938 2193.601562 L 2861.011719 2186.785156 Z M 3000.710938 2079.355469 L 2945.25 2134.816406 L 2959.589844 2188.351562 L 2979.359375 2168.589844 L 2986.570312 2161.371094 L 3034.640625 2113.296875 Z M 2979.191406 2168.757812 L 2959.589844 2188.351562 L 2966.761719 2215.121094 L 2967.570312 2215.335938 L 3042.519531 2235.421875 L 3054.949219 2189.054688 Z M 2823.121094 2126.9375 L 2810.699219 2173.304688 L 2861.011719 2186.785156 L 2886.460938 2193.601562 L 2886.460938 2193.605469 L 2881.371094 2192.238281 L 2881.371094 2192.242188 L 2886.460938 2193.601562 L 2906.039062 2174.019531 L 2906.050781 2174.019531 L 2906.039062 2174.019531 L 2906.058594 2174.019531 C 2903.660156 2165.09375 2901.269531 2156.167969 2898.878906 2147.242188 L 2898.890625 2147.246094 L 2898.878906 2147.238281 L 2898.398438 2147.109375 L 2883.679688 2143.167969 Z M 2894.601562 2131.308594 C 2892.71875 2135.21875 2890.75 2137.878906 2888.699219 2139.289062 C 2887.21875 2140.6875 2885.539062 2141.980469 2883.671875 2143.167969 L 2883.679688 2143.167969 L 2898.878906 2147.238281 C 2897.460938 2141.929688 2896.039062 2136.617188 2894.609375 2131.308594 Z M 2878.578125 2071.480469 L 2924.949219 2059.058594 L 2987.058594 2290.878906 L 2940.699219 2303.304688 C 2919.988281 2226.027344 2899.289062 2148.753906 2878.578125 2071.480469 M 2942.140625 2123.21875 L 2945.25 2134.816406 L 2953.480469 2126.585938 L 2953.488281 2126.585938 L 2953.480469 2126.585938 C 2951.671875 2126.460938 2949.890625 2126.171875 2948.160156 2125.722656 C 2946.089844 2125.066406 2944.089844 2124.234375 2942.148438 2123.21875 Z M 2986.570312 2161.371094 L 2979.191406 2168.757812 L 2989.808594 2171.601562 C 2988.660156 2169.492188 2987.839844 2167.425781 2987.359375 2165.398438 C 2987.011719 2164.078125 2986.75 2162.734375 2986.589844 2161.371094 Z M 2966.761719 2215.121094 L 2972.449219 2236.355469 C 2973.800781 2231.867188 2976.171875 2228.082031 2979.570312 2224.996094 C 2981.628906 2223.347656 2984.101562 2221.867188 2986.980469 2220.542969 L 2987 2220.546875 L 2986.980469 2220.542969 L 2987 2220.542969 Z M 2920.390625 2227.554688 L 2899.820312 2248.125 C 2900.039062 2248.105469 2900.230469 2248.097656 2900.398438 2248.097656 C 2900.488281 2248.097656 2900.570312 2248.101562 2900.648438 2248.105469 C 2903.519531 2247.597656 2906.25 2247.347656 2908.851562 2247.347656 C 2910.039062 2247.347656 2911.210938 2247.398438 2912.351562 2247.507812 L 2918.050781 2248.734375 C 2921.378906 2249.835938 2924.539062 2251.644531 2927.53125 2254.160156 C 2925.160156 2245.292969 2922.78125 2236.425781 2920.398438 2227.554688 Z M 2906.039062 2174.019531 L 2886.460938 2193.601562 L 2831 2249.0625 L 2864.941406 2283.003906 L 2920.390625 2227.558594 L 2920.390625 2227.554688 L 2920.398438 2227.558594 C 2915.621094 2209.710938 2910.839844 2191.863281 2906.058594 2174.019531 Z M 2906.039062 2174.019531 "/>
<path fill-rule="nonzero" fill="rgb(0%, 0%, 0%)" fill-opacity="1" d="M 3667.410156 1566.308594 C 3666.980469 1684.355469 3570.929688 1779.703125 3452.890625 1779.273438 C 3334.839844 1778.839844 3239.488281 1682.796875 3239.921875 1564.75 C 3240.351562 1446.699219 3336.398438 1351.351562 3454.441406 1351.789062 C 3572.488281 1352.210938 3667.839844 1448.261719 3667.410156 1566.308594 M 3656.558594 1566.269531 C 3656.96875 1454.210938 3566.460938 1363.039062 3454.410156 1362.628906 C 3342.351562 1362.21875 3251.179688 1452.730469 3250.769531 1564.789062 C 3250.359375 1676.84375 3340.871094 1768.011719 3452.929688 1768.421875 C 3564.980469 1768.832031 3656.148438 1678.324219 3656.558594 1566.269531 Z M 3656.558594 1566.269531 "/>
<path fill-rule="nonzero" fill="rgb(0%, 0%, 0%)" fill-opacity="1" d="M 3655.238281 1587.871094 L 3252.078125 1587.878906 L 3252.058594 1587.878906 C 3251.878906 1587.878906 3251.699219 1587.960938 3251.570312 1588.101562 C 3251.449219 1588.238281 3251.390625 1588.429688 3251.410156 1588.609375 C 3262.828125 1689.847656 3348.558594 1768.699219 3452.921875 1769.078125 C 3453.160156 1769.082031 3453.441406 1769.082031 3453.679688 1769.082031 C 3558.210938 1769.082031 3644.449219 1690.230469 3655.921875 1588.609375 L 3655.929688 1588.539062 C 3655.929688 1588.171875 3655.628906 1587.871094 3655.269531 1587.871094 Z M 3655.238281 1587.871094 "/>
<path fill-rule="nonzero" fill="rgb(0%, 0%, 0%)" fill-opacity="1" d="M 3453.648438 1362.171875 C 3358.351562 1362.171875 3278.261719 1427.789062 3256.28125 1516.421875 C 3256.25 1516.558594 3256.28125 1516.710938 3256.359375 1516.820312 C 3256.449219 1516.929688 3256.589844 1516.988281 3256.730469 1516.988281 L 3650.609375 1516.988281 C 3650.75 1516.988281 3650.878906 1516.929688 3650.96875 1516.820312 C 3651.058594 1516.710938 3651.089844 1516.558594 3651.050781 1516.421875 C 3629.160156 1428.121094 3549.53125 1362.519531 3454.410156 1362.171875 C 3454.140625 1362.171875 3453.921875 1362.171875 3453.648438 1362.171875 Z M 3453.648438 1362.171875 "/>
</svg>
