<?xml version="1.0" encoding="utf-8"?>
<svg id="master-artboard" viewBox="0 0 2400 2400" version="1.1" xmlns="http://www.w3.org/2000/svg" x="0px" y="0px" style="enable-background:new 0 0 2400 2400;" width="2400px" height="2400px">

<path d="M 0 0 H 2400 V 2400 H 0 V 0 Z" class="st0" style="fill: rgb(130, 202, 156);" transform="matrix(1, 0, 0, 1, 0, 0)"/>
<g transform="matrix(1, 0, 0, 1, 0, 0)">
		<path d="M2150,740.1c-55.2,0-100,44.8-100,100s44.8,100,100,100s100-44.8,100-100S2205.2,740.1,2150,740.1z M2165,840.1v77.6h-20&#10;&#9;&#9;&#9;v-57.6h-72.6v-20h52.6v-77.6h20v57.6h82.6v20H2165z"/>
		<path d="M2150,980.1c-55.2,0-100,44.8-100,100s44.8,100,100,100s100-44.8,100-100S2205.2,980.1,2150,980.1z M2128.7,1137&#10;&#9;&#9;&#9;c-2.8,4.8-8.9,6.4-13.7,3.7c-4.8-2.8-6.4-8.9-3.7-13.7c2.8-4.8,8.9-6.4,13.7-3.7C2129.8,1126.1,2131.4,1132.3,2128.7,1137z&#10;&#9;&#9;&#9; M2125,1036.8c-4.8,2.8-10.9,1.1-13.7-3.7c-2.8-4.8-1.1-10.9,3.7-13.7c4.8-2.8,10.9-1.1,13.7,3.7&#10;&#9;&#9;&#9;C2131.4,1027.9,2129.8,1034,2125,1036.8z M2210,1090.1c-5.5,0-10-4.5-10-10c0-5.5,4.5-10,10-10c5.5,0,10,4.5,10,10&#10;&#9;&#9;&#9;C2220,1085.6,2215.5,1090.1,2210,1090.1z"/>
		<path d="M2150,1220.2c-55.2,0-100,44.8-100,100s44.8,100,100,100s100-44.8,100-100S2205.2,1220.2,2150,1220.2z M2164.9,1335.1&#10;&#9;&#9;&#9;v59.7c-4.8,1-9.8,1.5-14.9,1.5c-42,0-76-34-76-76c0-5.1,0.5-10.1,1.5-14.9h59.7v-59.7c4.8-1,9.8-1.5,14.9-1.5c42,0,76,34,76,76&#10;&#9;&#9;&#9;c0,5.1-0.5,10.1-1.5,14.9H2164.9z"/>
		<path d="M2150,1459.9c-55.2,0-100,44.8-100,100s44.8,100,100,100s100-44.8,100-100S2205.2,1459.9,2150,1459.9z M2222.1,1609.9&#10;&#9;&#9;&#9;l-64.9,37.5c-4,2.3-10.5,2.3-14.4,0l-64.9-37.5c-4-2.3-7.2-7.9-7.2-12.5v-74.9c0-4.6,3.2-10.2,7.2-12.5l64.9-37.5&#10;&#9;&#9;&#9;c4-2.3,10.5-2.3,14.4,0l64.9,37.5c4,2.3,7.2,7.9,7.2,12.5l0,74.9C2229.3,1602,2226.1,1607.6,2222.1,1609.9z"/>
	</g><g transform="matrix(1, 0, 0, 1, 0, 0)">
			<path d="M348.9,825.1c-7.2-48.1-48.8-85-98.9-85s-91.6,36.9-98.9,85H348.9z"/>
			<path d="M151.1,855.1c7.2,48.1,48.8,85,98.9,85s91.6-36.9,98.9-85H151.1z"/>
		</g><path d="M340,1090.1c-5.5,0-10-4.5-10-10c0-5.5,4.5-10,10-10h9.5c-5-50.5-47.7-90-99.5-90s-94.5,39.5-99.5,90h10.6&#10;&#9;&#9;&#9;c5.5,0,10,4.5,10,10c0,5.5-4.5,10-10,10h-10.6c5,50.5,47.7,90,99.5,90s94.5-39.5,99.5-90H340z" transform="matrix(1, 0, 0, 1, 0, 0)"/><path d="M330,1320.2c0-5.5,4.5-10,10-10h9.5c-4.7-47.2-42.3-84.8-89.5-89.5v9.5c0,5.5-4.5,10-10,10c-5.5,0-10-4.5-10-10v-9.5&#10;&#9;&#9;&#9;c-47.2,4.7-84.8,42.3-89.5,89.5h10.6c5.5,0,10,4.5,10,10c0,5.5-4.5,10-10,10h-10.6c4.7,47.2,42.3,84.8,89.5,89.5v-9.5&#10;&#9;&#9;&#9;c0-5.5,4.5-10,10-10c5.5,0,10,4.5,10,10v9.5c47.2-4.7,84.8-42.3,89.5-89.5H340C334.5,1330.2,330,1325.7,330,1320.2z" transform="matrix(1, 0, 0, 1, 0, 0)"/><path d="M250,1459.9c-55.2,0-100,44.8-100,100s44.8,100,100,100s100-44.8,100-100S305.2,1459.9,250,1459.9z M316.8,1577.2&#10;&#9;&#9;&#9;c-6.2,24.3-25.3,43.4-49.6,49.6v-18.5h-34.5v18.5c-24.3-6.2-43.4-25.3-49.6-49.6h18.5v-34.5h-18.5c6.2-24.3,25.3-43.4,49.6-49.6&#10;&#9;&#9;&#9;v18.5h34.5v-18.5c24.3,6.2,43.4,25.3,49.6,49.6h-18.5v34.5H316.8z" transform="matrix(1, 0, 0, 1, 0, 0)"/><path d="M521.4,740.1c-55.2,0-100,44.8-100,100s44.8,100,100,100c55.2,0,100-44.8,100-100S576.7,740.1,521.4,740.1z M446.4,855.1&#10;&#9;&#9;&#9;v-30h150v30H446.4z" transform="matrix(1, 0, 0, 1, 0, 0)"/><path d="M571.4,1090.1v-20h49.5c-5-50.5-47.7-90-99.5-90c-51.9,0-94.5,39.5-99.5,90h49.5v20h-49.5c5,50.5,47.7,90,99.5,90&#10;&#9;&#9;&#9;c51.9,0,94.5-39.5,99.5-90H571.4z" transform="matrix(1, 0, 0, 1, 0, 0)"/><path d="M591.4,1345.2v-50h26.8c-9-35.1-36.7-62.8-71.8-71.8v26.9h-50v-26.9c-35.1,9-62.8,36.7-71.8,71.8h26.8v50h-26.8&#10;&#9;&#9;&#9;c9,35.1,36.7,62.8,71.8,71.9v-26.8h50v26.8c35.1-9,62.8-36.7,71.8-71.9H591.4z" transform="matrix(1, 0, 0, 1, 0, 0)"/><path d="M521.4,1459.9c-55.2,0-100,44.8-100,100s44.8,100,100,100c55.2,0,100-44.8,100-100S576.7,1459.9,521.4,1459.9z&#10;&#9;&#9;&#9; M564.2,1613.9l-9.6-16.6l-17.3,10l9.6,16.6c-7.9,3.1-16.4,4.9-25.4,4.9c-9,0-17.5-1.7-25.4-4.9l9.6-16.6l-17.3-10l-9.6,16.6&#10;&#9;&#9;&#9;c-13.5-10.7-22.9-26.2-25.4-44h19.2v-20h-19.2c2.6-17.8,12-33.4,25.4-44l9.6,16.6l17.3-10l-9.6-16.6c7.9-3.1,16.5-4.9,25.4-4.9&#10;&#9;&#9;&#9;c9,0,17.5,1.7,25.4,4.9l-9.6,16.6l17.3,10l9.6-16.6c13.5,10.7,22.8,26.2,25.4,44h-19.2v20h19.2&#10;&#9;&#9;&#9;C587,1587.7,577.6,1603.3,564.2,1613.9z" transform="matrix(1, 0, 0, 1, 0, 0)"/><path d="M807.9,741.2v83.9h83.9C885.2,781.9,851.1,747.7,807.9,741.2z M777.9,939v-83.9H694C700.5,898.3,734.6,932.5,777.9,939z&#10;&#9;&#9;&#9; M807.9,939c43.2-6.5,77.4-40.7,83.9-83.9h-83.9V939z M694,825.1h83.9v-83.9C734.6,747.7,700.5,781.9,694,825.1z" transform="matrix(1, 0, 0, 1, 0, 0)"/><path d="M792.9,980.1c-55.2,0-100,44.8-100,100s44.8,100,100,100s100-44.8,100-100S848.1,980.1,792.9,980.1z M732.9,1090.1&#10;&#9;&#9;&#9;c-5.5,0-10-4.5-10-10c0-5.5,4.5-10,10-10c5.5,0,10,4.5,10,10C742.9,1085.6,738.4,1090.1,732.9,1090.1z M852.9,1090.1&#10;&#9;&#9;&#9;c-5.5,0-10-4.5-10-10c0-5.5,4.5-10,10-10c5.5,0,10,4.5,10,10C862.9,1085.6,858.4,1090.1,852.9,1090.1z" transform="matrix(1, 0, 0, 1, 0, 0)"/><path d="M792.9,1220.2c-55.2,0-100,44.8-100,100s44.8,100,100,100s100-44.8,100-100S848.1,1220.2,792.9,1220.2z M836.5,1353.7&#10;&#9;&#9;&#9;h-87.4c-5,0-7.1-3.6-4.6-7.9l43.7-75.7c2.5-4.4,6.6-4.4,9.2,0l43.7,75.7C843.6,1350.1,841.6,1353.7,836.5,1353.7z" transform="matrix(1, 0, 0, 1, 0, 0)"/><path d="M792.9,1459.9c-55.2,0-100,44.8-100,100s44.8,100,100,100s100-44.8,100-100S848.1,1459.9,792.9,1459.9z M858.8,1579.7&#10;&#9;&#9;&#9;c-3.1,10.4-8.6,19.8-15.9,27.5c-6.1-7.7-17-9.9-25.7-4.9c-8.7,5-12.2,15.6-8.6,24.7c-5.1,1.2-10.4,1.9-15.9,1.9&#10;&#9;&#9;&#9;c-5.5,0-10.8-0.7-15.9-1.9c3.6-9.1,0.1-19.7-8.6-24.7c-8.7-5-19.6-2.7-25.7,4.9c-7.3-7.7-12.8-17.1-15.9-27.5&#10;&#9;&#9;&#9;c9.7-1.4,17.1-9.7,17.1-19.8c0-10.1-7.4-18.4-17.1-19.8c3.1-10.4,8.6-19.8,15.9-27.5c6.1,7.7,17,9.9,25.7,4.9&#10;&#9;&#9;&#9;c8.7-5,12.2-15.6,8.6-24.7c5.1-1.2,10.4-1.9,15.9-1.9c5.5,0,10.8,0.7,15.9,1.9c-3.6,9.1-0.1,19.7,8.6,24.7&#10;&#9;&#9;&#9;c8.7,5,19.6,2.7,25.7-4.9c7.3,7.7,12.8,17.1,15.9,27.5c-9.7,1.4-17.1,9.7-17.1,19.8C841.7,1570,849.2,1578.3,858.8,1579.7z" transform="matrix(1, 0, 0, 1, 0, 0)"/><path d="M1064.3,740.1c-55.2,0-100,44.8-100,100s44.8,100,100,100s100-44.8,100-100S1119.5,740.1,1064.3,740.1z M1079.3,855.1v60&#10;&#9;&#9;&#9;h-30v-60h-60v-30h60v-60h30v60h60v30H1079.3z" transform="matrix(1, 0, 0, 1, 0, 0)"/><path d="M1064.3,980.1c-55.2,0-100,44.8-100,100s44.8,100,100,100s100-44.8,100-100S1119.5,980.1,1064.3,980.1z M1014.3,1100.1&#10;&#9;&#9;&#9;c-11,0-20-9-20-20s9-20,20-20c11,0,20,9,20,20S1025.3,1100.1,1014.3,1100.1z M1114.3,1100.1c-11,0-20-9-20-20s9-20,20-20&#10;&#9;&#9;&#9;c11,0,20,9,20,20S1125.3,1100.1,1114.3,1100.1z" transform="matrix(1, 0, 0, 1, 0, 0)"/><path d="M1064.3,1220.2c-55.2,0-100,44.8-100,100s44.8,100,100,100s100-44.8,100-100S1119.5,1220.2,1064.3,1220.2z M1104.2,1350.2&#10;&#9;&#9;&#9;c0,5.5-4.5,10-10,10h-59.9c-5.5,0-10-4.5-10-10v-59.9c0-5.5,4.5-10,10-10h59.9c5.5,0,10,4.5,10,10V1350.2z" transform="matrix(1, 0, 0, 1, 0, 0)"/><path d="M1130.9,1536.1c-4.6-14.3,2-29.6,15.1-36.1c-12.6-17.7-30.8-31.2-52-37.8c-2.2,14.4-14.6,25.5-29.7,25.5&#10;&#9;&#9;&#9;s-27.5-11.1-29.7-25.5c-21.2,6.6-39.4,20.1-52,37.8c13.1,6.5,19.7,21.8,15.1,36.1c-4.6,14.3-19,22.7-33.4,20.3c0,0.4,0,0.9,0,1.3&#10;&#9;&#9;&#9;c0,22.4,7.4,43.1,19.9,59.8c10.2-10.4,26.8-12,39-3.2c12.2,8.8,15.7,25.1,9,38.1c10.1,3.4,20.9,5.3,32.1,5.3&#10;&#9;&#9;&#9;c11.2,0,22.1-1.9,32.1-5.3c-6.7-13-3.2-29.2,9-38.1c12.2-8.8,28.8-7.2,39,3.2c12.5-16.7,19.9-37.4,19.9-59.8c0-0.4,0-0.9,0-1.3&#10;&#9;&#9;&#9;C1149.9,1558.8,1135.5,1550.4,1130.9,1536.1z" transform="matrix(1, 0, 0, 1, 0, 0)"/><path d="M1335.7,740.1c-55.2,0-100,44.8-100,100s44.8,100,100,100s100-44.8,100-100S1390.9,740.1,1335.7,740.1z M1369.3,855.1&#10;&#9;&#9;&#9;v18.6h-18.6v41.4h-30v-41.4h-18.6v-18.6h-41.4v-30h41.4v-18.6h18.6v-41.4h30v41.4h18.6v18.6h41.4v30H1369.3z" transform="matrix(1, 0, 0, 1, 0, 0)"/><path d="M1374,1113.5l10-17.3l42.9,24.8c5.7-12.5,8.8-26.5,8.8-41.1c0-51.9-39.5-94.5-90-99.5v49.5h-20v-49.5&#10;&#9;&#9;&#9;c-50.5,5-90,47.7-90,99.5c0,14.7,3.2,28.6,8.8,41.1l42.9-24.8l10,17.3l-42.9,24.8c18.2,25.2,47.7,41.6,81.2,41.6&#10;&#9;&#9;&#9;s63-16.4,81.2-41.6L1374,1113.5z" transform="matrix(1, 0, 0, 1, 0, 0)"/><path d="M1335.7,1220.2c-55.2,0-100,44.8-100,100s44.8,100,100,100s100-44.8,100-100S1390.9,1220.2,1335.7,1220.2z M1381,1323.9&#10;&#9;&#9;&#9;l-19.4,33.7c-1.2,2.1-4.1,3.7-6.5,3.7h-38.9c-2.4,0-5.3-1.7-6.5-3.7l-19.4-33.7c-1.2-2.1-1.2-5.4,0-7.5l19.4-33.7&#10;&#9;&#9;&#9;c1.2-2.1,4.1-3.7,6.5-3.7h38.9c2.4,0,5.3,1.7,6.5,3.7l19.4,33.7C1382.2,1318.5,1382.2,1321.9,1381,1323.9z" transform="matrix(1, 0, 0, 1, 0, 0)"/><path d="M1415.7,1559.9c0-10.4,7.9-18.9,18-19.9c-2.6-12.8-7.6-24.8-14.6-35.3c-7.9,6.4-19.5,6-26.8-1.3s-7.8-18.9-1.3-26.8&#10;&#9;&#9;&#9;c-10.5-7-22.5-12.1-35.3-14.6c-1,10.1-9.5,18-19.9,18c-10.4,0-18.9-7.9-19.9-18c-12.8,2.6-24.8,7.6-35.3,14.6&#10;&#9;&#9;&#9;c6.4,7.9,6,19.5-1.3,26.8c-7.3,7.3-18.9,7.8-26.8,1.3c-7,10.5-12.1,22.5-14.6,35.3c10.1,1,18,9.5,18,19.9c0,10.4-7.9,18.9-18,19.9&#10;&#9;&#9;&#9;c2.6,12.8,7.6,24.8,14.6,35.3c7.9-6.4,19.5-6,26.8,1.3c7.3,7.3,7.8,18.9,1.3,26.8c10.5,7,22.5,12.1,35.3,14.6&#10;&#9;&#9;&#9;c1-10.1,9.5-18,19.9-18c10.4,0,18.9,7.9,19.9,18c12.8-2.6,24.8-7.6,35.3-14.6c-6.4-7.9-6-19.5,1.3-26.8c7.3-7.3,18.9-7.8,26.8-1.3&#10;&#9;&#9;&#9;c7-10.5,12.1-22.5,14.6-35.3C1423.6,1578.8,1415.7,1570.3,1415.7,1559.9z" transform="matrix(1, 0, 0, 1, 0, 0)"/><g transform="matrix(1, 0, 0, 1, 0, 0)">
			<path d="M1851.5,825.1l12-12v-48h30v48l12,12h71.8c-7.2-48.1-48.8-85-98.9-85s-91.6,36.9-98.9,85H1851.5z"/>
			<path d="M1977.5,855.1h-71.8l-12,12v48h-30v-48l-12-12h-71.8c7.2,48.1,48.8,85,98.9,85S1970.2,903.2,1977.5,855.1z"/>
		</g><path d="M1878.6,980.1c-55.2,0-100,44.8-100,100s44.8,100,100,100s100-44.8,100-100S1933.8,980.1,1878.6,980.1z M1915.3,1079.8&#10;&#9;&#9;&#9;l-48,83.1l-29.1-9.6l25.1-43.5l-48.4-83.9l23.6-19.2l24.9,43.1h93.1l5.7,30H1915.3z" transform="matrix(1, 0, 0, 1, 0, 0)"/><path d="M1878.6,1220.2c-55.2,0-100,44.8-100,100s44.8,100,100,100s100-44.8,100-100S1933.8,1220.2,1878.6,1220.2z M1931.7,1368.2&#10;&#9;&#9;&#9;l-28.2-16.3c-6.9,5.4-15.5,8.6-24.9,8.6s-18.1-3.2-24.9-8.6l-28.2,16.3l-15-26l28.2-16.3c-0.3-1.9-0.4-3.8-0.4-5.7&#10;&#9;&#9;&#9;c0-17,10.5-31.5,25.4-37.5v-32.5h30v32.5c14.9,6,25.4,20.5,25.4,37.5c0,1.9-0.1,3.9-0.4,5.7l28.2,16.3L1931.7,1368.2z" transform="matrix(1, 0, 0, 1, 0, 0)"/><path d="M1878.6,1459.9c-55.2,0-100,44.8-100,100s44.8,100,100,100s100-44.8,100-100S1933.8,1459.9,1878.6,1459.9z M1940.6,1595.7&#10;&#9;&#9;&#9;l-5.8,20.5l-20.5,5.8l-15.2,14.8l-20.6-5.2l-20.6,5.2l-15.2-14.8l-20.5-5.8l-5.8-20.5l-14.8-15.2l5.2-20.6l-5.2-20.6l14.8-15.2&#10;&#9;&#9;&#9;l5.8-20.5l20.5-5.8l15.2-14.8l20.6,5.2l20.6-5.2l15.2,14.8l20.5,5.8l5.8,20.5l14.8,15.2l-5.2,20.6l5.2,20.6L1940.6,1595.7z" transform="matrix(1, 0, 0, 1, 0, 0)"/><path d="M1607.1,740.1c-55.2,0-100,44.8-100,100s44.8,100,100,100s100-44.8,100-100S1662.4,740.1,1607.1,740.1z M1634.2,855.1&#10;&#9;&#9;&#9;l-12,12v48h-30v-48l-12-12h-48v-30h48l12-12v-48h30v48l12,12h48v30H1634.2z" transform="matrix(1, 0, 0, 1, 0, 0)"/><path d="M 1607.0999755859375 1079.9000244140625 L 1607.4000244140625 1079.5 L 1606.9000244140625 1079.5 Z" transform="matrix(1, 0, 0, 1, 0, 0)"/><path d="M1622.1,1071l78.1,45.1c4.4-11.3,6.9-23.7,6.9-36.6c0-50.1-36.9-91.7-85-98.9V1071z" transform="matrix(1, 0, 0, 1, 0, 0)"/><path d="M1607.2,1097l-78.1,45.1c18.3,22.8,46.5,37.5,78,37.5c31.6,0,59.7-14.6,78.1-37.5L1607.2,1097z" transform="matrix(1, 0, 0, 1, 0, 0)"/><path d="M1592.1,1071v-90.4c-48.1,7.2-85,48.8-85,98.9c0,12.9,2.4,25.2,6.9,36.6L1592.1,1071z" transform="matrix(1, 0, 0, 1, 0, 0)"/><path d="M1607.1,1220.2c-55.2,0-100,44.8-100,100s44.8,100,100,100s100-44.8,100-100S1662.4,1220.2,1607.1,1220.2z M1654.3,1347.4&#10;&#9;&#9;&#9;l-30.1,2.2l-17,25l-17-25l-30.1-2.2l13.1-27.2L1560,1293l30.1-2.2l17-25l17,25l30.1,2.2l-13.1,27.2L1654.3,1347.4z" transform="matrix(1, 0, 0, 1, 0, 0)"/><path d="M1607.1,1459.9c-55.2,0-100,44.8-100,100s44.8,100,100,100s100-44.8,100-100S1662.4,1459.9,1607.1,1459.9z M1660,1590.5&#10;&#9;&#9;&#9;l1.1,23.4l-23.4-1.1l-10.8,20.9l-19.8-12.7l-19.8,12.7l-10.8-20.9l-23.4,1.1l1.1-23.4l-20.9-10.8l12.7-19.8l-12.7-19.8l20.9-10.8&#10;&#9;&#9;&#9;l-1.1-23.4l23.4,1.1l10.8-20.9l19.8,12.7l19.8-12.7l10.8,20.9l23.4-1.1l-1.1,23.4l20.9,10.8l-12.7,19.8l12.7,19.8L1660,1590.5z" transform="matrix(1, 0, 0, 1, 0, 0)"/>
</svg>