<?xml version="1.0" encoding="UTF-8"?>
<svg xmlns="http://www.w3.org/2000/svg" xmlns:xlink="http://www.w3.org/1999/xlink" version="1.1" viewBox="0 0 172.46 173.96">
  <!-- Generator: Adobe Illustrator 29.8.6, SVG Export Plug-In . SVG Version: 2.1.1 Build 1)  -->
  <defs>
    <style>
      .st0 {
        fill: none;
      }

      .st1 {
        fill: url(#_ÂÁ_Ï_ÌÌ_È_ËÂÌÚ_443);
      }

      .st2 {
        fill: url(#_ÂÁ_Ï_ÌÌ_È_ËÂÌÚ_210);
      }

      .st3 {
        fill: url(#_ÂÁ_Ï_ÌÌ_È_ËÂÌÚ_540);
      }

      .st4 {
        fill: url(#_ÂÁ_Ï_ÌÌ_È_ËÂÌÚ_184);
      }

      .st5 {
        fill: url(#_ÂÁ_Ï_ÌÌ_È_ËÂÌÚ_123);
      }

      .st6 {
        fill: url(#_ÂÁ_Ï_ÌÌ_È_ËÂÌÚ_118);
      }

      .st7 {
        fill: url(#_ÂÁ_Ï_ÌÌ_È_ËÂÌÚ_18423);
      }

      .st8 {
        fill: url(#_ÂÁ_Ï_ÌÌ_È_ËÂÌÚ_18427);
      }

      .st9 {
        fill: url(#_ÂÁ_Ï_ÌÌ_È_ËÂÌÚ_18420);
      }

      .st10 {
        fill: url(#_ÂÁ_Ï_ÌÌ_È_ËÂÌÚ_18421);
      }

      .st11 {
        fill: url(#_ÂÁ_Ï_ÌÌ_È_ËÂÌÚ_18422);
      }

      .st12 {
        fill: url(#_ÂÁ_Ï_ÌÌ_È_ËÂÌÚ_18424);
      }

      .st13 {
        fill: url(#_ÂÁ_Ï_ÌÌ_È_ËÂÌÚ_18425);
      }

      .st14 {
        fill: url(#_ÂÁ_Ï_ÌÌ_È_ËÂÌÚ_18426);
      }

      .st15 {
        fill: url(#_ÂÁ_Ï_ÌÌ_È_ËÂÌÚ_18418);
      }

      .st16 {
        fill: url(#_ÂÁ_Ï_ÌÌ_È_ËÂÌÚ_18419);
      }

      .st17 {
        fill: url(#_ÂÁ_Ï_ÌÌ_È_ËÂÌÚ_18428);
      }

      .st18 {
        fill: url(#_ÂÁ_Ï_ÌÌ_È_ËÂÌÚ_18410);
      }

      .st19 {
        fill: url(#_ÂÁ_Ï_ÌÌ_È_ËÂÌÚ_18415);
      }

      .st20 {
        fill: url(#_ÂÁ_Ï_ÌÌ_È_ËÂÌÚ_18417);
      }

      .st21 {
        fill: url(#_ÂÁ_Ï_ÌÌ_È_ËÂÌÚ_18414);
      }

      .st22 {
        fill: url(#_ÂÁ_Ï_ÌÌ_È_ËÂÌÚ_18411);
      }

      .st23 {
        fill: url(#_ÂÁ_Ï_ÌÌ_È_ËÂÌÚ_18413);
      }

      .st24 {
        fill: url(#_ÂÁ_Ï_ÌÌ_È_ËÂÌÚ_18412);
      }

      .st25 {
        fill: url(#_ÂÁ_Ï_ÌÌ_È_ËÂÌÚ_18416);
      }

      .st26 {
        isolation: isolate;
      }

      .st27 {
        fill: url(#_ÂÁ_Ï_ÌÌ_È_ËÂÌÚ_415);
      }

      .st27, .st28 {
        mix-blend-mode: multiply;
      }

      .st28 {
        fill: url(#_ÂÁ_Ï_ÌÌ_È_ËÂÌÚ_217);
      }

      .st29 {
        fill: url(#_ÂÁ_Ï_ÌÌ_È_ËÂÌÚ_1843);
      }

      .st30 {
        fill: url(#_ÂÁ_Ï_ÌÌ_È_ËÂÌÚ_1846);
      }

      .st31 {
        fill: url(#_ÂÁ_Ï_ÌÌ_È_ËÂÌÚ_1842);
      }

      .st32 {
        fill: url(#_ÂÁ_Ï_ÌÌ_È_ËÂÌÚ_1847);
      }

      .st33 {
        fill: url(#_ÂÁ_Ï_ÌÌ_È_ËÂÌÚ_1841);
      }

      .st34 {
        fill: url(#_ÂÁ_Ï_ÌÌ_È_ËÂÌÚ_1844);
      }

      .st35 {
        fill: url(#_ÂÁ_Ï_ÌÌ_È_ËÂÌÚ_1845);
      }

      .st36 {
        fill: url(#_ÂÁ_Ï_ÌÌ_È_ËÂÌÚ_1849);
      }

      .st37 {
        fill: url(#_ÂÁ_Ï_ÌÌ_È_ËÂÌÚ_1848);
      }

      .st38 {
        clip-path: url(#clippath);
      }
    </style>
    <clipPath id="clippath">
      <rect class="st0" width="172.46" height="172.46"/>
    </clipPath>
    <linearGradient id="_ÂÁ_Ï_ÌÌ_È_ËÂÌÚ_184" data-name="¡ÂÁ˚ÏˇÌÌ˚È „‡‰ËÂÌÚ 184" x1="93.32" y1="73.75" x2="93.33" y2="83.39" gradientTransform="translate(-12.33 10.54) rotate(-3.92)" gradientUnits="userSpaceOnUse">
      <stop offset="0" stop-color="#bdbdcf"/>
      <stop offset=".02" stop-color="#b1b1c2"/>
      <stop offset=".09" stop-color="#9696a2"/>
      <stop offset=".15" stop-color="#82828c"/>
      <stop offset=".22" stop-color="#77777e"/>
      <stop offset=".27" stop-color="#73737a"/>
      <stop offset=".28" stop-color="#808088"/>
      <stop offset=".29" stop-color="#9e9ea8"/>
      <stop offset=".31" stop-color="#b7b7c3"/>
      <stop offset=".33" stop-color="#ccccd9"/>
      <stop offset=".35" stop-color="#dbdbea"/>
      <stop offset=".38" stop-color="#e6e6f6"/>
      <stop offset=".42" stop-color="#ededfd"/>
      <stop offset=".53" stop-color="#efefff"/>
      <stop offset=".61" stop-color="#72727a"/>
      <stop offset=".62" stop-color="#67676e"/>
      <stop offset=".65" stop-color="#55555b"/>
      <stop offset=".69" stop-color="#434348"/>
      <stop offset=".97" stop-color="#434348"/>
      <stop offset=".97" stop-color="#57575d"/>
      <stop offset=".99" stop-color="#8d8d96"/>
      <stop offset="1" stop-color="#c9c9d6"/>
    </linearGradient>
    <linearGradient id="_ÂÁ_Ï_ÌÌ_È_ËÂÌÚ_1841" data-name="¡ÂÁ˚ÏˇÌÌ˚È „‡‰ËÂÌÚ 184" x1="92.5" y1="85.7" x2="92.52" y2="95.33" xlink:href="#_ÂÁ_Ï_ÌÌ_È_ËÂÌÚ_184"/>
    <linearGradient id="_ÂÁ_Ï_ÌÌ_È_ËÂÌÚ_1842" data-name="¡ÂÁ˚ÏˇÌÌ˚È „‡‰ËÂÌÚ 184" x1="91.68" y1="97.64" x2="91.7" y2="107.28" xlink:href="#_ÂÁ_Ï_ÌÌ_È_ËÂÌÚ_184"/>
    <linearGradient id="_ÂÁ_Ï_ÌÌ_È_ËÂÌÚ_1843" data-name="¡ÂÁ˚ÏˇÌÌ˚È „‡‰ËÂÌÚ 184" x1="90.87" y1="109.59" x2="90.88" y2="119.22" xlink:href="#_ÂÁ_Ï_ÌÌ_È_ËÂÌÚ_184"/>
    <linearGradient id="_ÂÁ_Ï_ÌÌ_È_ËÂÌÚ_1844" data-name="¡ÂÁ˚ÏˇÌÌ˚È „‡‰ËÂÌÚ 184" x1="90.05" y1="121.53" x2="90.06" y2="131.17" xlink:href="#_ÂÁ_Ï_ÌÌ_È_ËÂÌÚ_184"/>
    <linearGradient id="_ÂÁ_Ï_ÌÌ_È_ËÂÌÚ_1845" data-name="¡ÂÁ˚ÏˇÌÌ˚È „‡‰ËÂÌÚ 184" x1="89.23" y1="133.48" x2="89.24" y2="143.11" xlink:href="#_ÂÁ_Ï_ÌÌ_È_ËÂÌÚ_184"/>
    <linearGradient id="_ÂÁ_Ï_ÌÌ_È_ËÂÌÚ_1846" data-name="¡ÂÁ˚ÏˇÌÌ˚È „‡‰ËÂÌÚ 184" x1="88.41" y1="145.42" x2="88.43" y2="155.05" xlink:href="#_ÂÁ_Ï_ÌÌ_È_ËÂÌÚ_184"/>
    <linearGradient id="_ÂÁ_Ï_ÌÌ_È_ËÂÌÚ_1847" data-name="¡ÂÁ˚ÏˇÌÌ˚È „‡‰ËÂÌÚ 184" x1="87.6" y1="157.37" x2="87.61" y2="167" xlink:href="#_ÂÁ_Ï_ÌÌ_È_ËÂÌÚ_184"/>
    <linearGradient id="_ÂÁ_Ï_ÌÌ_È_ËÂÌÚ_1848" data-name="¡ÂÁ˚ÏˇÌÌ˚È „‡‰ËÂÌÚ 184" x1="86.78" y1="169.31" x2="86.79" y2="178.94" xlink:href="#_ÂÁ_Ï_ÌÌ_È_ËÂÌÚ_184"/>
    <linearGradient id="_ÂÁ_Ï_ÌÌ_È_ËÂÌÚ_1849" data-name="¡ÂÁ˚ÏˇÌÌ˚È „‡‰ËÂÌÚ 184" x1="85.96" y1="181.25" x2="85.97" y2="190.89" xlink:href="#_ÂÁ_Ï_ÌÌ_È_ËÂÌÚ_184"/>
    <linearGradient id="_ÂÁ_Ï_ÌÌ_È_ËÂÌÚ_18410" data-name="¡ÂÁ˚ÏˇÌÌ˚È „‡‰ËÂÌÚ 184" x1="85.14" y1="193.2" x2="85.16" y2="202.83" xlink:href="#_ÂÁ_Ï_ÌÌ_È_ËÂÌÚ_184"/>
    <linearGradient id="_ÂÁ_Ï_ÌÌ_È_ËÂÌÚ_18411" data-name="¡ÂÁ˚ÏˇÌÌ˚È „‡‰ËÂÌÚ 184" x1="84.32" y1="205.14" x2="84.34" y2="214.78" xlink:href="#_ÂÁ_Ï_ÌÌ_È_ËÂÌÚ_184"/>
    <linearGradient id="_ÂÁ_Ï_ÌÌ_È_ËÂÌÚ_18412" data-name="¡ÂÁ˚ÏˇÌÌ˚È „‡‰ËÂÌÚ 184" x1="83.51" y1="217.09" x2="83.52" y2="226.72" xlink:href="#_ÂÁ_Ï_ÌÌ_È_ËÂÌÚ_184"/>
    <linearGradient id="_ÂÁ_Ï_ÌÌ_È_ËÂÌÚ_18413" data-name="¡ÂÁ˚ÏˇÌÌ˚È „‡‰ËÂÌÚ 184" x1="82.69" y1="229.03" x2="82.7" y2="238.67" xlink:href="#_ÂÁ_Ï_ÌÌ_È_ËÂÌÚ_184"/>
    <linearGradient id="_ÂÁ_Ï_ÌÌ_È_ËÂÌÚ_18414" data-name="¡ÂÁ˚ÏˇÌÌ˚È „‡‰ËÂÌÚ 184" x1="81.87" y1="240.98" x2="81.89" y2="250.61" xlink:href="#_ÂÁ_Ï_ÌÌ_È_ËÂÌÚ_184"/>
    <linearGradient id="_ÂÁ_Ï_ÌÌ_È_ËÂÌÚ_443" data-name="¡ÂÁ˚ÏˇÌÌ˚È „‡‰ËÂÌÚ 443" x1="58.86" y1="138.4" x2="113.6" y2="138.4" gradientUnits="userSpaceOnUse">
      <stop offset="0" stop-color="#a6a6b0"/>
      <stop offset=".14" stop-color="#9f9fb3"/>
      <stop offset=".16" stop-color="#a7a7bb"/>
      <stop offset=".26" stop-color="#c7c7d8"/>
      <stop offset=".36" stop-color="#dddded"/>
      <stop offset=".46" stop-color="#ebebfa"/>
      <stop offset=".54" stop-color="#f0f0ff"/>
      <stop offset=".54" stop-color="#efeffe"/>
      <stop offset=".77" stop-color="#b5b5c2"/>
      <stop offset=".88" stop-color="#9f9fab"/>
      <stop offset=".92" stop-color="#a1a1ad"/>
      <stop offset=".95" stop-color="#a8a8b6"/>
      <stop offset=".98" stop-color="#b5b5c5"/>
      <stop offset="1" stop-color="#c8c8da"/>
      <stop offset="1" stop-color="#cbcbde"/>
    </linearGradient>
    <linearGradient id="_ÂÁ_Ï_ÌÌ_È_ËÂÌÚ_217" data-name="¡ÂÁ˚ÏˇÌÌ˚È „‡‰ËÂÌÚ 217" x1="86.23" y1="73.42" x2="86.23" y2="40.61" gradientUnits="userSpaceOnUse">
      <stop offset="0" stop-color="#fff"/>
      <stop offset=".03" stop-color="#f7f7f7"/>
      <stop offset=".17" stop-color="#cfcfd2"/>
      <stop offset=".33" stop-color="#aeaeb3"/>
      <stop offset=".48" stop-color="#94949b"/>
      <stop offset=".64" stop-color="#82828a"/>
      <stop offset=".81" stop-color="#777780"/>
      <stop offset="1" stop-color="#74747d"/>
    </linearGradient>
    <linearGradient id="_ÂÁ_Ï_ÌÌ_È_ËÂÌÚ_18415" data-name="¡ÂÁ˚ÏˇÌÌ˚È „‡‰ËÂÌÚ 184" x1="92.5" y1="85.7" x2="92.52" y2="95.33" xlink:href="#_ÂÁ_Ï_ÌÌ_È_ËÂÌÚ_184"/>
    <linearGradient id="_ÂÁ_Ï_ÌÌ_È_ËÂÌÚ_18416" data-name="¡ÂÁ˚ÏˇÌÌ˚È „‡‰ËÂÌÚ 184" x1="91.68" y1="97.64" x2="91.7" y2="107.28" xlink:href="#_ÂÁ_Ï_ÌÌ_È_ËÂÌÚ_184"/>
    <linearGradient id="_ÂÁ_Ï_ÌÌ_È_ËÂÌÚ_18417" data-name="¡ÂÁ˚ÏˇÌÌ˚È „‡‰ËÂÌÚ 184" x1="90.87" y1="109.59" x2="90.88" y2="119.22" xlink:href="#_ÂÁ_Ï_ÌÌ_È_ËÂÌÚ_184"/>
    <linearGradient id="_ÂÁ_Ï_ÌÌ_È_ËÂÌÚ_18418" data-name="¡ÂÁ˚ÏˇÌÌ˚È „‡‰ËÂÌÚ 184" x1="90.05" y1="121.53" x2="90.06" y2="131.17" xlink:href="#_ÂÁ_Ï_ÌÌ_È_ËÂÌÚ_184"/>
    <linearGradient id="_ÂÁ_Ï_ÌÌ_È_ËÂÌÚ_18419" data-name="¡ÂÁ˚ÏˇÌÌ˚È „‡‰ËÂÌÚ 184" x1="89.23" y1="133.48" x2="89.24" y2="143.11" xlink:href="#_ÂÁ_Ï_ÌÌ_È_ËÂÌÚ_184"/>
    <linearGradient id="_ÂÁ_Ï_ÌÌ_È_ËÂÌÚ_18420" data-name="¡ÂÁ˚ÏˇÌÌ˚È „‡‰ËÂÌÚ 184" x1="88.41" y1="145.42" x2="88.43" y2="155.05" xlink:href="#_ÂÁ_Ï_ÌÌ_È_ËÂÌÚ_184"/>
    <linearGradient id="_ÂÁ_Ï_ÌÌ_È_ËÂÌÚ_18421" data-name="¡ÂÁ˚ÏˇÌÌ˚È „‡‰ËÂÌÚ 184" x1="87.6" y1="157.37" x2="87.61" y2="167" xlink:href="#_ÂÁ_Ï_ÌÌ_È_ËÂÌÚ_184"/>
    <linearGradient id="_ÂÁ_Ï_ÌÌ_È_ËÂÌÚ_18422" data-name="¡ÂÁ˚ÏˇÌÌ˚È „‡‰ËÂÌÚ 184" x1="86.78" y1="169.31" x2="86.79" y2="178.94" xlink:href="#_ÂÁ_Ï_ÌÌ_È_ËÂÌÚ_184"/>
    <linearGradient id="_ÂÁ_Ï_ÌÌ_È_ËÂÌÚ_18423" data-name="¡ÂÁ˚ÏˇÌÌ˚È „‡‰ËÂÌÚ 184" x1="85.96" y1="181.25" x2="85.97" y2="190.89" xlink:href="#_ÂÁ_Ï_ÌÌ_È_ËÂÌÚ_184"/>
    <linearGradient id="_ÂÁ_Ï_ÌÌ_È_ËÂÌÚ_18424" data-name="¡ÂÁ˚ÏˇÌÌ˚È „‡‰ËÂÌÚ 184" x1="85.14" y1="193.2" x2="85.16" y2="202.83" xlink:href="#_ÂÁ_Ï_ÌÌ_È_ËÂÌÚ_184"/>
    <linearGradient id="_ÂÁ_Ï_ÌÌ_È_ËÂÌÚ_18425" data-name="¡ÂÁ˚ÏˇÌÌ˚È „‡‰ËÂÌÚ 184" x1="84.32" y1="205.14" x2="84.34" y2="214.78" xlink:href="#_ÂÁ_Ï_ÌÌ_È_ËÂÌÚ_184"/>
    <linearGradient id="_ÂÁ_Ï_ÌÌ_È_ËÂÌÚ_18426" data-name="¡ÂÁ˚ÏˇÌÌ˚È „‡‰ËÂÌÚ 184" x1="83.51" y1="217.09" x2="83.52" y2="226.72" xlink:href="#_ÂÁ_Ï_ÌÌ_È_ËÂÌÚ_184"/>
    <linearGradient id="_ÂÁ_Ï_ÌÌ_È_ËÂÌÚ_18427" data-name="¡ÂÁ˚ÏˇÌÌ˚È „‡‰ËÂÌÚ 184" x1="82.69" y1="229.03" x2="82.7" y2="238.67" xlink:href="#_ÂÁ_Ï_ÌÌ_È_ËÂÌÚ_184"/>
    <linearGradient id="_ÂÁ_Ï_ÌÌ_È_ËÂÌÚ_18428" data-name="¡ÂÁ˚ÏˇÌÌ˚È „‡‰ËÂÌÚ 184" x1="81.87" y1="240.98" x2="81.89" y2="250.61" xlink:href="#_ÂÁ_Ï_ÌÌ_È_ËÂÌÚ_184"/>
    <linearGradient id="_ÂÁ_Ï_ÌÌ_È_ËÂÌÚ_415" data-name="¡ÂÁ˚ÏˇÌÌ˚È „‡‰ËÂÌÚ 415" x1="52.85" y1="139.51" x2="119.38" y2="139.51" gradientUnits="userSpaceOnUse">
      <stop offset="0" stop-color="#bebed4"/>
      <stop offset=".08" stop-color="#9a9aac"/>
      <stop offset=".2" stop-color="#696975"/>
      <stop offset=".38" stop-color="#c6c6cb"/>
      <stop offset=".49" stop-color="#fff"/>
      <stop offset=".55" stop-color="#fbfbfb"/>
      <stop offset=".6" stop-color="#efeff0"/>
      <stop offset=".66" stop-color="#dcdcdf"/>
      <stop offset=".71" stop-color="#c1c1c6"/>
      <stop offset=".76" stop-color="#9e9ea6"/>
      <stop offset=".81" stop-color="#74747f"/>
      <stop offset=".83" stop-color="#696975"/>
      <stop offset=".86" stop-color="#6d6d7a"/>
      <stop offset=".9" stop-color="#7b7b89"/>
      <stop offset=".94" stop-color="#9292a3"/>
      <stop offset=".98" stop-color="#b1b1c6"/>
      <stop offset="1" stop-color="#bebed4"/>
    </linearGradient>
    <linearGradient id="_ÂÁ_Ï_ÌÌ_È_ËÂÌÚ_540" data-name="¡ÂÁ˚ÏˇÌÌ˚È „‡‰ËÂÌÚ 540" x1="86.23" y1="9.22" x2="86.23" y2="23.02" gradientUnits="userSpaceOnUse">
      <stop offset="0" stop-color="#c7c7d6"/>
      <stop offset=".02" stop-color="#d5d5df"/>
      <stop offset=".06" stop-color="#e6e6eb"/>
      <stop offset=".09" stop-color="#f1f1f2"/>
      <stop offset=".14" stop-color="#f5f5f5"/>
      <stop offset=".24" stop-color="#e9e9ed"/>
      <stop offset=".51" stop-color="#d1d1de"/>
      <stop offset=".67" stop-color="#c9c9d9"/>
      <stop offset=".74" stop-color="#c3c3d3"/>
      <stop offset=".83" stop-color="#b3b3c3"/>
      <stop offset=".93" stop-color="#9999a9"/>
      <stop offset="1" stop-color="#838394"/>
    </linearGradient>
    <linearGradient id="_ÂÁ_Ï_ÌÌ_È_ËÂÌÚ_210" data-name="¡ÂÁ˚ÏˇÌÌ˚È „‡‰ËÂÌÚ 210" x1="23.41" y1="37.96" x2="41.7" y2="37.96" gradientUnits="userSpaceOnUse">
      <stop offset="0" stop-color="#c7c7d6"/>
      <stop offset="0" stop-color="#c5c5d4"/>
      <stop offset=".09" stop-color="#a5a5b5"/>
      <stop offset=".17" stop-color="#9292a2"/>
      <stop offset=".22" stop-color="#8c8c9c"/>
      <stop offset=".27" stop-color="#858595"/>
      <stop offset=".52" stop-color="#6c6c7a"/>
      <stop offset=".71" stop-color="#70707f"/>
      <stop offset=".95" stop-color="#7f7f8f"/>
      <stop offset="1" stop-color="#838394"/>
    </linearGradient>
    <linearGradient id="_ÂÁ_Ï_ÌÌ_È_ËÂÌÚ_118" data-name="¡ÂÁ˚ÏˇÌÌ˚È „‡‰ËÂÌÚ 118" x1="107.98" y1="37.52" x2="147.97" y2="37.52" gradientUnits="userSpaceOnUse">
      <stop offset="0" stop-color="#c7c7d6"/>
      <stop offset=".06" stop-color="#aaaab9"/>
      <stop offset=".14" stop-color="#8b8b99"/>
      <stop offset=".21" stop-color="#787886"/>
      <stop offset=".26" stop-color="#727280"/>
      <stop offset=".56" stop-color="#59596c"/>
      <stop offset=".78" stop-color="#44445c"/>
      <stop offset=".85" stop-color="#49495f"/>
      <stop offset=".95" stop-color="#59596a"/>
      <stop offset="1" stop-color="#666673"/>
    </linearGradient>
    <linearGradient id="_ÂÁ_Ï_ÌÌ_È_ËÂÌÚ_123" data-name="¡ÂÁ˚ÏˇÌÌ˚È „‡‰ËÂÌÚ 123" x1="43.64" y1="37.77" x2="109.81" y2="37.77" gradientUnits="userSpaceOnUse">
      <stop offset="0" stop-color="#c7c7d6"/>
      <stop offset=".08" stop-color="#dbdbe7"/>
      <stop offset=".16" stop-color="#eaeaf5"/>
      <stop offset=".23" stop-color="#f0f0fa"/>
      <stop offset=".84" stop-color="#e5e5eb"/>
    </linearGradient>
  </defs>
  <g class="st26">
    <g id="Layer_1">
      <g class="st38">
        <g>
          <g>
            <path class="st4" d="M118.31,80.07c.2,2.91-14.05,6.26-31.82,7.48-17.77,1.22-32.34-.16-32.54-3.07-.2-2.91,14.04-6.26,31.82-7.48,17.77-1.22,32.34.16,32.54,3.07Z"/>
            <path class="st33" d="M118.31,92.04c.2,2.91-14.05,6.26-31.82,7.48-17.77,1.22-32.34-.16-32.54-3.07-.2-2.91,14.04-6.26,31.82-7.48,17.77-1.22,32.34.16,32.54,3.07Z"/>
            <path class="st31" d="M118.31,104.01c.2,2.91-14.05,6.26-31.82,7.48-17.77,1.22-32.34-.16-32.54-3.07-.2-2.91,14.04-6.26,31.82-7.48,17.77-1.22,32.34.16,32.54,3.07Z"/>
            <path class="st29" d="M118.31,115.99c.2,2.91-14.05,6.26-31.82,7.48-17.77,1.22-32.34-.16-32.54-3.07-.2-2.91,14.04-6.26,31.82-7.48,17.77-1.22,32.34.16,32.54,3.07Z"/>
            <path class="st34" d="M118.31,127.96c.2,2.91-14.05,6.26-31.82,7.48-17.77,1.22-32.34-.16-32.54-3.07-.2-2.91,14.04-6.26,31.82-7.48,17.77-1.22,32.34.16,32.54,3.07Z"/>
            <path class="st35" d="M118.31,139.93c.2,2.91-14.05,6.26-31.82,7.48-17.77,1.22-32.34-.16-32.54-3.07-.2-2.91,14.04-6.26,31.82-7.48,17.77-1.22,32.34.16,32.54,3.07Z"/>
            <path class="st30" d="M118.31,151.9c.2,2.91-14.05,6.26-31.82,7.48-17.77,1.22-32.34-.16-32.54-3.07-.2-2.91,14.04-6.26,31.82-7.48,17.77-1.22,32.34.16,32.54,3.07Z"/>
            <path class="st32" d="M118.31,163.88c.2,2.91-14.05,6.26-31.82,7.48-17.77,1.22-32.34-.16-32.54-3.07-.2-2.91,14.04-6.26,31.82-7.48,17.77-1.22,32.34.16,32.54,3.07Z"/>
            <path class="st37" d="M118.31,175.85c.2,2.91-14.05,6.26-31.82,7.48-17.77,1.22-32.34-.16-32.54-3.07-.2-2.91,14.04-6.26,31.82-7.48,17.77-1.22,32.34.16,32.54,3.07Z"/>
            <path class="st36" d="M118.31,187.82c.2,2.91-14.05,6.26-31.82,7.48-17.77,1.22-32.34-.16-32.54-3.07-.2-2.91,14.04-6.26,31.82-7.48,17.77-1.22,32.34.16,32.54,3.07Z"/>
            <path class="st18" d="M118.31,199.8c.2,2.91-14.05,6.26-31.82,7.48-17.77,1.22-32.34-.16-32.54-3.07-.2-2.91,14.04-6.26,31.82-7.48,17.77-1.22,32.34.16,32.54,3.07Z"/>
            <path class="st22" d="M118.31,211.77c.2,2.91-14.05,6.26-31.82,7.48-17.77,1.22-32.34-.16-32.54-3.07-.2-2.91,14.04-6.26,31.82-7.48,17.77-1.22,32.34.16,32.54,3.07Z"/>
            <path class="st24" d="M118.31,223.74c.2,2.91-14.05,6.26-31.82,7.48-17.77,1.22-32.34-.16-32.54-3.07-.2-2.91,14.04-6.26,31.82-7.48,17.77-1.22,32.34.16,32.54,3.07Z"/>
            <path class="st23" d="M118.31,235.72c.2,2.91-14.05,6.26-31.82,7.48-17.77,1.22-32.34-.16-32.54-3.07-.2-2.91,14.04-6.26,31.82-7.48,17.77-1.22,32.34.16,32.54,3.07Z"/>
            <path class="st21" d="M118.31,247.69c.2,2.91-14.05,6.26-31.82,7.48-17.77,1.22-32.34-.16-32.54-3.07-.2-2.91,14.04-6.26,31.82-7.48,17.77-1.22,32.34.16,32.54,3.07Z"/>
            <path class="st1" d="M58.86,23.42h54.74v226.94c0,1.67-1.36,3.03-3.03,3.03h-51.71V23.42h0Z"/>
            <rect class="st28" x="58.86" y="23.42" width="54.74" height="50"/>
            <path class="st4" d="M118.31,80.07c.2,2.91-14.05,6.26-31.82,7.48-17.77,1.22-32.34-.16-32.54-3.07-.2-2.91,14.04-6.26,31.82-7.48,17.77-1.22,32.34.16,32.54,3.07Z"/>
            <path class="st19" d="M118.31,92.04c.2,2.91-14.05,6.26-31.82,7.48-17.77,1.22-32.34-.16-32.54-3.07-.2-2.91,14.04-6.26,31.82-7.48,17.77-1.22,32.34.16,32.54,3.07Z"/>
            <path class="st25" d="M118.31,104.01c.2,2.91-14.05,6.26-31.82,7.48-17.77,1.22-32.34-.16-32.54-3.07-.2-2.91,14.04-6.26,31.82-7.48,17.77-1.22,32.34.16,32.54,3.07Z"/>
            <path class="st20" d="M118.31,115.99c.2,2.91-14.05,6.26-31.82,7.48-17.77,1.22-32.34-.16-32.54-3.07-.2-2.91,14.04-6.26,31.82-7.48,17.77-1.22,32.34.16,32.54,3.07Z"/>
            <path class="st15" d="M118.31,127.96c.2,2.91-14.05,6.26-31.82,7.48-17.77,1.22-32.34-.16-32.54-3.07-.2-2.91,14.04-6.26,31.82-7.48,17.77-1.22,32.34.16,32.54,3.07Z"/>
            <path class="st16" d="M118.31,139.93c.2,2.91-14.05,6.26-31.82,7.48-17.77,1.22-32.34-.16-32.54-3.07-.2-2.91,14.04-6.26,31.82-7.48,17.77-1.22,32.34.16,32.54,3.07Z"/>
            <path class="st9" d="M118.31,151.9c.2,2.91-14.05,6.26-31.82,7.48-17.77,1.22-32.34-.16-32.54-3.07-.2-2.91,14.04-6.26,31.82-7.48,17.77-1.22,32.34.16,32.54,3.07Z"/>
            <path class="st10" d="M118.31,163.88c.2,2.91-14.05,6.26-31.82,7.48-17.77,1.22-32.34-.16-32.54-3.07-.2-2.91,14.04-6.26,31.82-7.48,17.77-1.22,32.34.16,32.54,3.07Z"/>
            <path class="st11" d="M118.31,175.85c.2,2.91-14.05,6.26-31.82,7.48-17.77,1.22-32.34-.16-32.54-3.07-.2-2.91,14.04-6.26,31.82-7.48,17.77-1.22,32.34.16,32.54,3.07Z"/>
            <path class="st7" d="M118.31,187.82c.2,2.91-14.05,6.26-31.82,7.48-17.77,1.22-32.34-.16-32.54-3.07-.2-2.91,14.04-6.26,31.82-7.48,17.77-1.22,32.34.16,32.54,3.07Z"/>
            <path class="st12" d="M118.31,199.8c.2,2.91-14.05,6.26-31.82,7.48-17.77,1.22-32.34-.16-32.54-3.07-.2-2.91,14.04-6.26,31.82-7.48,17.77-1.22,32.34.16,32.54,3.07Z"/>
            <path class="st13" d="M118.31,211.77c.2,2.91-14.05,6.26-31.82,7.48-17.77,1.22-32.34-.16-32.54-3.07-.2-2.91,14.04-6.26,31.82-7.48,17.77-1.22,32.34.16,32.54,3.07Z"/>
            <path class="st14" d="M118.31,223.74c.2,2.91-14.05,6.26-31.82,7.48-17.77,1.22-32.34-.16-32.54-3.07-.2-2.91,14.04-6.26,31.82-7.48,17.77-1.22,32.34.16,32.54,3.07Z"/>
            <path class="st8" d="M118.31,235.72c.2,2.91-14.05,6.26-31.82,7.48-17.77,1.22-32.34-.16-32.54-3.07-.2-2.91,14.04-6.26,31.82-7.48,17.77-1.22,32.34.16,32.54,3.07Z"/>
            <path class="st17" d="M118.31,247.69c.2,2.91-14.05,6.26-31.82,7.48-17.77,1.22-32.34-.16-32.54-3.07-.2-2.91,14.04-6.26,31.82-7.48,17.77-1.22,32.34.16,32.54,3.07Z"/>
            <path class="st27" d="M118.31,92.04c-.07-.99-1.78-1.79-4.7-2.39v-6.45c3.04-1.02,4.78-2.1,4.7-3.13-.07-.99-1.78-1.79-4.7-2.39V23.42h-54.74v57.86c-3.17,1.04-4.98,2.15-4.9,3.2.07,1.01,1.86,1.83,4.9,2.43v6.35c-3.17,1.04-4.98,2.15-4.9,3.2.07,1.01,1.86,1.83,4.9,2.43v6.35c-3.17,1.04-4.98,2.15-4.9,3.2.07,1.01,1.86,1.83,4.9,2.43v6.35c-3.17,1.04-4.98,2.15-4.9,3.2.07,1.01,1.86,1.83,4.9,2.43v6.35c-3.17,1.04-4.98,2.15-4.9,3.2.07,1.01,1.86,1.83,4.9,2.43v6.35c-3.17,1.04-4.98,2.15-4.9,3.2.07,1.01,1.86,1.83,4.9,2.43v6.35c-3.17,1.04-4.98,2.15-4.9,3.2.07,1.01,1.86,1.83,4.9,2.43v6.35c-3.17,1.04-4.98,2.15-4.9,3.2.07,1.01,1.86,1.83,4.9,2.43v6.35c-3.17,1.04-4.98,2.15-4.9,3.2.07,1.01,1.86,1.83,4.9,2.43v6.35c-3.17,1.04-4.98,2.15-4.9,3.2.07,1.01,1.86,1.83,4.9,2.43v6.35c-3.17,1.04-4.98,2.15-4.9,3.2.07,1.01,1.86,1.83,4.9,2.43v6.35c-3.17,1.04-4.98,2.15-4.9,3.2.07,1.01,1.86,1.83,4.9,2.43v6.35c-3.17,1.04-4.98,2.15-4.9,3.2.07,1.01,1.86,1.83,4.9,2.43v6.35c-3.17,1.04-4.98,2.15-4.9,3.2.07,1.01,1.86,1.83,4.9,2.43v6.35c-3.17,1.04-4.98,2.15-4.9,3.2.2,2.91,14.77,4.29,32.54,3.07,5.79-.4,11.21-1.02,15.88-1.78h9.56c.92,0,1.67-.75,1.67-1.67v-.89c3.04-1.02,4.78-2.1,4.7-3.13-.07-.99-1.78-1.79-4.7-2.39v-6.45c3.04-1.02,4.78-2.1,4.7-3.13-.07-.99-1.78-1.79-4.7-2.39v-6.45c3.04-1.02,4.78-2.1,4.7-3.13-.07-.99-1.78-1.79-4.7-2.39v-6.45c3.04-1.02,4.78-2.1,4.7-3.13-.07-.99-1.78-1.79-4.7-2.39v-6.45c3.04-1.02,4.78-2.1,4.7-3.13-.07-.99-1.78-1.79-4.7-2.39v-6.45c3.04-1.02,4.78-2.1,4.7-3.13-.07-.99-1.78-1.79-4.7-2.39v-6.45c3.04-1.02,4.78-2.1,4.7-3.13-.07-.99-1.78-1.79-4.7-2.39v-6.45c3.04-1.02,4.78-2.1,4.7-3.13-.07-.99-1.78-1.79-4.7-2.39v-6.45c3.04-1.02,4.78-2.1,4.7-3.13-.07-.99-1.78-1.79-4.7-2.39v-6.45c3.04-1.02,4.78-2.1,4.7-3.13-.07-.99-1.78-1.79-4.7-2.39v-6.45c3.04-1.02,4.78-2.1,4.7-3.13-.07-.99-1.78-1.79-4.7-2.39v-6.45c3.04-1.02,4.78-2.1,4.7-3.13-.07-.99-1.78-1.79-4.7-2.39v-6.45c3.04-1.02,4.78-2.1,4.7-3.13-.07-.99-1.78-1.79-4.7-2.39v-6.45c3.04-1.02,4.78-2.1,4.7-3.13Z"/>
          </g>
          <g>
            <path class="st3" d="M147.97,55.67H24.49V17.95c0-7.18,123.49-7.04,123.48.14v37.59Z"/>
            <path class="st2" d="M24.53,17.69c-.01.09-.04.17-.04.26v37.72l17.35,3.55V20.94c-6.99-4.79-13.21-4.97-17.31-3.25Z"/>
            <path class="st6" d="M107.98,20.94v38.49l39.99-3.76V18.08c0-.1-.03-.19-.05-.29-11.5-3.61-25.11-2.84-39.95,3.15Z"/>
            <path class="st5" d="M108.01,59.43V20.94c-22.06-6.45-44.11-6.45-66.17,0v38.28l66.17.2Z"/>
          </g>
        </g>
      </g>
    </g>
  </g>
</svg>