<?xml version="1.0" encoding="utf-8"?>
<!-- Generator: Adobe Illustrator 19.0.0, SVG Export Plug-In . SVG Version: 6.00 Build 0)  -->
<svg version="1.1" id="Layer_1" xmlns="http://www.w3.org/2000/svg" xmlns:xlink="http://www.w3.org/1999/xlink" x="0px" y="0px"
	 viewBox="0 0 1096 780" style="enable-background:new 0 0 1096 780;" xml:space="preserve">
<style type="text/css">
	.st0{fill:#30302F;}
</style>
<g>
	<path class="st0" d="M395.1,36.6h-74.3c-1.1,0-2,0.9-2,2v8.9c0,0.8,0.5,1.5,1.2,1.8l20.6,8.9c3.1,1.3,5.2,4.4,5.2,7.8v223.5
		c0,0.5,0.2,0.9,0.5,1.3l10.2,12.5c0.4,0.5,0.9,0.7,1.5,0.7c0.6,0,1.2-0.3,1.5-0.7l10.2-12.5c0.3-0.4,0.5-0.8,0.5-1.3V66
		c0-3.4,2-6.5,5.2-7.8l20.6-8.9c0.7-0.3,1.2-1,1.2-1.8v-8.9C397.1,37.5,396.2,36.6,395.1,36.6z M322.8,40.6h70.3v5.5l-0.7,0.3h-68.9
		l-0.7-0.3V40.6z M349.7,288.8v-1.7c0.8-0.9,1.9-1.5,3.1-1.5c2.3,0,4.1,1.8,4.1,4.1v7.9L349.7,288.8z M359,297.6v-7.9
		c0-2.3,1.8-4.1,4.1-4.1c1.3,0,2.4,0.6,3.1,1.5v1.7L359,297.6z M373.7,54.5c-4.6,2-7.6,6.5-7.6,11.5v218.5c-0.9-0.6-2-0.9-3.1-0.9
		c-2.1,0-4,1.1-5.1,2.8c-1.1-1.7-3-2.8-5.1-2.8c-1.1,0-2.2,0.3-3.1,0.9V66c0-5-3-9.5-7.6-11.5l-14-6h59.6L373.7,54.5z"/>
	<path class="st0" d="M635.6,36.6h-48.6c-1.1,0-2,0.9-2,2v5.8c0,0.8,0.5,1.5,1.2,1.8l13.5,5.8c1.8,0.8,3,2.5,3,4.5v93.6
		c0,0.5,0.2,0.9,0.5,1.3l6.7,8.2c0.4,0.5,0.9,0.7,1.5,0.7c0.6,0,1.2-0.3,1.5-0.7l6.7-8.2c0.3-0.4,0.5-0.8,0.5-1.3V56.5
		c0-2,1.2-3.7,3-4.5l13.5-5.8c0.7-0.3,1.2-1,1.2-1.8v-5.8C637.6,37.5,636.7,36.6,635.6,36.6z M588.9,40.6h44.6v2.5l-0.7,0.3h-43.2
		l-0.7-0.3V40.6z M606.6,149.4v-1c0.4-0.3,0.8-0.4,1.4-0.4c1.3,0,2.3,1,2.3,2.3v3.7L606.6,149.4z M612.2,153.9v-3.7
		c0-1.3,1-2.3,2.3-2.3c0.5,0,1,0.2,1.4,0.4v1L612.2,153.9z M621.3,48.3c-3.3,1.4-5.4,4.6-5.4,8.2v89.6c-0.4-0.1-0.9-0.2-1.4-0.2
		c-1.3,0-2.5,0.6-3.3,1.6c-0.8-1-2-1.6-3.3-1.6c-0.5,0-0.9,0.1-1.4,0.2V56.5c0-3.6-2.1-6.8-5.4-8.2l-6.9-3h33.9L621.3,48.3z"/>
	<path class="st0" d="M648.4,451.3h-74.3c-1.1,0-2,0.9-2,2v8.9c0,0.8,0.5,1.5,1.2,1.8l20.6,8.9c3.1,1.3,5.2,4.4,5.2,7.8v25.4
		l-0.5,0.1c-0.5,0.1-1,0.5-1.2,1l-2,3.8c-0.5,0.9-0.2,2.1,0.7,2.6l3,1.9v6.7l-0.5,0.1c-0.5,0.1-1,0.5-1.2,1l-2,3.8
		c-0.5,0.9-0.2,2.1,0.7,2.6l3,1.9v6.7l-0.5,0.1c-0.5,0.1-1,0.5-1.2,1l-2,3.8c-0.5,0.9-0.2,2.1,0.7,2.6l3,1.9v6.7l-0.5,0.1
		c-0.5,0.1-1,0.5-1.2,1l-2,3.8c-0.5,0.9-0.2,2.1,0.7,2.6l3,1.9v6.7l-0.5,0.1c-0.5,0.1-1,0.5-1.2,1l-2,3.8c-0.5,0.9-0.2,2.1,0.7,2.6
		l3,1.9v6.7l-0.5,0.1c-0.5,0.1-1,0.5-1.2,1l-2,3.8c-0.5,0.9-0.2,2.1,0.7,2.6l3,1.9v6.7l-0.5,0.1c-0.5,0.1-1,0.5-1.2,1l-2,3.8
		c-0.5,0.9-0.2,2.1,0.7,2.6l3,1.9v6.7l-0.5,0.1c-0.5,0.1-1,0.5-1.2,1l-2,3.8c-0.5,0.9-0.2,2.1,0.7,2.6l3,1.9v6.7l-0.5,0.1
		c-0.5,0.1-1,0.5-1.2,1l-2,3.8c-0.5,0.9-0.2,2.1,0.7,2.6l3,1.9v6.7l-0.5,0.1c-0.5,0.1-1,0.5-1.2,1l-2,3.8c-0.5,0.9-0.2,2.1,0.7,2.6
		l3,1.9v6.7l-0.5,0.1c-0.5,0.1-1,0.5-1.2,1l-2,3.8c-0.5,0.9-0.2,2.1,0.7,2.6l3,1.9v6.7l-0.5,0.1c-0.5,0.1-1,0.5-1.2,1l-2,3.8
		c-0.5,0.9-0.2,2.1,0.7,2.6l3,1.9v6.7l-0.5,0.1c-0.5,0.1-1,0.5-1.2,1l-2,3.8c-0.5,0.9-0.2,2.1,0.7,2.6l3.6,2.2
		c0.5,0.3,1,0.4,1.6,0.2l0.9-0.3l7.6,9.2c0.4,0.5,0.9,0.7,1.5,0.7s1.2-0.3,1.5-0.7l10.2-12.5c0.3-0.4,0.5-0.8,0.5-1.3V703l0.3-0.1
		c0.5-0.1,0.9-0.5,1.2-0.9l2.2-3.8c0.6-1,0.2-2.2-0.7-2.7l-3-1.7V687l0.3-0.1c0.5-0.1,0.9-0.5,1.2-0.9l2.2-3.8
		c0.6-1,0.2-2.2-0.7-2.7l-3-1.7v-6.8l0.3-0.1c0.5-0.1,0.9-0.5,1.2-0.9l2.2-3.8c0.6-1,0.2-2.2-0.7-2.7l-3-1.7v-6.8l0.3-0.1
		c0.5-0.1,0.9-0.5,1.2-0.9l2.2-3.8c0.6-1,0.2-2.2-0.7-2.7l-3-1.7v-6.8l0.3-0.1c0.5-0.1,0.9-0.5,1.2-0.9l2.2-3.8
		c0.6-1,0.2-2.2-0.7-2.7l-3-1.7v-6.8l0.3-0.1c0.5-0.1,0.9-0.5,1.2-0.9l2.2-3.8c0.6-1,0.2-2.2-0.7-2.7l-3-1.7v-6.8l0.3-0.1
		c0.5-0.1,0.9-0.5,1.2-0.9l2.2-3.8c0.6-1,0.2-2.2-0.7-2.7l-3-1.7v-6.8l0.3-0.1c0.5-0.1,0.9-0.5,1.2-0.9l2.2-3.8
		c0.6-1,0.2-2.2-0.7-2.7l-3-1.7v-6.8l0.3-0.1c0.5-0.1,0.9-0.5,1.2-0.9l2.2-3.8c0.6-1,0.2-2.2-0.7-2.7l-3-1.7v-6.8l0.3-0.1
		c0.5-0.1,0.9-0.5,1.2-0.9l2.2-3.8c0.6-1,0.2-2.2-0.7-2.7l-3-1.7v-6.8l0.3-0.1c0.5-0.1,0.9-0.5,1.2-0.9l2.2-3.8
		c0.6-1,0.2-2.2-0.7-2.7l-3-1.7v-6.8l0.3-0.1c0.5-0.1,0.9-0.5,1.2-0.9l2.2-3.8c0.6-1,0.2-2.2-0.7-2.7l-3-1.7v-6.8l0.3-0.1
		c0.5-0.1,0.9-0.5,1.2-0.9l2.2-3.8c0.6-1,0.2-2.2-0.7-2.7l-3-1.7v-20.2c0-3.4,2-6.5,5.2-7.8l20.6-8.9c0.7-0.3,1.2-1,1.2-1.8v-8.9
		C650.4,452.2,649.5,451.3,648.4,451.3z M576.1,455.3h70.3v5.5l-0.7,0.3h-68.9l-0.7-0.3V455.3z M611.3,713.6l-6.2-7.6l14.4-3.9v1.4
		L611.3,713.6z M622,699.3l-1,0.3c-0.2,0.1-0.4,0.1-0.6,0.3l-17.4,4.7c0,0-0.1,0-0.1,0c-0.2,0-0.3,0-0.5,0.1l-1.4,0.4l-1.3-0.8
		l0.7-1.3l1.1-0.3c0.9-0.2,1.5-1,1.5-1.9v-9.6c0-0.1,0-0.3,0-0.4l16.5-4.4v9c0,0.6,0.3,1.2,0.8,1.6c0.3,0.2,0.6,0.3,0.9,0.4l1.6,0.9
		L622,699.3z M622,683.2l-1,0.3c-0.2,0.1-0.4,0.1-0.5,0.2l-19.3,5.2c0,0,0,0,0,0l-1.4-0.9l0.7-1.3l1.1-0.3c0.9-0.2,1.5-1,1.5-1.9
		v-9.6c0-0.1,0-0.3,0-0.4l16.5-4.4v9c0,0.6,0.3,1.2,0.8,1.6c0.3,0.2,0.6,0.3,0.9,0.4l1.6,0.9L622,683.2z M622,667.2l-1,0.3
		c-0.2,0.1-0.4,0.1-0.5,0.2l-19.3,5.2c0,0,0,0,0,0l-1.4-0.9l0.7-1.3l1.1-0.3c0.9-0.2,1.5-1,1.5-1.9v-9.6c0-0.1,0-0.3-0.1-0.4
		l16.5-4.4v9c0,0.6,0.3,1.2,0.8,1.6c0.3,0.2,0.6,0.3,0.9,0.4l1.6,0.9L622,667.2z M622,651.1l-1,0.3c-0.2,0.1-0.4,0.1-0.5,0.2
		l-19.3,5.2l-1.4-0.9l0.7-1.3l1.1-0.3c0.9-0.2,1.5-1,1.5-1.9v-9.6c0-0.1,0-0.3-0.1-0.4l16.5-4.4v9c0,0.6,0.3,1.2,0.8,1.6
		c0.3,0.2,0.6,0.3,0.9,0.4l1.6,0.9L622,651.1z M622,635l-1,0.3c-0.2,0-0.3,0.1-0.5,0.2l-19.4,5.2l-1.4-0.9l0.7-1.3l1.1-0.3
		c0.9-0.2,1.5-1,1.5-1.9v-9.6c0-0.2,0-0.3-0.1-0.4l16.5-4.4v9c0,0.6,0.3,1.2,0.8,1.6c0.3,0.2,0.6,0.3,0.9,0.4l1.6,0.9L622,635z
		 M622,618.9l-1,0.3c-0.2,0-0.3,0.1-0.5,0.2l-19.4,5.2l-1.4-0.9l0.7-1.3l1.1-0.3c0.9-0.2,1.5-1,1.5-1.9v-9.6c0-0.2,0-0.3-0.1-0.4
		l16.5-4.4v9c0,0.6,0.3,1.2,0.8,1.6c0.3,0.2,0.6,0.3,0.9,0.4l1.6,0.9L622,618.9z M622,602.9l-1,0.3c-0.2,0-0.3,0.1-0.5,0.2
		l-19.4,5.2l-1.4-0.8l0.7-1.3l1.1-0.3c0.9-0.2,1.5-1,1.5-1.9v-9.6c0-0.2,0-0.3-0.1-0.5l16.5-4.4v9c0,0.6,0.3,1.2,0.8,1.6
		c0.3,0.2,0.6,0.3,0.9,0.4l1.6,0.9L622,602.9z M622,586.8l-1,0.3c-0.2,0-0.3,0.1-0.5,0.2l-19.4,5.2l-1.4-0.8l0.7-1.3l1.1-0.3
		c0.9-0.2,1.5-1,1.5-1.9v-9.6c0-0.2,0-0.3-0.1-0.5l16.5-4.4v9c0,0.6,0.3,1.2,0.8,1.6c0.3,0.2,0.6,0.3,0.9,0.4l1.6,0.9L622,586.8z
		 M622,570.7l-1,0.3c-0.2,0-0.3,0.1-0.4,0.2l-19.4,5.2l-1.4-0.8l0.7-1.3l1.1-0.3c0.9-0.2,1.5-1,1.5-1.9v-9.6c0-0.2,0-0.3-0.1-0.5
		l16.5-4.4v9.1c0,0.6,0.3,1.2,0.8,1.6c0.3,0.2,0.6,0.3,0.9,0.4l1.6,0.9L622,570.7z M622,554.7l-1,0.3c-0.1,0-0.3,0.1-0.4,0.2
		l-19.5,5.2l-1.4-0.8l0.7-1.3l1.1-0.3c0.9-0.2,1.5-1,1.5-1.9v-9.6c0-0.2,0-0.3-0.1-0.5l16.5-4.4v9.1c0,0.6,0.3,1.2,0.8,1.6
		c0.3,0.2,0.6,0.3,0.9,0.4l1.6,0.9L622,554.7z M622,538.6l-1,0.3c-0.1,0-0.3,0.1-0.4,0.2l-19.5,5.2l-1.4-0.8l0.7-1.3l1.1-0.3
		c0.9-0.2,1.5-1,1.5-1.9v-9.6c0-0.2,0-0.3-0.1-0.5l16.5-4.4v9.1c0,0.6,0.3,1.2,0.8,1.6c0.3,0.2,0.6,0.3,0.9,0.4l1.6,0.9L622,538.6z
		 M622,522.5l-1,0.3c-0.1,0-0.3,0.1-0.4,0.2l-19.5,5.2l-1.3-0.8l0.7-1.3l1.1-0.3c0.9-0.2,1.5-1,1.5-1.9v-9.6c0-0.2,0-0.3-0.1-0.5
		l16.5-4.4v9.1c0,0.6,0.3,1.2,0.8,1.6c0.3,0.2,0.6,0.3,0.9,0.4l1.6,0.9L622,522.5z M627.1,469.2c-4.6,2-7.6,6.5-7.6,11.5v21.5
		c0,0.6,0.3,1.2,0.8,1.6c0.3,0.2,0.6,0.3,0.9,0.4l1.6,0.9l-0.8,1.3l-1,0.3c-0.1,0-0.3,0.1-0.4,0.1l-19.5,5.2l-1.3-0.8l0.7-1.3
		l1.1-0.3c0.9-0.2,1.5-1,1.5-1.9v-26.9c0-5-3-9.5-7.6-11.5l-14-6h59.6L627.1,469.2z"/>
	<path class="st0" d="M889,36.6h-49.1c-1.1,0-2,0.9-2,2v5.9c0,0.8,0.5,1.5,1.2,1.8l13.6,5.9c1.8,0.8,3,2.6,3,4.6V73
		c-0.4,0.2-0.8,0.5-1.1,0.9l-1.3,2.5c-0.5,0.9-0.2,2.1,0.7,2.6l1.7,1v3.5c-0.4,0.2-0.8,0.5-1.1,0.9l-1.3,2.5
		c-0.5,0.9-0.2,2.1,0.7,2.6l1.7,1v3.5c-0.4,0.2-0.8,0.5-1.1,0.9l-1.3,2.5c-0.5,0.9-0.2,2.1,0.7,2.6l1.7,1v3.5
		c-0.4,0.2-0.8,0.5-1.1,0.9l-1.3,2.5c-0.5,0.9-0.2,2.1,0.7,2.6l1.7,1v3.5c-0.4,0.2-0.8,0.5-1.1,0.9l-1.3,2.5
		c-0.5,0.9-0.2,2.1,0.7,2.6l1.7,1v3.5c-0.4,0.2-0.8,0.5-1.1,0.9l-1.3,2.5c-0.5,0.9-0.2,2.1,0.7,2.6l1.7,1v3.5
		c-0.4,0.2-0.8,0.5-1.1,0.9l-1.3,2.5c-0.5,0.9-0.2,2.1,0.7,2.6l2.4,1.5c0.5,0.3,1,0.4,1.6,0.2l0.2-0.1l4.7,5.8
		c0.4,0.5,0.9,0.7,1.5,0.7c0.6,0,1.2-0.3,1.5-0.7l6.8-8.2c0.3-0.4,0.5-0.8,0.5-1.3v-0.3c0.4-0.2,0.7-0.5,0.9-0.8l1.4-2.5
		c0.3-0.5,0.3-1,0.2-1.5c-0.1-0.5-0.5-0.9-0.9-1.2l-1.6-0.9v-3.6c0.4-0.2,0.7-0.5,0.9-0.8l1.4-2.5c0.6-1,0.2-2.2-0.7-2.7l-1.6-0.9
		v-3.6c0.4-0.2,0.7-0.5,0.9-0.8l1.4-2.5c0.6-1,0.2-2.2-0.7-2.7l-1.6-0.9v-3.6c0.4-0.2,0.7-0.5,0.9-0.8l1.4-2.5
		c0.3-0.5,0.3-1,0.2-1.5c-0.1-0.5-0.5-0.9-0.9-1.2l-1.6-0.9v-3.6c0.4-0.2,0.7-0.5,0.9-0.8l1.4-2.5c0.3-0.5,0.3-1,0.2-1.5
		c-0.1-0.5-0.5-0.9-0.9-1.2l-1.6-0.9v-3.6c0.4-0.2,0.7-0.5,0.9-0.8l1.4-2.5c0.3-0.5,0.3-1,0.2-1.5c-0.1-0.5-0.5-0.9-0.9-1.2
		l-1.6-0.9v-3.6c0.4-0.2,0.7-0.5,0.9-0.8l1.4-2.5c0.3-0.5,0.3-1,0.2-1.5c-0.1-0.5-0.5-1-1-1.2l-1.6-0.9v-13c0-2,1.2-3.8,3-4.6
		l13.6-5.9c0.7-0.3,1.2-1,1.2-1.8v-5.9C891,37.5,890.1,36.6,889,36.6z M841.8,40.6H887v2.5l-0.7,0.3h-43.6l-0.7-0.3V40.6z
		 M857.9,87.4l-0.2-0.1l0.5-0.2c0.9-0.2,1.5-1,1.5-1.9v-6.4c0-0.1,0-0.1,0-0.2l9.5-2.6v5.5c0,0.6,0.3,1.2,0.8,1.6
		c0.2,0.2,0.5,0.3,0.8,0.4l0.4,0.2l-0.4,0.2c-0.4,0.1-0.8,0.3-1,0.7l-11.3,3C858.2,87.4,858.1,87.4,857.9,87.4z M857.9,98l-0.2-0.1
		l0.5-0.2c0.9-0.2,1.5-1,1.5-1.9v-6.4c0-0.1,0-0.1,0-0.1l9.5-2.6v5.5c0,0.6,0.3,1.2,0.8,1.6c0.2,0.2,0.5,0.3,0.7,0.4l0.4,0.2
		l-0.4,0.2c-0.4,0.1-0.8,0.3-1,0.7l-11.3,3C858.2,98.1,858.1,98,857.9,98z M857.9,108.6l-0.2-0.1l0.5-0.2c0.9-0.2,1.5-1,1.5-1.9V100
		c0,0,0-0.1,0-0.1l9.5-2.6v5.5c0,0.6,0.3,1.2,0.8,1.6c0.2,0.2,0.5,0.3,0.7,0.4l0.4,0.2l-0.4,0.2c-0.4,0.1-0.8,0.3-1,0.7l-11.3,3
		C858.2,108.7,858.1,108.6,857.9,108.6z M857.9,119.2l-0.2-0.1l0-0.1l0.5-0.1c0.9-0.2,1.5-1,1.5-1.9v-6.4c0,0,0-0.1,0-0.1l9.5-2.6
		v5.5c0,0.6,0.3,1.2,0.8,1.6c0.2,0.2,0.5,0.3,0.7,0.4l0.4,0.2l-0.4,0.2c-0.4,0.1-0.8,0.4-1,0.7l-11.3,3
		C858.2,119.3,858.1,119.3,857.9,119.2z M857.9,129.9l-0.2-0.1l0.5-0.2c0.9-0.2,1.5-1,1.5-1.9v-6.4c0,0,0-0.1,0-0.1l9.5-2.6v5.4
		c0,0.6,0.3,1.2,0.8,1.6c0.2,0.2,0.5,0.3,0.7,0.4l0.4,0.2l-0.4,0.2c-0.4,0.1-0.8,0.4-1,0.7l-11.3,3
		C858.2,129.9,858.1,129.9,857.9,129.9z M858.9,140.1c-0.2,0-0.3,0-0.5,0.1l-0.6,0.2l-0.1,0l0.5-0.2c0.9-0.2,1.5-1,1.5-1.9v-6.4
		c0,0,0-0.1,0-0.1l9.5-2.6v5.4c0,0.6,0.3,1.2,0.8,1.6c0.2,0.2,0.5,0.3,0.8,0.4l0.4,0.2l-0.4,0.2c-0.4,0.1-0.8,0.4-1,0.7l-10,2.7
		C859.3,140.2,859.1,140.1,858.9,140.1z M864.4,145.7l-3.1-3.8l7.9-2.1v0.2L864.4,145.7z M874.6,48.5c-3.3,1.4-5.4,4.6-5.4,8.2v14.2
		c0,0.8,0.5,1.5,1.2,1.8l0.6,0.3l-0.4,0.1c-0.4,0.1-0.8,0.3-1,0.6l-11.3,3c-0.1,0-0.3-0.1-0.4-0.1l-0.2-0.1l0-0.1l0.5-0.1
		c0.9-0.2,1.5-1,1.5-1.9V56.7c0-3.6-2.1-6.8-5.4-8.2l-7-3h34.4L874.6,48.5z"/>
	<path class="st0" d="M532.9,62.7c-8-15.9-27-26.2-48.2-26.2c-21.2,0-40.2,10.3-48.2,26.2c-0.3,0.6-0.3,1.4,0.1,2c0.4,0.6,1,1,1.7,1
		h34.2v228.4c0,0.5,0.2,0.9,0.5,1.3l10.2,12.5c0.4,0.5,0.9,0.7,1.5,0.7s1.2-0.3,1.5-0.7l10.2-12.5c0.3-0.4,0.5-0.8,0.5-1.3V65.6
		h34.2c0.7,0,1.3-0.4,1.7-1C533.2,64.1,533.3,63.4,532.9,62.7z M476.5,293.3v-1.7c0.8-0.9,1.9-1.5,3.1-1.5c2.3,0,4.1,1.8,4.1,4.1
		v7.9L476.5,293.3z M485.7,302.2v-7.9c0-2.3,1.8-4.1,4.1-4.1c1.3,0,2.4,0.6,3.1,1.5v1.7L485.7,302.2z M492.9,289
		c-0.9-0.6-2-0.9-3.1-0.9c-2.1,0-4,1.1-5.1,2.8c-1.1-1.7-3-2.8-5.1-2.8c-1.1,0-2.2,0.3-3.1,0.9V65.6h16.4V289z M494.9,61.6h-20.4
		h-32.8c8.1-12.9,24.6-21.1,43-21.1c18.4,0,34.9,8.2,43,21.1H494.9z"/>
	<path class="st0" d="M776.8,477.1c-5.7-14-18.6-23.8-33.5-25.7c-0.6-0.1-1.1,0.1-1.6,0.5c-0.4,0.4-0.7,0.9-0.7,1.5v15h-6.2v-15
		c0-0.6-0.2-1.1-0.7-1.5c-0.4-0.4-1-0.6-1.6-0.5c-15,1.9-27.8,11.7-33.5,25.7c-0.2,0.3-0.3,0.6-0.3,1v8.9c0,0.8,0.5,1.5,1.2,1.8
		l20.6,8.9c3.1,1.3,5.2,4.4,5.2,7.8v25.4l-0.5,0.1c-0.5,0.1-1,0.5-1.2,1l-2,3.8c-0.5,0.9-0.2,2.1,0.7,2.6l3,1.9v6.7l-0.5,0.1
		c-0.5,0.1-1,0.5-1.2,1l-2,3.8c-0.5,0.9-0.2,2.1,0.7,2.6l3,1.9v6.7l-0.5,0.1c-0.5,0.1-1,0.5-1.2,1l-2,3.8c-0.5,0.9-0.2,2.1,0.7,2.6
		l3,1.9v6.7l-0.5,0.1c-0.5,0.1-1,0.5-1.2,1l-2,3.8c-0.5,0.9-0.2,2.1,0.7,2.6l3,1.9v6.7l-0.5,0.1c-0.5,0.1-1,0.5-1.2,1l-2,3.8
		c-0.5,0.9-0.2,2.1,0.7,2.6l3,1.9v6.7l-0.5,0.1c-0.5,0.1-1,0.5-1.2,1l-2,3.8c-0.5,0.9-0.2,2.1,0.7,2.6l3,1.9v6.7l-0.5,0.1
		c-0.5,0.1-1,0.5-1.2,1l-2,3.8c-0.5,0.9-0.2,2.1,0.7,2.6l3,1.9v6.7l-0.5,0.1c-0.5,0.1-1,0.5-1.2,1l-2,3.8c-0.5,0.9-0.2,2.1,0.7,2.6
		l3,1.9v6.7l-0.5,0.1c-0.5,0.1-1,0.5-1.2,1l-2,3.8c-0.5,0.9-0.2,2.1,0.7,2.6l3,1.9v6.7l-0.5,0.1c-0.5,0.1-1,0.5-1.2,1l-2,3.8
		c-0.5,0.9-0.2,2.1,0.7,2.6l3,1.9v6.7l-0.5,0.1c-0.5,0.1-1,0.5-1.2,1l-2,3.8c-0.5,0.9-0.2,2.1,0.7,2.6l3,1.9v6.7l-0.5,0.1
		c-0.5,0.1-1,0.5-1.2,1l-2,3.8c-0.5,0.9-0.2,2.1,0.7,2.6l3,1.9v6.7l-0.5,0.1c-0.5,0.1-1,0.5-1.2,1l-2,3.8c-0.5,0.9-0.2,2.1,0.7,2.6
		l3.6,2.2c0.5,0.3,1,0.4,1.6,0.2l0.9-0.3l7.6,9.2c0.4,0.5,0.9,0.7,1.5,0.7s1.2-0.3,1.5-0.7l10.2-12.5c0.3-0.4,0.5-0.8,0.5-1.3v-1.2
		l0.3-0.1c0.5-0.1,0.9-0.5,1.2-0.9l2.2-3.8c0.3-0.5,0.3-1,0.2-1.5c-0.1-0.5-0.5-0.9-0.9-1.2l-3-1.7v-6.8l0.3-0.1
		c0.5-0.1,0.9-0.5,1.2-0.9l2.2-3.8c0.3-0.5,0.3-1,0.2-1.5c-0.1-0.5-0.5-0.9-0.9-1.2l-3-1.7v-6.8l0.3-0.1c0.5-0.1,0.9-0.5,1.2-0.9
		l2.2-3.8c0.3-0.5,0.3-1,0.2-1.5c-0.1-0.5-0.5-0.9-0.9-1.2l-3-1.7v-6.8l0.3-0.1c0.5-0.1,0.9-0.5,1.2-0.9l2.2-3.8
		c0.3-0.5,0.3-1,0.2-1.5c-0.1-0.5-0.5-0.9-0.9-1.2l-3-1.7v-6.8l0.3-0.1c0.5-0.1,0.9-0.5,1.2-0.9l2.2-3.8c0.3-0.5,0.3-1,0.2-1.5
		c-0.1-0.5-0.5-0.9-0.9-1.2l-3-1.7v-6.8l0.3-0.1c0.5-0.1,0.9-0.5,1.2-0.9l2.2-3.8c0.3-0.5,0.3-1,0.2-1.5c-0.1-0.5-0.5-0.9-0.9-1.2
		l-3-1.7v-6.8l0.3-0.1c0.5-0.1,0.9-0.5,1.2-0.9l2.2-3.8c0.6-1,0.2-2.2-0.7-2.7l-3-1.7v-6.8l0.3-0.1c0.5-0.1,0.9-0.5,1.2-0.9l2.2-3.8
		c0.3-0.5,0.3-1,0.2-1.5c-0.1-0.5-0.5-0.9-0.9-1.2l-3-1.7v-6.8l0.3-0.1c0.5-0.1,0.9-0.5,1.2-0.9l2.2-3.8c0.3-0.5,0.3-1,0.2-1.5
		c-0.1-0.5-0.5-0.9-0.9-1.2l-3-1.7v-6.8l0.3-0.1c0.5-0.1,0.9-0.5,1.2-0.9l2.2-3.8c0.3-0.5,0.3-1,0.2-1.5c-0.1-0.5-0.5-0.9-0.9-1.2
		l-3-1.7V567l0.3-0.1c0.5-0.1,0.9-0.5,1.2-0.9l2.2-3.8c0.3-0.5,0.3-1,0.2-1.5c-0.1-0.5-0.5-0.9-0.9-1.2l-3-1.7v-6.8l0.3-0.1
		c0.5-0.1,0.9-0.5,1.2-0.9l2.2-3.8c0.3-0.5,0.3-1,0.2-1.5c-0.1-0.5-0.5-0.9-0.9-1.2l-3-1.7v-6.8l0.3-0.1c0.5-0.1,0.9-0.5,1.2-0.9
		l2.2-3.8c0.3-0.5,0.3-1,0.2-1.5c-0.1-0.5-0.5-0.9-0.9-1.2l-3-1.7v-20.2c0-3.4,2-6.5,5.2-7.8l20.6-8.9c0.7-0.3,1.2-1,1.2-1.8V478
		C777,477.7,776.9,477.4,776.8,477.1z M730.7,455.7v14.6c0,1.1,0.9,2,2,2h10.2c1.1,0,2-0.9,2-2v-14.6c12,2.3,22.2,10.2,27.4,21.4
		h-69C708.5,465.9,718.7,458,730.7,455.7z M772.3,485.9h-68.9l-0.7-0.3V479H773v6.5L772.3,485.9z M737.8,738.3l-6.2-7.6l14.4-3.9
		v1.4L737.8,738.3z M748.5,724l-1,0.3c-0.2,0.1-0.4,0.1-0.6,0.3l-17.4,4.7c0,0-0.1,0-0.1,0c-0.2,0-0.3,0-0.5,0.1l-1.4,0.4l-1.3-0.8
		l0.7-1.3l1.1-0.3c0.9-0.2,1.5-1,1.5-1.9v-9.6c0-0.1,0-0.3,0-0.4l16.5-4.4v9c0,0.6,0.3,1.2,0.8,1.6c0.3,0.2,0.6,0.3,0.9,0.4l1.6,0.9
		L748.5,724z M748.5,707.9l-1,0.3c-0.2,0.1-0.4,0.1-0.6,0.2l-19.3,5.2c0,0,0,0,0,0l-1.4-0.9l0.7-1.3l1.1-0.3c0.9-0.2,1.5-1,1.5-1.9
		v-9.6c0-0.1,0-0.3,0-0.4l16.5-4.4v9c0,0.6,0.3,1.2,0.8,1.6c0.3,0.2,0.6,0.3,0.9,0.4l1.6,0.9L748.5,707.9z M748.5,691.9l-1,0.3
		c-0.2,0.1-0.4,0.1-0.5,0.2l-19.3,5.2c0,0,0,0,0,0l-1.4-0.9l0.7-1.3l1.1-0.3c0.9-0.2,1.5-1,1.5-1.9v-9.6c0-0.1,0-0.3-0.1-0.4
		l16.5-4.4v9c0,0.6,0.3,1.2,0.8,1.6c0.3,0.2,0.6,0.3,0.9,0.4l1.6,0.9L748.5,691.9z M748.5,675.8l-1,0.3c-0.2,0.1-0.4,0.1-0.5,0.2
		l-19.3,5.2l-1.4-0.9l0.7-1.3l1.1-0.3c0.9-0.2,1.5-1,1.5-1.9v-9.6c0-0.1,0-0.3-0.1-0.4l16.5-4.4v9c0,0.6,0.3,1.2,0.8,1.6
		c0.3,0.2,0.6,0.3,0.9,0.4l1.6,0.9L748.5,675.8z M748.5,659.7l-1,0.3c-0.2,0-0.3,0.1-0.5,0.2l-19.4,5.2l-1.4-0.9l0.7-1.3l1.1-0.3
		c0.9-0.2,1.5-1,1.5-1.9v-9.6c0-0.2,0-0.3-0.1-0.4l16.5-4.4v9c0,0.6,0.3,1.2,0.8,1.6c0.3,0.2,0.6,0.3,0.9,0.4l1.6,0.9L748.5,659.7z
		 M748.5,643.7l-1,0.3c-0.2,0-0.3,0.1-0.5,0.2l-19.4,5.2l-1.4-0.9l0.7-1.3l1.1-0.3c0.9-0.2,1.5-1,1.5-1.9v-9.6c0-0.2,0-0.3-0.1-0.4
		l16.5-4.4v9c0,0.6,0.3,1.2,0.8,1.6c0.3,0.2,0.6,0.3,0.9,0.4l1.6,0.9L748.5,643.7z M748.5,627.6l-1,0.3c-0.2,0-0.3,0.1-0.5,0.2
		l-19.4,5.2l-1.4-0.8l0.7-1.3l1.1-0.3c0.9-0.2,1.5-1,1.5-1.9v-9.6c0-0.2,0-0.3-0.1-0.5l16.5-4.4v9c0,0.6,0.3,1.2,0.8,1.6
		c0.3,0.2,0.6,0.3,0.9,0.4l1.6,0.9L748.5,627.6z M748.5,611.5l-1,0.3c-0.2,0-0.3,0.1-0.5,0.2l-19.4,5.2l-1.4-0.8l0.7-1.3l1.1-0.3
		c0.9-0.2,1.5-1,1.5-1.9v-9.6c0-0.2,0-0.3-0.1-0.5l16.5-4.4v9c0,0.6,0.3,1.2,0.8,1.6c0.3,0.2,0.6,0.3,0.9,0.4l1.6,0.9L748.5,611.5z
		 M748.5,595.4l-1,0.3c-0.2,0-0.3,0.1-0.4,0.2l-19.4,5.2l-1.4-0.8l0.7-1.3l1.1-0.3c0.9-0.2,1.5-1,1.5-1.9V587c0-0.2,0-0.3-0.1-0.5
		l16.5-4.4v9.1c0,0.6,0.3,1.2,0.8,1.6c0.3,0.2,0.6,0.3,0.9,0.4l1.6,0.9L748.5,595.4z M748.5,579.4l-1,0.3c-0.2,0-0.3,0.1-0.4,0.2
		l-19.5,5.2l-1.4-0.8l0.7-1.3l1.1-0.3c0.9-0.2,1.5-1,1.5-1.9V571c0-0.2,0-0.3-0.1-0.5l16.5-4.4v9.1c0,0.6,0.3,1.2,0.8,1.6
		c0.3,0.2,0.6,0.3,0.9,0.4l1.6,0.9L748.5,579.4z M748.5,563.3l-1,0.3c-0.1,0-0.3,0.1-0.4,0.2l-19.5,5.2l-1.4-0.8l0.7-1.3l1.1-0.3
		c0.9-0.2,1.5-1,1.5-1.9v-9.6c0-0.2,0-0.3-0.1-0.5l16.5-4.4v9.1c0,0.6,0.3,1.2,0.8,1.6c0.3,0.2,0.6,0.3,0.9,0.4l1.6,0.9L748.5,563.3
		z M748.5,547.2l-1,0.3c-0.1,0-0.3,0.1-0.4,0.2l-19.5,5.2l-1.3-0.8l0.7-1.3l1.1-0.3c0.9-0.2,1.5-1,1.5-1.9v-9.6c0-0.2,0-0.3-0.1-0.5
		l16.5-4.4v9.1c0,0.6,0.3,1.2,0.8,1.6c0.3,0.2,0.6,0.3,0.9,0.4l1.6,0.9L748.5,547.2z M753.6,493.9c-4.6,2-7.6,6.5-7.6,11.5v21.5
		c0,0.6,0.3,1.2,0.8,1.6c0.3,0.2,0.6,0.3,0.9,0.4l1.6,0.9l-0.8,1.3l-1,0.3c-0.1,0-0.3,0.1-0.4,0.1l-19.5,5.2l-1.3-0.8l0.7-1.3
		l1.1-0.3c0.9-0.2,1.5-1,1.5-1.9v-27c0-5-3-9.5-7.6-11.5l-14-6h59.6L753.6,493.9z"/>
	<path class="st0" d="M247.9,36.6h-32.4c-4,0-7.3,3.3-7.3,7.3v8.7c0,3.5,2.5,6.5,6,7.2c3,0.6,5.3,3.2,5.3,6.3v223.4
		c0,0.5,0.2,0.9,0.5,1.3l10.2,12.5c0.4,0.5,0.9,0.7,1.5,0.7c0.6,0,1.2-0.3,1.5-0.7l10.2-12.5c0.3-0.4,0.5-0.8,0.5-1.3V66.1
		c0-3.1,2.2-5.8,5.2-6.3l0.1,0c3.4-0.6,5.9-3.6,5.9-7.1v-8.7C255.1,39.8,251.9,36.6,247.9,36.6z M215.4,40.6h32.4
		c1.8,0,3.3,1.5,3.3,3.3v7.7h-39v-7.7C212.2,42.1,213.6,40.6,215.4,40.6z M223.4,288.8v-1.7c0.8-0.9,1.9-1.5,3.1-1.5
		c2.3,0,4.1,1.8,4.1,4.1v7.9L223.4,288.8z M232.6,297.6v-7.9c0-2.3,1.8-4.1,4.1-4.1c1.3,0,2.4,0.6,3.1,1.5v1.7L232.6,297.6z
		 M248.5,55.8l-0.1,0c-4.9,0.9-8.5,5.2-8.5,10.3v218.4c-0.9-0.6-2-0.9-3.1-0.9c-2.1,0-4,1.1-5.1,2.8c-1.1-1.7-3-2.8-5.1-2.8
		c-1.1,0-2.2,0.3-3.1,0.9V66.1c0-5-3.6-9.3-8.6-10.3c-1.2-0.2-2.1-1.1-2.5-2.2H251C250.6,54.7,249.7,55.6,248.5,55.8z"/>
	<path class="st0" d="M748.8,36.6h-21.9c-3.1,0-5.6,2.5-5.6,5.6V48c0,2.7,1.9,5,4.6,5.5c1.7,0.3,3,1.8,3,3.6v96.3
		c0,0.5,0.2,0.9,0.5,1.3l6.9,8.4c0.4,0.5,0.9,0.7,1.5,0.7s1.2-0.3,1.5-0.7l6.9-8.4c0.3-0.4,0.5-0.8,0.5-1.3V57.1
		c0-1.8,1.3-3.3,3.1-3.6c2.6-0.5,4.5-2.8,4.5-5.5v-5.9C754.3,39.1,751.8,36.6,748.8,36.6z M726.9,40.6h21.9c0.9,0,1.6,0.7,1.6,1.6
		V47h-25v-4.9C725.3,41.3,726,40.6,726.9,40.6z M732.9,152.7v-1.1c0.4-0.3,0.9-0.5,1.5-0.5c1.3,0,2.4,1.1,2.4,2.4v3.9L732.9,152.7z
		 M738.8,157.4v-3.9c0-1.3,1.1-2.4,2.4-2.4c0.6,0,1.1,0.2,1.5,0.5v1.1L738.8,157.4z M749,49.6c-3.6,0.7-6.3,3.9-6.3,7.6v92.2
		c-0.5-0.2-0.9-0.3-1.5-0.3c-1.4,0-2.6,0.7-3.4,1.7c-0.8-1-2-1.7-3.4-1.7c-0.5,0-1,0.1-1.5,0.3V57.1c0-3.7-2.6-6.9-6.3-7.6
		c-0.4-0.1-0.7-0.3-0.9-0.5H750C749.7,49.3,749.4,49.5,749,49.6z"/>
	<path class="st0" d="M901.6,451.3h-74.3c-1.1,0-2,0.9-2,2v8.9c0,0.8,0.5,1.5,1.2,1.8l18.3,7.9v105.5c0,1.1,0.9,2,2,2h5.4v7.1
		l-0.5,0.1c-0.5,0.1-1,0.5-1.2,1l-2,3.8c-0.5,0.9-0.2,2.1,0.7,2.6l3,1.9v6.7l-0.5,0.1c-0.5,0.1-1,0.5-1.2,1l-2,3.8
		c-0.5,0.9-0.2,2.1,0.7,2.6l3,1.9v6.7l-0.5,0.1c-0.5,0.1-1,0.5-1.2,1l-2,3.8c-0.5,0.9-0.2,2.1,0.7,2.6l3,1.9v6.7l-0.5,0.1
		c-0.5,0.1-1,0.5-1.2,1l-2,3.8c-0.5,0.9-0.2,2.1,0.7,2.6l3,1.9v6.7l-0.5,0.1c-0.5,0.1-1,0.5-1.2,1l-2,3.8c-0.5,0.9-0.2,2.1,0.7,2.6
		l3,1.9v6.7l-0.5,0.1c-0.5,0.1-1,0.5-1.2,1l-2,3.8c-0.5,0.9-0.2,2.1,0.7,2.6l3,1.9v6.7l-0.5,0.1c-0.5,0.1-1,0.5-1.2,1l-2,3.8
		c-0.5,0.9-0.2,2.1,0.7,2.6l3,1.9v6.7l-0.5,0.1c-0.5,0.1-1,0.5-1.2,1l-2,3.8c-0.5,0.9-0.2,2.1,0.7,2.6l3.6,2.2
		c0.5,0.3,1,0.4,1.6,0.2l0.9-0.3l7.6,9.2c0.4,0.5,0.9,0.7,1.5,0.7c0.6,0,1.2-0.3,1.5-0.7l10.2-12.5c0.3-0.4,0.5-0.8,0.5-1.3V703
		l0.3-0.1c0.5-0.1,0.9-0.5,1.2-0.9l2.2-3.8c0.3-0.5,0.3-1,0.2-1.5c-0.1-0.5-0.5-0.9-0.9-1.2l-3-1.7V687l0.3-0.1
		c0.5-0.1,0.9-0.5,1.2-0.9l2.2-3.8c0.3-0.5,0.3-1,0.2-1.5c-0.1-0.5-0.5-0.9-0.9-1.2l-3-1.7v-6.8l0.3-0.1c0.5-0.1,0.9-0.5,1.2-0.9
		l2.2-3.8c0.3-0.5,0.3-1,0.2-1.5c-0.1-0.5-0.5-0.9-0.9-1.2l-3-1.7v-6.8l0.3-0.1c0.5-0.1,0.9-0.5,1.2-0.9l2.2-3.8
		c0.3-0.5,0.3-1,0.2-1.5c-0.1-0.5-0.5-0.9-0.9-1.2l-3-1.7v-6.8l0.3-0.1c0.5-0.1,0.9-0.5,1.2-0.9l2.2-3.8c0.3-0.5,0.3-1,0.2-1.5
		c-0.1-0.5-0.5-0.9-0.9-1.2l-3-1.7v-6.8l0.3-0.1c0.5-0.1,0.9-0.5,1.2-0.9l2.2-3.8c0.3-0.5,0.3-1,0.2-1.5c-0.1-0.5-0.5-0.9-0.9-1.2
		l-3-1.7v-6.8l0.3-0.1c0.5-0.1,0.9-0.5,1.2-0.9l2.2-3.8c0.3-0.5,0.3-1,0.2-1.5c-0.1-0.5-0.5-0.9-0.9-1.2l-3-1.7v-6.8l0.3-0.1
		c0.5-0.1,0.9-0.5,1.2-0.9l2.2-3.8c0.3-0.5,0.3-1,0.2-1.5c-0.1-0.5-0.5-0.9-0.9-1.2l-3-1.7v-1.8h5.9c1.1,0,2-0.9,2-2V471.7l17.8-7.7
		c0.7-0.3,1.2-1,1.2-1.8v-8.9C903.6,452.2,902.7,451.3,901.6,451.3z M829.2,455.3h70.3v5.5l-0.7,0.3H830l-0.7-0.3V455.3z
		 M864.4,713.6l-6.2-7.5l14.4-3.9v1.4L864.4,713.6z M875.1,699.3l-1,0.3c-0.2,0.1-0.4,0.1-0.6,0.3l-17.4,4.7c0,0-0.1,0-0.1,0
		c-0.2,0-0.3,0-0.5,0.1l-1.4,0.4l-1.3-0.8l0.7-1.3l1.1-0.3c0.9-0.2,1.5-1,1.5-1.9v-9.6c0-0.1,0-0.3,0-0.4l16.5-4.4v9
		c0,0.6,0.3,1.2,0.8,1.6c0.3,0.2,0.6,0.3,0.9,0.4l1.6,0.9L875.1,699.3z M875.1,683.2l-1,0.3c-0.2,0.1-0.4,0.1-0.5,0.2l-19.3,5.2
		c0,0,0,0,0,0l-1.4-0.9l0.7-1.3l1.1-0.3c0.9-0.2,1.5-1,1.5-1.9v-9.6c0-0.1,0-0.3,0-0.4l16.5-4.4v9c0,0.6,0.3,1.2,0.8,1.6
		c0.3,0.2,0.6,0.3,0.9,0.4l1.6,0.9L875.1,683.2z M875.1,667.2l-1,0.3c-0.2,0.1-0.4,0.1-0.5,0.2l-19.3,5.2c0,0,0,0,0,0l-1.4-0.9
		l0.7-1.3l1.1-0.3c0.9-0.2,1.5-1,1.5-1.9v-9.6c0-0.1,0-0.3-0.1-0.4l16.5-4.4v9c0,0.6,0.3,1.2,0.8,1.6c0.3,0.2,0.6,0.3,0.9,0.4
		l1.6,0.9L875.1,667.2z M875.1,651.1l-1,0.3c-0.2,0.1-0.4,0.1-0.5,0.2l-19.3,5.2l-1.4-0.9l0.7-1.3l1.1-0.3c0.9-0.2,1.5-1,1.5-1.9
		v-9.6c0-0.1,0-0.3-0.1-0.4l16.5-4.4v9c0,0.6,0.3,1.2,0.8,1.6c0.3,0.2,0.6,0.3,0.9,0.4l1.6,0.9L875.1,651.1z M875.1,635l-1,0.3
		c-0.2,0-0.3,0.1-0.5,0.2l-19.4,5.2l-1.4-0.9l0.7-1.3l1.1-0.3c0.9-0.2,1.5-1,1.5-1.9v-9.6c0-0.2,0-0.3-0.1-0.4l16.5-4.4v9
		c0,0.6,0.3,1.2,0.8,1.6c0.3,0.2,0.6,0.3,0.9,0.4l1.6,0.9L875.1,635z M875.1,618.9l-1,0.3c-0.2,0-0.3,0.1-0.5,0.2l-19.4,5.2
		l-1.4-0.9l0.7-1.3l1.1-0.3c0.9-0.2,1.5-1,1.5-1.9v-9.6c0-0.2,0-0.3-0.1-0.4l16.5-4.4v9c0,0.6,0.3,1.2,0.8,1.6
		c0.3,0.2,0.6,0.3,0.9,0.4l1.6,0.9L875.1,618.9z M875.1,602.9l-1,0.3c-0.2,0-0.3,0.1-0.5,0.2l-19.4,5.2l-1.4-0.8l0.7-1.3l1.1-0.3
		c0.9-0.2,1.5-1,1.5-1.9v-9.6c0-0.2,0-0.3-0.1-0.5l16.5-4.4v9c0,0.6,0.3,1.2,0.8,1.6c0.3,0.2,0.6,0.3,0.9,0.4l1.6,0.9L875.1,602.9z
		 M881.7,468.6c-0.7,0.3-1.2,1-1.2,1.8v105h-5.9c-1.1,0-2,0.9-2,2v5.1c0,0.6,0.3,1.2,0.8,1.6c0.3,0.2,0.6,0.3,0.9,0.4l1.6,0.9
		l-0.8,1.3l-1,0.3c-0.2,0-0.3,0.1-0.5,0.2l-19.4,5.2l-1.4-0.8l0.7-1.3l1.1-0.3c0.9-0.2,1.5-1,1.5-1.9v-10.6c0-1.1-0.9-2-2-2h-5.4
		V470.6c0-0.8-0.5-1.5-1.2-1.8l-12.9-5.6h59.6L881.7,468.6z"/>
	<path class="st0" d="M516.6,451.3h-26.8c-1.1,0-2,0.9-2,2V469h-6.2v-15.6c0-1.1-0.9-2-2-2h-26.8c-4,0-7.3,3.3-7.3,7.3v17.7
		c0,2.9,1.7,5.5,4.4,6.7l17.4,7.5c3.1,1.3,5.2,4.4,5.2,7.8v25.4l-0.5,0.1c-0.5,0.1-1,0.5-1.2,1l-2,3.8c-0.5,0.9-0.2,2.1,0.7,2.6
		l3,1.9v6.7L472,540c-0.5,0.1-1,0.5-1.2,1l-2,3.8c-0.5,0.9-0.2,2.1,0.7,2.6l3,1.9v6.7L472,556c-0.5,0.1-1,0.5-1.2,1l-2,3.8
		c-0.5,0.9-0.2,2.1,0.7,2.6l3,1.9v6.7l-0.5,0.1c-0.5,0.1-1,0.5-1.2,1l-2,3.8c-0.5,0.9-0.2,2.1,0.7,2.6l3,1.9v6.7l-0.5,0.1
		c-0.5,0.1-1,0.5-1.2,1l-2,3.8c-0.5,0.9-0.2,2.1,0.7,2.6l3,1.9v6.7l-0.5,0.1c-0.5,0.1-1,0.5-1.2,1l-2,3.8c-0.5,0.9-0.2,2.1,0.7,2.6
		l3,1.9v6.7l-0.5,0.1c-0.5,0.1-1,0.5-1.2,1l-2,3.8c-0.5,0.9-0.2,2.1,0.7,2.6l3,1.9v6.7l-0.5,0.1c-0.5,0.1-1,0.5-1.2,1l-2,3.8
		c-0.5,0.9-0.2,2.1,0.7,2.6l3,1.9v6.7l-0.5,0.1c-0.5,0.1-1,0.5-1.2,1l-2,3.8c-0.5,0.9-0.2,2.1,0.7,2.6l3,1.9v6.7l-0.5,0.1
		c-0.5,0.1-1,0.5-1.2,1l-2,3.8c-0.5,0.9-0.2,2.1,0.7,2.6l3,1.9v6.7l-0.5,0.1c-0.5,0.1-1,0.5-1.2,1l-2,3.8c-0.5,0.9-0.2,2.1,0.7,2.6
		l3,1.9v6.7l-0.5,0.1c-0.5,0.1-1,0.5-1.2,1l-2,3.8c-0.5,0.9-0.2,2.1,0.7,2.6l3,1.9v6.7l-0.5,0.1c-0.5,0.1-1,0.5-1.2,1l-2,3.8
		c-0.5,0.9-0.2,2.1,0.7,2.6l3.6,2.2c0.5,0.3,1,0.4,1.6,0.2l0.9-0.3l7.6,9.2c0.4,0.5,0.9,0.7,1.5,0.7s1.2-0.3,1.5-0.7l10.2-12.5
		c0.3-0.4,0.5-0.8,0.5-1.3v-1.2l0.3-0.1c0.5-0.1,0.9-0.5,1.2-0.9l2.2-3.8c0.3-0.5,0.3-1,0.2-1.5c-0.1-0.5-0.5-0.9-0.9-1.2l-3-1.7
		v-6.8l0.3-0.1c0.5-0.1,0.9-0.5,1.2-0.9l2.2-3.8c0.3-0.5,0.3-1,0.2-1.5c-0.1-0.5-0.5-0.9-0.9-1.2l-3-1.7v-6.8l0.3-0.1
		c0.5-0.1,0.9-0.5,1.2-0.9l2.2-3.8c0.6-1,0.2-2.2-0.7-2.7l-3-1.7v-6.8l0.3-0.1c0.5-0.1,0.9-0.5,1.2-0.9l2.2-3.8
		c0.6-1,0.2-2.2-0.7-2.7l-3-1.7v-6.8l0.3-0.1c0.5-0.1,0.9-0.5,1.2-0.9l2.2-3.8c0.3-0.5,0.3-1,0.2-1.5c-0.1-0.5-0.5-0.9-0.9-1.2
		l-3-1.7v-6.8l0.3-0.1c0.5-0.1,0.9-0.5,1.2-0.9l2.2-3.8c0.3-0.5,0.3-1,0.2-1.5c-0.1-0.5-0.5-0.9-0.9-1.2l-3-1.7v-6.8l0.3-0.1
		c0.5-0.1,0.9-0.5,1.2-0.9l2.2-3.8c0.3-0.5,0.3-1,0.2-1.5c-0.1-0.5-0.5-0.9-0.9-1.2l-3-1.7v-6.8l0.3-0.1c0.5-0.1,0.9-0.5,1.2-0.9
		l2.2-3.8c0.3-0.5,0.3-1,0.2-1.5c-0.1-0.5-0.5-0.9-0.9-1.2l-3-1.7v-6.8l0.3-0.1c0.5-0.1,0.9-0.5,1.2-0.9l2.2-3.8
		c0.3-0.5,0.3-1,0.2-1.5c-0.1-0.5-0.5-0.9-0.9-1.2l-3-1.7V576l0.3-0.1c0.5-0.1,0.9-0.5,1.2-0.9l2.2-3.8c0.6-1,0.2-2.2-0.7-2.7
		l-3-1.7v-6.8l0.3-0.1c0.5-0.1,0.9-0.5,1.2-0.9l2.2-3.8c0.6-1,0.2-2.2-0.7-2.7l-3-1.7v-6.8l0.3-0.1c0.5-0.1,0.9-0.5,1.2-0.9l2.2-3.8
		c0.3-0.5,0.3-1,0.2-1.5c-0.1-0.5-0.5-0.9-0.9-1.2l-3-1.7v-6.8l0.3-0.1c0.5-0.1,0.9-0.5,1.2-0.9l2.2-3.8c0.3-0.5,0.3-1,0.2-1.5
		c-0.1-0.5-0.5-0.9-0.9-1.2l-3-1.7v-20.2c0-3.4,2-6.5,5.2-7.8l17.4-7.5c2.7-1.1,4.4-3.8,4.4-6.7v-17.7
		C523.9,454.6,520.6,451.3,516.6,451.3z M449.6,458.6c0-1.8,1.5-3.3,3.3-3.3h24.8V471c0,1.1,0.9,2,2,2h10.2c1.1,0,2-0.9,2-2v-15.6
		h24.8c1.8,0,3.3,1.5,3.3,3.3v17.7c0,1-0.4,1.9-1.1,2.5h-68.1c-0.7-0.6-1.1-1.5-1.1-2.5V458.6z M484.7,731.2l-6.2-7.6l14.4-3.9v1.4
		L484.7,731.2z M495.4,716.9l-1,0.3c-0.2,0.1-0.4,0.1-0.6,0.3l-17.4,4.7c0,0-0.1,0-0.1,0c-0.2,0-0.3,0-0.5,0.1l-1.4,0.4l-1.3-0.8
		l0.7-1.3l1.1-0.3c0.9-0.2,1.5-1,1.5-1.9v-9.6c0-0.1,0-0.3,0-0.4l16.5-4.4v9c0,0.6,0.3,1.2,0.8,1.6c0.3,0.2,0.6,0.3,0.9,0.4l1.6,0.9
		L495.4,716.9z M475,704c0.9-0.2,1.5-1,1.5-1.9v-9.6c0-0.1,0-0.3,0-0.4l16.5-4.4v9c0,0.6,0.3,1.2,0.8,1.6c0.3,0.2,0.6,0.3,0.9,0.4
		l1.6,0.9l-0.8,1.3l-1,0.3c-0.2,0.1-0.4,0.1-0.5,0.2l-19.3,5.2c0,0,0,0,0,0l-1.4-0.9l0.7-1.3L475,704z M495.4,684.8l-1,0.3
		c-0.2,0.1-0.4,0.1-0.5,0.2l-19.3,5.2c0,0,0,0,0,0l-1.4-0.9l0.7-1.3l1.1-0.3c0.9-0.2,1.5-1,1.5-1.9v-9.6c0-0.1,0-0.3-0.1-0.4
		l16.5-4.4v9c0,0.6,0.3,1.2,0.8,1.6c0.3,0.2,0.6,0.3,0.9,0.4l1.6,0.9L495.4,684.8z M495.4,668.7l-1,0.3c-0.2,0.1-0.4,0.1-0.5,0.2
		l-19.3,5.2l-1.4-0.9l0.7-1.3l1.1-0.3c0.9-0.2,1.5-1,1.5-1.9v-9.6c0-0.1,0-0.3-0.1-0.4l16.5-4.4v9c0,0.6,0.3,1.2,0.8,1.6
		c0.3,0.2,0.6,0.3,0.9,0.4l1.6,0.9L495.4,668.7z M495.4,652.6l-1,0.3c-0.2,0-0.3,0.1-0.5,0.2l-19.4,5.2l-1.4-0.9l0.7-1.3l1.1-0.3
		c0.9-0.2,1.5-1,1.5-1.9v-9.6c0-0.2,0-0.3-0.1-0.4l16.5-4.4v9c0,0.6,0.3,1.2,0.8,1.6c0.3,0.2,0.6,0.3,0.9,0.4l1.6,0.9L495.4,652.6z
		 M495.4,636.6l-1,0.3c-0.2,0-0.3,0.1-0.5,0.2l-19.4,5.2l-1.4-0.9l0.7-1.3l1.1-0.3c0.9-0.2,1.5-1,1.5-1.9v-9.6c0-0.2,0-0.3-0.1-0.4
		l16.5-4.4v9c0,0.6,0.3,1.2,0.8,1.6c0.3,0.2,0.6,0.3,0.9,0.4l1.6,0.9L495.4,636.6z M495.4,620.5l-1,0.3c-0.2,0-0.3,0.1-0.5,0.2
		l-19.4,5.2l-1.4-0.8l0.7-1.3l1.1-0.3c0.9-0.2,1.5-1,1.5-1.9v-9.6c0-0.2,0-0.3-0.1-0.5l16.5-4.4v9c0,0.6,0.3,1.2,0.8,1.6
		c0.3,0.2,0.6,0.3,0.9,0.4l1.6,0.9L495.4,620.5z M495.4,604.4l-1,0.3c-0.2,0-0.3,0.1-0.5,0.2l-19.4,5.2l-1.4-0.8l0.7-1.3l1.1-0.3
		c0.9-0.2,1.5-1,1.5-1.9V596c0-0.2,0-0.3-0.1-0.5l16.5-4.4v9c0,0.6,0.3,1.2,0.8,1.6c0.3,0.2,0.6,0.3,0.9,0.4l1.6,0.9L495.4,604.4z
		 M475,591.5c0.9-0.2,1.5-1,1.5-1.9V580c0-0.2,0-0.3-0.1-0.5l16.5-4.4v9.1c0,0.6,0.3,1.2,0.8,1.6c0.3,0.2,0.6,0.3,0.9,0.4l1.6,0.9
		l-0.8,1.3l-1,0.3c-0.2,0-0.3,0.1-0.4,0.2l-19.4,5.2l-1.4-0.8l0.7-1.3L475,591.5z M495.4,572.3l-1,0.3c-0.1,0-0.3,0.1-0.4,0.2
		l-19.5,5.2l-1.4-0.8l0.7-1.3l1.1-0.3c0.9-0.2,1.5-1,1.5-1.9v-9.6c0-0.2,0-0.3-0.1-0.5l16.5-4.4v9.1c0,0.6,0.3,1.2,0.8,1.6
		c0.3,0.2,0.6,0.3,0.9,0.4l1.6,0.9L495.4,572.3z M495.4,556.2l-1,0.3c-0.1,0-0.3,0.1-0.4,0.2l-19.5,5.2l-1.4-0.8l0.7-1.3l1.1-0.3
		c0.9-0.2,1.5-1,1.5-1.9v-9.6c0-0.2,0-0.3-0.1-0.5l16.5-4.4v9.1c0,0.6,0.3,1.2,0.8,1.6c0.3,0.2,0.6,0.3,0.9,0.4l1.6,0.9L495.4,556.2
		z M495.4,540.1l-1,0.3c-0.1,0-0.3,0.1-0.4,0.2l-19.5,5.2l-1.3-0.8l0.7-1.3l1.1-0.3c0.9-0.2,1.5-1,1.5-1.9v-9.6c0-0.2,0-0.3-0.1-0.5
		l16.5-4.4v9.1c0,0.6,0.3,1.2,0.8,1.6c0.3,0.2,0.6,0.3,0.9,0.4l1.6,0.9L495.4,540.1z M500.5,486.9c-4.6,2-7.6,6.5-7.6,11.5v21.5
		c0,0.6,0.3,1.2,0.8,1.6c0.3,0.2,0.6,0.3,0.9,0.4l1.6,0.9l-0.8,1.3l-1,0.3c-0.1,0-0.3,0.1-0.4,0.1l-19.5,5.2l-1.3-0.8l0.7-1.3
		l1.1-0.3c0.9-0.2,1.5-1,1.5-1.9v-26.9c0-5-3-9.5-7.6-11.5l-14-6h59.6L500.5,486.9z"/>
	<path class="st0" d="M389.8,451.3h-63.8c-4,0-7.3,3.3-7.3,7.3v17.7c0,2.9,1.7,5.5,4.4,6.7c0.2,0.1,0.5,0.2,0.8,0.2h19.2v40.6
		l-0.5,0.1c-0.5,0.1-1,0.5-1.2,1l-2,3.8c-0.5,0.9-0.2,2.1,0.7,2.6l3,1.9v6.7l-0.5,0.1c-0.5,0.1-1,0.5-1.2,1l-2,3.8
		c-0.5,0.9-0.2,2.1,0.7,2.6l3,1.9v6.7l-0.5,0.1c-0.5,0.1-1,0.5-1.2,1l-2,3.8c-0.5,0.9-0.2,2.1,0.7,2.6l3,1.9v6.7l-0.5,0.1
		c-0.5,0.1-1,0.5-1.2,1l-2,3.8c-0.5,0.9-0.2,2.1,0.7,2.6l3,1.9v6.7l-0.5,0.1c-0.5,0.1-1,0.5-1.2,1l-2,3.8c-0.5,0.9-0.2,2.1,0.7,2.6
		l3,1.9v6.7l-0.5,0.1c-0.5,0.1-1,0.5-1.2,1l-2,3.8c-0.5,0.9-0.2,2.1,0.7,2.6l3,1.9v6.7l-0.5,0.1c-0.5,0.1-1,0.5-1.2,1l-2,3.8
		c-0.5,0.9-0.2,2.1,0.7,2.6l3,1.9v6.7l-0.5,0.1c-0.5,0.1-1,0.5-1.2,1l-2,3.8c-0.5,0.9-0.2,2.1,0.7,2.6l3,1.9v6.7l-0.5,0.1
		c-0.5,0.1-1,0.5-1.2,1l-2,3.8c-0.5,0.9-0.2,2.1,0.7,2.6l3,1.9v6.7l-0.5,0.1c-0.5,0.1-1,0.5-1.2,1l-2,3.8c-0.5,0.9-0.2,2.1,0.7,2.6
		l3,1.9v6.7l-0.5,0.1c-0.5,0.1-1,0.5-1.2,1l-2,3.8c-0.5,0.9-0.2,2.1,0.7,2.6l3,1.9v6.7l-0.5,0.1c-0.5,0.1-1,0.5-1.2,1l-2,3.8
		c-0.5,0.9-0.2,2.1,0.7,2.6l3,1.9v6.7l-0.5,0.1c-0.5,0.1-1,0.5-1.2,1l-2,3.8c-0.5,0.9-0.2,2.1,0.7,2.6l2.7,1.7v1.8c0,1.1,0.9,2,2,2
		H371c1.1,0,2-0.9,2-2v-7l0.3-0.1c0.5-0.1,0.9-0.5,1.2-0.9l2.2-3.8c0.3-0.5,0.3-1,0.2-1.5c-0.1-0.5-0.5-0.9-0.9-1.2l-3-1.7v-6.8
		l0.3-0.1c0.5-0.1,0.9-0.5,1.2-0.9l2.2-3.8c0.3-0.5,0.3-1,0.2-1.5c-0.1-0.5-0.5-0.9-0.9-1.2l-3-1.7v-6.8l0.3-0.1
		c0.5-0.1,0.9-0.5,1.2-0.9l2.2-3.8c0.3-0.5,0.3-1,0.2-1.5s-0.5-0.9-0.9-1.2l-3-1.7v-6.8l0.3-0.1c0.5-0.1,0.9-0.5,1.2-0.9l2.2-3.8
		c0.3-0.5,0.3-1,0.2-1.5s-0.5-0.9-0.9-1.2l-3-1.7v-6.8l0.3-0.1c0.5-0.1,0.9-0.5,1.2-0.9l2.2-3.8c0.3-0.5,0.3-1,0.2-1.5
		c-0.1-0.5-0.5-0.9-0.9-1.2l-3-1.7v-6.8l0.3-0.1c0.5-0.1,0.9-0.5,1.2-0.9l2.2-3.8c0.3-0.5,0.3-1,0.2-1.5c-0.1-0.5-0.5-0.9-0.9-1.2
		l-3-1.7v-6.8l0.3-0.1c0.5-0.1,0.9-0.5,1.2-0.9l2.2-3.8c0.3-0.5,0.3-1,0.2-1.5c-0.1-0.5-0.5-0.9-0.9-1.2l-3-1.7v-6.8l0.3-0.1
		c0.5-0.1,0.9-0.5,1.2-0.9l2.2-3.8c0.3-0.5,0.3-1,0.2-1.5c-0.1-0.5-0.5-0.9-0.9-1.2l-3-1.7v-6.8l0.3-0.1c0.5-0.1,0.9-0.5,1.2-0.9
		l2.2-3.8c0.3-0.5,0.3-1,0.2-1.5c-0.1-0.5-0.5-0.9-0.9-1.2l-3-1.7V576l0.3-0.1c0.5-0.1,0.9-0.5,1.2-0.9l2.2-3.8
		c0.3-0.5,0.3-1,0.2-1.5s-0.5-0.9-0.9-1.2l-3-1.7v-6.8l0.3-0.1c0.5-0.1,0.9-0.5,1.2-0.9l2.2-3.8c0.3-0.5,0.3-1,0.2-1.5
		s-0.5-0.9-0.9-1.2l-3-1.7v-6.8l0.3-0.1c0.5-0.1,0.9-0.5,1.2-0.9l2.2-3.8c0.3-0.5,0.3-1,0.2-1.5c-0.1-0.5-0.5-0.9-0.9-1.2l-3-1.7
		v-6.8l0.3-0.1c0.5-0.1,0.9-0.5,1.2-0.9l2.2-3.8c0.3-0.5,0.3-1,0.2-1.5c-0.1-0.5-0.5-0.9-0.9-1.2l-3-1.7v-35.3h19
		c0.3,0,0.5-0.1,0.8-0.2c2.7-1.1,4.4-3.8,4.4-6.7v-17.7C397.1,454.6,393.9,451.3,389.8,451.3z M345.7,591.5c0.9-0.2,1.5-1,1.5-1.9
		V580c0-0.1,0-0.2,0-0.4l21.9-4.7v9.2c0,0.6,0.3,1.2,0.8,1.6c0.3,0.2,0.6,0.3,0.9,0.4l1.6,0.9l-0.8,1.3l-1,0.3c0,0,0,0-0.1,0
		l-25.2,5.4l-1.4-0.9l0.7-1.3L345.7,591.5z M345.7,704c0.9-0.2,1.5-1,1.5-1.9v-9.6c0-0.1,0-0.2,0-0.3l21.9-4.7v9.2
		c0,0.6,0.3,1.2,0.8,1.6c0.3,0.2,0.6,0.3,0.9,0.4l1.6,0.9l-0.8,1.3l-1,0.3c-0.1,0-0.2,0.1-0.3,0.1l-24.9,5.3c0,0,0,0-0.1,0l-1.4-0.9
		l0.7-1.3L345.7,704z M324.6,458.7c0.2-0.8,0.8-1.3,1.6-1.3h7.7c0.8,0,1.4,0.5,1.6,1.3c1,4.7,1.9,10.6,2.5,17.1
		c-1.6-1.5-3.9-2.5-6.3-2.5h-3.2c-2.1,0-4.1,0.7-5.7,1.9v-5.5C323.3,465.7,323.9,461.9,324.6,458.7z M323.1,477.8
		c1.3-1.5,3.2-2.4,5.3-2.4h3.2c2.6,0,4.9,1.3,6.1,3.4h-13.9C323.6,478.5,323.3,478.1,323.1,477.8z M340.9,478.8
		C340.9,478.8,340.9,478.7,340.9,478.8c2.2-2.2,5.3-3.4,8.7-3.4h16.8c3.4,0,6.5,1.2,8.6,3.3c0,0,0,0,0.1,0.1H340.9z M392,478.8
		h-13.4c1.2-2.1,3.5-3.4,6.1-3.4h3.2c1.9,0,3.6,0.7,4.9,2C392.8,477.9,392.5,478.4,392,478.8z M391.8,458.7c0.5,2.1,0.9,4.4,1.3,6.9
		v9.3c-1.5-1-3.2-1.5-5.1-1.5h-3.2c-2.4,0-4.7,0.9-6.3,2.5c0.6-6.5,1.5-12.4,2.5-17.2c0.2-0.8,0.8-1.3,1.6-1.3h7.7
		C391,457.4,391.7,458,391.8,458.7z M366.3,473.4h-16.8c-3.5,0-6.8,1.1-9.2,3.2c1.3-7,3.2-13.3,5.6-18.3c0.3-0.5,0.8-0.9,1.5-0.9
		h21.2c0.6,0,1.2,0.4,1.5,0.9c2.3,5,4.2,11.2,5.6,18.3C373.1,474.5,369.9,473.4,366.3,473.4z M326.1,455.3h63.8
		c0.3,0,0.6,0.1,0.9,0.1c-0.2,0-0.3,0-0.5,0h-7.7c-1.7,0-3.2,1.2-3.6,2.9c-0.9,4.1-1.7,8.9-2.2,14.3c-1.3-5.7-3-10.9-5-15.1
		c-0.6-1.2-1.9-2-3.3-2h-21.2c-1.4,0-2.7,0.8-3.3,2c-1.8,3.8-3.4,8.4-4.6,13.4c-0.6-4.7-1.3-9-2.1-12.6c-0.4-1.7-1.8-2.9-3.6-2.9
		h-7.7c-1.4,0-2.6,0.8-3.2,2C323.5,456.2,324.7,455.3,326.1,455.3z M346.8,725.7v-1c0-0.1,0-0.2,0-0.3l22.2-4.7v6.1H346.8z
		 M371.4,716.9l-1,0.3c-0.1,0-0.2,0.1-0.3,0.1l-24.9,5.3l-1.4-0.9l0.7-1.3l1.1-0.3c0.9-0.2,1.5-1,1.5-1.9v-9.6c0-0.1,0-0.2,0-0.3
		l21.9-4.7v9.2c0,0.6,0.3,1.2,0.8,1.6c0.3,0.2,0.6,0.3,0.9,0.4l1.6,0.9L371.4,716.9z M371.4,684.8l-1,0.3c-0.1,0-0.2,0.1-0.3,0.1
		l-24.9,5.3c0,0,0,0,0,0l-1.4-0.9l0.7-1.3l1.1-0.3c0.9-0.2,1.5-1,1.5-1.9v-9.6c0-0.1,0-0.2,0-0.3l21.9-4.7v9.2
		c0,0.6,0.3,1.2,0.8,1.6c0.3,0.2,0.6,0.3,0.9,0.4l1.6,0.9L371.4,684.8z M371.4,668.7l-1,0.3c-0.1,0-0.1,0-0.2,0.1l-25,5.3
		c0,0,0,0,0,0l-1.4-0.9l0.7-1.3l1.1-0.3c0.9-0.2,1.5-1,1.5-1.9v-9.6c0-0.1,0-0.2,0-0.3l21.9-4.7v9.2c0,0.6,0.3,1.2,0.8,1.6
		c0.3,0.2,0.6,0.3,0.9,0.4l1.6,0.9L371.4,668.7z M371.4,652.6l-1,0.3c-0.1,0-0.1,0-0.2,0.1l-25,5.3c0,0,0,0,0,0l-1.4-0.9l0.7-1.3
		l1.1-0.3c0.9-0.2,1.5-1,1.5-1.9v-9.6c0-0.1,0-0.2,0-0.4l21.9-4.7v9.2c0,0.6,0.3,1.2,0.8,1.6c0.3,0.2,0.6,0.3,0.9,0.4l1.6,0.9
		L371.4,652.6z M371.4,636.6l-1,0.3c-0.1,0-0.1,0-0.2,0.1l-25.1,5.4c0,0,0,0,0,0l-1.4-0.9l0.7-1.3l1.1-0.3c0.9-0.2,1.5-1,1.5-1.9
		v-9.6c0-0.1,0-0.2,0-0.4l21.9-4.7v9.2c0,0.6,0.3,1.2,0.8,1.6c0.3,0.2,0.6,0.3,0.9,0.4l1.6,0.9L371.4,636.6z M371.4,620.5l-1,0.3
		c0,0-0.1,0-0.1,0l-25.1,5.4l-1.4-0.9l0.7-1.3l1.1-0.3c0.9-0.2,1.5-1,1.5-1.9v-9.6c0-0.1,0-0.2,0-0.4l21.9-4.7v9.2
		c0,0.6,0.3,1.2,0.8,1.6c0.3,0.2,0.6,0.3,0.9,0.4l1.6,0.9L371.4,620.5z M371.4,604.4l-1,0.3c0,0-0.1,0-0.1,0l-25.1,5.4l-1.4-0.9
		l0.7-1.3l1.1-0.3c0.9-0.2,1.5-1,1.5-1.9V596c0-0.1,0-0.2,0-0.4L369,591v9.2c0,0.6,0.3,1.2,0.8,1.6c0.3,0.2,0.6,0.3,0.9,0.4l1.6,0.9
		L371.4,604.4z M371.4,572.3l-1,0.3c0,0,0,0,0,0l-25.2,5.4l-1.4-0.9l0.7-1.3l1.1-0.3c0.9-0.2,1.5-1,1.5-1.9v-9.6c0-0.1,0-0.3,0-0.4
		l21.9-4.7v9.2c0,0.6,0.3,1.2,0.8,1.6c0.3,0.2,0.6,0.3,0.9,0.4l1.6,0.9L371.4,572.3z M371.4,556.2l-0.9,0.3l-25.3,5.4l-1.4-0.8
		l0.7-1.3l1.1-0.3c0.9-0.2,1.5-1,1.5-1.9v-9.6c0-0.1,0-0.3,0-0.4l21.9-4.7v9.2c0,0.6,0.3,1.2,0.8,1.6c0.3,0.2,0.6,0.3,0.9,0.4
		l1.6,0.9L371.4,556.2z M371.4,540.1l-0.9,0.2l-25.4,5.4l-1.4-0.8l0.7-1.3l1.1-0.3c0.9-0.2,1.5-1,1.5-1.9v-9.6c0-0.1,0-0.3,0-0.4
		l21.9-4.7v9.2c0,0.6,0.3,1.2,0.8,1.6c0.3,0.2,0.6,0.3,0.9,0.4l1.6,0.9L371.4,540.1z M371.4,524.1l-0.9,0.2l0,0l-25.4,5.4l-1.4-0.8
		l0.7-1.3l1.1-0.3c0.9-0.2,1.5-1,1.5-1.9v-44.1c0-0.1,0-0.3,0-0.4H369c0,0.1,0,0.2,0,0.4v38.6c0,0.6,0.3,1.2,0.8,1.6
		c0.3,0.2,0.6,0.3,0.9,0.4l1.6,0.9L371.4,524.1z"/>
	<path class="st0" d="M270.8,456c0-2.6-2.1-4.6-4.6-4.6h-69.1c-2.6,0-4.6,2.1-4.6,4.6v21.2c0,1.1,0.4,2.1,1.1,2.9
		c0.1,0.3,0.3,0.6,0.7,0.7c0.8,0.6,1.8,1.1,2.9,1.1h13.8v34.5c0,1.1,0.9,2,2,2h4v5.4l-0.5,0.1c-0.5,0.1-1,0.5-1.2,1l-2,3.8
		c-0.5,0.9-0.2,2.1,0.7,2.6l3,1.9v6.7l-0.5,0.1c-0.5,0.1-1,0.5-1.2,1l-2,3.8c-0.5,0.9-0.2,2.1,0.7,2.6l3,1.9v6.7l-0.5,0.1
		c-0.5,0.1-1,0.5-1.2,1l-2,3.8c-0.5,0.9-0.2,2.1,0.7,2.6l3,1.9v6.7l-0.5,0.1c-0.5,0.1-1,0.5-1.2,1l-2,3.8c-0.5,0.9-0.2,2.1,0.7,2.6
		l3,1.9v6.7l-0.5,0.1c-0.5,0.1-1,0.5-1.2,1l-2,3.8c-0.5,0.9-0.2,2.1,0.7,2.6l3,1.9v6.7l-0.5,0.1c-0.5,0.1-1,0.5-1.2,1l-2,3.8
		c-0.5,0.9-0.2,2.1,0.7,2.6l3,1.9v6.7l-0.5,0.1c-0.5,0.1-1,0.5-1.2,1l-2,3.8c-0.5,0.9-0.2,2.1,0.7,2.6l3,1.9v6.7l-0.5,0.1
		c-0.5,0.1-1,0.5-1.2,1l-2,3.8c-0.5,0.9-0.2,2.1,0.7,2.6l3,1.9v6.7l-0.5,0.1c-0.5,0.1-1,0.5-1.2,1l-2,3.8c-0.5,0.9-0.2,2.1,0.7,2.6
		l3,1.9v6.7l-0.5,0.1c-0.5,0.1-1,0.5-1.2,1l-2,3.8c-0.5,0.9-0.2,2.1,0.7,2.6l3,1.9v6.7l-0.5,0.1c-0.5,0.1-1,0.5-1.2,1l-2,3.8
		c-0.5,0.9-0.2,2.1,0.7,2.6l3,1.9v6.7l-0.5,0.1c-0.5,0.1-1,0.5-1.2,1l-2,3.8c-0.5,0.9-0.2,2.1,0.7,2.6l3,1.9v6.7l-0.5,0.1
		c-0.5,0.1-1,0.5-1.2,1l-2,3.8c-0.5,0.9-0.2,2.1,0.7,2.6l2.6,1.6l-0.1,3.1c0,0.5,0.2,1.1,0.6,1.4c0.4,0.4,0.9,0.6,1.4,0.6h26.3
		c1.1,0,2-0.9,2-2v-8.3l0.3-0.1c0.5-0.1,0.9-0.5,1.2-0.9l2.2-3.8c0.3-0.5,0.3-1,0.2-1.5c-0.1-0.5-0.5-0.9-0.9-1.2l-3-1.7v-6.8
		l0.3-0.1c0.5-0.1,0.9-0.5,1.2-0.9l2.2-3.8c0.3-0.5,0.3-1,0.2-1.5c-0.1-0.5-0.5-0.9-0.9-1.2l-3-1.7v-6.8l0.3-0.1
		c0.5-0.1,0.9-0.5,1.2-0.9l2.2-3.8c0.6-1,0.2-2.2-0.7-2.7l-3-1.7v-6.8l0.3-0.1c0.5-0.1,0.9-0.5,1.2-0.9l2.2-3.8
		c0.6-1,0.2-2.2-0.7-2.7l-3-1.7v-6.8l0.3-0.1c0.5-0.1,0.9-0.5,1.2-0.9l2.2-3.8c0.3-0.5,0.3-1,0.2-1.5c-0.1-0.5-0.5-0.9-0.9-1.2
		l-3-1.7v-6.8l0.3-0.1c0.5-0.1,0.9-0.5,1.2-0.9l2.2-3.8c0.3-0.5,0.3-1,0.2-1.5c-0.1-0.5-0.5-0.9-0.9-1.2l-3-1.7v-6.8l0.3-0.1
		c0.5-0.1,0.9-0.5,1.2-0.9l2.2-3.8c0.3-0.5,0.3-1,0.2-1.5c-0.1-0.5-0.5-0.9-0.9-1.2l-3-1.7v-6.8l0.3-0.1c0.5-0.1,0.9-0.5,1.2-0.9
		l2.2-3.8c0.3-0.5,0.3-1,0.2-1.5c-0.1-0.5-0.5-0.9-0.9-1.2l-3-1.7v-6.8l0.3-0.1c0.5-0.1,0.9-0.5,1.2-0.9l2.2-3.8
		c0.3-0.5,0.3-1,0.2-1.5c-0.1-0.5-0.5-0.9-0.9-1.2l-3-1.7V576l0.3-0.1c0.5-0.1,0.9-0.5,1.2-0.9l2.2-3.8c0.6-1,0.2-2.2-0.7-2.7
		l-3-1.7v-6.8l0.3-0.1c0.5-0.1,0.9-0.5,1.2-0.9l2.2-3.8c0.6-1,0.2-2.2-0.7-2.7l-3-1.7v-6.8l0.3-0.1c0.5-0.1,0.9-0.5,1.2-0.9l2.2-3.8
		c0.3-0.5,0.3-1,0.2-1.5c-0.1-0.5-0.5-0.9-0.9-1.2l-3-1.7v-6.8l0.3-0.1c0.5-0.1,0.9-0.5,1.2-0.9l2.2-3.8c0.3-0.5,0.3-1,0.2-1.5
		c-0.1-0.5-0.5-0.9-0.9-1.2l-3-1.7v-0.2h3.7c1.1,0,2-0.9,2-2v-34.5h13.8c1.1,0,2.1-0.4,2.9-1.1c0.2-0.1,0.4-0.3,0.5-0.5
		c0.7-0.8,1.2-1.9,1.2-3.1V456z M248.6,478.8h-34c-0.2-0.3-0.4-0.5-0.7-0.7v-19.7c11.5-3.6,24-3.6,35.5,0v19.7
		C249,478.3,248.8,478.5,248.6,478.8z M266.8,477.2c0,0.3-0.3,0.6-0.6,0.6h-14.8v-19.6c5-3.1,10.4-3.3,15.5-0.5V477.2z M250.2,456.6
		c-1.5-0.5-3-0.9-4.5-1.2h6.8C251.7,455.7,250.9,456.1,250.2,456.6z M213,456.6c-0.8-0.5-1.5-0.9-2.3-1.2h6.8
		C216,455.7,214.5,456.1,213,456.6z M197.1,477.8c-0.3,0-0.6-0.3-0.6-0.6v-19.5c5-2.7,10.4-2.5,15.4,0.6v19.6H197.1z M220.4,726.9
		l0.1-2.2c0-0.1,0-0.3,0-0.4l22.2-4.7v7.3H220.4z M245.1,716.9l-1,0.3c-0.1,0-0.2,0.1-0.3,0.1l-24.9,5.3l-1.4-0.9l0.7-1.3l1.1-0.3
		c0.9-0.2,1.5-1,1.5-1.9v-9.6c0-0.1,0-0.2,0-0.3l21.9-4.7v9.2c0,0.6,0.3,1.2,0.8,1.6c0.3,0.2,0.6,0.3,0.9,0.4l1.6,0.9L245.1,716.9z
		 M219.3,704c0.9-0.2,1.5-1,1.5-1.9v-9.6c0-0.1,0-0.2,0-0.3l21.9-4.7v9.2c0,0.6,0.3,1.2,0.8,1.6c0.3,0.2,0.6,0.3,0.9,0.4l1.6,0.9
		l-0.8,1.3l-1,0.3c-0.1,0-0.2,0.1-0.3,0.1l-24.9,5.3c0,0,0,0-0.1,0l-1.4-0.9l0.7-1.3L219.3,704z M245.1,684.8l-1,0.3
		c-0.1,0-0.2,0.1-0.3,0.1l-24.9,5.3c0,0,0,0,0,0l-1.4-0.9l0.7-1.3l1.1-0.3c0.9-0.2,1.5-1,1.5-1.9v-9.6c0-0.1,0-0.2,0-0.3l21.9-4.7
		v9.2c0,0.6,0.3,1.2,0.8,1.6c0.3,0.2,0.6,0.3,0.9,0.4l1.6,0.9L245.1,684.8z M245.1,668.7l-1,0.3c-0.1,0-0.1,0-0.2,0.1l-25,5.3
		c0,0,0,0,0,0l-1.4-0.9l0.7-1.3l1.1-0.3c0.9-0.2,1.5-1,1.5-1.9v-9.6c0-0.1,0-0.2,0-0.3l21.9-4.7v9.2c0,0.6,0.3,1.2,0.8,1.6
		c0.3,0.2,0.6,0.3,0.9,0.4l1.6,0.9L245.1,668.7z M245.1,652.6l-1,0.3c-0.1,0-0.1,0-0.2,0.1l-25,5.3c0,0,0,0,0,0l-1.4-0.9l0.7-1.3
		l1.1-0.3c0.9-0.2,1.5-1,1.5-1.9v-9.6c0-0.1,0-0.2,0-0.4l21.9-4.7v9.2c0,0.6,0.3,1.2,0.8,1.6c0.3,0.2,0.6,0.3,0.9,0.4l1.6,0.9
		L245.1,652.6z M245.1,636.6l-1,0.3c-0.1,0-0.1,0-0.2,0.1l-25.1,5.4c0,0,0,0,0,0l-1.4-0.9l0.7-1.3l1.1-0.3c0.9-0.2,1.5-1,1.5-1.9
		v-9.6c0-0.1,0-0.2,0-0.4l21.9-4.7v9.2c0,0.6,0.3,1.2,0.8,1.6c0.3,0.2,0.6,0.3,0.9,0.4l1.6,0.9L245.1,636.6z M245.1,620.5l-1,0.3
		c0,0-0.1,0-0.1,0l-25.1,5.4l-1.4-0.9l0.7-1.3l1.1-0.3c0.9-0.2,1.5-1,1.5-1.9v-9.6c0-0.1,0-0.2,0-0.4l21.9-4.7v9.2
		c0,0.6,0.3,1.2,0.8,1.6c0.3,0.2,0.6,0.3,0.9,0.4l1.6,0.9L245.1,620.5z M245.1,604.4l-1,0.3c0,0-0.1,0-0.1,0l-25.1,5.4l-1.4-0.9
		l0.7-1.3l1.1-0.3c0.9-0.2,1.5-1,1.5-1.9V596c0-0.1,0-0.2,0-0.4l21.9-4.7v9.2c0,0.6,0.3,1.2,0.8,1.6c0.3,0.2,0.6,0.3,0.9,0.4
		l1.6,0.9L245.1,604.4z M219.3,591.5c0.9-0.2,1.5-1,1.5-1.9V580c0-0.1,0-0.2,0-0.4l21.9-4.7v9.2c0,0.6,0.3,1.2,0.8,1.6
		c0.3,0.2,0.6,0.3,0.9,0.4l1.6,0.9l-0.8,1.3l-1,0.3c0,0,0,0-0.1,0l-25.2,5.4l-1.4-0.9l0.7-1.3L219.3,591.5z M245.1,572.3l-1,0.3
		c0,0,0,0,0,0l-25.2,5.4l-1.4-0.9l0.7-1.3l1.1-0.3c0.9-0.2,1.5-1,1.5-1.9v-9.6c0-0.1,0-0.3,0-0.4l21.9-4.7v9.2
		c0,0.6,0.3,1.2,0.8,1.6c0.3,0.2,0.6,0.3,0.9,0.4l1.6,0.9L245.1,572.3z M245.1,556.2l-0.9,0.3l-25.3,5.4l-1.4-0.8l0.7-1.3l1.1-0.3
		c0.9-0.2,1.5-1,1.5-1.9v-9.6c0-0.1,0-0.3,0-0.4l21.9-4.7v9.2c0,0.6,0.3,1.2,0.8,1.6c0.3,0.2,0.6,0.3,0.9,0.4l1.6,0.9L245.1,556.2z
		 M245.1,540.1l-0.9,0.2l-25.4,5.4l-1.4-0.8l0.7-1.3l1.1-0.3c0.9-0.2,1.5-1,1.5-1.9v-9.6c0-0.1,0-0.3,0-0.4l21.9-4.7v9.2
		c0,0.6,0.3,1.2,0.8,1.6c0.3,0.2,0.6,0.3,0.9,0.4l1.6,0.9L245.1,540.1z M244.6,514.4c-1.1,0-2,0.9-2,2v3.5c0,0.6,0.3,1.2,0.8,1.6
		c0.3,0.2,0.6,0.3,0.9,0.4l1.6,0.9l-0.8,1.3l-0.9,0.2l0,0l-25.4,5.4l-1.4-0.8l0.7-1.3l1.1-0.3c0.9-0.2,1.5-1,1.5-1.9v-8.9
		c0-1.1-0.9-2-2-2h-4v-33.5h33.5v33.5H244.6z"/>
	<path class="st0" d="M903.6,218.1c0-2.6-2.1-4.6-4.6-4.6h-69.1c-2.6,0-4.6,2.1-4.6,4.6v21.2c0,1.1,0.4,2.2,1.1,3
		c0.1,0.3,0.3,0.5,0.6,0.6c0.8,0.7,1.8,1.1,2.9,1.1h13.8v34.5c0,1.1,0.9,2,2,2h4v5.4l-0.5,0.1c-0.5,0.1-1,0.5-1.2,1l-2,3.8
		c-0.5,0.9-0.2,2.1,0.7,2.6l3,1.9v6.7l-0.5,0.1c-0.5,0.1-1,0.5-1.2,1l-2,3.8c-0.5,0.9-0.2,2.1,0.7,2.6l3,1.9v6.7l-0.5,0.1
		c-0.5,0.1-1,0.5-1.2,1l-2,3.8c-0.5,0.9-0.2,2.1,0.7,2.6l3,1.9v6.7l-0.5,0.1c-0.5,0.1-1,0.5-1.2,1l-2,3.8c-0.5,0.9-0.2,2.1,0.7,2.6
		l3,1.9v6.7l-0.5,0.1c-0.5,0.1-1,0.5-1.2,1l-2,3.8c-0.5,0.9-0.2,2.1,0.7,2.6l3,1.9v2.8c0,1.1,0.9,2,2,2h25.8c1.1,0,2-0.9,2-2v-8.1
		l0.3-0.1c0.5-0.1,0.9-0.5,1.2-0.9l2.2-3.8c0.3-0.5,0.3-1,0.2-1.5c-0.1-0.5-0.5-0.9-0.9-1.2l-3-1.7v-6.8l0.3-0.1
		c0.5-0.1,0.9-0.5,1.2-0.9l2.2-3.8c0.6-1,0.2-2.2-0.7-2.7l-3-1.7v-6.8l0.3-0.1c0.5-0.1,0.9-0.5,1.2-0.9l2.2-3.8
		c0.6-1,0.2-2.2-0.7-2.7l-3-1.7V306l0.3-0.1c0.5-0.1,0.9-0.5,1.2-0.9l2.2-3.8c0.6-1,0.2-2.2-0.7-2.7l-3-1.7v-6.8l0.3-0.1
		c0.5-0.1,0.9-0.5,1.2-0.9l2.2-3.8c0.6-1,0.2-2.2-0.7-2.7l-3-1.7v-0.2h3.7c1.1,0,2-0.9,2-2V244h13.8c1.1,0,2.1-0.4,2.9-1.1
		c0.3-0.1,0.5-0.3,0.6-0.6c0.7-0.8,1.1-1.8,1.1-3V218.1z M847.3,241c-0.2-0.3-0.4-0.5-0.7-0.7v-19.7c11.5-3.6,24-3.6,35.5,0v19.7
		c-0.3,0.2-0.6,0.4-0.8,0.7H847.3z M883,218.7c-1.5-0.5-3-0.9-4.5-1.2h6.8C884.5,217.8,883.7,218.3,883,218.7z M829.9,240
		c-0.3,0-0.6-0.3-0.6-0.6v-19.5c5.1-2.8,10.4-2.6,15.4,0.6V240H829.9z M845.8,218.7c-0.8-0.5-1.5-0.9-2.3-1.2h6.8
		C848.8,217.8,847.3,218.3,845.8,218.7z M884.1,220.4c5-3.1,10.4-3.3,15.4-0.6v19.5c0,0.3-0.3,0.6-0.6,0.6h-14.8V220.4z
		 M853.6,360.3v-2.2c0-0.1,0-0.2,0-0.4l21.9-4.7v7.2H853.6z M877.9,350.5l-1,0.3c0,0,0,0-0.1,0l-25.2,5.4l-1.4-0.9l0.7-1.3l1.1-0.3
		c0.9-0.2,1.5-1,1.5-1.9v-9.6c0-0.1,0-0.2,0-0.4l21.9-4.7v9.2c0,0.6,0.3,1.2,0.8,1.6c0.3,0.2,0.6,0.3,0.9,0.4l1.6,0.9L877.9,350.5z
		 M877.9,334.4l-1,0.3c0,0,0,0,0,0l-25.2,5.4l-1.4-0.9l0.7-1.3l1.1-0.3c0.9-0.2,1.5-1,1.5-1.9V326c0-0.1,0-0.3,0-0.4l21.9-4.7v9.2
		c0,0.6,0.3,1.2,0.8,1.6c0.3,0.2,0.6,0.3,0.9,0.4l1.6,0.9L877.9,334.4z M877.9,318.4l-0.9,0.3l-25.3,5.4l-1.4-0.8l0.7-1.3l1.1-0.3
		c0.9-0.2,1.5-1,1.5-1.9V310c0-0.1,0-0.3,0-0.4l21.9-4.7v9.2c0,0.6,0.3,1.2,0.8,1.6c0.3,0.2,0.6,0.3,0.9,0.4l1.6,0.9L877.9,318.4z
		 M877.9,302.3l-0.9,0.2l-25.3,5.4l-1.4-0.8l0.7-1.3l1.1-0.3c0.9-0.2,1.5-1,1.5-1.9v-9.6c0-0.1,0-0.3,0-0.4l21.9-4.7v9.2
		c0,0.6,0.3,1.2,0.8,1.6c0.3,0.2,0.6,0.3,0.9,0.4l1.6,0.9L877.9,302.3z M877.4,276.5c-1.1,0-2,0.9-2,2v3.5c0,0.6,0.3,1.2,0.8,1.6
		c0.3,0.2,0.6,0.3,0.9,0.4l1.6,0.9l-0.8,1.3l-0.9,0.2l0,0l-25.4,5.4l-1.4-0.8l0.7-1.3l1.1-0.3c0.9-0.2,1.5-1,1.5-1.9v-8.9
		c0-1.1-0.9-2-2-2h-4V243h33.5v33.5H877.4z"/>
	<path class="st0" d="M772.4,213.5h-69.1c-2.6,0-4.6,2.1-4.6,4.6v21.2c0,1.5,0.7,2.8,1.8,3.6v0h0c0.8,0.6,1.8,1,2.8,1h13.8v34.5
		c0,1.1,0.9,2,2,2h4v5.4l-0.5,0.1c-0.5,0.1-1,0.5-1.2,1l-2,3.8c-0.5,0.9-0.2,2.1,0.7,2.6l3,1.9v6.7l-0.5,0.1c-0.5,0.1-1,0.5-1.2,1
		l-2,3.8c-0.5,0.9-0.2,2.1,0.7,2.6l3,1.9v6.7l-0.5,0.1c-0.5,0.1-1,0.5-1.2,1l-2,3.8c-0.5,0.9-0.2,2.1,0.7,2.6l3,1.9v6.7l-0.5,0.1
		c-0.5,0.1-1,0.5-1.2,1l-2,3.8c-0.5,0.9-0.2,2.1,0.7,2.6l3,1.9v6.7l-0.5,0.1c-0.5,0.1-1,0.5-1.2,1l-2,3.8c-0.5,0.9-0.2,2.1,0.7,2.6
		l3,1.9v2.8c0,1.1,0.9,2,2,2h25.8c1.1,0,2-0.9,2-2v-8.1l0.3-0.1c0.5-0.1,0.9-0.5,1.2-0.9l2.2-3.8c0.3-0.5,0.3-1,0.2-1.5
		c-0.1-0.5-0.5-0.9-0.9-1.2l-3-1.7v-6.8l0.3-0.1c0.5-0.1,0.9-0.5,1.2-0.9l2.2-3.8c0.3-0.5,0.3-1,0.2-1.5c-0.1-0.5-0.5-0.9-0.9-1.2
		l-3-1.7v-6.8l0.3-0.1c0.5-0.1,0.9-0.5,1.2-0.9l2.2-3.8c0.3-0.5,0.3-1,0.2-1.5c-0.1-0.5-0.5-0.9-0.9-1.2l-3-1.7V306l0.3-0.1
		c0.5-0.1,0.9-0.5,1.2-0.9l2.2-3.8c0.3-0.5,0.3-1,0.2-1.5c-0.1-0.5-0.5-0.9-0.9-1.2l-3-1.7v-6.8l0.3-0.1c0.5-0.1,0.9-0.5,1.2-0.9
		l2.2-3.8c0.3-0.5,0.3-1,0.2-1.5c-0.1-0.5-0.5-0.9-0.9-1.2l-3-1.7v-0.2h3.7c1.1,0,2-0.9,2-2V244h13.8c2.6,0,4.6-2.1,4.6-4.6v-21.2
		C777,215.6,774.9,213.5,772.4,213.5z M720.7,240.8c2.1-2.1,5.2-3.3,8.6-3.3H746c3.4,0,6.5,1.2,8.6,3.3c0,0,0,0,0.1,0.1h-33.9
		C720.7,240.9,720.7,240.8,720.7,240.8z M703.3,240c-0.2,0-0.3-0.1-0.4-0.2c1.3-1.4,3.2-2.3,5.2-2.3h3.2c2.2,0,4.1,0.9,5.4,2.4
		H703.3z M772.4,240h-13.3c1.3-1.5,3.3-2.4,5.4-2.4h3.2c2,0,3.8,0.8,5.1,2.2C772.7,239.9,772.6,240,772.4,240z M773,237.2
		c-1.5-1.1-3.4-1.7-5.3-1.7h-3.2c-2.4,0-4.7,0.9-6.3,2.5c0.6-6.5,1.5-12.4,2.5-17.2c0.2-0.8,0.8-1.3,1.6-1.3h7.7
		c0.8,0,1.4,0.5,1.6,1.3c0.5,2.5,1,5.3,1.5,8.3V237.2z M746,235.5h-16.8c-3.5,0-6.8,1.1-9.2,3.2c1.3-7,3.2-13.3,5.6-18.3
		c0.3-0.5,0.8-0.9,1.5-0.9h21.2c0.6,0,1.2,0.4,1.5,0.9c2.3,5,4.2,11.2,5.6,18.3C752.8,236.7,749.6,235.5,746,235.5z M711.4,235.5
		h-3.2c-2,0-3.9,0.7-5.5,1.8v-7c0.5-3.5,1-6.7,1.6-9.5c0.2-0.8,0.8-1.3,1.6-1.3h7.7c0.8,0,1.4,0.5,1.6,1.3c1,4.7,1.9,10.6,2.5,17.1
		C716.1,236.5,713.8,235.5,711.4,235.5z M703.3,217.5h69.1c0.3,0,0.6,0.3,0.6,0.6v1.2c-0.6-1-1.8-1.7-3.1-1.7h-7.7
		c-1.7,0-3.2,1.2-3.6,2.9c-0.9,4.1-1.7,8.9-2.2,14.3c-1.3-5.7-3-10.9-5-15.1c-0.6-1.2-1.9-2-3.3-2H727c-1.4,0-2.7,0.8-3.3,2
		c-1.8,3.8-3.4,8.4-4.6,13.4c-0.6-4.7-1.3-9-2.1-12.6c-0.4-1.7-1.8-2.9-3.6-2.9h-7.7c-1.4,0-2.6,0.8-3.2,2v-1.5
		C702.7,217.8,703,217.5,703.3,217.5z M727,360.3v-2.2c0-0.1,0-0.2,0-0.4l21.9-4.7v7.2H727z M751.3,350.5l-1,0.3c0,0,0,0-0.1,0
		l-25.2,5.4l-1.4-0.9l0.7-1.3l1.1-0.3c0.9-0.2,1.5-1,1.5-1.9v-9.6c0-0.1,0-0.2,0-0.4l21.9-4.7v9.2c0,0.6,0.3,1.2,0.8,1.6
		c0.3,0.2,0.6,0.3,0.9,0.4l1.6,0.9L751.3,350.5z M751.3,334.4l-1,0.3c0,0,0,0,0,0l-25.2,5.4l-1.4-0.9l0.7-1.3l1.1-0.3
		c0.9-0.2,1.5-1,1.5-1.9V326c0-0.1,0-0.3,0-0.4l21.9-4.7v9.2c0,0.6,0.3,1.2,0.8,1.6c0.3,0.2,0.6,0.3,0.9,0.4l1.6,0.9L751.3,334.4z
		 M751.3,318.4l-0.9,0.3l-25.3,5.4l-1.4-0.8l0.7-1.3l1.1-0.3c0.9-0.2,1.5-1,1.5-1.9V310c0-0.1,0-0.3,0-0.4l21.9-4.7v9.2
		c0,0.6,0.3,1.2,0.8,1.6c0.3,0.2,0.6,0.3,0.9,0.4l1.6,0.9L751.3,318.4z M751.3,302.3l-0.9,0.2l-25.4,5.4l-1.4-0.8l0.7-1.3l1.1-0.3
		c0.9-0.2,1.5-1,1.5-1.9v-9.6c0-0.1,0-0.3,0-0.4l21.9-4.7v9.2c0,0.6,0.3,1.2,0.8,1.6c0.3,0.2,0.6,0.3,0.9,0.4l1.6,0.9L751.3,302.3z
		 M750.8,276.5c-1.1,0-2,0.9-2,2v3.5c0,0.6,0.3,1.2,0.8,1.6c0.3,0.2,0.6,0.3,0.9,0.4l1.6,0.9l-0.8,1.3l-0.9,0.2l0,0l-25.4,5.4
		l-1.4-0.8l0.7-1.3l1.1-0.3c0.9-0.2,1.5-1,1.5-1.9v-8.9c0-1.1-0.9-2-2-2h-4V243h33.5v33.5H750.8z"/>
	<path class="st0" d="M645.8,213.5h-29.4c-1.1,0-2,0.9-2,2v15.6h-6.2v-15.6c0-1.1-0.9-2-2-2h-29.4c-2.6,0-4.6,2.1-4.6,4.6v21.2
		c0,2.6,2.1,4.6,4.6,4.6h13.8v34.5c0,1.1,0.9,2,2,2h4v5.4l-0.5,0.1c-0.5,0.1-1,0.5-1.2,1l-2,3.8c-0.5,0.9-0.2,2.1,0.7,2.6l3,1.9v6.7
		l-0.5,0.1c-0.5,0.1-1,0.5-1.2,1l-2,3.8c-0.5,0.9-0.2,2.1,0.7,2.6l3,1.9v6.7l-0.5,0.1c-0.5,0.1-1,0.5-1.2,1l-2,3.8
		c-0.5,0.9-0.2,2.1,0.7,2.6l3,1.9v6.7l-0.5,0.1c-0.5,0.1-1,0.5-1.2,1l-2,3.8c-0.5,0.9-0.2,2.1,0.7,2.6l3,1.9v6.7l-0.5,0.1
		c-0.5,0.1-1,0.5-1.2,1l-2,3.8c-0.5,0.9-0.2,2.1,0.7,2.6l3,1.9v2.7c0,1.1,0.9,2,2,2h25.8c1.1,0,2-0.9,2-2v-8.1l0.3-0.1
		c0.5-0.1,0.9-0.5,1.2-0.9l2.2-3.8c0.3-0.5,0.3-1,0.2-1.5c-0.1-0.5-0.5-0.9-0.9-1.2l-3-1.7v-6.8l0.3-0.1c0.5-0.1,0.9-0.5,1.2-0.9
		l2.2-3.8c0.6-1,0.2-2.2-0.7-2.7l-3-1.7v-6.8l0.3-0.1c0.5-0.1,0.9-0.5,1.2-0.9l2.2-3.8c0.3-0.5,0.3-1,0.2-1.5
		c-0.1-0.5-0.5-0.9-0.9-1.2l-3-1.7V306l0.3-0.1c0.5-0.1,0.9-0.5,1.2-0.9l2.2-3.8c0.3-0.5,0.3-1,0.2-1.5c-0.1-0.5-0.5-0.9-0.9-1.2
		l-3-1.7v-6.8l0.3-0.1c0.5-0.1,0.9-0.5,1.2-0.9l2.2-3.8c0.3-0.5,0.3-1,0.2-1.5c-0.1-0.5-0.5-0.9-0.9-1.2l-3-1.7v-0.2h3.7
		c1.1,0,2-0.9,2-2V244h13.8c2.6,0,4.6-2.1,4.6-4.6v-21.2C650.4,215.6,648.4,213.5,645.8,213.5z M600.5,360.3v-2.2c0-0.1,0-0.2,0-0.4
		l21.9-4.7v7.2H600.5z M624.7,350.5l-1,0.3c0,0,0,0-0.1,0l-25.2,5.4l-1.4-0.9l0.7-1.3l1.1-0.3c0.9-0.2,1.5-1,1.5-1.9v-9.6
		c0-0.1,0-0.2,0-0.4l21.9-4.7v9.2c0,0.6,0.3,1.2,0.8,1.6c0.3,0.2,0.6,0.3,0.9,0.4l1.6,0.9L624.7,350.5z M624.7,334.4l-1,0.3
		c0,0,0,0,0,0l-25.2,5.4l-1.4-0.9l0.7-1.3l1.1-0.3c0.9-0.2,1.5-1,1.5-1.9V326c0-0.1,0-0.3,0-0.4l21.9-4.7v9.2c0,0.6,0.3,1.2,0.8,1.6
		c0.3,0.2,0.6,0.3,0.9,0.4l1.6,0.9L624.7,334.4z M624.7,318.4l-1,0.3l-25.3,5.4l-1.4-0.8l0.7-1.3l1.1-0.3c0.9-0.2,1.5-1,1.5-1.9V310
		c0-0.1,0-0.3,0-0.4l21.9-4.7v9.2c0,0.6,0.3,1.2,0.8,1.6c0.3,0.2,0.6,0.3,0.9,0.4l1.6,0.9L624.7,318.4z M624.7,302.3l-0.9,0.2
		l-25.3,5.4l-1.4-0.8l0.7-1.3l1.1-0.3c0.9-0.2,1.5-1,1.5-1.9v-9.6c0-0.1,0-0.3,0-0.4l21.9-4.7v9.2c0,0.6,0.3,1.2,0.8,1.6
		c0.3,0.2,0.6,0.3,0.9,0.4l1.6,0.9L624.7,302.3z M624.3,276.5c-1.1,0-2,0.9-2,2v3.5c0,0.6,0.3,1.2,0.8,1.6c0.3,0.2,0.6,0.3,0.9,0.4
		l1.6,0.9l-0.8,1.3l-0.9,0.2l0,0l-25.4,5.4l-1.4-0.8l0.7-1.3l1.1-0.3c0.9-0.2,1.5-1,1.5-1.9v-8.9c0-1.1-0.9-2-2-2h-4V243H628v33.5
		H624.3z M646.4,239.3c0,0.3-0.3,0.6-0.6,0.6H630c-0.7,0-1.4,0.4-1.7,1h-34c-0.3-0.6-1-1-1.7-1h-15.8c-0.3,0-0.6-0.3-0.6-0.6v-21.2
		c0-0.3,0.3-0.6,0.6-0.6h27.4v15.6c0,1.1,0.9,2,2,2h10.2c1.1,0,2-0.9,2-2v-15.6h27.4c0.3,0,0.6,0.3,0.6,0.6V239.3z"/>
</g>
</svg>
